<svg width="100" height="100" viewBox="0 0 100 100" fill="none" xmlns="http://www.w3.org/2000/svg">
<path d="M82.7036 37.3146C82.7036 37.3146 81.9251 50.3114 93.0622 53.0263C93.0622 53.0263 88.9646 50.5835 87.9496 46.3577C87.9496 46.3577 89.4952 48.8509 95.9999 49.9237C95.9999 49.9237 86.9893 45.119 85.5247 35.624L82.7036 37.3146Z" fill="#231F20"/>
<path d="M86.8288 36.9462C83.9594 39.5171 79.1347 37.1563 76.5101 32.8485C72.61 26.4468 68.9579 23.4534 61.3426 20.4905C50.5795 16.2994 57.0359 -6.01165 75.6538 4.72097C84.9166 10.0605 80.8368 18.4974 84.4154 21.6368C90.9747 27.3913 90.2991 33.8362 86.8288 36.9462Z" fill="#3C77AF"/>
<path style="mix-blend-mode:overlay" opacity="0.5" d="M85.1757 35.5988C82.693 37.8231 78.0238 34.857 75.7533 31.1292C72.3785 25.5901 69.2181 23.0002 62.6293 20.4418C53.3162 16.8128 58.9026 -2.49228 75.0126 6.79462C83.0271 11.4176 79.9602 20.7686 83.0565 23.4867C88.7322 28.4647 88.1775 32.908 85.1757 35.5988Z" fill="url(#paint0_linear)"/>
<path d="M87.2046 37.4034L86.9672 37.5946C86.9325 37.6251 86.8705 37.666 86.8096 37.7091L86.5994 37.8488C86.5248 37.8961 86.445 37.9382 86.3588 37.9875C86.3157 38.0107 86.2727 38.0369 86.2254 38.0611L86.0783 38.1294C85.5811 38.3592 85.0479 38.5014 84.5023 38.5496C84.4217 38.5588 84.3407 38.5637 84.2596 38.5644C84.1776 38.5644 84.0946 38.5717 84.0095 38.5717C83.8414 38.5644 83.666 38.5654 83.4842 38.5423C83.1094 38.5063 82.7387 38.436 82.3768 38.3322C80.8564 37.9024 79.2342 36.878 77.8042 35.3346C77.4364 34.9359 77.0935 34.5148 76.7777 34.0738C76.6958 33.9614 76.6138 33.8468 76.535 33.7292C76.4562 33.6115 76.3743 33.4959 76.2997 33.373L75.851 32.6543C75.6997 32.4137 75.5474 32.1689 75.3919 31.9189C75.2364 31.6688 75.0693 31.4397 74.9044 31.1949L74.6564 30.8283C74.5682 30.7074 74.4799 30.5866 74.3917 30.4637L74.1227 30.097C74.0323 29.9741 73.9441 29.849 73.8464 29.7303C73.0701 28.72 72.2165 27.7715 71.2932 26.8935C70.3056 25.9564 69.232 25.1142 68.0866 24.3782C66.8673 23.6038 65.5933 22.919 64.2747 22.3294L63.7683 22.0961L63.2503 21.8776C62.9036 21.7336 62.56 21.5792 62.1997 21.4457L61.1332 21.0255L60.8474 20.9078C60.7571 20.87 60.6709 20.8374 60.5764 20.7943L60.3053 20.6514C60.2097 20.6042 60.1088 20.559 60.0206 20.5054C59.2766 20.0966 58.5978 19.5793 58.0064 18.9704C57.4119 18.3462 56.912 17.6382 56.5229 16.869C56.1361 16.0944 55.8515 15.273 55.676 14.4251C55.5036 13.5724 55.4299 12.7027 55.4564 11.8331C55.4869 10.9589 55.612 10.0905 55.8294 9.24323C56.0521 8.38904 56.3693 7.56232 56.775 6.77835C57.1834 5.98474 57.6868 5.24381 58.2743 4.57194C58.4172 4.39963 58.578 4.24308 58.7314 4.08022C58.8848 3.91737 59.056 3.76502 59.221 3.61688C59.5593 3.31945 59.9166 3.04429 60.2906 2.79315C61.0394 2.28823 61.8521 1.8851 62.7071 1.59433C63.5581 1.30969 64.4398 1.12665 65.3338 1.04903C66.2136 0.974151 67.0986 0.98506 67.9762 1.0816C68.8379 1.17939 69.6903 1.34628 70.5252 1.58067C70.7353 1.64056 70.9455 1.68574 71.1419 1.75929L71.7503 1.95787C71.9509 2.02721 72.1485 2.10391 72.3481 2.17746L72.6454 2.28883L72.9375 2.41071C73.7213 2.72591 74.4684 3.09679 75.2059 3.47399L75.7491 3.77238L76.0192 3.92157L76.0874 3.95835L76.1725 4.00983L76.2997 4.08863L76.8093 4.40383L76.9364 4.48158L77.0688 4.57194L77.3335 4.75581L77.5973 4.93862C77.6855 5.00061 77.7748 5.0605 77.8547 5.12669L78.3474 5.51544C78.5145 5.64047 78.6626 5.78862 78.8223 5.92521C78.9821 6.06179 79.1375 6.19838 79.2804 6.35283C80.4632 7.50715 81.3984 8.89028 82.029 10.4179C82.3305 11.146 82.5729 11.8972 82.754 12.6642C82.9347 13.4134 83.0566 14.1562 83.1606 14.879C83.2646 15.6019 83.3434 16.3069 83.4348 16.9804C83.5126 17.628 83.6287 18.2703 83.7826 18.9042C83.9121 19.4626 84.1344 19.9953 84.4403 20.4802C84.475 20.5354 84.5136 20.5881 84.5559 20.6378L84.6746 20.7912C84.7166 20.8395 84.765 20.8815 84.808 20.9278L84.8753 20.9961L84.9078 21.0297L84.9247 21.0465C84.9247 21.0465 84.9572 21.078 84.9551 21.0759L85.3029 21.4006C85.4185 21.5056 85.5319 21.6107 85.6496 21.7326C85.8818 21.9669 86.1182 22.1959 86.3284 22.4334L86.6436 22.7843L86.9472 23.1447C87.1573 23.379 87.3328 23.6322 87.5209 23.8717C87.6133 23.9936 87.6974 24.1208 87.7846 24.2437C87.8718 24.3666 87.9611 24.4874 88.0388 24.6167C88.6691 25.5675 89.1711 26.5973 89.5319 27.6794C89.6976 28.1764 89.8268 28.6849 89.9185 29.2008C89.9563 29.4508 89.9994 29.6967 90.0236 29.9415C90.0341 30.0634 90.0519 30.1831 90.0551 30.3029C90.0582 30.4227 90.0656 30.5425 90.0709 30.6601C90.0946 31.5271 89.9952 32.3931 89.7756 33.2322C89.5982 33.9101 89.3374 34.5633 88.9992 35.177C88.7486 35.6296 88.4567 36.058 88.1271 36.4567L87.9338 36.6837C87.8739 36.754 87.8119 36.8139 87.7573 36.8738C87.6522 36.9904 87.5534 37.084 87.4725 37.1596L87.2309 37.3855L87.2046 37.4034ZM86.4334 36.5061L86.6352 36.3096C86.7045 36.2466 86.7812 36.1615 86.8737 36.0596C86.9199 36.0091 86.9724 35.9545 87.0218 35.8946C87.0712 35.8347 87.1269 35.7685 87.1826 35.6981C87.8311 34.8822 88.2927 33.9339 88.5348 32.9201C88.7091 32.1984 88.7799 31.4554 88.7449 30.7137C88.7386 30.6087 88.7323 30.5099 88.726 30.4059C88.7197 30.3019 88.7029 30.1957 88.6924 30.0907C88.6724 29.8805 88.6293 29.6704 88.5926 29.4498C88.5034 29.0003 88.3819 28.5579 88.229 28.1259C87.8855 27.1682 87.4167 26.2603 86.8348 25.4257C86.7633 25.3112 86.6772 25.2051 86.5984 25.0937C86.5196 24.9823 86.4376 24.8699 86.3504 24.7617C86.1739 24.5463 86.0058 24.3204 85.8125 24.1092L85.5277 23.7856L85.2262 23.4704C85.0266 23.2529 84.8133 23.0575 84.6031 22.8526C84.4981 22.7475 84.3794 22.6425 84.2627 22.5374L83.9076 22.2222L83.7122 22.0352C83.6439 21.9669 83.5714 21.9017 83.502 21.825L83.3171 21.6012C83.2535 21.5283 83.1946 21.4515 83.1406 21.3711C82.7213 20.745 82.4121 20.0517 82.2265 19.3213C82.0446 18.6277 81.9043 17.9239 81.8063 17.2136C81.7012 16.5139 81.6108 15.8173 81.5005 15.1249C81.2904 13.7412 80.9752 12.3711 80.4309 11.084C79.8771 9.77287 79.0665 8.58578 78.047 7.59262C77.924 7.45919 77.7811 7.34361 77.6466 7.21963C77.5122 7.09566 77.3798 6.96957 77.2264 6.86031L76.7903 6.51568C76.7189 6.4558 76.6433 6.41062 76.5687 6.35388L76.3449 6.19838L76.1316 6.04708L76.0192 5.96828L75.892 5.89053L75.3824 5.57533L75.2543 5.49758L75.2217 5.47762C75.2217 5.47762 75.1797 5.45135 75.2112 5.47132L75.1471 5.43559L74.8928 5.29375L74.3833 5.00902C73.694 4.65074 72.9953 4.29561 72.2714 4.00142L72.0014 3.8869L71.7282 3.78183C71.5454 3.71354 71.3636 3.64104 71.1797 3.5717L70.6239 3.38678C70.439 3.32059 70.2499 3.28171 70.0629 3.21972C69.3136 3.00643 68.5494 2.84979 67.7766 2.75112C67.0099 2.65579 66.2357 2.63573 65.4651 2.69123C64.7004 2.74702 63.945 2.89303 63.2146 3.12621C62.4887 3.3635 61.796 3.6922 61.1532 4.10439C60.8313 4.31203 60.5228 4.53978 60.2296 4.78628C60.0878 4.91446 59.9418 5.03949 59.8094 5.17292C59.677 5.30636 59.5341 5.4398 59.4091 5.58689C58.8885 6.1567 58.44 6.78833 58.0737 7.46759C57.7029 8.14988 57.4101 8.87167 57.2006 9.61937C56.9935 10.3629 56.8674 11.1266 56.8244 11.8972C56.788 12.6593 56.8377 13.4231 56.9726 14.174C57.1095 14.9136 57.3408 15.6325 57.6607 16.3132C57.9807 16.9783 58.3955 17.5934 58.8921 18.1393C59.3867 18.6729 59.9579 19.13 60.5869 19.4957C60.6646 19.5461 60.7413 19.5808 60.8191 19.6228L61.0502 19.7437C61.1322 19.7836 61.2267 19.8214 61.3139 19.8613L61.5629 19.9664L62.6462 20.4129C63.0045 20.5569 63.3543 20.7281 63.7053 20.8773L64.2306 21.1106C64.404 21.1925 64.5752 21.2755 64.7475 21.3585C66.0997 21.9906 67.404 22.7207 68.6497 23.5429C69.8297 24.3302 70.936 25.2227 71.9551 26.2095C72.9034 27.132 73.7782 28.1272 74.5713 29.1861C74.7667 29.4361 74.9412 29.6956 75.124 29.9457C75.2154 30.0718 75.3047 30.1968 75.3951 30.3208C75.4854 30.4448 75.5663 30.574 75.6504 30.7001L76.1515 31.4482L76.6128 32.1836C76.7651 32.4221 76.9143 32.6585 77.0625 32.8907C77.1329 33.0042 77.2106 33.1124 77.2852 33.2217C77.3598 33.331 77.4365 33.4318 77.5164 33.5369C77.819 33.9423 78.1468 34.3283 78.4977 34.6926C79.8531 36.1026 81.3744 36.9684 82.671 37.2909C82.9735 37.3699 83.2827 37.4212 83.5945 37.4443C83.7405 37.4611 83.8792 37.4548 84.0148 37.459C84.082 37.459 84.1472 37.4517 84.2123 37.4485C84.2756 37.4471 84.3388 37.4418 84.4014 37.4328C84.8136 37.3876 85.2148 37.2717 85.5876 37.0903L85.6927 37.0367C85.7274 37.0178 85.7589 36.9978 85.7915 36.9789C85.8534 36.94 85.9154 36.9064 85.9659 36.8738L86.0983 36.7793C86.1388 36.7533 86.1774 36.7245 86.2138 36.6931L86.4481 36.4966L86.4334 36.5061Z" fill="#143358"/>
<path d="M79.0222 32.8493C78.2279 30.7963 75.6811 27.1547 72.3505 24.1697L72.2738 24.1014C70.7527 22.7553 69.1053 21.559 67.3545 20.5291C65.7586 19.5919 64.2624 18.9111 63.1392 18.6127C62.8671 18.5404 62.578 18.5693 62.3256 18.6942C62.0732 18.819 61.8747 19.0313 61.7671 19.2914L58.6781 26.7575C58.5682 27.0256 58.5625 27.3251 58.662 27.5972C58.7615 27.8694 58.9591 28.0945 59.216 28.2285C60.2215 28.7538 62.4384 30.4937 64.8613 32.6655C67.2841 34.8372 69.2583 36.8503 69.8888 37.7938C70.0493 38.0364 70.2954 38.2096 70.578 38.2787C70.8606 38.3479 71.1589 38.3079 71.4133 38.1668L78.498 34.2793C78.7438 34.145 78.9325 33.9259 79.029 33.6629C79.1254 33.3998 79.123 33.1107 79.0222 32.8493V32.8493Z" fill="#322F5E"/>
<path d="M79.0222 32.8493C78.2279 30.7963 75.6811 27.1547 72.3505 24.1697L72.2738 24.1014C70.7527 22.7553 69.1053 21.559 67.3545 20.5291C65.7586 19.5919 64.2624 18.9111 63.1392 18.6127C62.8671 18.5404 62.578 18.5693 62.3256 18.6942C62.0732 18.819 61.8747 19.0313 61.7671 19.2914L58.6781 26.7575C58.5682 27.0256 58.5625 27.3251 58.662 27.5972C58.7615 27.8694 58.9591 28.0945 59.216 28.2285C60.2215 28.7538 62.4384 30.4937 64.8613 32.6655C67.2841 34.8372 69.2583 36.8503 69.8888 37.7938C70.0493 38.0364 70.2954 38.2096 70.578 38.2787C70.8606 38.3479 71.1589 38.3079 71.4133 38.1668L78.498 34.2793C78.7438 34.145 78.9325 33.9259 79.029 33.6629C79.1254 33.3998 79.123 33.1107 79.0222 32.8493V32.8493Z" stroke="#18172F" stroke-width="0.884666" stroke-linecap="round" stroke-linejoin="round"/>
<path d="M84.3549 26.7608L84.3318 26.7471C84.3108 26.7334 84.2772 26.7114 84.2362 26.682C84.1952 26.6525 84.1647 26.6221 84.1175 26.5832C84.0702 26.5443 84.0303 26.497 83.9777 26.4445C83.9225 26.3873 83.8703 26.3274 83.8212 26.2648C83.762 26.1951 83.7073 26.1218 83.6573 26.0453C83.5963 25.9628 83.5402 25.8768 83.4892 25.7878C83.4356 25.6943 83.3746 25.5977 83.3211 25.4937C83.216 25.2835 83.1036 25.0576 83.0111 24.8107C82.9186 24.5638 82.8251 24.3022 82.7358 24.029C82.6864 23.8924 82.656 23.7527 82.6171 23.6087C82.5782 23.4648 82.5425 23.3219 82.5047 23.1769C82.4437 22.8859 82.3828 22.5885 82.3219 22.2923C82.2767 21.9939 82.2304 21.6955 82.1863 21.4023C82.1422 21.1092 82.1212 20.8192 82.0897 20.5387C82.076 20.3989 82.0581 20.2603 82.0487 20.1258C82.0392 19.9913 82.0308 19.8589 82.0235 19.7297C82.0067 19.4733 81.9909 19.2295 81.9772 19.0047C81.9636 18.7799 81.9646 18.575 81.9583 18.3932C81.952 18.2114 81.9499 18.0517 81.9468 17.9204C81.9394 17.6588 81.9363 17.5085 81.9363 17.5085C81.9314 17.3096 82.0057 17.1168 82.143 16.9727C82.2802 16.8286 82.4691 16.7448 82.6681 16.74C82.867 16.7351 83.0598 16.8095 83.2039 16.9467C83.348 17.0839 83.4317 17.2728 83.4366 17.4718C83.4366 17.4949 83.4366 17.519 83.4366 17.5422V17.5684L83.4083 17.9624C83.3998 18.0885 83.3883 18.2409 83.3767 18.4163C83.3652 18.5918 83.3463 18.7893 83.3379 19.0047C83.3295 19.2201 83.3231 19.4533 83.3147 19.7002C83.3147 19.8242 83.3063 19.9514 83.3021 20.0806C83.2979 20.2098 83.3021 20.3422 83.3021 20.4767C83.3021 20.7446 83.3021 21.0241 83.3137 21.3046C83.3253 21.5851 83.3452 21.8709 83.361 22.1567C83.3767 22.4425 83.4219 22.722 83.4524 22.9973C83.4745 23.1349 83.4965 23.2715 83.5186 23.406C83.5406 23.5405 83.5575 23.676 83.59 23.8031C83.6478 24.0595 83.6951 24.3116 83.7718 24.5386C83.8485 24.7655 83.9168 24.9799 83.9882 25.169C84.0271 25.2657 84.0712 25.3518 84.1091 25.4369C84.1446 25.5167 84.185 25.5942 84.2299 25.6691C84.2649 25.7363 84.3042 25.8013 84.3476 25.8635C84.3795 25.9163 84.4146 25.9672 84.4526 26.0158C84.4873 26.0579 84.5178 26.0999 84.5461 26.1283L84.6144 26.1997C84.6281 26.2113 84.6365 26.2207 84.6449 26.2281L84.667 26.2438H84.6743C84.7351 26.2889 84.7765 26.3553 84.7902 26.4298C84.8038 26.5042 84.7887 26.581 84.7478 26.6447C84.707 26.7084 84.6434 26.7542 84.5701 26.7728C84.4968 26.7914 84.4191 26.7815 84.3528 26.745L84.3549 26.7608Z" fill="#143358"/>
<path d="M25.8348 86.541C31.437 85.0774 38.611 84.2726 46.4332 84.2726C54.2029 84.2726 61.3328 85.0669 66.9213 86.5116C73.9472 79.5772 78.8696 69.3941 78.8696 58.0384C78.8696 37.1489 64.3482 23.9966 46.4364 23.9966C28.5245 23.9966 14 37.1521 14 58.0415C14 69.4098 18.8331 79.6076 25.8348 86.541Z" fill="#F6F4EB"/>
<path style="mix-blend-mode:screen" d="M27.2444 84.532C32.4631 83.1661 39.1465 82.4191 46.4329 82.4191C53.671 82.4191 60.3133 83.1545 65.5152 84.5047C72.0598 78.0504 76.646 68.5617 76.646 57.9878C76.646 38.5272 63.1186 26.2764 46.4329 26.2764C29.7471 26.2764 16.2197 38.5272 16.2197 57.9878C16.2197 68.5786 20.724 78.0766 27.2444 84.532Z" fill="url(#paint1_linear)"/>
<path d="M42.0891 64.5695C41.6688 59.8099 38.9665 56.1641 36.0604 56.4204C33.1542 56.6768 31.1453 60.7482 31.5698 65.5077C31.9943 70.2673 34.6924 73.9131 37.5975 73.6567C40.5026 73.4004 42.5136 69.3301 42.0891 64.5695Z" fill="#353535"/>
<path d="M51.6724 64.5695C52.0926 59.8099 54.795 56.1641 57.7011 56.4204C60.6073 56.6768 62.6162 60.7482 62.1917 65.5077C61.7672 70.2673 59.0733 73.9205 56.164 73.6578C53.2547 73.3951 51.2479 69.3301 51.6724 64.5695Z" fill="#353535"/>
<path d="M42.0891 64.5695C41.6688 59.8099 38.9665 56.1641 36.0604 56.4204C33.1542 56.6768 31.1453 60.7482 31.5698 65.5077C31.9943 70.2673 34.6924 73.9131 37.5975 73.6567C40.5026 73.4004 42.5136 69.3301 42.0891 64.5695Z" fill="url(#paint2_linear)"/>
<path d="M51.6724 64.5695C52.0926 59.8099 54.795 56.1641 57.7011 56.4204C60.6073 56.6768 62.6162 60.7482 62.1917 65.5077C61.7672 70.2673 59.0733 73.9205 56.164 73.6578C53.2547 73.3951 51.2479 69.3301 51.6724 64.5695Z" fill="url(#paint3_linear)"/>
<path d="M42.0891 64.5695C41.6688 59.8099 38.9665 56.1641 36.0604 56.4204C33.1542 56.6768 31.1453 60.7482 31.5698 65.5077C31.9943 70.2673 34.6924 73.9131 37.5975 73.6567C40.5026 73.4004 42.5136 69.3301 42.0891 64.5695Z" stroke="#231F20" stroke-width="0.630404" stroke-miterlimit="10"/>
<path d="M51.6724 64.5695C52.0926 59.8099 54.795 56.1641 57.7011 56.4204C60.6073 56.6768 62.6162 60.7482 62.1917 65.5077C61.7672 70.2673 59.0733 73.9205 56.164 73.6578C53.2547 73.3951 51.2479 69.3301 51.6724 64.5695Z" stroke="#231F20" stroke-width="0.630404" stroke-miterlimit="10"/>
<path d="M25.8348 86.541C31.437 85.0774 38.611 84.2726 46.4332 84.2726C54.2029 84.2726 61.3328 85.0669 66.9213 86.5116C73.9472 79.5772 78.8696 69.3941 78.8696 58.0384C78.8696 37.1489 64.3482 23.9966 46.4364 23.9966C28.5245 23.9966 14 37.1521 14 58.0415C14 69.4098 18.8331 79.6076 25.8348 86.541Z" stroke="#C5C1B2" stroke-width="1.26081" stroke-linecap="round" stroke-linejoin="round"/>
<path d="M38.7783 32.7423C34.5829 29.3581 33.6804 22.7893 35.3793 22.5508C36.14 22.4457 39.5064 24.9779 39.5064 24.9779C39.5064 24.9779 36.8366 18.4238 39.021 15.5113C40.4772 13.5686 50.1276 23.5826 50.1276 23.5826C50.1276 23.5826 48.4749 19.3126 49.7021 19.1519C51.3506 18.9354 57.5906 24.4893 58.927 28.8622" fill="white"/>
<path d="M38.6492 32.8984L38.439 32.746L38.2289 32.5821C38.0888 32.4729 37.9522 32.3587 37.8191 32.2396C37.5522 32.0035 37.2983 31.7531 37.0584 31.4894C36.5765 30.9607 36.1445 30.3885 35.7682 29.78C35.389 29.1701 35.0625 28.5289 34.7921 27.8636C34.5178 27.1927 34.3067 26.4976 34.1617 25.7874C34.0867 25.4249 34.0358 25.0577 34.0094 24.6884C33.981 24.3005 33.9936 23.9106 34.0472 23.5253C34.079 23.3097 34.1347 23.0983 34.2132 22.8949C34.3074 22.6406 34.4621 22.4131 34.664 22.232C34.7896 22.1222 34.9361 22.0389 35.0947 21.9872C35.1345 21.9733 35.1752 21.9624 35.2166 21.9546L35.2786 21.9409H35.2944L35.3616 21.9346H35.4593C35.5129 21.9346 35.5644 21.9409 35.6211 21.9483C35.7489 21.969 35.8745 22.0017 35.9962 22.046L36.1444 22.1027L36.2809 22.1626C36.6164 22.3204 36.9408 22.5009 37.2518 22.7027C37.5554 22.8949 37.8464 23.0967 38.1301 23.3068C38.4138 23.5169 38.6912 23.7344 38.9602 23.9603C39.2291 24.1862 39.4928 24.4163 39.7471 24.6653L39.1493 25.1255C38.9118 24.6559 38.7154 24.1915 38.5294 23.7113C38.3434 23.2312 38.1806 22.7468 38.0408 22.2509C37.9011 21.755 37.7718 21.2527 37.6773 20.74C37.5781 20.2232 37.5114 19.7007 37.4777 19.1756C37.4414 18.6344 37.4545 18.0911 37.5165 17.5523C37.5804 16.983 37.7284 16.4264 37.9557 15.9006C38.078 15.6259 38.228 15.3643 38.4033 15.12L38.4359 15.0727C38.4569 15.0475 38.3959 15.12 38.4832 15.0149L38.4916 15.0065L38.5073 14.9886L38.5388 14.954L38.5567 14.935L38.6061 14.8899C38.6397 14.8594 38.6744 14.831 38.7111 14.8027L38.7658 14.7638C38.7817 14.7515 38.7985 14.7406 38.8162 14.7312C38.8772 14.6976 38.9391 14.6671 39.0011 14.6388C39.2169 14.557 39.4474 14.5212 39.6778 14.5337C40.0073 14.5599 40.3305 14.639 40.6349 14.768C40.8948 14.8744 41.1475 14.9976 41.3914 15.1368C41.6289 15.2702 41.8537 15.4099 42.0733 15.557C42.2929 15.7041 42.5062 15.8512 42.7142 16.0046C43.1345 16.3114 43.5337 16.6287 43.9267 16.9502C44.3196 17.2717 44.7063 17.6048 45.0824 17.9463C45.4586 18.2877 45.8284 18.6313 46.194 18.9791C46.5597 19.3269 46.9169 19.6841 47.2731 20.0403C47.6293 20.3964 47.9802 20.7579 48.3238 21.1256C48.6673 21.4933 49.013 21.8611 49.3471 22.2362C49.6812 22.6113 50.0153 22.9884 50.34 23.3772L49.8588 23.684C49.6749 23.3289 49.5142 22.9716 49.3671 22.6028C49.2946 22.419 49.2221 22.2341 49.1569 22.046C49.0918 21.8579 49.0309 21.6667 48.9741 21.4734C48.9174 21.2801 48.8691 21.0836 48.8218 20.8808C48.7765 20.6727 48.7432 20.4623 48.722 20.2504C48.6955 20.0108 48.7011 19.7688 48.7388 19.5307C48.7641 19.3724 48.8171 19.2198 48.8953 19.0799C48.9466 18.9893 49.011 18.9068 49.0865 18.8351C49.1722 18.7567 49.2706 18.6935 49.3776 18.6481C49.4781 18.6067 49.5844 18.5812 49.6928 18.5725H49.7285H49.7842C49.8304 18.5725 49.883 18.5725 49.925 18.5725C50.0585 18.5819 50.1909 18.6044 50.32 18.6397C50.5393 18.701 50.753 18.7808 50.9588 18.8782C51.3333 19.0601 51.693 19.2708 52.0347 19.5086C52.6913 19.9658 53.3171 20.4656 53.9081 21.0048C54.4916 21.5413 55.0474 22.1038 55.5755 22.6922C55.8392 22.9863 56.0924 23.2889 56.3404 23.5968C56.5883 23.9046 56.83 24.2167 57.0601 24.5424C57.5241 25.1855 57.9426 25.8603 58.3125 26.5618C58.4976 26.9149 58.6638 27.2775 58.8105 27.6482C58.9592 28.0199 59.0807 28.402 59.1741 28.7913C59.1876 28.8531 59.1775 28.9178 59.1458 28.9725C59.1141 29.0272 59.063 29.0681 59.0027 29.0871C58.9423 29.1061 58.877 29.1018 58.8197 29.075C58.7623 29.0483 58.7171 29.001 58.6928 28.9426C58.4121 28.245 58.0641 27.5764 57.6537 26.9463C57.4499 26.6311 57.2335 26.3159 57.0107 26.0144C56.788 25.7128 56.5547 25.4113 56.3141 25.1192C56.0735 24.8271 55.8287 24.5371 55.5786 24.2556C55.3286 23.974 55.0649 23.6976 54.8011 23.4255C54.2758 22.8802 53.7242 22.3591 53.1537 21.8653C52.5943 21.3686 52.0029 20.9092 51.3833 20.4899C51.0874 20.289 50.7785 20.1079 50.4587 19.9478C50.3167 19.8764 50.1691 19.8166 50.0174 19.7692C49.9599 19.7523 49.9013 19.7393 49.842 19.7303H49.8262H49.7905C49.8009 19.7272 49.8111 19.7233 49.821 19.7188C49.8389 19.711 49.855 19.6995 49.8682 19.6851C49.8798 19.6767 49.883 19.6641 49.8809 19.6683C49.8603 19.6953 49.8473 19.7272 49.843 19.7608C49.8136 19.9045 49.8016 20.0513 49.8073 20.1979C49.8221 20.556 49.8614 20.9126 49.925 21.2653C49.9565 21.4482 49.9915 21.632 50.03 21.8169C50.0679 22.0008 50.1067 22.1868 50.1498 22.3728C50.2339 22.7415 50.3232 23.1177 50.4135 23.4854C50.4425 23.5445 50.4501 23.6118 50.435 23.6759C50.4199 23.7399 50.3831 23.7968 50.3309 23.8368C50.2786 23.8767 50.2142 23.8974 50.1484 23.8952C50.0826 23.893 50.0196 23.8682 49.9702 23.8248L49.9323 23.7922L47.6881 21.8096L46.5597 20.8293C46.1835 20.5036 45.8011 20.1853 45.4228 19.8637C45.0446 19.5422 44.6611 19.227 44.2755 18.9181C43.8899 18.6092 43.5022 18.3024 43.1124 18.0041C42.7226 17.7057 42.3265 17.4178 41.9262 17.1467C41.5358 16.8778 41.1318 16.6292 40.7158 16.4018C40.5223 16.2979 40.323 16.2049 40.1191 16.1233C39.9615 16.0575 39.7951 16.0154 39.6252 15.9983C39.5738 15.9983 39.5475 16.0078 39.5643 15.9983C39.5706 15.9981 39.5766 15.9954 39.5811 15.991C39.5811 15.991 39.5811 15.991 39.5927 15.9836L39.6105 15.9721C39.6217 15.9634 39.6319 15.9535 39.641 15.9426C39.6454 15.9371 39.6493 15.9311 39.6526 15.9248L39.6389 15.9405L39.6074 15.9763L39.5916 15.9931L39.5843 16.0025L39.6242 15.9542L39.6042 15.9857C39.4881 16.1482 39.3888 16.3221 39.3079 16.5047C39.1389 16.9006 39.0247 17.3178 38.9686 17.7445C38.9058 18.1998 38.8798 18.6594 38.8908 19.1188C38.9003 19.5885 38.9349 20.0644 38.9959 20.5404C39.0568 21.0163 39.1262 21.4965 39.2155 21.9745C39.3048 22.4526 39.4067 22.9328 39.5244 23.4098C39.5811 23.6483 39.6378 23.8878 39.7009 24.1242C39.7639 24.3606 39.828 24.6033 39.8921 24.8313L39.9152 24.9122C39.9373 24.9915 39.9329 25.0758 39.9027 25.1523C39.8725 25.2289 39.8182 25.2935 39.748 25.3364C39.6778 25.3792 39.5955 25.3981 39.5136 25.39C39.4317 25.3819 39.3547 25.3473 39.2943 25.2915V25.2915C38.9948 25.1266 38.6954 24.9511 38.4012 24.7767L37.5197 24.2514C37.2265 24.0769 36.9366 23.9036 36.6455 23.7386C36.3545 23.5737 36.0656 23.414 35.7913 23.2889L35.6863 23.2448L35.5917 23.208L35.5076 23.1797L35.4772 23.1723C35.4698 23.1723 35.4457 23.1639 35.4667 23.1723C35.4777 23.1754 35.4893 23.1754 35.5003 23.1723H35.4267C35.412 23.1723 35.5402 23.1618 35.4866 23.166C35.4866 23.166 35.4866 23.166 35.4677 23.1734C35.4113 23.2255 35.3681 23.2904 35.3416 23.3625C35.2937 23.4821 35.2585 23.6064 35.2366 23.7334C35.186 24.0332 35.1674 24.3374 35.1809 24.6412C35.1931 24.9637 35.2232 25.2854 35.2712 25.6046C35.3759 26.2577 35.5351 26.9009 35.7472 27.5274C35.853 27.844 35.9713 28.156 36.1023 28.4635C36.2333 28.771 36.3734 29.0739 36.5226 29.3723C36.676 29.6707 36.8413 29.9625 37.0185 30.2475C37.1961 30.5333 37.382 30.8128 37.5838 31.0828C37.7855 31.3529 37.9956 31.6155 38.2205 31.8687C38.3329 31.9938 38.4485 32.1177 38.5651 32.2407L38.7427 32.4193L38.9307 32.5979C38.9725 32.632 38.9991 32.6814 39.0045 32.7351C39.0099 32.7888 38.9938 32.8424 38.9596 32.8842C38.9255 32.926 38.8762 32.9525 38.8225 32.958C38.7688 32.9634 38.7151 32.9472 38.6733 32.9131L38.6492 32.8984Z" fill="#C5C1B2"/>
<path d="M64.4859 86.0036C64.4859 90.1937 56.5354 93.5905 46.7295 93.5905C36.9236 93.5905 28.9731 90.1937 28.9731 86.0036C28.9731 81.8135 36.9236 77.7979 46.7295 77.7979C56.5354 77.7979 64.4859 81.8125 64.4859 86.0036Z" fill="#FDBE57"/>
<path d="M69.7377 77.374C57.2567 80.4566 55.0619 74.9312 46.7448 74.9312C38.5926 74.9312 36.2317 80.4566 23.7518 77.374C17.7504 75.8915 14.5248 78.3542 15.2235 82.2575C15.7205 85.025 18.9797 87.348 23.1109 87.348H70.3786C74.5088 87.348 77.769 85.025 78.2649 82.2575C78.9657 78.3542 75.7381 75.8915 69.7377 77.374Z" fill="#FDBE57"/>
<path d="M64.4859 86.0029C64.4859 90.193 56.5354 93.5898 46.7295 93.5898C36.9236 93.5898 28.9731 90.193 28.9731 86.0029" stroke="#BF7329" stroke-width="1.15574" stroke-linecap="round" stroke-linejoin="round"/>
<path d="M69.7377 77.374C57.2567 80.4566 55.0619 74.9312 46.7448 74.9312C38.5926 74.9312 36.2317 80.4566 23.7518 77.374C17.7504 75.8915 14.5248 78.3542 15.2235 82.2575C15.7205 85.025 18.9797 87.348 23.1109 87.348H70.3786C74.5088 87.348 77.769 85.025 78.2649 82.2575C78.9657 78.3542 75.7381 75.8915 69.7377 77.374Z" stroke="#BF7329" stroke-width="1.15574" stroke-linecap="round" stroke-linejoin="round"/>
<path d="M69.3822 83.5783C69.9075 81.4769 72.2106 80.4263 72.2106 80.4263H20.6562C20.6562 80.4263 22.9582 81.4769 23.4836 83.5783C23.4836 83.5783 21.3959 84.0847 20.1309 85.8971C20.1309 85.8971 20.6562 88.7077 23.9438 89.7594C23.9438 89.7594 34.8613 87.7085 46.4334 87.7085C58.0055 87.7085 68.9178 89.7594 68.9178 89.7594C72.2075 88.7077 72.7328 85.8982 72.7328 85.8982C71.5508 84.007 69.3822 83.5783 69.3822 83.5783Z" fill="#FDBE57"/>
<path opacity="0.65" d="M68.4574 78.2451C56.6721 81.1554 54.5991 75.9336 46.7453 75.9336C39.047 75.9336 36.8185 81.1512 25.0331 78.2451C19.3669 76.8445 16.3189 79.1739 16.9797 82.8565C17.2718 84.484 18.5768 85.9476 20.4606 86.8217C20.8987 87.7379 21.8738 89.0975 23.9436 89.7636C23.9436 89.7636 27.0221 89.1857 31.6408 88.6436C34.775 90.7954 40.3614 92.2274 46.7274 92.2274C53.0367 92.2274 58.5769 90.8216 61.7268 88.7035C66.0651 89.2288 68.9218 89.7636 68.9218 89.7636C70.7637 89.1742 71.7387 87.7179 72.2399 86.828C74.545 86.0264 76.1788 84.7057 76.5098 82.8607C77.1717 79.1739 74.1237 76.8445 68.4574 78.2451Z" fill="url(#paint4_linear)"/>
<path d="M17.4746 82.2674C17.4746 82.2674 17.4746 82.2674 17.4851 82.24C17.4956 82.2127 17.5051 82.1928 17.5209 82.1549C17.5513 82.0877 17.5934 81.9889 17.6585 81.8734C17.7329 81.7327 17.815 81.5963 17.9043 81.4646C18.1582 81.0901 18.4598 80.7503 18.8016 80.4539C19.0088 80.2714 19.2302 80.1055 19.4635 79.958C19.7161 79.7959 19.9818 79.6553 20.2579 79.5377C20.4092 79.4894 20.5478 79.4263 20.697 79.3843C20.8462 79.3423 20.9954 79.295 21.1467 79.2603C21.298 79.2257 21.4525 79.2025 21.6048 79.1731C21.7572 79.1437 21.9106 79.1406 22.0619 79.1258C22.2132 79.1111 22.3634 79.1153 22.5115 79.1174C22.6597 79.1195 22.8047 79.1279 22.9465 79.1406C23.0884 79.1532 23.226 79.1731 23.3615 79.192C23.4971 79.2109 23.6242 79.2414 23.7503 79.2687C23.8764 79.2961 23.9951 79.3307 24.1107 79.3633C24.222 79.3927 24.3318 79.4277 24.4395 79.4684L24.7358 79.5734C24.8283 79.6102 24.9144 79.6501 24.9943 79.6869C25.1342 79.7496 25.2706 79.8198 25.403 79.897C25.5144 79.9569 25.5984 80.0095 25.6573 80.0431L25.7455 80.0967C25.8482 80.158 25.9261 80.2533 25.9659 80.3661C26.0058 80.4789 26.0049 80.602 25.9635 80.7142C25.9221 80.8264 25.8428 80.9206 25.7393 80.9805C25.6358 81.0404 25.5146 81.0623 25.3967 81.0423L25.361 81.036L25.2675 81.0213C25.2076 81.0097 25.1193 80.996 25.009 80.9729C24.8987 80.9498 24.7652 80.9288 24.6129 80.9025C24.5362 80.891 24.4574 80.8721 24.3723 80.8616L24.1065 80.8258L23.9667 80.8059L23.8207 80.7922C23.7219 80.7859 23.6211 80.767 23.517 80.7638C23.413 80.7607 23.3069 80.7523 23.2018 80.746C23.0968 80.7397 22.9854 80.746 22.874 80.746L22.5399 80.7575L22.2016 80.7849C22.0892 80.8017 21.9757 80.8164 21.8633 80.8342C21.7509 80.8521 21.6384 80.871 21.5281 80.9025C21.4735 80.9172 21.4231 80.9299 21.3632 80.9425C21.3033 80.9551 21.2581 80.975 21.1993 80.9908C21.0942 81.0202 20.9891 81.0601 20.8841 81.0959C20.8294 81.1127 20.779 81.1368 20.7275 81.1578C20.676 81.1789 20.6224 81.1957 20.5741 81.2198C20.469 81.2661 20.3734 81.3102 20.2768 81.3596C20.0834 81.4552 19.9017 81.5624 19.7304 81.6695C19.5592 81.7767 19.4037 81.8902 19.2587 81.9963C19.1137 82.1024 18.9865 82.2064 18.8752 82.3115C18.7638 82.4166 18.665 82.4932 18.5904 82.5668L18.4129 82.7223L18.3877 82.7475L18.3719 82.7601C18.3667 82.7647 18.3618 82.7696 18.3572 82.7748C18.3251 82.8348 18.2812 82.8877 18.2283 82.9304C18.1753 82.9731 18.1143 83.0047 18.0489 83.0233C17.9835 83.042 17.915 83.0473 17.8475 83.0389C17.78 83.0305 17.7148 83.0087 17.6559 82.9747C17.5971 82.9406 17.5456 82.8951 17.5046 82.8408C17.4637 82.7865 17.4341 82.7245 17.4175 82.6585C17.401 82.5926 17.3979 82.5239 17.4085 82.4567C17.419 82.3895 17.4429 82.3251 17.4788 82.2674H17.4746Z" fill="#BF7329"/>
<path d="M27.4673 83.3237L27.8686 83.1451C28.001 83.0894 28.1618 83.0158 28.3551 82.9349C28.5484 82.854 28.7754 82.7721 29.0254 82.6786C29.2755 82.5851 29.5602 82.4937 29.866 82.3876C30.1717 82.2814 30.509 82.1848 30.8683 82.0723C31.588 81.8622 32.4097 81.6573 33.3111 81.4566C33.7619 81.3652 34.2326 81.2623 34.7222 81.1761L35.4682 81.0427C35.7214 80.9975 35.9798 80.9628 36.2404 80.9208C37.2848 80.7548 38.3911 80.6245 39.5385 80.5089C40.6858 80.3934 41.8731 80.3156 43.0813 80.2568C44.2896 80.1979 45.5178 80.1696 46.7461 80.179C47.3607 80.179 47.9743 80.1864 48.5858 80.2011L49.5009 80.2316C49.8056 80.2421 50.1082 80.2505 50.4108 80.2694C51.618 80.3293 52.8053 80.4217 53.9516 80.5342C54.2374 80.5583 54.5211 80.5962 54.8026 80.6266C55.0842 80.6571 55.3616 80.6886 55.6369 80.7254C56.1864 80.7968 56.7243 80.8693 57.2455 80.9523L58.0166 81.0742L58.7637 81.2066C59.2533 81.2896 59.7229 81.3915 60.1747 81.4819C60.4006 81.526 60.6202 81.5754 60.8356 81.6258C61.051 81.6762 61.2559 81.7246 61.466 81.7708C61.8747 81.8654 62.2593 81.9736 62.6217 82.065C63.3446 82.2625 63.9698 82.4485 64.4793 82.6208C64.7346 82.7059 64.9637 82.7742 65.1591 82.8488L65.655 83.0337L66.0669 83.1903L65.6309 83.1241L65.1055 83.0411L64.4005 82.936C64.1368 82.8971 63.8458 82.8519 63.5264 82.8152C63.207 82.7784 62.8655 82.7206 62.4967 82.6817C61.7612 82.5903 60.9333 82.4947 60.0276 82.4054C59.5748 82.3602 59.1041 82.3129 58.6155 82.272L57.8727 82.2058L57.1047 82.148C56.0677 82.065 54.9718 81.9967 53.8392 81.9379C53.2729 81.9095 52.6971 81.8759 52.1129 81.8559L51.2335 81.816L50.353 81.7897C49.1626 81.7477 47.9533 81.7235 46.7429 81.712C45.5326 81.7004 44.3264 81.7046 43.1328 81.7256C42.5371 81.7361 41.9466 81.7456 41.3635 81.7677C40.7804 81.7897 40.2077 81.8076 39.6372 81.8307C39.0667 81.8538 38.513 81.8832 37.9688 81.9179C37.4245 81.9526 36.8897 81.983 36.3728 82.023C35.8559 82.0629 35.3505 82.107 34.8619 82.1501C34.6182 82.1701 34.3797 82.1963 34.1443 82.2226L33.453 82.293L32.7921 82.3749C32.5757 82.4023 32.3634 82.4212 32.1617 82.4527L31.5628 82.5378L31.2749 82.5767L30.9975 82.6218C30.2673 82.7364 29.6317 82.8467 29.1063 82.9528C28.8479 83.0095 28.6146 83.0579 28.4118 83.0978C28.2091 83.1377 28.0368 83.1871 27.8981 83.2197L27.4673 83.3237Z" fill="#F7941D"/>
<g style="mix-blend-mode:multiply" opacity="0.25">
<path d="M66.3237 39.762C66.3237 39.762 66.2995 39.7305 66.2449 39.657C66.1902 39.5834 66.1093 39.4784 66.0043 39.3418C65.8992 39.2052 65.7647 39.0497 65.6082 38.8721C65.4516 38.6946 65.2657 38.5023 65.0629 38.3027C64.6052 37.8515 64.1017 37.4493 63.5604 37.1028C63.264 36.9148 62.9547 36.748 62.6348 36.6037C62.3091 36.4574 61.9726 36.3366 61.6282 36.2423L61.3687 36.1782C61.2826 36.1572 61.1943 36.1435 61.1071 36.1257L61.042 36.1131L60.9821 36.1026L60.8318 36.0773C60.7268 36.0574 60.6459 36.049 60.5576 36.0364C60.2035 35.988 59.8368 35.9565 59.4901 35.9397C59.1434 35.9229 58.804 35.925 58.4825 35.9397C58.161 35.9544 57.8584 35.9786 57.5789 36.0122C57.1277 36.0641 56.6797 36.1416 56.2372 36.2444C55.922 36.32 55.7424 36.3768 55.7602 36.3663C55.6341 36.4368 55.4852 36.4543 55.3462 36.415C55.2072 36.3757 55.0895 36.2828 55.019 36.1567C54.9485 36.0306 54.931 35.8816 54.9703 35.7426C55.0096 35.6036 55.1025 35.4859 55.2286 35.4154C55.4024 35.2889 55.585 35.1748 55.7749 35.0739C56.2506 34.8214 56.7531 34.6233 57.2732 34.4835C57.6183 34.3882 57.9692 34.3159 58.3239 34.267C58.7211 34.2117 59.1217 34.1844 59.5227 34.1851C59.9533 34.1846 60.3834 34.2147 60.8098 34.2754C60.9211 34.2922 61.0409 34.3091 61.1344 34.328L61.2847 34.3542L61.3225 34.3616H61.3414H61.3645H61.375L61.458 34.3815C61.5704 34.4089 61.6829 34.433 61.7932 34.4625L62.1252 34.5602C62.5616 34.7008 62.9837 34.8823 63.386 35.1023C63.7692 35.3139 64.1334 35.5582 64.4745 35.8325C64.7876 36.0862 65.0808 36.3633 65.3518 36.6615C65.5914 36.9248 65.8136 37.2035 66.0169 37.4957C66.187 37.7401 66.3435 37.9937 66.4855 38.2554C66.6137 38.4886 66.7082 38.6988 66.786 38.8732C66.8637 39.0476 66.9121 39.1884 66.9467 39.2871C66.9814 39.3859 66.9982 39.4468 66.9972 39.4437C67.0174 39.488 67.0288 39.5358 67.0306 39.5845C67.0324 39.6332 67.0246 39.6817 67.0076 39.7274C66.9906 39.7731 66.9648 39.8149 66.9317 39.8506C66.8985 39.8863 66.8586 39.9151 66.8144 39.9354C66.7701 39.9557 66.7222 39.967 66.6735 39.9688C66.6248 39.9706 66.5763 39.9628 66.5306 39.9458C66.485 39.9289 66.4431 39.9031 66.4074 39.8699C66.3717 39.8367 66.3429 39.7969 66.3226 39.7526L66.3237 39.762Z" fill="#262262"/>
</g>
<g style="mix-blend-mode:multiply" opacity="0.25">
<path d="M25.8733 39.4578C25.8733 39.4578 25.8911 39.3969 25.9237 39.3013C25.9563 39.2057 26.0088 39.0607 26.0855 38.8873C26.1622 38.714 26.2568 38.5028 26.385 38.2706C26.5267 38.0084 26.6832 37.7545 26.8536 37.5099C27.0569 37.2176 27.279 36.939 27.5186 36.6757C27.7896 36.3775 28.0829 36.1003 28.3959 35.8467C28.7372 35.5721 29.1018 35.3278 29.4855 35.1165C29.8874 34.8958 30.3096 34.7143 30.7463 34.5743L31.0783 34.4766C31.1886 34.4472 31.3021 34.423 31.4135 34.3957L31.4975 34.3757H31.508H31.5311H31.549L31.5868 34.3684L31.7371 34.3421C31.8306 34.3232 31.9472 34.3064 32.0617 34.2896C32.4881 34.2289 32.9182 34.1987 33.3488 34.1992C33.7502 34.1986 34.1511 34.2259 34.5487 34.2812C34.9033 34.3301 35.2543 34.4024 35.5994 34.4976C36.1194 34.6375 36.622 34.8355 37.0976 35.0881C37.2875 35.1889 37.4701 35.303 37.644 35.4296C37.7064 35.4645 37.7613 35.5113 37.8057 35.5675C37.85 35.6236 37.8828 35.6879 37.9023 35.7568C37.9217 35.8256 37.9275 35.8976 37.9191 35.9686C37.9107 36.0397 37.8885 36.1084 37.8536 36.1708C37.8187 36.2333 37.7718 36.2882 37.7157 36.3325C37.6595 36.3768 37.5952 36.4097 37.5264 36.4291C37.4575 36.4486 37.3855 36.4543 37.3145 36.446C37.2435 36.4376 37.1748 36.4153 37.1123 36.3804C37.1302 36.3909 36.9558 36.3342 36.6353 36.2585C36.1922 36.1543 35.7436 36.0753 35.2915 36.0221C35.012 35.9885 34.7084 35.9633 34.3879 35.9496C34.0675 35.936 33.7292 35.937 33.3803 35.9496C33.0315 35.9623 32.6669 35.998 32.3128 36.0463C32.2246 36.0589 32.1437 36.0673 32.0386 36.0873L31.8884 36.1125L31.8285 36.123L31.7633 36.1356C31.6761 36.1535 31.5879 36.1671 31.5017 36.1871L31.2422 36.2522C30.8979 36.3466 30.5614 36.4674 30.2357 36.6137C29.9157 36.758 29.6064 36.9247 29.31 37.1127C28.7689 37.4559 28.265 37.8545 27.8065 38.3021C27.5964 38.5038 27.4199 38.6972 27.2633 38.8747C27.1068 39.0523 26.9723 39.2099 26.8672 39.3444C26.7621 39.4789 26.6791 39.5839 26.6266 39.6596C26.5741 39.7352 26.5499 39.7646 26.5489 39.7646C26.504 39.8473 26.4294 39.9098 26.3402 39.9397C26.2511 39.9696 26.1539 39.9646 26.0682 39.9257C25.9826 39.8869 25.9149 39.817 25.8787 39.7302C25.8425 39.6433 25.8406 39.546 25.8733 39.4578V39.4578Z" fill="#262262"/>
</g>
<path d="M66.3236 39.1312C66.3236 39.1312 66.2994 39.0997 66.2448 39.0261C66.1901 38.9526 66.1092 38.8475 66.0042 38.7109C65.8991 38.5743 65.7646 38.4188 65.6081 38.2413C65.4515 38.0637 65.2655 37.8714 65.0628 37.6718C64.6051 37.2206 64.1015 36.8185 63.5603 36.4719C63.2639 36.2839 62.9546 36.1171 62.6347 35.9729C62.309 35.8266 61.9725 35.7058 61.6281 35.6114L61.3686 35.5473C61.2824 35.5263 61.1942 35.5127 61.107 35.4948L61.0418 35.4822L60.982 35.4717L60.8317 35.4465C60.7266 35.4265 60.6457 35.4181 60.5575 35.4055C60.2034 35.3572 59.8367 35.3256 59.49 35.3088C59.1433 35.292 58.8039 35.2941 58.4824 35.3088C58.1609 35.3235 57.8583 35.3477 57.5788 35.3813C57.1275 35.4332 56.6796 35.5108 56.2371 35.6135C55.9219 35.6892 55.7422 35.7459 55.7601 35.7354C55.6342 35.802 55.4872 35.8166 55.3506 35.7762C55.214 35.7358 55.0986 35.6436 55.0292 35.5192C54.9597 35.3949 54.9417 35.2482 54.9789 35.1108C55.0162 34.9733 55.1057 34.8558 55.2285 34.7835C55.4028 34.658 55.5853 34.5443 55.7748 34.4431C56.2504 34.1905 56.753 33.9924 57.2731 33.8526C57.6181 33.7574 57.9691 33.6851 58.3238 33.6362C58.721 33.5809 59.1215 33.5535 59.5226 33.5542C59.9532 33.5537 60.3833 33.5839 60.8096 33.6446C60.921 33.6614 61.0408 33.6782 61.1343 33.6971L61.2845 33.7234L61.3224 33.7307H61.3402H61.3644H61.3749L61.4579 33.7507C61.5703 33.778 61.6828 33.8022 61.7931 33.8316L62.1251 33.9293C62.5615 34.07 62.9836 34.2515 63.3859 34.4715C63.7691 34.683 64.1333 34.9273 64.4744 35.2017C64.7874 35.4553 65.0807 35.7325 65.3517 36.0306C65.7922 36.5145 66.1729 37.0496 66.4854 37.6245C66.6136 37.8578 66.7081 38.0679 66.7859 38.2423C66.8636 38.4167 66.912 38.5575 66.9466 38.6563C66.9813 38.755 66.9981 38.816 66.9971 38.8128C67.038 38.9023 67.0418 39.0043 67.0075 39.0966C66.9732 39.1888 66.9037 39.2636 66.8142 39.3045C66.7248 39.3455 66.6227 39.3493 66.5305 39.315C66.4383 39.2807 66.3635 39.2112 66.3225 39.1217L66.3236 39.1312Z" fill="#231F20"/>
<path d="M25.8733 38.828C25.8733 38.828 25.8911 38.767 25.9237 38.6714C25.9563 38.5758 26.0088 38.4308 26.0845 38.2575C26.1601 38.0841 26.2568 37.8729 26.385 37.6397C26.527 37.378 26.6834 37.1244 26.8536 36.88C27.0569 36.5878 27.279 36.3091 27.5186 36.0458C27.7896 35.7476 28.0829 35.4705 28.3959 35.2168C28.737 34.9425 29.1012 34.6982 29.4844 34.4866C29.8865 34.2662 30.3087 34.0846 30.7452 33.9444L31.0773 33.8467C31.1876 33.8173 31.3 33.7931 31.4124 33.7658L31.4965 33.7459H31.507H31.5301H31.548L31.5858 33.7385L31.736 33.7122C31.8295 33.6933 31.9462 33.6765 32.0607 33.6597C32.487 33.599 32.9171 33.5688 33.3478 33.5693C33.7488 33.5686 34.1494 33.596 34.5466 33.6513C34.9012 33.7002 35.2522 33.7725 35.5973 33.8677C36.1173 34.0076 36.6199 34.2057 37.0955 34.4582C37.2854 34.559 37.468 34.6732 37.6419 34.7997C37.7043 34.8346 37.7592 34.8815 37.8036 34.9376C37.8479 34.9937 37.8807 35.0581 37.9002 35.1269C37.9196 35.1957 37.9254 35.2677 37.917 35.3388C37.9086 35.4098 37.8864 35.4785 37.8515 35.5409C37.8166 35.6034 37.7697 35.6583 37.7136 35.7026C37.6574 35.747 37.5931 35.7798 37.5243 35.7993C37.4554 35.8187 37.3834 35.8244 37.3124 35.8161C37.2414 35.8077 37.1727 35.7855 37.1102 35.7505C37.1281 35.7611 36.9537 35.7043 36.6332 35.6287C36.1901 35.5244 35.7415 35.4455 35.2894 35.3923C35.0099 35.3586 34.7063 35.3334 34.3858 35.3198C34.0654 35.3061 33.7271 35.3072 33.3782 35.3198C33.0294 35.3324 32.6648 35.3681 32.3107 35.4164C32.2225 35.429 32.1416 35.4374 32.0365 35.4574L31.8863 35.4826L31.8264 35.4931L31.7612 35.5057C31.674 35.5236 31.5858 35.5373 31.4996 35.5583L31.2401 35.6224C30.8958 35.7167 30.5592 35.8375 30.2336 35.9838C29.9136 36.1281 29.6043 36.2949 29.3079 36.4829C28.7676 36.8262 28.2644 37.2248 27.8065 37.6722C27.5964 37.874 27.4199 38.0673 27.2633 38.2448C27.1068 38.4224 26.9723 38.58 26.8672 38.7145C26.7621 38.849 26.6791 38.954 26.6266 39.0297C26.5741 39.1053 26.5499 39.1348 26.5489 39.1348C26.504 39.2174 26.4294 39.28 26.3402 39.3099C26.2511 39.3397 26.1539 39.3347 26.0682 39.2959C25.9826 39.257 25.9149 39.1871 25.8787 39.1003C25.8425 39.0135 25.8406 38.9162 25.8733 38.828V38.828Z" fill="#231F20"/>
<path d="M20.8766 79.9459C20.9817 79.9963 21.0647 80.0405 21.153 80.0888C21.2412 80.1371 21.3253 80.1865 21.4083 80.238C21.5764 80.343 21.7382 80.4481 21.8968 80.5668C22.2169 80.7987 22.5151 81.0593 22.7878 81.3454C22.9266 81.4895 23.0571 81.6414 23.1787 81.8003C23.2417 81.8791 23.2984 81.9632 23.3573 82.0462C23.4161 82.1292 23.4697 82.2164 23.5201 82.3057C23.5706 82.395 23.6252 82.4843 23.6672 82.5757C23.7093 82.6671 23.7576 82.7617 23.7965 82.8573C23.8353 82.9529 23.8732 83.0496 23.9015 83.1494C23.9299 83.2492 23.9614 83.349 23.9898 83.4488C24.0091 83.5127 24.0155 83.5798 24.0087 83.6462C24.0019 83.7126 23.982 83.7769 23.9502 83.8356C23.9183 83.8942 23.8751 83.9459 23.8231 83.9878C23.7711 84.0296 23.7114 84.0607 23.6473 84.0792V84.0792L23.6084 84.0897L23.5107 84.1181L23.4056 84.1528C23.331 84.1769 23.2564 84.2032 23.1829 84.2316C23.0337 84.2883 22.8866 84.3514 22.7426 84.4197C22.4538 84.5555 22.1759 84.7136 21.9116 84.8925C21.6496 85.0694 21.4035 85.2687 21.1761 85.4882C21.0633 85.5966 20.956 85.7105 20.8546 85.8297C20.802 85.8885 20.7495 85.9494 20.7064 86.0114C20.6634 86.0734 20.614 86.1365 20.5677 86.1984L20.6528 85.8013L20.6665 85.857L20.6854 85.9284C20.698 85.9767 20.7138 86.0261 20.7295 86.0755C20.7621 86.1732 20.7999 86.272 20.8399 86.3708C20.8798 86.4695 20.925 86.5651 20.9722 86.6597C21.0195 86.7542 21.07 86.8499 21.1246 86.9413C21.1792 87.0327 21.2297 87.1251 21.2948 87.2123C21.3599 87.2995 21.4167 87.3878 21.4818 87.4729C21.547 87.558 21.6163 87.6389 21.6857 87.7198C21.755 87.8007 21.8285 87.8785 21.9052 87.952C21.9819 88.0256 22.0607 88.0991 22.1395 88.1716C22.2183 88.2441 22.3003 88.3145 22.3823 88.3733C22.4642 88.4322 22.5556 88.4994 22.6428 88.5614C22.73 88.6234 22.8225 88.6791 22.916 88.7327C23.0095 88.7862 23.103 88.8377 23.1997 88.8871C23.2963 88.9365 23.394 88.9827 23.4928 89.0269C23.5916 89.071 23.6945 89.1088 23.7954 89.1508C23.8963 89.1929 24.0055 89.2223 24.1043 89.2559L23.8469 89.2401C24.3165 89.1351 24.7778 89.0395 25.2432 88.947C25.7087 88.8545 26.1731 88.7684 26.6385 88.6812C27.5705 88.512 28.5045 88.3597 29.4396 88.2105L30.8444 88.0003L32.2512 87.807C33.1905 87.6862 34.1309 87.5727 35.0733 87.475C36.0158 87.3773 36.9582 87.2859 37.9028 87.2029L39.3201 87.0978L40.0304 87.0463L40.7407 87.0054L42.1612 86.9308L43.5838 86.8835L44.2961 86.8604L45.0085 86.8509L46.4332 86.8309L47.8548 86.8509L48.5619 86.8604L49.2753 86.8835L50.7052 86.9308L52.1257 87.0054L52.836 87.0463L53.5452 87.0978L54.9636 87.2029C55.9092 87.2859 56.8548 87.3668 57.7931 87.475C58.7313 87.5832 59.6759 87.6851 60.6152 87.807L62.022 88.0003L63.4268 88.2105C64.3619 88.3597 65.2959 88.512 66.2279 88.6812C66.6933 88.7684 67.1588 88.8535 67.6232 88.947C68.0876 89.0405 68.5499 89.1372 69.0195 89.2401L68.7621 89.2559C68.8672 89.2191 68.9722 89.1855 69.071 89.1508C69.1698 89.1162 69.2748 89.0741 69.3725 89.0269C69.4703 88.9796 69.5711 88.9386 69.6657 88.8871C69.7602 88.8356 69.8569 88.782 69.9504 88.7327C70.0439 88.6833 70.1332 88.6192 70.2236 88.5614C70.3139 88.5036 70.4001 88.4395 70.4841 88.3733C70.5682 88.3071 70.6512 88.2388 70.7332 88.1706C70.8151 88.1023 70.8929 88.0287 70.9664 87.951C71.04 87.8732 71.1146 87.7976 71.187 87.7188C71.2595 87.64 71.3257 87.5559 71.3909 87.4719C71.456 87.3878 71.5191 87.3006 71.5779 87.2113C71.6367 87.122 71.6945 87.0327 71.7481 86.9402C71.8017 86.8478 71.8532 86.7542 71.8994 86.6586C71.9456 86.563 71.9908 86.4664 72.0328 86.3697C72.0749 86.273 72.1095 86.1722 72.1379 86.0745C72.1547 86.0251 72.1694 85.9757 72.1831 85.9274L72.202 85.8559L72.2157 85.8002L72.2871 86.1764C72.243 86.1123 72.2041 86.0461 72.1579 85.9841C72.1116 85.9221 72.0675 85.8591 72.0181 85.7992C71.9217 85.6776 71.8185 85.5615 71.7092 85.4514C71.4883 85.229 71.2458 85.0291 70.9853 84.8546C70.7214 84.6774 70.4427 84.5234 70.1521 84.3944C70.0061 84.3303 69.858 84.2715 69.7077 84.22C69.6328 84.1941 69.5582 84.1699 69.4839 84.1475L69.3725 84.1171L69.2759 84.0939L69.2349 84.0834C69.1704 84.0679 69.1097 84.0398 69.0561 84.0008C69.0025 83.9617 68.9571 83.9125 68.9225 83.8559C68.888 83.7993 68.865 83.7364 68.8547 83.6709C68.8445 83.6054 68.8473 83.5385 68.863 83.474C68.8625 83.4663 68.8625 83.4586 68.863 83.4509C68.8924 83.3459 68.9155 83.2492 68.9512 83.1515C68.9869 83.0538 69.0206 82.955 69.0563 82.8594C69.092 82.7638 69.1403 82.6703 69.1845 82.5778C69.2286 82.4854 69.279 82.395 69.3326 82.3078C69.3862 82.2206 69.4377 82.1344 69.4955 82.0483C69.5533 81.9621 69.611 81.8812 69.673 81.8024C69.7949 81.6428 69.9257 81.4902 70.0649 81.3454C70.3376 81.0593 70.6359 80.7987 70.9559 80.5668C71.1135 80.4506 71.276 80.3409 71.4434 80.238C71.5275 80.1865 71.6126 80.1329 71.6998 80.0888L71.8322 80.0173C71.8784 79.9932 71.9173 79.9732 71.9782 79.9448C72.0407 79.9156 72.1084 79.8989 72.1773 79.8958C72.2462 79.8927 72.3151 79.9032 72.38 79.9267C72.4449 79.9503 72.5045 79.9863 72.5554 80.0329C72.6064 80.0794 72.6477 80.1355 72.6769 80.1981C72.7062 80.2606 72.7228 80.3282 72.7259 80.3971C72.729 80.4661 72.7185 80.535 72.695 80.5998C72.6715 80.6647 72.6354 80.7243 72.5889 80.7753C72.5423 80.8262 72.4862 80.8675 72.4237 80.8967H72.4142L72.3165 80.9451L72.2115 81.0039C72.139 81.0438 72.0665 81.0859 72.0013 81.13C71.8612 81.2176 71.7211 81.3111 71.5811 81.4105C71.3118 81.6057 71.0607 81.8248 70.8309 82.0651C70.7191 82.1832 70.6139 82.3074 70.5157 82.437C70.4652 82.5001 70.4211 82.5673 70.3738 82.6325C70.3265 82.6976 70.2856 82.7659 70.2467 82.8352C70.2078 82.9046 70.1689 82.9739 70.1322 83.0454C70.0954 83.1168 70.0639 83.1872 70.0345 83.2555C70.005 83.3238 69.9767 83.4005 69.9536 83.4751C69.9304 83.5497 69.9094 83.6243 69.8874 83.6989L69.485 83.0611C69.5512 83.0748 69.59 83.0853 69.6415 83.0979L69.7823 83.1368C69.8748 83.1641 69.9662 83.1935 70.0555 83.224C70.2355 83.2856 70.4106 83.3557 70.5808 83.4341C70.9267 83.5885 71.2589 83.7719 71.5737 83.9826C71.8915 84.1964 72.1878 84.4406 72.4584 84.7117C72.5939 84.849 72.7219 84.9935 72.8419 85.1446C72.9028 85.2192 72.9606 85.298 73.0163 85.3768C73.072 85.4556 73.1213 85.5376 73.1791 85.6174C73.2511 85.7247 73.2776 85.8562 73.2527 85.9831V85.9936C73.2422 86.0461 73.2348 86.0745 73.2264 86.1102L73.1991 86.2153C73.1812 86.2804 73.1613 86.3445 73.1403 86.4075C73.0993 86.5326 73.053 86.6555 73.0026 86.7763C72.9522 86.8971 72.8976 87.0148 72.8408 87.1314C72.7841 87.2481 72.7221 87.3615 72.6559 87.474C72.5897 87.5864 72.5225 87.6957 72.4458 87.8028C72.3691 87.91 72.2966 88.013 72.2178 88.118C72.139 88.2231 72.0602 88.3145 71.9751 88.4196C71.8899 88.5246 71.8006 88.6108 71.7082 88.7011C71.6157 88.7915 71.5201 88.8798 71.4245 88.967C71.3289 89.0542 71.228 89.1351 71.124 89.2118C71.02 89.2885 70.9139 89.3641 70.8088 89.4387C70.7037 89.5133 70.5924 89.5795 70.481 89.6489C70.3696 89.7182 70.2583 89.777 70.1427 89.8338C70.0271 89.8905 69.9126 89.9462 69.796 89.9987C69.6793 90.0513 69.5596 90.0954 69.4419 90.1437C69.3242 90.192 69.2013 90.2278 69.0815 90.2698C69.0148 90.2962 68.9423 90.3045 68.8714 90.294L68.8188 90.2866C68.3607 90.2204 67.8942 90.1574 67.4298 90.1006L66.0346 89.9231L64.6424 89.7466L63.244 89.5921L61.8455 89.4429L60.445 89.3074C59.5109 89.2265 58.579 89.1319 57.6439 89.0647C56.7088 88.9974 55.7758 88.9312 54.8417 88.8619L53.4401 88.782L52.7393 88.7432L52.0375 88.7148L50.6359 88.6549L49.2406 88.616L48.5419 88.5971L47.8359 88.5919L46.4322 88.5814L45.0306 88.5919L44.3308 88.5971L43.63 88.616L42.2284 88.6549L40.8258 88.7148L40.125 88.7432L39.4242 88.782L38.0226 88.8619C37.0885 88.9312 36.1534 88.9859 35.2194 89.0647C34.2853 89.1435 33.3523 89.2265 32.4183 89.3074L31.0209 89.4429L29.6224 89.5921L28.224 89.7466L26.8266 89.9126L25.4313 90.0901C24.9669 90.1469 24.4994 90.2099 24.0423 90.2761L23.9919 90.2835C23.921 90.2929 23.8489 90.285 23.7817 90.2603V90.2603C23.662 90.2183 23.5411 90.1794 23.4214 90.1343C23.3016 90.0891 23.1829 90.0439 23.0673 89.9893C22.9517 89.9346 22.834 89.8842 22.7206 89.8243C22.6071 89.7644 22.4936 89.7035 22.3823 89.6394C22.2709 89.5753 22.1627 89.5049 22.0544 89.4293C21.9462 89.3536 21.8443 89.2832 21.7392 89.2023C21.6342 89.1214 21.5375 89.0405 21.4387 88.9575C21.34 88.8745 21.2454 88.7852 21.1551 88.6917C21.0647 88.5982 20.9754 88.5057 20.8882 88.4101C20.801 88.3145 20.7201 88.2126 20.6413 88.1096C20.5625 88.0066 20.4847 87.8995 20.4133 87.7944C20.3418 87.6893 20.2714 87.5769 20.2032 87.4656C20.1349 87.3542 20.076 87.2386 20.0182 87.123C19.9605 87.0075 19.9069 86.8877 19.8554 86.7679C19.8039 86.6481 19.7598 86.5242 19.7177 86.3991C19.6978 86.3361 19.6778 86.272 19.66 86.2068L19.6326 86.1018C19.6242 86.0661 19.6169 86.0377 19.6064 85.9852V85.9778C19.5928 85.9103 19.5935 85.8408 19.6085 85.7736C19.6235 85.7065 19.6525 85.6432 19.6936 85.588C19.7503 85.5113 19.7986 85.4325 19.8627 85.3579C19.9268 85.2833 19.9815 85.2087 20.0435 85.1373C20.1664 84.9923 20.2977 84.8546 20.4333 84.7233C20.7047 84.4621 20.9978 84.2245 21.3095 84.013C21.6193 83.8044 21.9446 83.6196 22.2824 83.4604C22.4505 83.3805 22.6222 83.3073 22.7973 83.2408C22.8845 83.2072 22.9738 83.1757 23.0641 83.1452L23.2007 83.1021C23.2501 83.0874 23.29 83.0758 23.3541 83.059L22.9675 83.6978C22.9454 83.6232 22.9286 83.5465 22.9013 83.474C22.874 83.4016 22.8498 83.327 22.8193 83.2545C22.7889 83.182 22.7563 83.1105 22.7216 83.0443C22.6869 82.9781 22.6491 82.9035 22.6081 82.8342C22.5672 82.7648 22.523 82.6997 22.481 82.6314C22.439 82.5631 22.3896 82.499 22.3381 82.436C22.2403 82.3061 22.135 82.1819 22.0229 82.064C21.7927 81.8237 21.5413 81.6046 21.2717 81.4095C21.1372 81.3044 20.9975 81.2162 20.8514 81.1289C20.78 81.0848 20.7085 81.0428 20.6413 81.0029C20.574 80.9629 20.4921 80.922 20.4312 80.8978H20.4248C20.3562 80.8728 20.2935 80.8337 20.2408 80.7831C20.1881 80.7324 20.1466 80.6714 20.1188 80.6037C20.0911 80.5361 20.0777 80.4635 20.0796 80.3904C20.0816 80.3174 20.0987 80.2455 20.13 80.1795C20.1612 80.1134 20.2059 80.0546 20.2612 80.0068C20.3165 79.9591 20.3811 79.9233 20.451 79.9019C20.5209 79.8805 20.5945 79.8739 20.667 79.8826C20.7396 79.8913 20.8096 79.915 20.8724 79.9522L20.8766 79.9459Z" fill="#BF7329"/>
<path d="M74.5191 82.7747C74.5145 82.7695 74.5096 82.7646 74.5044 82.76L74.4887 82.7474L74.4634 82.7222L74.289 82.554C74.2134 82.4805 74.1146 82.3954 74.0043 82.2987C73.894 82.2021 73.7626 82.0981 73.6208 81.9835C73.479 81.869 73.3203 81.7639 73.149 81.6568C72.972 81.5442 72.7893 81.4407 72.6016 81.3468C72.506 81.2974 72.4062 81.2533 72.3054 81.2071C72.256 81.1829 72.2003 81.1672 72.152 81.1451C72.1036 81.123 72.0469 81.0999 71.9954 81.0831C71.8903 81.0474 71.7853 81.0075 71.6802 80.978C71.6256 80.9623 71.5751 80.9434 71.5163 80.9297C71.4575 80.916 71.406 80.9045 71.3503 80.8898C71.2452 80.8583 71.1265 80.8456 71.0162 80.8215C70.9059 80.7973 70.7903 80.7889 70.6779 80.7721L70.3395 80.7448L70.0054 80.7332C69.8941 80.7332 69.7848 80.7332 69.6776 80.7332C69.5705 80.7332 69.4675 80.7479 69.3624 80.7511C69.2574 80.7542 69.1575 80.7732 69.0588 80.7795L68.9127 80.7931L68.773 80.8131L68.5072 80.8488C68.4221 80.8593 68.3422 80.8782 68.2666 80.8898C68.1142 80.916 67.9787 80.9339 67.8694 80.9602C67.7601 80.9864 67.6708 80.9969 67.6109 81.0085L67.5185 81.0232L67.4828 81.0285C67.3649 81.0485 67.2437 81.0266 67.1402 80.9667C67.0367 80.9068 66.9574 80.8126 66.916 80.7004C66.8746 80.5882 66.8737 80.4651 66.9135 80.3523C66.9533 80.2395 67.0313 80.1442 67.1339 80.0829L67.2222 80.0293C67.281 79.9957 67.3651 79.9431 67.4754 79.8832C67.6079 79.8062 67.7444 79.7361 67.8841 79.6731C67.965 79.6363 68.0501 79.5964 68.1436 79.5596L68.4399 79.4546C68.5477 79.4139 68.6574 79.3789 68.7688 79.3495C68.8844 79.3169 69.0031 79.2801 69.1292 79.2549C69.2553 79.2297 69.3845 79.2034 69.5179 79.1782C69.6514 79.153 69.7921 79.1425 69.9382 79.1267C70.0842 79.111 70.2261 79.1099 70.3732 79.1036C70.5203 79.0973 70.6716 79.1036 70.8229 79.112C70.9742 79.1204 71.1275 79.1383 71.2799 79.1593C71.4322 79.1803 71.5867 79.2066 71.738 79.2465C71.8893 79.2865 72.0395 79.3211 72.1877 79.3705C72.3358 79.4199 72.4798 79.4756 72.6216 79.5302C72.8981 79.6476 73.1642 79.7882 73.417 79.9505C73.6518 80.0979 73.8746 80.2637 74.0831 80.4464C74.4249 80.7428 74.7265 81.0826 74.9804 81.4571C75.0697 81.5888 75.1518 81.7252 75.2262 81.8659C75.2914 81.9814 75.3313 82.076 75.3639 82.1474C75.3796 82.1853 75.3912 82.2136 75.3996 82.2325C75.408 82.2514 75.409 82.2588 75.4101 82.2599C75.446 82.3176 75.4699 82.382 75.4805 82.4492C75.491 82.5164 75.4879 82.5851 75.4714 82.651C75.4549 82.717 75.4252 82.779 75.3843 82.8333C75.3433 82.8876 75.2919 82.9332 75.233 82.9672C75.1741 83.0012 75.1089 83.023 75.0414 83.0314C74.9739 83.0398 74.9054 83.0345 74.84 83.0158C74.7746 82.9972 74.7136 82.9656 74.6606 82.9229C74.6077 82.8802 74.5638 82.8273 74.5317 82.7673L74.5191 82.7747Z" fill="#BF7329"/>
<defs>
<linearGradient id="paint0_linear" x1="72.7589" y1="23.4015" x2="72.7589" y2="7.07409" gradientUnits="userSpaceOnUse">
<stop stop-color="#E6E7E8" stop-opacity="0"/>
<stop offset="1" stop-color="white"/>
</linearGradient>
<linearGradient id="paint1_linear" x1="46.4329" y1="56.6482" x2="46.4329" y2="39.3247" gradientUnits="userSpaceOnUse">
<stop stop-color="#F6F4EB" stop-opacity="0"/>
<stop offset="1" stop-color="#F6F4EB"/>
</linearGradient>
<linearGradient id="paint2_linear" x1="36.8294" y1="72.5094" x2="36.8294" y2="60.8018" gradientUnits="userSpaceOnUse">
<stop stop-color="#231F20" stop-opacity="0"/>
<stop offset="1" stop-color="#231F20"/>
</linearGradient>
<linearGradient id="paint3_linear" x1="4460.09" y1="11805.4" x2="4460.09" y2="9881.69" gradientUnits="userSpaceOnUse">
<stop stop-color="#231F20" stop-opacity="0"/>
<stop offset="1" stop-color="#231F20"/>
</linearGradient>
<linearGradient id="paint4_linear" x1="46.7453" y1="78.4594" x2="46.7453" y2="89.6323" gradientUnits="userSpaceOnUse">
<stop stop-color="#F7CC3C" stop-opacity="0"/>
<stop offset="1" stop-color="#F7941D"/>
</linearGradient>
</defs>
</svg>
