<svg xmlns="http://www.w3.org/2000/svg" xmlns:xlink="http://www.w3.org/1999/xlink" viewBox="0 0 823.68 993.52"><defs><style>.cls-1{isolation:isolate;}.cls-2,.cls-29{fill:#e9dcb8;}.cls-15,.cls-18,.cls-26,.cls-3,.cls-30,.cls-33,.cls-9{fill:none;}.cls-26,.cls-3,.cls-30,.cls-33,.cls-9{stroke:#90806c;}.cls-15,.cls-21,.cls-26,.cls-3,.cls-30,.cls-33,.cls-9{stroke-linecap:round;stroke-linejoin:round;}.cls-3{stroke-width:9px;}.cls-4{fill:url(#linear-gradient);}.cls-5{fill:url(#linear-gradient-2);}.cls-6{fill:#262262;opacity:0.25;}.cls-29,.cls-6{mix-blend-mode:multiply;}.cls-7{fill:url(#linear-gradient-3);}.cls-8{fill:url(#linear-gradient-4);}.cls-9{stroke-width:9.34px;}.cls-10{fill:#edbcb9;}.cls-11{opacity:0.7;mix-blend-mode:screen;fill:url(#linear-gradient-5);}.cls-12,.cls-13{opacity:0.75;}.cls-12{fill:url(#radial-gradient);}.cls-13{fill:url(#radial-gradient-2);}.cls-14{fill:#671e5d;}.cls-15{stroke:#671e5d;stroke-width:8.46px;}.cls-16{fill:url(#radial-gradient-3);}.cls-17{fill:url(#linear-gradient-6);}.cls-18{stroke:#26336e;stroke-miterlimit:10;stroke-width:6px;}.cls-19{fill:#c68cbc;}.cls-20{fill:#5e3626;}.cls-21{fill:#231f20;stroke:#231f20;stroke-width:4px;}.cls-22{fill:url(#radial-gradient-4);}.cls-23{fill:url(#linear-gradient-7);}.cls-24{fill:#703b4c;}.cls-25{fill:url(#linear-gradient-8);}.cls-26{stroke-width:8.41px;}.cls-27{fill:url(#linear-gradient-9);}.cls-28{fill:url(#linear-gradient-10);}.cls-29{opacity:0.5;}.cls-30{stroke-width:8.83px;}.cls-31{fill:url(#linear-gradient-11);}.cls-32{fill:url(#linear-gradient-12);}.cls-33{stroke-width:9.15px;}.cls-34{fill:url(#linear-gradient-13);}.cls-35{fill:#faf4e1;}</style><linearGradient id="linear-gradient" x1="580.14" y1="752.95" x2="580.14" y2="934.74" gradientUnits="userSpaceOnUse"><stop offset="0" stop-color="#faf4e1"/><stop offset="1" stop-color="#e9dcb8"/></linearGradient><linearGradient id="linear-gradient-2" x1="679.46" y1="540.24" x2="679.46" y2="813.04" xlink:href="#linear-gradient"/><linearGradient id="linear-gradient-3" x1="660.33" y1="425.16" x2="800.99" y2="668.49" xlink:href="#linear-gradient"/><linearGradient id="linear-gradient-4" x1="4.67" y1="557.8" x2="174.36" y2="557.8" xlink:href="#linear-gradient"/><linearGradient id="linear-gradient-5" x1="8848.54" y1="14280.55" x2="8848.54" y2="13855.45" gradientTransform="translate(9249.6 14607.95) rotate(180)" gradientUnits="userSpaceOnUse"><stop offset="0" stop-color="#edc4c2"/><stop offset="0.2" stop-color="#edc4c2" stop-opacity="0.99"/><stop offset="0.34" stop-color="#edc4c2" stop-opacity="0.95"/><stop offset="0.46" stop-color="#edc4c2" stop-opacity="0.89"/><stop offset="0.57" stop-color="#edc4c2" stop-opacity="0.79"/><stop offset="0.67" stop-color="#edc4c2" stop-opacity="0.68"/><stop offset="0.76" stop-color="#edc4c2" stop-opacity="0.53"/><stop offset="0.85" stop-color="#edc4c2" stop-opacity="0.36"/><stop offset="0.94" stop-color="#edc4c2" stop-opacity="0.16"/><stop offset="1" stop-color="#edc4c2" stop-opacity="0"/></linearGradient><radialGradient id="radial-gradient" cx="153.4" cy="701.79" r="76.82" gradientTransform="matrix(0.86, -0.31, 0.17, 0.59, 355.43, 337.65)" gradientUnits="userSpaceOnUse"><stop offset="0" stop-color="#efa2b0"/><stop offset="0.2" stop-color="#efa2b0" stop-opacity="0.99"/><stop offset="0.34" stop-color="#efa4b1" stop-opacity="0.95"/><stop offset="0.46" stop-color="#efa6b2" stop-opacity="0.89"/><stop offset="0.56" stop-color="#efa9b4" stop-opacity="0.8"/><stop offset="0.66" stop-color="#eeadb6" stop-opacity="0.68"/><stop offset="0.76" stop-color="#eeb2b8" stop-opacity="0.54"/><stop offset="0.85" stop-color="#eeb8bb" stop-opacity="0.36"/><stop offset="0.93" stop-color="#edbebf" stop-opacity="0.17"/><stop offset="1" stop-color="#edc4c2" stop-opacity="0"/></radialGradient><radialGradient id="radial-gradient-2" cx="9651.72" cy="701.79" r="76.82" gradientTransform="matrix(-0.86, -0.31, -0.17, 0.59, 8646.92, 3244.18)" xlink:href="#radial-gradient"/><radialGradient id="radial-gradient-3" cx="525.56" cy="607.41" r="50.21" gradientUnits="userSpaceOnUse"><stop offset="0" stop-color="#0063ad"/><stop offset="1" stop-color="#0063ad"/></radialGradient><linearGradient id="linear-gradient-6" x1="525.56" y1="655.12" x2="525.56" y2="562.21" gradientUnits="userSpaceOnUse"><stop offset="0" stop-color="#26336e" stop-opacity="0"/><stop offset="1" stop-color="#26336e"/></linearGradient><radialGradient id="radial-gradient-4" cx="3428.59" cy="607.41" r="50.21" gradientTransform="matrix(-1, 0, 0, 1, 3707.29, 0)" xlink:href="#radial-gradient-3"/><linearGradient id="linear-gradient-7" x1="3428.59" y1="655.12" x2="3428.59" y2="562.21" gradientTransform="matrix(-1, 0, 0, 1, 3707.29, 0)" xlink:href="#linear-gradient-6"/><linearGradient id="linear-gradient-8" x1="68.23" y1="1120.88" x2="292.44" y2="1120.88" gradientTransform="matrix(0.98, 0.18, -0.17, 0.94, 138.28, -652.52)" xlink:href="#linear-gradient"/><linearGradient id="linear-gradient-9" x1="686.8" y1="409.85" x2="827.47" y2="653.19" xlink:href="#linear-gradient"/><linearGradient id="linear-gradient-10" x1="255.11" y1="245.87" x2="167.49" y2="419.79" xlink:href="#linear-gradient"/><linearGradient id="linear-gradient-11" x1="511.07" y1="130.54" x2="234.5" y2="475.12" xlink:href="#linear-gradient"/><linearGradient id="linear-gradient-12" x1="257.53" y1="142.09" x2="307.71" y2="279.12" xlink:href="#linear-gradient"/><linearGradient id="linear-gradient-13" x1="763.55" y1="370.53" x2="411.78" y2="269.84" xlink:href="#linear-gradient"/></defs><g class="cls-1"><g id="Layer_2" data-name="Layer 2"><g id="Face"><path class="cls-2" d="M546.87,989s-109.37,0-65.37-94.75C500.22,894.27,577.72,894.27,546.87,989Z"/><path class="cls-3" d="M546.87,989s-109.37,0-65.37-94.75C500.22,894.27,577.72,894.27,546.87,989Z"/><path class="cls-4" d="M688.62,782.16c-.11,7.9-2.36,57.56-40.91,83.52-42,28.27-90,27.62-115.22,40.14-23.39,11.62-28,28.92-28,28.92-16.51-17-24.87-33.22-29-46.39-5.8-18.46-3.31-30.9-3.31-30.9L573,756.06S659.22,739.68,688.62,782.16Z"/><path class="cls-3" d="M688.62,782.16c-.11,7.9-2.36,57.56-40.91,83.52-42,28.27-90,27.62-115.22,40.14-23.39,11.62-28,28.92-28,28.92-16.51-17-24.87-33.22-29-46.39-5.8-18.46-3.31-30.9-3.31-30.9L573,756.06S659.22,739.68,688.62,782.16Z"/><path class="cls-5" d="M778.46,589.53l-91.88-49.29L550.05,753.74l19,23.75,28.29,35.44s141.9,7,194.14-91.75C837.15,634.82,778.46,589.53,778.46,589.53Z"/><path class="cls-3" d="M778.46,589.53l-91.88-49.29L550.05,753.74l19,23.75,28.29,35.44s141.9,7,194.14-91.75C837.15,634.82,778.46,589.53,778.46,589.53Z"/><path class="cls-6" d="M726.71,556.3a338.16,338.16,0,0,0-10.77-84.81L562.91,606a4.33,4.33,0,0,0-1,5.2l32.52,64.68.05.07-48.21,75.4a4.5,4.5,0,0,0,.27,5.23l8.76,11L469,854.28a4.51,4.51,0,0,0-1.23,2.29c-.09.47-1.92,10,1.2,24.63C616.05,849.25,726.71,715.72,726.71,556.3Z"/><path class="cls-7" d="M724.59,305.12s72.95,54.67,92.95,191.33S668.87,695.5,668.87,695.5L580.14,361.72S670.32,335.12,724.59,305.12Z"/><path class="cls-8" d="M74.24,430.8S4.67,463.26,4.67,551.85C4.67,666.8,128.61,684.8,128.61,684.8l45.75-218.19S111.86,449.78,74.24,430.8Z"/><path class="cls-9" d="M74.24,430.8S4.67,463.26,4.67,551.85C4.67,666.8,128.61,684.8,128.61,684.8l45.75-218.19S111.86,449.78,74.24,430.8Z"/><path class="cls-3" d="M724.59,305.12s72.95,54.67,92.95,191.33S668.87,695.5,668.87,695.5L580.14,361.72S670.32,335.12,724.59,305.12Z"/><ellipse class="cls-10" cx="401.06" cy="548.3" rx="313.15" ry="319.45"/><path class="cls-11" d="M115.39,576.34c0-160.93,127.9-291.4,285.67-291.4s285.67,130.47,285.67,291.4S558.83,867.76,401.06,867.76,115.39,737.29,115.39,576.34Z"/><path class="cls-12" d="M676.51,674.73c8.9,28.46-14.58,63.22-52.44,77.62s-75.78,3-84.69-25.46,14.57-63.22,52.44-77.63S667.6,646.26,676.51,674.73Z"/><path class="cls-13" d="M126.83,674.73c-8.9,28.46,14.58,63.22,52.44,77.62s75.79,3,84.7-25.46-14.59-63.22-52.45-77.63S135.73,646.26,126.83,674.73Z"/><path class="cls-6" d="M495.48,719.09a2,2,0,0,0-2.66.74c-15.42,25.72-50.91,42.35-90.41,42.35s-75-16.63-90.4-42.35a2,2,0,0,0-3.53,1.88c16.11,34.15,53,56.22,93.93,56.22s77.83-22.07,93.94-56.22A2,2,0,0,0,495.48,719.09Z"/><path class="cls-14" d="M402.41,756.18c-41.35,0-76.85-17.85-92.12-43.32,15.27,32.38,50.77,55.07,92.12,55.07s76.86-22.69,92.13-55.07C479.27,738.33,443.77,756.18,402.41,756.18Z"/><path class="cls-15" d="M402.41,756.18c-41.35,0-76.85-17.85-92.12-43.32,15.27,32.38,50.77,55.07,92.12,55.07s76.86-22.69,92.13-55.07C479.27,738.33,443.77,756.18,402.41,756.18Z"/><path class="cls-16" d="M562.41,610.69c-3,33.34-21.88,58.9-42.23,57.08s-34.44-30.31-31.47-63.65,21.88-58.89,42.23-57.07,34.43,30.3,31.47,63.64"/><path class="cls-17" d="M562.41,610.69c-3,33.34-21.88,58.9-42.23,57.08s-34.44-30.31-31.47-63.65,21.88-58.89,42.23-57.07,34.43,30.3,31.47,63.64"/><path class="cls-18" d="M562.41,610.69c-3,33.34-21.88,58.9-42.23,57.08s-34.44-30.31-31.47-63.65,21.88-58.89,42.23-57.07,34.43,30.3,31.47,63.64"/><path class="cls-19" d="M556.33,544a87.63,87.63,0,0,0-79.72,51.23c-.1-1-.15-2.1-.15-3.23,0-63.59,36.66-94.09,81.87-94.09s67.38,26.65,67.38,57.86a39.56,39.56,0,0,1-1.06,9C614.73,551.78,606.42,544,556.33,544Z"/><path class="cls-6" d="M599.15,486.09l0-.06-.1-.13-.59-.75a37.12,37.12,0,0,0-2.61-2.87,56.89,56.89,0,0,0-11.23-8.69A69,69,0,0,0,566,466c-1.79-.46-3.62-.84-5.49-1.19-.93-.17-1.88-.3-2.82-.45l-1.37-.18c-.25,0-.55-.08-.75-.09l-.6,0c-.76-.06-1.73-.09-2.63-.14s-1.86,0-2.82,0c-1.89,0-3.82.16-5.75.34a106.61,106.61,0,0,0-22.58,4.89,103.58,103.58,0,0,0-18.25,8c-2.5,1.4-4.68,2.8-6.54,4.1s-3.37,2.5-4.6,3.5-2.12,1.82-2.7,2.4l-.92.87-.19.18a12.43,12.43,0,0,1-17.08-18.06c.33-.31.69-.61,1-.88l1.45-1.1c.95-.73,2.36-1.72,4.17-2.93s4.05-2.59,6.67-4,5.58-2.89,8.87-4.29a128.32,128.32,0,0,1,50-10c2.36,0,4.71.13,7.09.36,1.18.09,2.38.26,3.56.4s2.35.35,3.68.62l1,.19c.33.06.53.12.81.18l1.71.43c1.09.32,2.18.62,3.25.95,2.15.68,4.25,1.41,6.28,2.21a88.67,88.67,0,0,1,11.37,5.42,75.57,75.57,0,0,1,9.37,6.29,67.39,67.39,0,0,1,11.94,11.9,47,47,0,0,1,2.77,4c.31.5.54.88.7,1.17l.26.47a4.5,4.5,0,0,1-7.58,4.81Z"/><path class="cls-6" d="M205.11,486.09l0-.06.1-.13.59-.75a37.12,37.12,0,0,1,2.61-2.87,56.59,56.59,0,0,1,11.23-8.69,69,69,0,0,1,18.56-7.6c1.79-.46,3.62-.84,5.48-1.19.94-.17,1.89-.3,2.83-.45l1.37-.18c.25,0,.55-.08.75-.09l.6,0c.75-.06,1.73-.09,2.63-.14s1.86,0,2.81,0c1.89,0,3.83.16,5.76.34a106.61,106.61,0,0,1,22.58,4.89,103.91,103.91,0,0,1,18.25,8,75.73,75.73,0,0,1,6.53,4.1c1.87,1.28,3.38,2.5,4.61,3.5s2.12,1.82,2.7,2.4l.92.87.19.18a12.43,12.43,0,0,0,17.07-18.06c-.33-.31-.68-.61-1-.88l-1.46-1.1c-.94-.73-2.35-1.72-4.16-2.93s-4.05-2.59-6.67-4-5.58-2.89-8.88-4.29a128.22,128.22,0,0,0-50-10c-2.35,0-4.7.13-7.08.36-1.18.09-2.38.26-3.56.4s-2.35.35-3.68.62l-1,.19c-.32.06-.53.12-.8.18l-1.71.43c-1.1.32-2.18.62-3.26.95-2.14.68-4.24,1.41-6.27,2.21a88.18,88.18,0,0,0-11.38,5.42A76.18,76.18,0,0,0,213,464a67.85,67.85,0,0,0-11.95,11.9c-1.25,1.63-2.16,3-2.77,4-.3.5-.53.88-.69,1.17l-.26.47a4.5,4.5,0,0,0,7.58,4.81Z"/><path class="cls-20" d="M599.15,480.09l0-.06-.1-.13-.59-.75a37.12,37.12,0,0,0-2.61-2.87,56.89,56.89,0,0,0-11.23-8.69A69,69,0,0,0,566,460c-1.79-.46-3.62-.84-5.49-1.19-.93-.17-1.88-.3-2.82-.45l-1.37-.18c-.25,0-.55-.08-.75-.09l-.6,0c-.76-.06-1.73-.09-2.63-.14s-1.86,0-2.82,0c-1.89,0-3.82.16-5.75.34a106.61,106.61,0,0,0-22.58,4.89,103.58,103.58,0,0,0-18.25,8c-2.5,1.4-4.68,2.8-6.54,4.1s-3.37,2.5-4.6,3.5-2.12,1.82-2.7,2.4l-.92.87-.19.18a12.43,12.43,0,0,1-17.08-18.06c.33-.31.69-.61,1-.88l1.45-1.1c.95-.73,2.36-1.72,4.17-2.93s4.05-2.59,6.67-4,5.58-2.89,8.87-4.29a128.32,128.32,0,0,1,50-10c2.36,0,4.71.13,7.09.36,1.18.09,2.38.26,3.56.4s2.35.35,3.68.62l1,.19c.33.06.53.12.81.18l1.71.43c1.09.32,2.18.62,3.25.95,2.15.68,4.25,1.41,6.28,2.21a88.67,88.67,0,0,1,11.37,5.42,75.57,75.57,0,0,1,9.37,6.29,67.39,67.39,0,0,1,11.94,11.9,47,47,0,0,1,2.77,4c.31.5.54.88.7,1.17l.26.47a4.5,4.5,0,0,1-7.58,4.81Z"/><path class="cls-6" d="M676.59,535.32a2,2,0,0,0-2.17.19c-18.74,14.72-27.43,19.76-44.62,14.31a90.93,90.93,0,0,1-10.32-4.46c-16.47-7.85-44-21-83.23-9C494.9,549,469.61,593.62,469,629.56a2,2,0,0,0,1.57,2.07,1.54,1.54,0,0,0,.43,0,2,2,0,0,0,1.92-1.44c6.08-21,12.88-38,26.31-52.69,14.56-15.88,33-24.15,54.81-24.58,38.11-.78,60.12,19.89,70.71,29.83,2,1.83,3.49,3.27,4.79,4.3a9.18,9.18,0,0,0,2.66,1.63c3.45,1.16,10.79-1.41,18.27-6.39s25.35-19.54,27.15-45.11A2,2,0,0,0,676.59,535.32Z"/><path class="cls-21" d="M675.65,532.09c-19.16,15-28.36,20.38-46.46,14.64-14.61-4.63-44.33-28.13-92.35-13.48-41.36,12.61-65.3,57.58-65.81,91.42h0c6.35-22,13.32-38.83,26.76-53.48s32-24.74,56.24-25.23c45.61-.93,68.34,27.93,76.78,34.55a8,8,0,0,0,2.06,1.31C639.22,584,673.2,566.92,675.65,532.09Z"/><path class="cls-22" d="M241.85,610.69c3,33.34,21.88,58.9,42.23,57.08s34.44-30.31,31.47-63.65-21.88-58.89-42.23-57.07-34.44,30.3-31.47,63.64"/><path class="cls-23" d="M241.85,610.69c3,33.34,21.88,58.9,42.23,57.08s34.44-30.31,31.47-63.65-21.88-58.89-42.23-57.07-34.44,30.3-31.47,63.64"/><path class="cls-18" d="M241.85,610.69c3,33.34,21.88,58.9,42.23,57.08s34.44-30.31,31.47-63.65-21.88-58.89-42.23-57.07-34.44,30.3-31.47,63.64"/><path class="cls-19" d="M247.92,544a87.63,87.63,0,0,1,79.73,51.23c.09-1,.15-2.1.15-3.23,0-63.59-36.66-94.09-81.88-94.09s-67.37,26.65-67.37,57.86a40.11,40.11,0,0,0,1,9C189.53,551.78,197.84,544,247.92,544Z"/><path class="cls-20" d="M205.11,480.09l0-.06.1-.13.59-.75a37.12,37.12,0,0,1,2.61-2.87,56.59,56.59,0,0,1,11.23-8.69,69,69,0,0,1,18.56-7.6c1.79-.46,3.62-.84,5.48-1.19.94-.17,1.89-.3,2.83-.45l1.37-.18c.25,0,.55-.08.75-.09l.6,0c.75-.06,1.73-.09,2.63-.14s1.86,0,2.81,0c1.89,0,3.83.16,5.76.34a106.61,106.61,0,0,1,22.58,4.89,103.91,103.91,0,0,1,18.25,8,75.73,75.73,0,0,1,6.53,4.1c1.87,1.28,3.38,2.5,4.61,3.5s2.12,1.82,2.7,2.4l.92.87.19.18a12.43,12.43,0,0,0,17.07-18.06c-.33-.31-.68-.61-1-.88l-1.46-1.1c-.94-.73-2.35-1.72-4.16-2.93s-4.05-2.59-6.67-4-5.58-2.89-8.88-4.29a128.22,128.22,0,0,0-50-10c-2.35,0-4.7.13-7.08.36-1.18.09-2.38.26-3.56.4s-2.35.35-3.68.62l-1,.19c-.32.06-.53.12-.8.18l-1.71.43c-1.1.32-2.18.62-3.26.95-2.14.68-4.24,1.41-6.27,2.21a88.18,88.18,0,0,0-11.38,5.42A76.18,76.18,0,0,0,213,458a67.85,67.85,0,0,0-11.95,11.9c-1.25,1.63-2.16,3-2.77,4-.3.5-.53.88-.69,1.17l-.26.47a4.5,4.5,0,0,0,7.58,4.81Z"/><path class="cls-6" d="M127.67,535.32a2,2,0,0,1,2.17.19c18.73,14.72,27.43,19.76,44.62,14.31a91.67,91.67,0,0,0,10.31-4.46c16.48-7.85,44-21,83.24-9,41.35,12.61,66.64,57.28,67.22,93.22a2,2,0,0,1-1.57,2.07,1.58,1.58,0,0,1-.43,0,2,2,0,0,1-1.92-1.44c-6.08-21-12.88-38-26.31-52.69-14.56-15.88-33-24.15-54.81-24.58-38.11-.78-60.13,19.89-70.71,29.83-1.95,1.83-3.49,3.27-4.79,4.3a9.32,9.32,0,0,1-2.66,1.63c-3.45,1.16-10.79-1.41-18.27-6.39s-25.35-19.54-27.15-45.11A2,2,0,0,1,127.67,535.32Z"/><path class="cls-21" d="M128.61,532.09c19.15,15,28.36,20.38,46.46,14.64,14.61-4.63,44.33-28.13,92.35-13.48,41.36,12.61,65.3,57.58,65.81,91.42h0c-6.35-22-13.33-38.83-26.76-53.48s-32-24.74-56.24-25.23c-45.61-.93-68.34,27.93-76.78,34.55a8,8,0,0,1-2.06,1.31C165,584,131.06,566.92,128.61,532.09Z"/><path class="cls-24" d="M401.06,216.11c-179.56,0-325.65,149-325.65,332.19S221.5,880.49,401.06,880.49s325.65-149,325.65-332.19S580.62,216.11,401.06,216.11Zm0,12.74c173,0,313.15,143,313.15,319.45S574,867.76,401.06,867.76,87.91,724.73,87.91,548.3s140.2-319.45,313.15-319.45"/><path class="cls-6" d="M59.28,334.13c-28.5,30.74-42,67.57-46.78,103.17-9.1,68.23,29,116.25,29.68,115,.18-.34,64.82-89,138.64-136.07,8.57,2.36,16.89,4.36,24.75,6,36.34,7.81,76,11.77,115.26,11.77,26.42,0,77.89-5.37,78.09-5.4,5.33-.85,6.18-2.81,6.21-2.88,18.6-24,59.84-37.74,85.35-31.94C511.85,398.69,529.8,415.44,541,441c12.48,28.45,30.54,47.05,53.66,55.29a84.76,84.76,0,0,0,28.56,4.78,110.05,110.05,0,0,0,45.94-10.49,4.5,4.5,0,0,0,.18-7.91c-36.23-20.6-46-45-49.36-77.63l1.39.62c83,83.42,132,192.85,132.08,193.25a4.51,4.51,0,0,0,4.29,3.14c.45,0-35.52-192-31-192,30.46,0,44.6-.66,62.79-26.75,13.37-19.17,21.44-35.17,25.45-49.17Z"/><path class="cls-25" d="M248.93,365.49c-136.46,52.68-210.44,188-210.44,188S-61.21,423.43,94.4,304.76c0,0,57.17-16.29,154.53,60.73"/><path class="cls-26" d="M248.93,365.49c-136.46,52.68-210.44,188-210.44,188S-61.21,423.43,94.4,304.76c0,0,57.17-16.29,154.53,60.73"/><path class="cls-27" d="M757.75,599.12S707.09,438.93,576.42,355.36l117.74-56.24S807.75,408.45,757.75,599.12Z"/><path class="cls-3" d="M757.75,599.12S707.09,438.93,576.42,355.36"/><path class="cls-28" d="M227.7,129.65S86,101.52,44.43,212.23C-18.15,378.76,227.52,439.57,398.92,414.07,398.92,414.07,231.62,301.61,227.7,129.65Z"/><path class="cls-29" d="M384.63,403.49c-2-.41-4.19-.86-6.56-1.38-6.82-1.53-15.13-3.25-24.57-5.61l-7.31-1.76c-2.51-.61-5.07-1.32-7.71-2-5.26-1.39-10.82-2.79-16.55-4.47l-8.78-2.5c-3-.86-6-1.83-9.07-2.76s-6.2-1.87-9.35-2.91l-9.57-3.18c-12.9-4.4-26.41-9.29-40-15s-27.49-12.09-41.12-19.3a381.52,381.52,0,0,1-39.7-24.06,303.78,303.78,0,0,1-35.53-28.84c-5.34-5.25-10.56-10.51-15.28-16-2.44-2.7-4.63-5.56-6.92-8.31l-3.22-4.24-1.6-2.11-1.51-2.16A189.17,189.17,0,0,1,80.6,222.07a167.67,167.67,0,0,1-6.34-17.18A158.93,158.93,0,0,1,70,188.4,152.62,152.62,0,0,1,67.62,173s0-.06,0-.1a126.91,126.91,0,0,0-23.17,39.34q-1.45,3.87-2.69,7.66c2.15,5.56,4.54,11.19,7.33,16.77a222.22,222.22,0,0,0,25.12,39.71l1.87,2.4,2,2.34,4,4.69c2.76,3,5.44,6.16,8.36,9.08,5.68,6,11.84,11.64,18.1,17.19A331.7,331.7,0,0,0,149,341.78a406.76,406.76,0,0,0,43.68,23.6c14.77,6.89,29.6,12.84,44.09,18.07s28.68,9.63,42.19,13.49l10,2.78c3.29.91,6.56,1.68,9.75,2.51s6.33,1.64,9.43,2.36l9.11,2.11c5.95,1.42,11.68,2.57,17.12,3.72,2.73.56,5.37,1.15,8,1.64l7.53,1.42c8.16,1.61,15.47,2.81,21.75,3.87,9.27-.86,18.4-2,27.32-3.28C398.92,414.07,393.52,410.44,384.63,403.49Z"/><path class="cls-30" d="M227.7,129.65S86,101.52,44.43,212.23C-18.15,378.76,227.52,439.57,398.92,414.07,398.92,414.07,231.62,301.61,227.7,129.65Z"/><path class="cls-31" d="M229,145.34s12.42-98.73,135.34-98.73,121,73.23,215.77,73.23C674.59,119.84,620,42,620,42s118.35,8.5,118.35,114.42c0,94.15-78.46,124.56-78.46,124.56s-219.2-44.14-261,133.05C398.92,414.07,194.35,329.07,229,145.34Z"/><path class="cls-29" d="M625.75,51.65c18,13.35,32,32.12,41.73,56.2,8.78,21.72,9.54,40.31,2.3,56.83-21,47.91-101,60.72-101.81,60.84l4.87,22a226.87,226.87,0,0,0,46.42-13.23c25.83-10.44,55.3-28.32,68.24-57.84,9.73-22.21,8.92-47.67-2.41-75.68-8.3-20.54-19.45-38-33.13-52.18A161.85,161.85,0,0,0,620,42,98.84,98.84,0,0,1,625.75,51.65Z"/><path class="cls-30" d="M229,145.34s12.42-98.73,135.34-98.73,121,73.23,215.77,73.23C674.59,119.84,620,42,620,42s118.35,8.5,118.35,114.42c0,94.15-78.46,124.56-78.46,124.56s-219.2-44.14-261,133.05C398.92,414.07,194.35,329.07,229,145.34Z"/><path class="cls-32" d="M325.25,4.58S133.6,224,398.92,414.07c0,0-182.88-45.78-223.24-173.54C140.37,128.76,189.29,28.74,325.25,4.58Z"/><path class="cls-33" d="M325.25,4.58S133.6,224,398.92,414.07c0,0-182.88-45.78-223.24-173.54C140.37,128.76,189.29,28.74,325.25,4.58Z"/><path class="cls-34" d="M398.92,414.07s-72.75-84.87-56.6-168.3S441.5,78,597.12,203.53s166.73,20.6,166.73,20.6,96.77,68.33,32,161.17S612.16,369,520,353.92,398.92,414.07,398.92,414.07Z"/><path class="cls-29" d="M757,300.07a46.46,46.46,0,0,0,9.42-10.4,60.92,60.92,0,0,0,8.94-23.7,96.38,96.38,0,0,0,1-22.2c-.24-3.49-.61-6.87-1.1-10.12a121.48,121.48,0,0,0-11.37-9.52A51.53,51.53,0,0,1,761.11,235c.43,3.11.75,6.31.91,9.6a81.83,81.83,0,0,1-1.11,18.83,46.16,46.16,0,0,1-7,17.79,31.08,31.08,0,0,1-15.05,11.65c-6.35,2.39-13.84,3.17-21.67,2.66-2-.07-4-.34-5.94-.53s-4-.56-6-1c-1-.2-2-.36-3-.59l-3-.68c-1-.19-2.08-.51-3.15-.79l-1.62-.43-.81-.21-.41-.11c-.19-.05,0,0-.06,0l-.19-.06c-16-4.57-31.67-13.24-46.71-23.59S616.65,245,601.64,233s-30.48-24.11-47.84-33.86a139.39,139.39,0,0,0-27.58-12,97.09,97.09,0,0,0-30-4.28c-2.59.07-5.28.32-7.9.51l-1,.08c-.3,0-.56.08-.84.12l-1.64.26-3.27.51-.82.12-.4.07-.21,0-.65.12-1.74.38-3.47.78c-2.3.61-4.59,1.16-6.85,1.89a105.35,105.35,0,0,0-13.24,5c-2.15.94-4.23,2-6.31,3.1s-4.07,2.29-6,3.58a85.86,85.86,0,0,0-20.35,18.06,91.55,91.55,0,0,0-13.13,21.66,112.59,112.59,0,0,0-6.81,21.78c-.75,3.51-1.31,6.95-1.73,10.28s-.73,6.58-.92,9.72a183,183,0,0,0,.94,32.18,201.68,201.68,0,0,0,3.39,20.35c.52,2.35,1,4.16,1.29,5.41s.55,2,.55,2a11.89,11.89,0,0,0,22.78-6.8c0,.13-.59-1.84-1.57-5.91a179.84,179.84,0,0,1-3.3-17.91,160.16,160.16,0,0,1-1.34-28.09c.5-10.71,2.27-22.72,7.05-34.38a66.23,66.23,0,0,1,24.78-30.55c1.47-1,3-1.91,4.6-2.85s3.23-1.75,4.93-2.52a82.8,82.8,0,0,1,10.65-4.21c1.84-.64,3.77-1.12,5.67-1.67l2.92-.71,1.47-.35h0l.35-.07.82-.14,3.26-.56,1.64-.29c.26,0,.55-.1.8-.13l.68,0c1.81-.1,3.57-.32,5.45-.41a76.85,76.85,0,0,1,23.92,3,119.94,119.94,0,0,1,23.84,9.88c15.69,8.43,30.74,19.71,45.78,31.3s30.15,23.76,46.31,34.47a231.86,231.86,0,0,0,25.09,14.64,144.89,144.89,0,0,0,27,10.37l.21.07.34.09.41.1.82.2,1.63.4c1.09.26,2.12.54,3.34.78l3.53.74c1.18.25,2.33.41,3.49.62,2.29.43,4.65.68,7,1s4.67.46,7,.52c9.36.42,19-.58,28.07-4.15A48.19,48.19,0,0,0,757,300.07Z"/><path class="cls-30" d="M398.92,414.07s-72.75-84.87-56.6-168.3S441.5,78,597.12,203.53s166.73,20.6,166.73,20.6,96.77,68.33,32,161.17S612.16,369,520,353.92,398.92,414.07,398.92,414.07Z"/><path class="cls-35" d="M667.12,476.58s-82.65,42.28-122-47.38c-22.3-50.84-74.63-77.35-146.76-15.29,0,0-20.86-125.93,71.53-154.09,99.23-30.25,140.76,22.79,143.23,88.09C615.35,406.34,613,445.78,667.12,476.58Z"/><path class="cls-3" d="M667.12,476.58s-82.65,42.28-122-47.38c-22.3-50.84-74.63-77.35-146.76-15.29,0,0-20.86-125.93,71.53-154.09,99.23-30.25,140.76,22.79,143.23,88.09C615.35,406.34,613,445.78,667.12,476.58Z"/></g></g></g></svg>