<svg width="100" height="100" viewBox="0 0 100 100" fill="none" xmlns="http://www.w3.org/2000/svg">
<path d="M27.1157 15.8221C27.1157 15.8221 26.325 16.6152 23.2263 13.3328C21.3372 11.3336 20.8644 7.93879 19.2267 8.66641C17.2263 9.55586 15.2534 18.5421 21.7825 24.3333C21.7825 24.3333 28.7535 22.1963 27.1157 15.8221Z" fill="#A7A8A9"/>
<path d="M27.1157 15.8221C27.1157 15.8221 26.325 16.6152 23.2263 13.3328C21.3372 11.3336 20.8644 7.93879 19.2267 8.66641C17.2263 9.55586 15.2534 18.5421 21.7825 24.3333C21.7825 24.3333 28.7535 22.1963 27.1157 15.8221Z" stroke="#76777A" stroke-width="1.14767" stroke-linecap="round" stroke-linejoin="round"/>
<path d="M69.5519 15.8221C69.5519 15.8221 70.3415 16.6152 73.4402 13.3328C75.3293 11.3336 75.8033 7.93879 77.4399 8.66641C79.4403 9.55586 81.4131 18.5421 74.8851 24.3333C74.8851 24.3333 67.9142 22.1963 69.5519 15.8221Z" fill="#A7A8A9"/>
<path d="M69.5519 15.8221C69.5519 15.8221 70.3415 16.6152 73.4402 13.3328C75.3293 11.3336 75.8033 7.93879 77.4399 8.66641C79.4403 9.55586 81.4131 18.5421 74.8851 24.3333C74.8851 24.3333 67.9142 22.1963 69.5519 15.8221Z" stroke="#76777A" stroke-width="1.14767" stroke-linecap="round" stroke-linejoin="round"/>
<path d="M88.6676 51.6674C88.6676 73.9425 70.6089 92 48.3338 92C26.0586 92 8 73.9425 8 51.6674C8 29.3922 26.0575 7 48.3338 7C70.6101 7 88.6676 29.3911 88.6676 51.6674Z" fill="#C3D649"/>
<path d="M88.6676 51.6674C88.6676 73.9425 70.6089 92 48.3338 92C26.0586 92 8 73.9425 8 51.6674C8 29.3922 26.0575 7 48.3338 7C70.6101 7 88.6676 29.3911 88.6676 51.6674Z" stroke="#244A23" stroke-width="1.49197" stroke-linecap="round" stroke-linejoin="round"/>
<path d="M66.2589 19.1288C61.0347 15.8682 54.1257 14.8984 48.2014 14.8984H48.167C42.2415 14.8984 35.3326 15.8682 30.1084 19.1288C25.6049 21.9394 10.3191 34.1426 11.8443 56.8252C12.4973 66.5368 23.1672 88.1669 49.2091 88.1669C73.0347 88.1669 84.1407 66.3164 84.7938 56.8252C86.5577 31.2837 70.5569 21.812 66.2589 19.1288Z" fill="url(#paint0_linear)"/>
<path style="mix-blend-mode:screen" d="M76.3705 37.1978C76.3705 52.681 63.8184 65.2365 48.334 65.2365C32.8496 65.2365 20.2964 52.681 20.2964 37.1978C20.2964 21.7145 32.8473 9.16016 48.334 9.16016C63.8207 9.16016 76.3705 21.7122 76.3705 37.1978Z" fill="url(#paint1_linear)"/>
<path d="M71.3444 36.6025C71.3444 50.3745 62.3398 61.5391 48.104 61.5391C33.9303 61.5391 25.3228 50.3745 25.3228 36.6025C25.3228 22.8304 36.1384 11.667 48.104 11.667C60.0697 11.667 71.3444 22.8315 71.3444 36.6025Z" fill="#ADCB44"/>
<path d="M63.6538 53.9873C72.1153 45.5259 72.1153 31.8071 63.6538 23.3457C55.1924 14.8843 41.4737 14.8842 33.0122 23.3457C24.5508 31.8071 24.5508 45.5259 33.0122 53.9873C41.4737 62.4488 55.1924 62.4488 63.6538 53.9873Z" fill="#F8F5E7"/>
<path d="M34.8159 16.5343L35.0683 16.3231C35.237 16.1842 35.4815 15.9788 35.804 15.7366C36.6964 15.055 37.6386 14.4411 38.6227 13.9003C39.2808 13.5341 39.9581 13.2035 40.6518 12.9099C41.428 12.5782 42.2241 12.2949 43.0355 12.0618C43.902 11.8099 44.7837 11.6133 45.6751 11.473C46.5985 11.3307 47.53 11.2468 48.464 11.2217H48.8163H49.0045H49.1755C49.4051 11.2297 49.6243 11.2217 49.8722 11.2481C50.1201 11.2745 50.3542 11.2768 50.586 11.3055C50.8178 11.3342 51.0531 11.3548 51.2826 11.3927C52.1849 11.5242 53.0758 11.7245 53.9475 11.9918C54.7558 12.2399 55.5477 12.5385 56.3186 12.8858C57.0077 13.1923 57.6807 13.5336 58.3351 13.9084C59.3139 14.4648 60.252 15.0899 61.1423 15.7791C61.4648 16.027 61.7092 16.2382 61.8757 16.3782L62.065 16.5457L62.1327 16.6066C62.2032 16.6712 62.2461 16.7605 62.2526 16.8559C62.2591 16.9513 62.2288 17.0455 62.1678 17.1192C62.1068 17.1928 62.0198 17.2403 61.9249 17.2517C61.83 17.263 61.7343 17.2375 61.6576 17.1804L61.6473 17.1712L61.5864 17.1253L61.3948 16.9841C61.2272 16.8613 60.9724 16.6857 60.6465 16.4677C59.7435 15.8684 58.8074 15.3204 57.8427 14.8265C57.2448 14.5201 56.5803 14.2137 55.8768 13.9222C55.1351 13.6192 54.3782 13.3553 53.609 13.1314C52.7913 12.8962 51.9584 12.7175 51.1162 12.5966C50.9028 12.561 50.6859 12.5392 50.4701 12.5174C50.2543 12.4956 50.0397 12.4807 49.8274 12.4658C49.6151 12.4508 49.3821 12.4497 49.1572 12.4428H48.9862H48.8324L48.4995 12.4485C47.6162 12.4612 46.7345 12.5302 45.8599 12.6551C44.215 12.8859 42.6007 13.2982 41.0466 13.8843C40.3304 14.1574 39.6625 14.4443 39.0576 14.737C38.0815 15.2116 37.1346 15.7439 36.2217 16.3311C35.8912 16.5457 35.6307 16.7167 35.4563 16.8361L35.1866 17.022C35.1537 17.0449 35.1166 17.061 35.0775 17.0695C35.0383 17.078 34.9979 17.0786 34.9585 17.0713C34.9191 17.0641 34.8816 17.0491 34.848 17.0272C34.8145 17.0054 34.7856 16.9771 34.7631 16.944C34.7192 16.8814 34.7003 16.8047 34.71 16.7289C34.7198 16.6531 34.7575 16.5837 34.8159 16.5343V16.5343Z" fill="#77A541"/>
<path d="M48.3334 48.5136C51.9489 48.5136 54.8797 43.7982 54.8797 37.9814C54.8797 32.1646 51.9489 27.4492 48.3334 27.4492C44.718 27.4492 41.7871 32.1646 41.7871 37.9814C41.7871 43.7982 44.718 48.5136 48.3334 48.5136Z" fill="#478F56"/>
<path d="M48.3334 48.5136C51.9489 48.5136 54.8797 43.7982 54.8797 37.9814C54.8797 32.1646 51.9489 27.4492 48.3334 27.4492C44.718 27.4492 41.7871 32.1646 41.7871 37.9814C41.7871 43.7982 44.718 48.5136 48.3334 48.5136Z" fill="url(#paint2_linear)"/>
<path d="M48.3334 48.5136C51.9489 48.5136 54.8797 43.7982 54.8797 37.9814C54.8797 32.1646 51.9489 27.4492 48.3334 27.4492C44.718 27.4492 41.7871 32.1646 41.7871 37.9814C41.7871 43.7982 44.718 48.5136 48.3334 48.5136Z" stroke="#192C19" stroke-width="0.918137" stroke-linecap="round" stroke-linejoin="round"/>
<g style="mix-blend-mode:darken" opacity="0.25">
<path d="M70.2224 62.0624C70.1179 62.0079 69.9966 61.9956 69.8834 62.028C69.7702 62.0605 69.6737 62.1353 69.6141 62.2368C65.9817 68.4216 57.629 72.419 48.334 72.419C39.039 72.419 30.6851 68.4216 27.0527 62.2368C26.9928 62.1357 26.8964 62.0615 26.7834 62.0294C26.6703 61.9972 26.5493 62.0096 26.4452 62.0641C26.341 62.1185 26.2617 62.2108 26.2236 62.3219C26.1855 62.433 26.1914 62.5546 26.2401 62.6614C28.1085 66.7047 30.9123 69.8585 34.5734 72.0333C38.3699 74.2897 42.9996 75.4339 48.334 75.4339C59.0785 75.4339 66.5119 71.137 70.4266 62.6614C70.476 62.5545 70.4823 62.4326 70.4443 62.3211C70.4062 62.2096 70.3268 62.1169 70.2224 62.0624V62.0624Z" fill="#262262"/>
</g>
<path d="M48.3338 71.9595C38.6027 71.9595 30.2511 67.6695 26.6577 61.5513C30.2511 69.3302 37.5732 74.0609 48.3338 74.0609C59.6097 74.0609 66.4165 69.3348 70.0099 61.5513C66.4165 67.6695 58.0637 71.9595 48.3338 71.9595Z" fill="#244A23"/>
<path d="M48.3338 71.9595C38.6027 71.9595 30.2511 67.6695 26.6577 61.5513C30.2511 69.3302 37.5732 74.0609 48.3338 74.0609C59.6097 74.0609 66.4165 69.3348 70.0099 61.5513C66.4165 67.6695 58.0637 71.9595 48.3338 71.9595Z" stroke="#244A23" stroke-width="0.918137" stroke-linecap="round" stroke-linejoin="round"/>
<defs>
<linearGradient id="paint0_linear" x1="48.3334" y1="17.4004" x2="48.3334" y2="84.4898" gradientUnits="userSpaceOnUse">
<stop stop-color="#E9E611" stop-opacity="0"/>
<stop offset="1" stop-color="#9CCB3B"/>
</linearGradient>
<linearGradient id="paint1_linear" x1="48.334" y1="40.4342" x2="48.334" y2="1.73243" gradientUnits="userSpaceOnUse">
<stop stop-color="#53AFA8" stop-opacity="0"/>
<stop offset="1" stop-color="white" stop-opacity="0.5"/>
</linearGradient>
<linearGradient id="paint2_linear" x1="48.3334" y1="46.442" x2="48.3334" y2="27.432" gradientUnits="userSpaceOnUse">
<stop stop-color="#009444" stop-opacity="0"/>
<stop offset="1" stop-color="#02351E"/>
</linearGradient>
</defs>
</svg>
