<svg width="100" height="100" viewBox="0 0 100 100" fill="none" xmlns="http://www.w3.org/2000/svg">
<path d="M56.6317 9.36222C56.6317 9.36222 59.6051 10.9477 64.163 8.27236C68.7209 5.59705 74.9659 6.91535 76.8475 9.03217C76.8475 9.03217 71.3972 8.86956 69.4149 11.149C69.4149 11.149 89.7294 9.56355 93 31.3638C93 31.3638 83.4864 26.3103 80.8111 31.8594C80.8111 31.8594 91.3158 36.8131 90.3247 45.2862C90.3247 45.2862 87.3513 42.1657 85.0728 43.2536C85.0728 43.2536 90.0275 53.4602 80.7172 64.658C80.7172 64.658 81.8071 53.3615 78.4378 49.6951C78.4378 49.6951 81.6087 61.6855 76.6539 68.5229C71.6992 75.3602 67.8827 75.3224 64.9606 76.7501C60.8954 78.7314 56.6366 85.0741 56.6366 85.0741H44.3683C44.3683 85.0741 40.1095 78.7314 36.0442 76.7501C33.1231 75.3244 29.3057 75.3621 24.3509 68.5229C19.3962 61.6836 22.5671 49.6951 22.5671 49.6951C19.1978 53.3635 20.2886 64.6599 20.2886 64.6599C10.9734 53.4622 15.933 43.2556 15.933 43.2556C13.6536 42.1657 10.6811 45.2882 10.6811 45.2882C9.68997 36.8151 20.1937 31.8613 20.1937 31.8613C17.5136 26.3103 8 31.3638 8 31.3638C11.2706 9.56355 31.5851 11.149 31.5851 11.149C29.6028 8.86956 24.1506 9.03217 24.1506 9.03217C26.0341 6.91535 32.281 5.59899 36.8302 8.27526C41.3794 10.9515 44.3683 9.26543 44.3683 9.26543L56.6317 9.36222Z" fill="#E7ECF7"/>
<path opacity="0.28" d="M56.2261 11.6741C56.2261 11.6741 59.0107 13.1599 63.2812 10.653C67.5516 8.14607 73.4007 9.37919 75.1642 11.3624C75.1642 11.3624 70.0585 11.2105 68.202 13.3457C68.202 13.3457 87.2331 11.86 90.2965 32.2838C90.2965 32.2838 81.384 27.5488 78.8752 32.7475C78.8752 32.7475 88.715 37.3886 87.7867 45.3303C87.7867 45.3303 85.1356 41.4848 83.0004 42.5059C83.0004 42.5059 87.508 52.9894 78.7823 63.4796C78.7823 63.4796 80.8817 52.9216 77.7253 49.4865C77.7253 49.4865 79.6176 60.6949 74.9755 67.1025C70.3334 73.5101 66.7608 73.4665 64.0284 74.8022C60.2216 76.6587 56.2299 82.5997 56.2299 82.5997H44.737C44.737 82.5997 40.7453 76.6587 36.9395 74.8022C34.2022 73.4665 30.6267 73.5023 25.9846 67.0967C21.3425 60.6911 23.0412 49.5775 23.0412 49.5775C19.8849 53.0126 22.1788 63.4738 22.1788 63.4738C13.4521 52.9855 18.1755 42.6105 18.1755 42.6105C16.0403 41.5932 13.1734 45.3264 13.1734 45.3264C12.2451 37.3896 22.0859 32.7436 22.0859 32.7436C19.579 27.5449 10.6646 32.28 10.6646 32.28C13.7309 11.8599 32.7649 13.3457 32.7649 13.3457C30.9045 11.2105 25.7959 11.3624 25.7959 11.3624C27.5594 9.37919 33.4085 8.14704 37.6789 10.653C41.9494 13.1589 44.734 11.5812 44.734 11.5812L56.2261 11.6741Z" fill="url(#paint0_linear)"/>
<path opacity="0.67" d="M56.2261 11.6741C56.2261 11.6741 59.0107 13.1599 63.2812 10.653C67.5516 8.14607 73.4007 9.37919 75.1642 11.3624C75.1642 11.3624 70.0585 11.2105 68.202 13.3457C68.202 13.3457 87.2331 11.86 90.2965 32.2838C90.2965 32.2838 81.384 27.5488 78.8752 32.7475C78.8752 32.7475 88.715 37.3886 87.7867 45.3303C87.7867 45.3303 85.1356 41.4848 83.0004 42.5059C83.0004 42.5059 87.508 52.9894 78.7823 63.4796C78.7823 63.4796 80.8817 52.9216 77.7253 49.4865C77.7253 49.4865 79.6176 60.6949 74.9755 67.1025C70.3334 73.5101 66.7608 73.4665 64.0284 74.8022C60.2216 76.6587 56.2299 82.5997 56.2299 82.5997H44.737C44.737 82.5997 40.7453 76.6587 36.9395 74.8022C34.2022 73.4665 30.6267 73.5023 25.9846 67.0967C21.3425 60.6911 23.0412 49.5775 23.0412 49.5775C19.8849 53.0126 22.1788 63.4738 22.1788 63.4738C13.4521 52.9855 18.1755 42.6105 18.1755 42.6105C16.0403 41.5932 13.1734 45.3264 13.1734 45.3264C12.2451 37.3896 22.0859 32.7436 22.0859 32.7436C19.579 27.5449 10.6646 32.28 10.6646 32.28C13.7309 11.8599 32.7649 13.3457 32.7649 13.3457C30.9045 11.2105 25.7959 11.3624 25.7959 11.3624C27.5594 9.37919 33.4085 8.14704 37.6789 10.653C41.9494 13.1589 44.734 11.5812 44.734 11.5812L56.2261 11.6741Z" fill="url(#paint1_linear)"/>
<path d="M55.5351 9.36222C55.5351 9.36222 59.6003 10.9477 64.163 8.27236C68.7258 5.59705 74.9659 6.91535 76.8475 9.03217C76.8475 9.03217 71.3972 8.86956 69.4149 11.149C69.4149 11.149 89.7294 9.56355 93 31.3638C93 31.3638 83.4864 26.3103 80.8111 31.8594C80.8111 31.8594 91.3158 36.8131 90.3247 45.2862C90.3247 45.2862 87.3513 42.1657 85.0728 43.2536C85.0728 43.2536 90.0275 53.4602 80.7172 64.658C80.7172 64.658 81.8071 53.3615 78.4378 49.6951C78.4378 49.6951 81.6087 61.6855 76.6539 68.5229C71.6992 75.3602 67.8827 75.3224 64.9606 76.7501C60.8954 78.7314 56.6366 85.0741 56.6366 85.0741H44.3683C44.3683 85.0741 40.1095 78.7314 36.0442 76.7501C33.1231 75.3244 29.3057 75.3621 24.3509 68.5229C19.3962 61.6836 22.5671 49.6951 22.5671 49.6951C19.1978 53.3635 20.2886 64.6599 20.2886 64.6599C10.9734 53.4622 15.933 43.2556 15.933 43.2556C13.6536 42.1657 10.6811 45.2882 10.6811 45.2882C9.68997 36.8151 20.1937 31.8613 20.1937 31.8613C17.5136 26.3103 8 31.3638 8 31.3638C11.2706 9.56355 31.5851 11.149 31.5851 11.149C29.6028 8.86956 24.1506 9.03217 24.1506 9.03217C26.0341 6.91535 32.281 5.59899 36.8302 8.27526C41.3794 10.9515 45.4262 9.26543 45.4262 9.26543L55.5351 9.36222Z" stroke="#8595AF" stroke-width="1.18956" stroke-linecap="round" stroke-linejoin="round"/>
<path d="M66.1765 42.5088C71.8639 37.4428 72.8115 32.5132 72.8115 32.5132C72.8115 32.5132 70.4605 26.5693 62.6485 16.9976C60.9062 14.8575 59.4031 12.5742 56.5584 10.0586C53.734 7.55659 52.9761 5.94115 52.5812 5.29652C52.5542 5.25151 52.5155 5.21465 52.4693 5.18987C52.423 5.1651 52.3709 5.15332 52.3185 5.15581C52.266 5.15829 52.2153 5.17493 52.1715 5.20397C52.1278 5.23301 52.0928 5.27336 52.0702 5.32072C51.9298 5.61884 51.5427 6.74839 51.201 7.66306C51.1879 7.69927 51.1626 7.72972 51.1293 7.74905C51.096 7.76839 51.057 7.77538 51.0191 7.76879C50.9812 7.7622 50.9468 7.74246 50.922 7.71303C50.8972 7.6836 50.8836 7.64637 50.8835 7.60789C50.8651 5.69433 50.0656 3.74206 49.7036 3.13614C49.6774 3.09175 49.6394 3.05556 49.5937 3.03163C49.5481 3.0077 49.4966 2.997 49.4452 3.00072C49.3938 3.00445 49.3445 3.02245 49.3027 3.0527C49.261 3.08295 49.2285 3.12425 49.209 3.17196C48.7783 4.20375 47.6604 6.87518 44.3888 10.0586C31.2765 22.8051 28.5635 31.5008 28.1744 32.43C28.1513 32.4847 28.1462 32.5454 28.1599 32.6032C28.3176 33.2875 29.5237 37.797 34.6981 42.4401C34.7474 42.4845 34.7795 42.5448 34.7891 42.6105" fill="#4D4C68"/>
<path opacity="0.19" d="M65.7429 42.2576C71.3084 37.7782 72.2356 33.4206 72.2356 33.4206C72.2356 33.4206 69.933 28.1649 62.2952 19.7024C60.5868 17.8101 59.1195 15.7921 56.3358 13.5678C53.5675 11.3561 52.8251 9.92748 52.4399 9.36126C52.4108 9.32103 52.3722 9.28865 52.3276 9.267C52.2829 9.24536 52.2336 9.23514 52.184 9.23725C52.1344 9.23936 52.0861 9.25373 52.0434 9.27909C52.0008 9.30445 51.9651 9.34 51.9395 9.38255C51.803 9.63614 51.171 10.7918 50.6686 11.721C50.5593 11.9253 50.2166 11.8488 50.2263 11.6242C50.2999 9.88199 49.964 7.9665 49.6223 7.45157C49.5942 7.41188 49.5564 7.38006 49.5124 7.35916C49.4685 7.33825 49.42 7.32896 49.3714 7.33216C49.3229 7.33536 49.276 7.35096 49.2352 7.37746C49.1944 7.40395 49.161 7.44047 49.1384 7.48351C48.7164 8.39528 47.6265 10.758 44.4227 13.5717C31.5921 24.8411 28.9361 32.5292 28.5567 33.3509C28.5336 33.3985 28.5285 33.4528 28.5422 33.5039C28.6971 34.1088 29.8769 38.0956 34.9401 42.2005C34.9879 42.2377 35.0197 42.2917 35.0291 42.3515" fill="url(#paint2_linear)"/>
<path d="M63.0317 70.0708H37.9318C37.9318 70.0708 35.9592 80.3258 43.9774 89.2141C43.9774 89.2141 44.6752 85.3425 46.07 84.8847C46.07 84.8847 45.9587 91.2593 50.3598 96.3438V96.6206C50.4014 96.5751 50.4411 96.5238 50.4817 96.4832L50.6037 96.6206V96.3438C55.0058 91.2593 54.8935 84.8847 54.8935 84.8847C56.2853 85.3425 56.9861 89.2141 56.9861 89.2141C65.0081 80.3258 63.0317 70.0708 63.0317 70.0708Z" fill="#E7ECF7"/>
<path opacity="0.28" d="M61.0638 70.0063H39.2432C39.2432 70.0063 37.5232 77.3847 43.3152 85.6178C43.3152 85.6178 44.5977 83.3993 46.5093 82.625C46.5928 82.5911 46.6832 82.5779 46.7729 82.5864C46.8626 82.595 46.9488 82.6252 47.0243 82.6744C47.0998 82.7235 47.1623 82.7902 47.2065 82.8688C47.2506 82.9473 47.2751 83.0354 47.2778 83.1254C47.333 84.9151 47.7347 89.6966 50.3751 93.5334C50.3751 93.5334 50.4487 93.6989 50.4845 93.6582C50.5213 93.6989 50.5939 93.5334 50.5939 93.5334C53.2818 88.9261 53.7425 84.6015 53.818 83.0306C53.8227 82.9434 53.8476 82.8586 53.8909 82.7828C53.9342 82.7071 53.9946 82.6425 54.0673 82.5942C54.14 82.546 54.223 82.5154 54.3096 82.505C54.3962 82.4945 54.4841 82.5045 54.5662 82.534C56.3743 83.1719 57.2763 85.9982 57.2763 85.9982C63.9675 78.3914 61.0638 70.0063 61.0638 70.0063Z" fill="url(#paint3_linear)"/>
<path d="M63.0317 70.0708H37.9318C37.9318 70.0708 35.9592 80.3258 43.9774 89.2141C43.9774 89.2141 44.6752 85.3425 46.07 84.8847C46.07 84.8847 45.9587 91.2593 50.3598 96.3438C50.3598 96.3438 50.4411 96.5286 50.4817 96.4832C50.5224 96.5286 50.6037 96.3438 50.6037 96.3438C55.0058 91.2593 54.8935 84.8847 54.8935 84.8847C56.2853 85.3425 56.9861 89.2141 56.9861 89.2141C65.0081 80.3258 63.0317 70.0708 63.0317 70.0708Z" stroke="#8595AF" stroke-width="1.18956" stroke-linecap="round" stroke-linejoin="round"/>
<g style="mix-blend-mode:multiply" opacity="0.23">
<path d="M37.7168 68.5858C38.2433 71.6521 37.5358 68.912 37.9104 72.8446C37.9177 72.8969 37.9395 72.9462 37.9733 72.9869C38.4437 73.5889 42.3289 78.2697 50.2658 79.3693L50.5978 79.4128C59.309 78.3307 63.0344 72.9278 63.0344 72.9278C63.712 69.1684 60.6611 68.1986 61.1528 65.3559C51.5918 64.5496 47.2556 67.7747 37.7168 68.5858Z" fill="#22293D"/>
<path d="M37.7168 68.5858C38.2433 71.6521 37.5358 68.912 37.9104 72.8446C37.9177 72.8969 37.9395 72.9462 37.9733 72.9869C38.4437 73.5889 42.3289 78.2697 50.2658 79.3693L50.5978 79.4128C59.309 78.3307 63.0344 72.9278 63.0344 72.9278C63.712 69.1684 60.6611 68.1986 61.1528 65.3559C51.5918 64.5496 47.2556 67.7747 37.7168 68.5858Z" stroke="#22293D" stroke-width="1.16149" stroke-linecap="round" stroke-linejoin="round"/>
</g>
<path d="M33.6558 45.1665C33.7835 46.1276 34.7621 53.2302 37.9088 70.6225C37.918 70.6744 37.9395 70.7232 37.9717 70.7648C38.4421 71.3669 42.3273 76.0477 50.2641 77.1472L50.5961 77.1908C59.3073 76.1087 63.0328 70.7058 63.0328 70.7058C66.4437 51.8557 67.3149 45.0562 67.3149 45.0562" fill="#CE8E8E"/>
<path d="M35.6328 46.2817C35.7461 47.1751 36.6094 53.7811 39.3864 69.9588C39.3941 70.0069 39.4134 70.0524 39.4425 70.0914C39.8568 70.6518 43.2871 75.0055 50.2831 76.0276H50.288C50.4757 76.0547 50.6664 76.0547 50.8542 76.0276C56.8688 75.1565 60.1219 71.8133 61.1702 70.5327C61.4174 70.2275 61.5812 69.8633 61.6454 69.4758C64.5782 52.3622 65.3303 46.1724 65.3303 46.1724" fill="url(#paint4_linear)"/>
<path d="M49.0808 37.4874C47.929 39.9072 29.9685 32.3952 29.712 30.8911C28.7712 31.1283 28.082 32.1116 27.3687 32.6876C27.4267 32.9441 29.4371 43.8708 37.7601 49.0549C39.5421 50.1642 41.8447 49.8641 43.4282 48.4742C45.8325 46.3661 49.0421 42.7577 49.0808 38.4805V37.4874Z" fill="#5380C1"/>
<path d="M51.6958 37.4874C52.8476 39.9072 70.8082 32.3952 71.0647 30.8911C72.0055 31.1283 72.6946 32.1116 73.4089 32.6876C73.3509 32.9441 71.3396 43.8708 63.0175 49.0549C61.2355 50.1642 58.9329 49.8641 57.3494 48.4742C54.9441 46.3661 51.7355 42.7577 51.6958 38.4805V37.4874Z" fill="#5380C1"/>
<path d="M49.1912 37.0615C48.1584 38.8038 29.9685 32.3952 29.712 30.8911C28.7712 31.1283 28.082 32.1116 27.3687 32.6876C27.4267 32.9441 29.4371 43.8708 37.7601 49.0549C39.5421 50.1642 41.8447 49.8641 43.4282 48.4742C45.8325 46.3661 49.0421 42.7577 49.0808 38.4805L49.1912 37.0615Z" fill="url(#paint5_linear)"/>
<path d="M51.6958 37.4874C52.8476 39.9072 70.8082 32.3952 71.0647 30.8911C72.0055 31.1283 72.6946 32.1116 73.4089 32.6876C73.3509 32.9441 71.3396 43.8708 63.0175 49.0549C61.2355 50.1642 58.9329 49.8641 57.3494 48.4742C54.9441 46.3661 51.7355 42.7577 51.6958 38.4805V37.4874Z" fill="url(#paint6_linear)"/>
<g style="mix-blend-mode:multiply">
<path style="mix-blend-mode:multiply" d="M47.8217 42.6831L47.7888 42.7111L47.7424 42.7508C47.7259 42.7644 47.7075 42.7808 47.6853 42.7982C47.5991 42.8699 47.4752 42.9676 47.3155 43.0886C47.1558 43.2096 46.9593 43.3451 46.729 43.4951C46.4986 43.6452 46.2373 43.8068 45.9421 43.9675C45.6468 44.1282 45.3216 44.2937 44.9741 44.4514C44.797 44.5279 44.616 44.6082 44.4263 44.6779C44.2366 44.7476 44.0391 44.8202 43.8456 44.888C43.7488 44.9238 43.6433 44.9499 43.5416 44.9848C43.44 45.0196 43.3364 45.0486 43.2309 45.0738C43.0199 45.1241 42.8089 45.1822 42.5902 45.2209C42.1516 45.309 41.7076 45.3681 41.2612 45.3981C41.149 45.4048 41.0367 45.4058 40.9244 45.4106C40.8121 45.4155 40.6999 45.4213 40.5876 45.4155C40.364 45.4058 40.1414 45.4106 39.9217 45.3845L39.5926 45.3545C39.4842 45.3448 39.3767 45.3226 39.2702 45.308L38.9518 45.2577L38.6421 45.189L38.3391 45.1203L38.0487 45.0341L37.7584 44.9499C37.6616 44.9189 37.5754 44.8831 37.4864 44.8531C37.1244 44.7302 36.8001 44.5724 36.4982 44.4379L36.079 44.2153L35.8855 44.1127L35.7093 44.0033L35.3909 43.8097C35.3425 43.7787 35.2941 43.7507 35.2505 43.7216L35.1276 43.6345L34.6378 43.287C34.5608 43.2357 34.5074 43.1559 34.4892 43.0651C34.471 42.9743 34.4897 42.8801 34.541 42.8031C34.5924 42.7261 34.6722 42.6726 34.763 42.6545C34.8537 42.6363 34.948 42.655 35.025 42.7063L35.0443 42.7179L35.5283 43.016L35.6493 43.0906C35.6919 43.1157 35.7383 43.1389 35.7858 43.1651L36.0936 43.3296L36.263 43.4206L36.4488 43.5048L36.8466 43.6858C37.1321 43.7913 37.437 43.9181 37.7719 44.0091C37.8542 44.0333 37.9384 44.0604 38.0236 44.0836L38.2859 44.1436L38.554 44.2046L38.8298 44.2491L39.1096 44.2937L39.3999 44.3198C39.4967 44.3275 39.5935 44.3421 39.6903 44.343L39.9807 44.3517C40.1743 44.3634 40.3746 44.3459 40.5721 44.343C40.6689 44.343 40.7657 44.3275 40.8692 44.3198C40.9728 44.3121 41.0628 44.3033 41.1654 44.2908C41.5572 44.2396 41.9451 44.163 42.3269 44.0614C42.5205 44.0159 42.7015 43.952 42.8844 43.8959C42.9764 43.8678 43.0654 43.832 43.1545 43.7991C43.2435 43.7662 43.3335 43.7371 43.4187 43.7023C43.592 43.6307 43.7623 43.5629 43.9249 43.4845C44.0875 43.4061 44.2453 43.3296 44.3982 43.2532C44.7022 43.0925 44.9838 42.9308 45.2345 42.7692C45.4852 42.6076 45.7117 42.4508 45.9072 42.3075C46.1027 42.1643 46.2653 42.0317 46.396 41.9204C46.5267 41.809 46.6264 41.721 46.6864 41.6619L46.728 41.6222L46.7522 41.598L46.7774 41.5738L46.7822 41.569C46.9284 41.4309 47.1229 41.3555 47.324 41.359C47.525 41.3625 47.7168 41.4446 47.8581 41.5877C47.9994 41.7308 48.0791 41.9235 48.0801 42.1246C48.0811 42.3257 48.0033 42.5192 47.8634 42.6637L47.8217 42.6831Z" fill="url(#paint7_linear)"/>
</g>
<g style="mix-blend-mode:multiply">
<path style="mix-blend-mode:multiply" d="M47.7182 46.3631L47.6824 46.3863L47.5691 46.456C47.4723 46.5141 47.3397 46.5925 47.1665 46.6874C46.9932 46.7822 46.7793 46.8906 46.5363 47.0058C46.2934 47.121 46.0108 47.2458 45.7001 47.3678C45.3894 47.4898 45.0496 47.6088 44.6857 47.724C44.3218 47.8392 43.9307 47.9408 43.5242 48.0202C43.3209 48.0666 43.1099 48.0976 42.898 48.1324C42.7925 48.1518 42.6841 48.1605 42.5757 48.175C42.4672 48.1896 42.3598 48.2041 42.2504 48.2099C42.0307 48.2254 41.81 48.2476 41.5874 48.2476C41.4761 48.2476 41.3638 48.2544 41.2525 48.2534L40.9176 48.2438L40.7492 48.2379C40.694 48.2379 40.6379 48.2292 40.5827 48.2244L40.2488 48.1954C40.0271 48.1692 39.8074 48.1344 39.5906 48.0986L39.2683 48.0298C39.1618 48.0066 39.0554 47.9863 38.9518 47.9544L38.643 47.8672C38.5917 47.8527 38.5404 47.8392 38.4901 47.8237L38.342 47.7704C38.1484 47.6979 37.949 47.6378 37.7661 47.5517L37.4932 47.4326L37.3606 47.3736L37.2328 47.3068C37.0644 47.2168 36.8969 47.1374 36.743 47.0455L36.3026 46.7745C36.1632 46.6854 36.0384 46.5877 35.9155 46.5015C35.7925 46.4154 35.6686 46.336 35.5719 46.245L35.2815 46.0069L35.1537 45.9004C35.114 45.8656 35.0792 45.8298 35.0443 45.7978L34.6097 45.3845C34.5439 45.3224 34.5048 45.237 34.5008 45.1465C34.4968 45.0559 34.5283 44.9675 34.5884 44.8997C34.6486 44.832 34.7328 44.7904 34.8231 44.7837C34.9135 44.777 35.0029 44.8057 35.0724 44.8638L35.0918 44.8793L35.5215 45.2403C35.5554 45.2684 35.5912 45.2994 35.6299 45.3294L35.7548 45.4204L36.0345 45.6246C36.1313 45.7001 36.2445 45.7678 36.3617 45.8414C36.4788 45.915 36.5988 45.9953 36.7314 46.0679L37.1457 46.2895C37.2899 46.3641 37.4457 46.426 37.6016 46.4976L37.7196 46.5509L37.8435 46.5964L38.0942 46.6874C38.2607 46.7551 38.4407 46.7958 38.6188 46.85L38.7534 46.8896L38.8918 46.9197L39.1705 46.9797C39.2673 47.0029 39.3593 47.0145 39.4551 47.029L39.7455 47.0716C39.9391 47.091 40.1326 47.1094 40.333 47.12L40.6292 47.1278H40.7773H40.9263L41.2235 47.119C41.3203 47.1123 41.4171 47.1026 41.5187 47.0948C41.7123 47.0823 41.9117 47.0494 42.1052 47.0242C42.202 47.0135 42.2988 46.9913 42.3956 46.9748C42.4924 46.9584 42.5892 46.9429 42.6802 46.9197C42.867 46.8761 43.0519 46.8374 43.2319 46.7841C43.5939 46.6874 43.9356 46.5712 44.2579 46.4541C44.5802 46.337 44.8783 46.2073 45.1493 46.0776C45.4203 45.9479 45.6643 45.8249 45.8762 45.7069C46.0882 45.5888 46.2692 45.4813 46.4154 45.3904C46.5615 45.2994 46.6719 45.2248 46.7435 45.1745L46.819 45.1213L46.847 45.1009L46.8529 45.0961C47.0178 44.9929 47.2157 44.9561 47.4067 44.9929C47.5978 45.0298 47.7678 45.1377 47.8825 45.2948C47.9972 45.452 48.0481 45.6467 48.025 45.8399C48.0018 46.0331 47.9064 46.2104 47.7578 46.336C47.7453 46.3457 47.7307 46.3554 47.7182 46.3631Z" fill="url(#paint8_linear)"/>
</g>
<g style="mix-blend-mode:multiply">
<path style="mix-blend-mode:multiply" d="M53.8489 41.5602L53.8731 41.5844L53.8983 41.6086L53.9389 41.6483C54.0028 41.7074 54.1015 41.7964 54.2293 41.9067C54.357 42.0171 54.5255 42.1487 54.719 42.2939C54.9126 42.4391 55.1372 42.5969 55.3908 42.7556C55.6444 42.9143 55.9241 43.0799 56.227 43.2396C56.38 43.316 56.5368 43.3983 56.7013 43.4709C56.8659 43.5435 57.0343 43.617 57.2066 43.6887C57.2927 43.7264 57.3818 43.7555 57.4708 43.7855C57.5599 43.8155 57.6489 43.8532 57.7409 43.8823C57.9238 43.9384 58.1087 44.0023 58.2993 44.0478C58.6811 44.1493 59.0691 44.226 59.4608 44.2772C59.5576 44.2897 59.6544 44.2965 59.758 44.3062C59.8616 44.3159 59.9516 44.3294 60.0542 44.3294C60.2478 44.3294 60.45 44.3498 60.6456 44.3381L60.9359 44.3294C61.0327 44.3294 61.1295 44.3139 61.2263 44.3062L61.5167 44.2801L61.7964 44.2355L62.0723 44.191L62.3394 44.13L62.6017 44.07C62.6879 44.0468 62.7711 44.0197 62.8543 43.9955C63.1892 43.9045 63.4932 43.7777 63.7787 43.6722L64.1775 43.4912L64.3623 43.407L64.5327 43.316L64.8405 43.1515C64.8879 43.1253 64.9373 43.1021 64.977 43.0769L65.097 43.0024L65.5809 42.7043L65.6003 42.6927C65.6773 42.6413 65.7716 42.6227 65.8623 42.6409C65.9531 42.659 66.0329 42.7125 66.0843 42.7895C66.1356 42.8665 66.1542 42.9607 66.1361 43.0515C66.1179 43.1423 66.0645 43.2221 65.9875 43.2734L65.4948 43.6258L65.3709 43.7129C65.3273 43.7419 65.2799 43.77 65.2306 43.8009L64.9121 43.9945L64.736 44.1097L64.5424 44.2123L64.1233 44.4349C63.8213 44.5695 63.498 44.7253 63.136 44.8502C63.046 44.8831 62.956 44.9189 62.863 44.947L62.5727 45.0312L62.2823 45.1173L61.9784 45.186L61.6686 45.2547L61.3512 45.3051C61.2437 45.3196 61.1373 45.3419 61.0279 45.3515L60.6998 45.3815C60.48 45.4077 60.2565 45.4028 60.0329 45.4125C59.9206 45.4183 59.8093 45.4125 59.697 45.4077C59.5847 45.4028 59.4715 45.4019 59.3592 45.3951C58.9128 45.3651 58.4689 45.306 58.0303 45.218C57.8125 45.1793 57.6005 45.1212 57.3895 45.0708C57.284 45.0457 57.1824 45.0118 57.0798 44.9818C56.9772 44.9518 56.8746 44.9247 56.7759 44.885C56.5765 44.8173 56.38 44.7514 56.1951 44.675C56.0102 44.5985 55.8244 44.5249 55.6473 44.4485C55.2959 44.2897 54.9697 44.1281 54.6794 43.9645C54.389 43.8009 54.1218 43.6412 53.8915 43.4922C53.6611 43.3431 53.4656 43.2018 53.3059 43.0857C53.1462 42.9695 53.0213 42.8689 52.9352 42.7953L52.8781 42.7479L52.8316 42.7082L52.7997 42.6801C52.6457 42.5461 52.5512 42.3564 52.537 42.1527C52.5229 41.9491 52.5902 41.7481 52.7242 41.5941C52.8582 41.4401 53.0479 41.3456 53.2515 41.3314C53.4552 41.3173 53.6562 41.3846 53.8102 41.5186C53.8218 41.5283 53.8334 41.538 53.8441 41.5486L53.8489 41.5602Z" fill="url(#paint9_linear)"/>
</g>
<g style="mix-blend-mode:multiply">
<path style="mix-blend-mode:multiply" d="M53.7754 45.0988L53.8034 45.1191L53.8789 45.1723C53.9505 45.2227 54.0619 45.2972 54.207 45.3882C54.3522 45.4792 54.5332 45.5885 54.7462 45.7047C54.9591 45.8208 55.2021 45.9486 55.474 46.0754C55.746 46.2022 56.0441 46.328 56.3645 46.4519C56.6849 46.5758 57.0295 46.6891 57.3905 46.782C57.5705 46.8352 57.7564 46.8739 57.9432 46.9175C58.04 46.9407 58.1368 46.9533 58.2268 46.9727C58.3168 46.992 58.4204 47.0114 58.5171 47.022C58.7107 47.0472 58.9043 47.0801 59.1027 47.0927C59.1995 47.1004 59.2963 47.1101 59.3989 47.1169L59.6961 47.1256H59.8442H59.9922L60.2894 47.1178C60.483 47.1072 60.6766 47.0888 60.8759 47.0695L61.1663 47.0269C61.2631 47.0123 61.3599 47.0007 61.4499 46.9775L61.7296 46.9175L61.8671 46.8875L62.0016 46.8478C62.1797 46.7936 62.3598 46.751 62.5272 46.6852L62.7779 46.5942L62.9008 46.5487L63.0189 46.4955C63.1747 46.4239 63.3315 46.3619 63.4748 46.2874L63.89 46.0657C64.0226 45.9931 64.1417 45.9109 64.2598 45.8392C64.3778 45.7676 64.4892 45.6979 64.5869 45.6224L64.8666 45.4182L64.9915 45.3272C65.0302 45.2972 65.0651 45.2662 65.0989 45.2382L65.5297 44.8771L65.5471 44.8626C65.616 44.801 65.7066 44.7693 65.7989 44.7745C65.8912 44.7796 65.9777 44.8213 66.0393 44.8902C66.1009 44.9591 66.1326 45.0497 66.1274 45.142C66.1222 45.2343 66.0806 45.3208 66.0117 45.3824L65.5771 45.7976C65.5422 45.8296 65.5064 45.8654 65.4667 45.9002L65.339 46.0067L65.0486 46.2448C64.9518 46.3329 64.8308 46.4142 64.7089 46.5023C64.5869 46.5903 64.4601 46.6862 64.3217 46.7752L63.8813 47.0462C63.7284 47.143 63.5609 47.2175 63.3925 47.3076L63.2647 47.3743L63.1312 47.4334L62.8582 47.5524C62.6763 47.6386 62.4798 47.6986 62.2833 47.7712L62.1342 47.8244C62.0839 47.8399 62.0374 47.8535 61.9823 47.868L61.6725 47.9551C61.569 47.987 61.4625 48.0074 61.356 48.0306L61.0347 48.0993C60.8169 48.1342 60.5972 48.169 60.3765 48.1961L60.0426 48.2251C59.9864 48.23 59.9313 48.2358 59.8751 48.2387L59.7077 48.2445L59.3718 48.2542C59.2605 48.2542 59.1492 48.2542 59.0379 48.2484C58.8143 48.2484 58.5946 48.2261 58.3749 48.2106C58.2645 48.2048 58.1571 48.1874 58.0487 48.1758C57.9403 48.1642 57.8328 48.1525 57.7264 48.1332C57.5154 48.0983 57.3044 48.0674 57.1011 48.0209C56.6907 47.9415 56.3026 47.8331 55.9396 47.7247C55.5766 47.6163 55.233 47.4934 54.9243 47.3685C54.6155 47.2437 54.3338 47.1227 54.089 47.0065C53.8441 46.8904 53.6321 46.781 53.4579 46.6881C53.2837 46.5952 53.1501 46.5148 53.0552 46.4568L52.942 46.3871L52.9062 46.3638C52.8183 46.3106 52.742 46.2404 52.6817 46.1572C52.6214 46.0741 52.5783 45.9797 52.5551 45.8796C52.5319 45.7795 52.5289 45.6758 52.5464 45.5746C52.5639 45.4734 52.6014 45.3767 52.6569 45.2902C52.7123 45.2037 52.7846 45.1292 52.8693 45.0711C52.954 45.013 53.0494 44.9724 53.1501 44.9518C53.2507 44.9311 53.3544 44.9308 53.4552 44.9509C53.5559 44.971 53.6516 45.0111 53.7366 45.0688L53.7744 45.0939L53.7754 45.0988Z" fill="url(#paint10_linear)"/>
</g>
<path d="M51.4591 29.0761C51.4591 29.0761 49.7653 41.7402 59.82 42.9549C70.4563 44.2403 72.456 30.6199 72.456 30.6199C54.178 10.7051 51.4591 29.0761 51.4591 29.0761Z" fill="#302868"/>
<path d="M28.3179 30.6199C28.3179 30.6199 30.3166 44.2403 40.953 42.9549C51.0076 41.7402 49.3157 29.0761 49.3157 29.0761C49.3157 29.0761 46.5949 10.7051 28.3179 30.6199Z" fill="#302868"/>
<g style="mix-blend-mode:multiply" opacity="0.31">
<path d="M74.8023 32.1023C74.5994 31.3755 74.3338 30.6675 74.0087 29.9865C72.4716 26.6956 66.278 16.76 58.9373 17.8256C58.8818 17.8334 58.8259 17.8373 58.7699 17.8373C56.9192 17.8373 55.0424 18.9446 53.5431 20.1951C52.6958 20.9311 51.6112 21.3363 50.4889 21.3363C49.3666 21.3363 48.282 20.9311 47.4347 20.1951C45.9373 18.9446 44.0605 17.8344 42.2079 17.8373C42.1519 17.8372 42.096 17.8334 42.0405 17.8256C34.6999 16.7609 28.5072 26.6946 26.9692 29.9865C26.655 30.6473 26.396 31.333 26.1948 32.0365C26.5984 32.6357 27.186 33.1225 27.4531 33.6558C27.8964 34.6731 28.2836 35.7184 28.6523 36.7735C28.8336 36.6978 28.9903 36.5736 29.1053 36.4144C30.0916 35.1183 31.5725 31.5255 34.0881 29.368C44.348 20.56 48.8827 29.9536 48.8827 29.6022C48.8827 29.5248 49.2582 29.4861 50.4797 29.4861H50.4981C51.7196 29.4861 52.1019 29.4628 52.1019 29.5403C52.1019 29.8916 56.6269 20.5629 66.8906 29.368C69.4072 31.5255 70.8862 35.1183 71.8725 36.4144C71.9989 36.5883 72.1751 36.7199 72.3777 36.7919C72.6855 35.853 72.9865 34.9277 73.4289 34.043C73.696 33.378 74.3736 32.8041 74.8023 32.1023Z" fill="#22293D"/>
</g>
<path d="M73.3508 33.6067C73.9722 33.6726 68.5916 18.8248 62.156 16.7757C60.6073 14.8186 59.139 12.7376 56.5721 10.4669C53.7419 7.96485 52.9841 6.3494 52.5901 5.70768C52.5633 5.66238 52.5246 5.62523 52.4783 5.6002C52.432 5.57518 52.3797 5.56322 52.3271 5.56561C52.2745 5.56799 52.2236 5.58463 52.1797 5.61375C52.1358 5.64287 52.1007 5.68337 52.0781 5.73091C51.929 6.04161 51.5138 7.26311 51.1634 8.20005C51.1519 8.23126 51.1297 8.25738 51.1007 8.27373C51.0718 8.29008 51.0379 8.29561 51.0052 8.28933C50.9726 8.28306 50.9432 8.26538 50.9224 8.23945C50.9015 8.21353 50.8906 8.18104 50.8914 8.14778C50.906 6.19454 50.0823 4.1687 49.7106 3.55021C49.6844 3.50581 49.6463 3.46962 49.6007 3.44569C49.555 3.42177 49.5036 3.41106 49.4522 3.41479C49.4008 3.41851 49.3514 3.43651 49.3097 3.46676C49.268 3.49701 49.2355 3.53832 49.216 3.58602C48.7853 4.61684 47.6673 7.28925 44.3968 10.4717C42.0176 12.785 39.9821 14.9648 38.2389 16.9887C32.0414 19.4278 26.6917 31.6593 27.4409 33.6145C27.77 35.108 29.3264 41.3994 33.7623 46.2844C34.0875 48.5832 35.1842 55.9258 37.9176 71.031C37.9267 71.0831 37.9483 71.1323 37.9805 71.1743C38.4509 71.7753 42.3361 76.4571 50.2729 77.5557C50.4297 77.578 50.6049 77.5993 50.6049 77.5993C59.3161 76.5181 63.0407 71.1143 63.0407 71.1143C65.8844 55.4041 66.9626 48.0664 67.2433 46.057C71.5234 41.1961 73.0295 35.0625 73.3508 33.6067Z" stroke="url(#paint11_linear)" stroke-width="1.25828" stroke-linecap="round" stroke-linejoin="round"/>
<path d="M27.3682 32.3982C27.9596 32.7341 28.6487 32.8376 29.1104 32.2598C30.0967 31.018 31.5776 27.5761 34.0932 25.5086C44.3531 17.0733 48.0418 26.07 48.0418 25.7341C48.0418 25.6596 49.2633 25.6219 50.4848 25.6219H50.5032C51.7247 25.6219 52.9472 25.6596 52.9472 25.7341C52.9472 26.07 56.632 17.0733 66.8957 25.5086C69.4123 27.5761 70.8913 31.018 71.8776 32.2598C72.588 33.1551 73.8511 32.4156 74.4483 31.7081C75.2837 30.7189 75.3872 28.9234 74.0118 26.102C72.4748 22.9485 66.3063 13.6159 58.9405 14.4512C57.1527 14.6535 55.4231 15.3862 53.9732 16.116C52.8936 16.6583 51.7021 16.9407 50.494 16.9407C49.2859 16.9407 48.0944 16.6583 47.0148 16.116C45.563 15.3862 43.8353 14.6535 42.0475 14.4512C34.6827 13.6149 28.5142 22.9485 26.9762 26.102C25.6008 28.9234 25.7044 30.7189 26.5406 31.7081C26.7761 31.9838 27.057 32.2172 27.3711 32.3982" fill="#706F93"/>
<path opacity="0.44" d="M27.3985 30.2898C27.9889 30.615 28.6771 30.7156 29.1349 30.1552C30.1202 28.9502 31.5992 25.6118 34.1109 23.6063C41.1767 17.9673 45.117 20.2041 46.8873 22.1399C47.338 22.636 47.8872 23.0324 48.4999 23.3039C49.1126 23.5754 49.7752 23.716 50.4454 23.7167H50.5364C51.2067 23.7158 51.8694 23.5749 52.4821 23.303C53.0948 23.0312 53.6439 22.6344 54.0944 22.138C55.8637 20.2022 59.8051 17.9653 66.8708 23.6044C69.3874 25.6099 70.8615 28.9482 71.8469 30.1533C72.5563 31.0244 73.8185 30.3043 74.4138 29.618C75.2491 28.6579 75.3526 26.9166 73.9782 24.1793C72.4421 21.1227 66.2814 12.0717 58.9262 12.8799C57.1404 13.0735 55.4127 13.7869 53.9657 14.4954C52.8839 15.0251 51.6954 15.3005 50.4909 15.3005C49.2864 15.3005 48.0978 15.0251 47.0161 14.4954C45.5642 13.7869 43.8404 13.0764 42.0555 12.8799C34.7004 12.0717 28.5387 21.1227 27.0036 24.1813C25.6301 26.9185 25.7337 28.6598 26.568 29.62C26.8048 29.8887 27.0857 30.1152 27.3985 30.2898" fill="url(#paint12_linear)"/>
<path d="M39.3218 33.8195C39.5977 36.911 41.3544 39.2814 43.238 39.113C45.1216 38.9445 46.4321 36.306 46.1562 33.2087C45.8804 30.1114 44.1236 27.7468 42.2401 27.9152C40.3565 28.0836 39.046 30.7221 39.3218 33.8195Z" fill="#FED402"/>
<path d="M39.3218 33.8195C39.5977 36.911 41.3544 39.2814 43.238 39.113C45.1216 38.9445 46.4321 36.306 46.1562 33.2087C45.8804 30.1114 44.1236 27.7468 42.2401 27.9152C40.3565 28.0836 39.046 30.7221 39.3218 33.8195Z" fill="url(#paint13_linear)"/>
<path d="M39.3218 33.8195C39.5977 36.911 41.3544 39.2814 43.238 39.113C45.1216 38.9445 46.4321 36.306 46.1562 33.2087C45.8804 30.1114 44.1236 27.7468 42.2401 27.9152C40.3565 28.0836 39.046 30.7221 39.3218 33.8195Z" stroke="#ED7323" stroke-width="0.727869" stroke-linecap="round" stroke-linejoin="round"/>
<path d="M61.6414 33.8186C61.3655 36.9101 59.6087 39.2806 57.7252 39.1121C55.8416 38.9437 54.5311 36.3052 54.8079 33.2079C55.0847 30.1106 56.8357 27.7518 58.7231 27.9163C60.6105 28.0809 61.9172 30.7233 61.6414 33.8206" fill="#FED402"/>
<path d="M61.6414 33.8186C61.3655 36.9101 59.6087 39.2806 57.7252 39.1121C55.8416 38.9437 54.5311 36.3052 54.8079 33.2079C55.0847 30.1106 56.8357 27.7518 58.7231 27.9163C60.6105 28.0809 61.9172 30.7233 61.6414 33.8206" fill="url(#paint14_linear)"/>
<path d="M61.6414 33.8186C61.3655 36.9101 59.6087 39.2806 57.7252 39.1121C55.8416 38.9437 54.5311 36.3052 54.8079 33.2079C55.0847 30.1106 56.8357 27.7518 58.7231 27.9163C60.6105 28.0809 61.9172 30.7233 61.6414 33.8206" stroke="#ED7323" stroke-width="0.727869" stroke-linecap="round" stroke-linejoin="round"/>
<g style="mix-blend-mode:multiply" opacity="0.25">
<path d="M62.0663 63.5107C62.0103 63.4838 61.9467 63.4773 61.8864 63.4923C61.8261 63.5073 61.773 63.5429 61.7362 63.593C59.8168 66.4377 55.4032 68.2758 50.491 68.2758C45.5789 68.2758 41.1642 66.4367 39.2458 63.593C39.2088 63.543 39.1555 63.5075 39.0951 63.4925C39.0347 63.4774 38.971 63.4839 38.9148 63.5107C38.8879 63.5218 38.8635 63.5382 38.8432 63.5592C38.823 63.5801 38.8073 63.605 38.7972 63.6323C38.7871 63.6596 38.7828 63.6887 38.7846 63.7178C38.7863 63.7468 38.7941 63.7752 38.8074 63.8011C40.8109 67.576 45.3969 70.018 50.491 70.018C55.5851 70.018 60.1701 67.5779 62.1737 63.8011C62.187 63.7752 62.1948 63.7468 62.1965 63.7178C62.1983 63.6887 62.1939 63.6596 62.1838 63.6323C62.1737 63.605 62.1581 63.5801 62.1378 63.5592C62.1176 63.5382 62.0932 63.5218 62.0663 63.5107V63.5107Z" fill="#262262"/>
</g>
<path d="M50.4908 67.6124C45.3464 67.6124 40.9317 65.6379 39.0317 62.8213C40.9317 66.4026 45.3464 68.9114 50.4908 68.9114C55.6353 68.9114 60.0499 66.4016 61.949 62.8213C60.0499 65.6379 55.6343 67.6124 50.4908 67.6124Z" fill="#8F5924"/>
<path d="M50.4908 67.6124C45.3464 67.6124 40.9317 65.6379 39.0317 62.8213C40.9317 66.4026 45.3464 68.9114 50.4908 68.9114C55.6353 68.9114 60.0499 66.4016 61.949 62.8213C60.0499 65.6379 55.6343 67.6124 50.4908 67.6124Z" fill="#6D3F4B" stroke="#6D3F4B" stroke-width="0.798526" stroke-linecap="round" stroke-linejoin="round"/>
<path d="M59.7879 49.1781C47.7239 35.4957 53.2516 25.1884 53.2516 25.1884L53.1548 25.1313C52.3421 24.6624 51.4203 24.4155 50.4819 24.4155C49.5436 24.4155 48.6218 24.6624 47.809 25.1313L47.7123 25.1884C47.7123 25.1884 53.239 35.4957 41.175 49.1781C40.9735 49.3991 40.8306 49.6671 40.7592 49.9575C40.6879 50.248 40.6904 50.5517 40.7665 50.8409C41.1643 52.286 42.863 55.03 49.4526 58.59C49.7691 58.7592 50.1225 58.8477 50.4814 58.8477C50.8404 58.8477 51.1938 58.7592 51.5103 58.59C58.0999 55.03 59.7995 52.286 60.1964 50.8409C60.2725 50.5517 60.275 50.248 60.2037 49.9575C60.1323 49.6671 59.9894 49.3991 59.7879 49.1781V49.1781Z" fill="url(#paint15_linear)"/>
<path d="M50.5225 60.8547L61.3186 52.0767L60.7475 50.77C60.0465 50.7694 59.355 50.9317 58.7275 51.2443L54.3496 53.4395C53.1271 53.9506 51.8152 54.2138 50.4901 54.2138C49.165 54.2138 47.8531 53.9506 46.6306 53.4395L42.2508 51.2443C41.6229 50.9317 40.9311 50.7694 40.2298 50.77L39.6587 52.0767L50.4596 60.8547V60.907L50.4867 60.9282V60.936H50.4916H50.4964V60.9282L50.5225 60.907V60.8547Z" fill="#6B162D"/>
<g style="mix-blend-mode:multiply" opacity="0.32">
<g style="mix-blend-mode:multiply" opacity="0.32">
<path d="M79.4778 30.0193C80.0469 30.4549 83.6592 25.8002 82.5606 21.6091C82.4956 21.365 82.3822 21.1365 82.2273 20.937C82.0723 20.7375 81.8789 20.5711 81.6585 20.4476C79.2678 19.0926 75.4107 19.3229 74.0991 20.5773C74.0953 20.5744 75.2422 26.77 79.4778 30.0193Z" stroke="#4E5370" stroke-width="1.45187" stroke-linecap="round" stroke-linejoin="round"/>
</g>
<g style="mix-blend-mode:multiply" opacity="0.32">
<path d="M21.7667 29.8988C21.1985 30.3344 17.2707 25.7997 18.3683 21.6086C18.4337 21.3647 18.5472 21.1363 18.7021 20.9368C18.857 20.7374 19.0503 20.5709 19.2704 20.4471C21.6621 19.0921 25.4322 19.1008 26.7437 20.3552C26.7437 20.3523 26.0032 26.6495 21.7667 29.8988Z" stroke="#4E5370" stroke-width="1.45187" stroke-linecap="round" stroke-linejoin="round"/>
</g>
</g>
<path d="M78.8018 30.0092C78.8018 30.0092 83.5862 25.2452 82.4799 21.028C82.4143 20.7837 82.3004 20.5551 82.145 20.3556C81.9895 20.1561 81.7957 19.9898 81.5749 19.8665C79.1754 18.5114 75.0899 18.7573 73.7774 20.0117C73.7754 20.0088 73.8577 26.7445 78.8018 30.0092Z" fill="#DB9982"/>
<g opacity="0.61">
<path opacity="0.71" d="M74.4105 23.2436C76.2195 21.572 81.6698 21.3445 81.3795 21.0629C79.5288 19.2345 76.1799 19.2345 74.3737 20.6418C74.3737 20.6418 72.0517 25.4233 74.4105 23.2436Z" fill="url(#paint16_linear)"/>
</g>
<path style="mix-blend-mode:multiply" opacity="0.39" d="M75.2562 26.2033C75.2562 26.2033 77.0381 22.7933 79.031 22.5252C81.0239 22.2571 81.7518 25.4231 80.2361 28.5466C78.7203 31.67 75.1516 26.4307 75.2562 26.2033Z" fill="url(#paint17_linear)"/>
<path d="M78.5133 30.05C79.0815 30.4865 83.6588 25.1224 82.5602 20.9313C82.4951 20.6872 82.3818 20.4587 82.2268 20.2591C82.0719 20.0596 81.8785 19.8932 81.6581 19.7698C79.2673 18.4148 75.1992 18.6606 73.8867 19.915C73.8867 19.9121 74.2768 26.8017 78.5133 30.05Z" stroke="#753B43" stroke-width="0.908868" stroke-linecap="round" stroke-linejoin="round"/>
<path d="M75.4604 25.1985C75.4604 25.1985 77.4931 22.5368 79.4773 22.7787" stroke="#753B43" stroke-width="0.908868" stroke-linecap="round" stroke-linejoin="round"/>
<path d="M22.1273 30.0092C22.1273 30.0092 17.3429 25.2452 18.4492 21.028C18.5145 20.7836 18.6282 20.5548 18.7837 20.3553C18.9392 20.1557 19.1332 19.9895 19.3542 19.8665C21.7537 18.5114 25.8392 18.7573 27.1517 20.0117C27.1517 20.0088 27.0724 26.7445 22.1273 30.0092Z" fill="#DB9982"/>
<g opacity="0.61">
<path opacity="0.71" d="M26.5705 23.5312C24.7614 21.8596 19.3111 21.6312 19.6015 21.3505C21.4551 19.526 24.804 19.526 26.6101 20.9295C26.6063 20.9295 28.9283 25.7109 26.5705 23.5312Z" fill="url(#paint18_linear)"/>
</g>
<path style="mix-blend-mode:multiply" opacity="0.39" d="M25.7244 26.4883C25.7244 26.4883 23.9425 23.0774 21.9495 22.8054C19.9566 22.5334 19.2287 25.7091 20.7435 28.8268C22.2583 31.9444 25.8279 26.7186 25.7244 26.4883Z" fill="url(#paint19_linear)"/>
<path d="M22.4159 30.05C21.8467 30.4865 17.2704 25.1224 18.368 20.9313C18.4334 20.6874 18.5469 20.459 18.7018 20.2595C18.8568 20.06 19.05 19.8936 19.2701 19.7698C21.6618 18.4148 25.73 18.6606 27.0415 19.915C27.0415 19.9121 26.6524 26.8017 22.4159 30.05Z" stroke="#753B43" stroke-width="0.908868" stroke-linecap="round" stroke-linejoin="round"/>
<path d="M25.468 25.1985C25.468 25.1985 23.4354 22.5368 21.4512 22.7787" stroke="#753B43" stroke-width="0.908868" stroke-linecap="round" stroke-linejoin="round"/>
<path d="M20.1099 31.8507C20.1099 31.8507 27.5105 27.9084 27.1408 17.9922" stroke="#8595AF" stroke-width="1.18956" stroke-linecap="round" stroke-linejoin="round"/>
<path d="M80.8402 31.8507C80.8402 31.8507 73.4396 27.9084 73.8093 17.9922" stroke="#8595AF" stroke-width="1.18956" stroke-linecap="round" stroke-linejoin="round"/>
<path d="M73.7752 33.0756C74.0259 32.9047 74.2514 32.6994 74.445 32.4658C75.2803 31.4437 75.3839 29.5902 74.0085 26.6768C72.4714 23.4159 66.3029 13.7794 58.9371 14.6418C57.2433 14.8353 55.6017 15.5303 54.2012 16.2427C53.0519 16.8282 51.7805 17.1334 50.4907 17.1334C49.2009 17.1334 47.9294 16.8282 46.7802 16.2427C45.3796 15.5303 43.738 14.8402 42.0442 14.6418C34.6794 13.7794 28.5109 23.4159 26.9729 26.6729C25.6023 29.5912 25.6991 31.4399 26.5373 32.462C26.74 32.7195 26.9669 32.9571 27.2148 33.1715" stroke="url(#paint20_linear)" stroke-width="1.25828" stroke-linecap="round" stroke-linejoin="round"/>
<defs>
<linearGradient id="paint0_linear" x1="50.4815" y1="9.24853" x2="50.4815" y2="82.5997" gradientUnits="userSpaceOnUse">
<stop stop-color="#677A91" stop-opacity="0"/>
<stop offset="1" stop-color="#677A91"/>
</linearGradient>
<linearGradient id="paint1_linear" x1="50.4815" y1="9.24853" x2="50.4815" y2="82.5997" gradientUnits="userSpaceOnUse">
<stop stop-color="white"/>
<stop offset="0.09" stop-color="white" stop-opacity="0.86"/>
<stop offset="0.29" stop-color="white" stop-opacity="0.61"/>
<stop offset="0.47" stop-color="white" stop-opacity="0.39"/>
<stop offset="0.63" stop-color="white" stop-opacity="0.22"/>
<stop offset="0.78" stop-color="white" stop-opacity="0.1"/>
<stop offset="0.91" stop-color="white" stop-opacity="0.03"/>
<stop offset="1" stop-color="white" stop-opacity="0"/>
</linearGradient>
<linearGradient id="paint2_linear" x1="50.385" y1="7.32767" x2="50.385" y2="42.3477" gradientUnits="userSpaceOnUse">
<stop stop-color="white"/>
<stop offset="0.02" stop-color="#FEFEFD" stop-opacity="0.96"/>
<stop offset="0.13" stop-color="#F5F5F5" stop-opacity="0.74"/>
<stop offset="0.25" stop-color="#EEEEED" stop-opacity="0.54"/>
<stop offset="0.37" stop-color="#E7E7E7" stop-opacity="0.38"/>
<stop offset="0.49" stop-color="#E2E2E1" stop-opacity="0.24"/>
<stop offset="0.62" stop-color="#DEDEDD" stop-opacity="0.13"/>
<stop offset="0.74" stop-color="#DBDBDA" stop-opacity="0.06"/>
<stop offset="0.87" stop-color="#DADAD9" stop-opacity="0.01"/>
<stop offset="1" stop-color="#D9D9D8" stop-opacity="0"/>
</linearGradient>
<linearGradient id="paint3_linear" x1="50.348" y1="70.0063" x2="50.348" y2="93.664" gradientUnits="userSpaceOnUse">
<stop stop-color="white"/>
<stop offset="0.99" stop-color="#687291"/>
</linearGradient>
<linearGradient id="paint4_linear" x1="50.4825" y1="46.1753" x2="50.4825" y2="76.0498" gradientUnits="userSpaceOnUse">
<stop stop-color="#C38E80" stop-opacity="0"/>
<stop offset="1" stop-color="#B0655B"/>
</linearGradient>
<linearGradient id="paint5_linear" x1="38.2799" y1="49.7305" x2="38.2799" y2="30.8911" gradientUnits="userSpaceOnUse">
<stop offset="0.23" stop-color="#4257A6"/>
<stop offset="1" stop-color="#5380C1"/>
</linearGradient>
<linearGradient id="paint6_linear" x1="12422.5" y1="9169.37" x2="12422.5" y2="5502.45" gradientUnits="userSpaceOnUse">
<stop offset="0.23" stop-color="#4257A6"/>
<stop offset="1" stop-color="#5380C1"/>
</linearGradient>
<linearGradient id="paint7_linear" x1="34.0687" y1="43.3732" x2="48.0647" y2="43.3732" gradientUnits="userSpaceOnUse">
<stop stop-color="#3769A4" stop-opacity="0.03"/>
<stop offset="0.17" stop-color="#3769A4" stop-opacity="0.3"/>
<stop offset="0.35" stop-color="#3769A4" stop-opacity="0.55"/>
<stop offset="0.53" stop-color="#3769A4" stop-opacity="0.75"/>
<stop offset="0.7" stop-color="#3769A4" stop-opacity="0.89"/>
<stop offset="0.86" stop-color="#3769A4" stop-opacity="0.97"/>
<stop offset="1" stop-color="#3769A4"/>
</linearGradient>
<linearGradient id="paint8_linear" x1="3763.62" y1="1613.21" x2="5715.85" y2="1613.21" gradientUnits="userSpaceOnUse">
<stop stop-color="#3769A4" stop-opacity="0.03"/>
<stop offset="0.17" stop-color="#3769A4" stop-opacity="0.3"/>
<stop offset="0.35" stop-color="#3769A4" stop-opacity="0.55"/>
<stop offset="0.53" stop-color="#3769A4" stop-opacity="0.75"/>
<stop offset="0.7" stop-color="#3769A4" stop-opacity="0.89"/>
<stop offset="0.86" stop-color="#3769A4" stop-opacity="0.97"/>
<stop offset="1" stop-color="#3769A4"/>
</linearGradient>
<linearGradient id="paint9_linear" x1="52.5538" y1="43.3731" x2="66.5498" y2="43.3731" gradientUnits="userSpaceOnUse">
<stop stop-color="#3769A4"/>
<stop offset="0.96" stop-color="#3769A4" stop-opacity="0.03"/>
</linearGradient>
<linearGradient id="paint10_linear" x1="6395.07" y1="1617.46" x2="8356.38" y2="1617.46" gradientUnits="userSpaceOnUse">
<stop stop-color="#3769A4"/>
<stop offset="0.96" stop-color="#3769A4" stop-opacity="0.03"/>
</linearGradient>
<linearGradient id="paint11_linear" x1="50.3872" y1="78.2284" x2="50.3872" y2="2.77975" gradientUnits="userSpaceOnUse">
<stop stop-color="#6E4957"/>
<stop offset="0.03" stop-color="#6A4856"/>
<stop offset="0.21" stop-color="#554350"/>
<stop offset="0.41" stop-color="#463F4B"/>
<stop offset="0.64" stop-color="#3E3D49"/>
<stop offset="1" stop-color="#3B3C48"/>
</linearGradient>
<linearGradient id="paint12_linear" x1="50.4909" y1="30.555" x2="50.4909" y2="12.8286" gradientUnits="userSpaceOnUse">
<stop stop-color="#787878" stop-opacity="0"/>
<stop offset="0.33" stop-color="#A9A9A9" stop-opacity="0.37"/>
<stop offset="0.66" stop-color="#D7D7D7" stop-opacity="0.71"/>
<stop offset="0.89" stop-color="#F4F4F4" stop-opacity="0.92"/>
<stop offset="1" stop-color="white"/>
</linearGradient>
<linearGradient id="paint13_linear" x1="42.7395" y1="39.1217" x2="42.7395" y2="27.9094" gradientUnits="userSpaceOnUse">
<stop stop-color="#FED402"/>
<stop offset="1" stop-color="#F6A71C"/>
</linearGradient>
<linearGradient id="paint14_linear" x1="-3889.14" y1="4237.71" x2="-3889.14" y2="2938.87" gradientUnits="userSpaceOnUse">
<stop stop-color="#FED402"/>
<stop offset="1" stop-color="#F6A71C"/>
</linearGradient>
<linearGradient id="paint15_linear" x1="50.4814" y1="58.8475" x2="50.4814" y2="24.415" gradientUnits="userSpaceOnUse">
<stop offset="0.01" stop-color="#D62027"/>
<stop offset="0.13" stop-color="#CF2028"/>
<stop offset="0.31" stop-color="#BC1F2C"/>
<stop offset="0.42" stop-color="#AD1F2F"/>
<stop offset="0.52" stop-color="#AA2334"/>
<stop offset="0.64" stop-color="#A22E43"/>
<stop offset="0.76" stop-color="#94405B"/>
<stop offset="0.89" stop-color="#81597C"/>
<stop offset="1" stop-color="#6E719C"/>
</linearGradient>
<linearGradient id="paint16_linear" x1="77.3723" y1="23.8127" x2="77.3723" y2="19.6371" gradientUnits="userSpaceOnUse">
<stop stop-color="#BA8383" stop-opacity="0"/>
<stop offset="0.1" stop-color="#BB8686" stop-opacity="0.03"/>
<stop offset="0.23" stop-color="#BF8D8D" stop-opacity="0.1"/>
<stop offset="0.38" stop-color="#C49A99" stop-opacity="0.22"/>
<stop offset="0.55" stop-color="#CCABAB" stop-opacity="0.4"/>
<stop offset="0.73" stop-color="#D6C1C1" stop-opacity="0.62"/>
<stop offset="0.92" stop-color="#E3DCDB" stop-opacity="0.88"/>
<stop offset="1" stop-color="#E8E8E7"/>
</linearGradient>
<linearGradient id="paint17_linear" x1="77.595" y1="21.336" x2="78.5666" y2="28.2066" gradientUnits="userSpaceOnUse">
<stop offset="0.28" stop-color="#94688A"/>
<stop offset="1" stop-color="#94688A" stop-opacity="0"/>
</linearGradient>
<linearGradient id="paint18_linear" x1="-1166.59" y1="939.826" x2="-1166.59" y2="759.621" gradientUnits="userSpaceOnUse">
<stop stop-color="#BA8383" stop-opacity="0"/>
<stop offset="0.1" stop-color="#BB8686" stop-opacity="0.03"/>
<stop offset="0.23" stop-color="#BF8D8D" stop-opacity="0.1"/>
<stop offset="0.38" stop-color="#C49A99" stop-opacity="0.22"/>
<stop offset="0.55" stop-color="#CCABAB" stop-opacity="0.4"/>
<stop offset="0.73" stop-color="#D6C1C1" stop-opacity="0.62"/>
<stop offset="0.92" stop-color="#E3DCDB" stop-opacity="0.88"/>
<stop offset="1" stop-color="#E8E8E7"/>
</linearGradient>
<linearGradient id="paint19_linear" x1="3494.26" y1="3057.66" x2="3421.52" y2="3556.23" gradientUnits="userSpaceOnUse">
<stop offset="0.28" stop-color="#94688A"/>
<stop offset="1" stop-color="#94688A" stop-opacity="0"/>
</linearGradient>
<linearGradient id="paint20_linear" x1="25.2916" y1="23.8795" x2="75.6897" y2="23.8795" gradientUnits="userSpaceOnUse">
<stop stop-color="#3B3C48"/>
<stop offset="1" stop-color="#3B3C48"/>
</linearGradient>
</defs>
</svg>
