<svg xmlns="http://www.w3.org/2000/svg" xmlns:xlink="http://www.w3.org/1999/xlink" viewBox="0 0 858.59 998.19"><defs><style>.cls-1{isolation:isolate;}.cls-2,.cls-36{fill:#a85522;}.cls-11,.cls-12,.cls-14,.cls-15,.cls-16,.cls-24,.cls-29,.cls-3,.cls-30,.cls-31,.cls-32,.cls-34,.cls-35,.cls-37,.cls-38,.cls-4{opacity:0.5;}.cls-11,.cls-14,.cls-16,.cls-24,.cls-29,.cls-3,.cls-31,.cls-34,.cls-36,.cls-37,.cls-6,.cls-9{mix-blend-mode:multiply;}.cls-3{fill:url(#linear-gradient);}.cls-12,.cls-15,.cls-17,.cls-25,.cls-30,.cls-32,.cls-35,.cls-38,.cls-4{mix-blend-mode:screen;}.cls-4{fill:url(#linear-gradient-2);}.cls-10,.cls-13,.cls-21,.cls-27,.cls-33,.cls-5{fill:none;stroke-linecap:round;stroke-linejoin:round;}.cls-13,.cls-33,.cls-5{stroke:#5c2a15;}.cls-5{stroke-width:10.81px;}.cls-26,.cls-6,.cls-9{fill:#262262;}.cls-6{opacity:0.4;}.cls-7{fill:#eba900;}.cls-8{fill:#cf8a00;}.cls-9{opacity:0.25;}.cls-10{stroke:#78381b;}.cls-10,.cls-33{stroke-width:7.56px;}.cls-11{fill:url(#linear-gradient-3);}.cls-12{fill:url(#linear-gradient-4);}.cls-13{stroke-width:7.87px;}.cls-14{fill:url(#linear-gradient-5);}.cls-15{fill:url(#linear-gradient-6);}.cls-16{fill:url(#linear-gradient-7);}.cls-17,.cls-25,.cls-36{opacity:0.75;}.cls-17{fill:url(#linear-gradient-8);}.cls-18{fill:#462314;}.cls-19{fill:#603913;}.cls-20{fill:url(#linear-gradient-9);}.cls-21,.cls-27{stroke:#462314;}.cls-21{stroke-width:4.77px;}.cls-22{fill:url(#linear-gradient-10);}.cls-23{fill:#ffc557;}.cls-24{fill:url(#linear-gradient-11);}.cls-25{fill:url(#linear-gradient-12);}.cls-26{opacity:0.2;mix-blend-mode:darken;}.cls-27{stroke-width:9.1px;}.cls-28{fill:#db6015;}.cls-29{fill:url(#linear-gradient-13);}.cls-30{fill:url(#linear-gradient-14);}.cls-31{fill:url(#linear-gradient-15);}.cls-32{fill:url(#linear-gradient-16);}.cls-34{fill:url(#linear-gradient-17);}.cls-35{fill:url(#linear-gradient-18);}.cls-37{fill:url(#linear-gradient-19);}.cls-38{fill:url(#linear-gradient-20);}</style><linearGradient id="linear-gradient" x1="429.54" y1="227.75" x2="429.54" y2="917.16" gradientUnits="userSpaceOnUse"><stop offset="0" stop-color="#a85522" stop-opacity="0"/><stop offset="1" stop-color="#a85522"/></linearGradient><linearGradient id="linear-gradient-2" x1="429.54" y1="751.82" x2="429.54" y2="96.51" xlink:href="#linear-gradient"/><linearGradient id="linear-gradient-3" x1="246.69" y1="256.88" x2="246.69" y2="902.11" xlink:href="#linear-gradient"/><linearGradient id="linear-gradient-4" x1="246.69" y1="746.92" x2="246.69" y2="137.9" xlink:href="#linear-gradient"/><linearGradient id="linear-gradient-5" x1="611.9" y1="227.75" x2="611.9" y2="917.16" xlink:href="#linear-gradient"/><linearGradient id="linear-gradient-6" x1="611.9" y1="751.82" x2="611.9" y2="96.51" xlink:href="#linear-gradient"/><linearGradient id="linear-gradient-7" x1="429.29" y1="224.87" x2="429.29" y2="589.94" gradientUnits="userSpaceOnUse"><stop offset="0" stop-color="#eba900" stop-opacity="0"/><stop offset="1" stop-color="#eba900"/></linearGradient><linearGradient id="linear-gradient-8" x1="429.29" y1="556.96" x2="429.29" y2="221.27" xlink:href="#linear-gradient-7"/><linearGradient id="linear-gradient-9" x1="-40.55" y1="440.85" x2="-40.55" y2="349.47" gradientTransform="matrix(-1, 0, 0, 1, 508.27, 0)" gradientUnits="userSpaceOnUse"><stop offset="0" stop-color="#603913" stop-opacity="0"/><stop offset="1" stop-color="#3c2415"/></linearGradient><linearGradient id="linear-gradient-10" x1="309.77" y1="440.85" x2="309.77" y2="349.47" gradientTransform="matrix(1, 0, 0, 1, 0, 0)" xlink:href="#linear-gradient-9"/><linearGradient id="linear-gradient-11" x1="429.29" y1="523.29" x2="429.29" y2="762.16" gradientUnits="userSpaceOnUse"><stop offset="0" stop-color="#ffc557" stop-opacity="0"/><stop offset="1" stop-color="#ffc557"/></linearGradient><linearGradient id="linear-gradient-12" x1="429.29" y1="752.91" x2="429.29" y2="487.63" xlink:href="#linear-gradient-11"/><linearGradient id="linear-gradient-13" x1="429.38" y1="510.32" x2="429.38" y2="560.57" gradientUnits="userSpaceOnUse"><stop offset="0" stop-color="#db6015" stop-opacity="0"/><stop offset="1" stop-color="#db6015"/></linearGradient><linearGradient id="linear-gradient-14" x1="429.38" y1="563.27" x2="429.38" y2="500.59" xlink:href="#linear-gradient-13"/><linearGradient id="linear-gradient-15" x1="482.78" y1="136.81" x2="757.88" y2="411.92" xlink:href="#linear-gradient"/><linearGradient id="linear-gradient-16" x1="792.54" y1="446.57" x2="388.07" y2="42.1" xlink:href="#linear-gradient"/><linearGradient id="linear-gradient-17" x1="480.02" y1="139.56" x2="755.13" y2="414.67" xlink:href="#linear-gradient"/><linearGradient id="linear-gradient-18" x1="789.78" y1="449.32" x2="385.32" y2="44.86" xlink:href="#linear-gradient"/><linearGradient id="linear-gradient-19" x1="341.25" y1="159.88" x2="134.45" y2="366.68" xlink:href="#linear-gradient"/><linearGradient id="linear-gradient-20" x1="98.12" y1="403.01" x2="321.06" y2="180.07" xlink:href="#linear-gradient"/></defs><g class="cls-1"><g id="Layer_2" data-name="Layer 2"><g id="Face"><g id="default"><path class="cls-2" d="M847.71,557.62c-19-94.3-76.31-252.84-79.68-287.73s2.8-104.87-8.63-124.16c-29-49-154.32-131.07-188-138.93C518.71-5.49,348.11,67.48,348.11,67.48S233.48,33.73,190.07,66c-75.8,56.29-141.62,304.91-179.2,491.65S141.58,835,141.58,835s-2.29-32.46-1.18-70.33c29.7,55.86,109.16,168,288.89,228.09,175.62-58.71,255.5-167.12,286.78-224.16,1.49,33.74.93,66.4.93,66.4S885.29,744.35,847.71,557.62Z"/><path class="cls-3" d="M827.57,554.8c-16.66-90-72.64-240.66-75.85-273.87s2.67-99.82-8.22-118.18c-27.65-46.63-120.79-118.69-179-132.25C514.4,18.82,350.77,88.26,350.77,88.26s-108.51-31.67-149.83-1C128.79,140.86,65.2,376.74,31,554.8,1.39,709.14,119.17,787.48,119.17,787.48s-.54-37.82,14.59-71.31C162,769.34,258.21,911.82,429.29,969c167.16-55.89,270.09-199.1,299.86-253.39C744.28,756.15,741,788,741,788S858.82,723.73,827.57,554.8Z"/><path class="cls-4" d="M827.57,554.8c-16.66-90-72.64-240.66-75.85-273.87s2.67-99.82-8.22-118.18c-27.65-46.63-120.79-118.69-179-132.25C514.4,18.82,350.77,88.26,350.77,88.26s-108.51-31.67-149.83-1C128.79,140.86,65.2,376.74,31,554.8,1.39,709.14,119.17,787.48,119.17,787.48s-.54-37.82,14.59-71.31C162,769.34,258.21,911.82,429.29,969c167.16-55.89,270.09-199.1,299.86-253.39C744.28,756.15,741,788,741,788S858.82,723.73,827.57,554.8Z"/><path class="cls-5" d="M847.71,557.62c-19-94.3-76.31-252.84-79.68-287.73s2.8-104.87-8.63-124.16c-29-49-154.32-131.07-188-138.93C518.71-5.49,348.11,67.48,348.11,67.48S233.48,33.73,190.07,66c-75.8,56.29-141.62,304.91-179.2,491.65S141.58,835,141.58,835s-2.29-32.46-1.18-70.33c29.7,55.86,109.16,168,288.89,228.09,175.62-58.71,255.5-167.12,286.78-224.16,1.49,33.74.93,66.4.93,66.4S885.29,744.35,847.71,557.62Z"/><path class="cls-6" d="M154.32,397.87c20.81-28.21,37.92-92.8,32.71-123.4a3.79,3.79,0,0,0-2.2-2.82c-13.68-6.08-24.53-12.89-35-19.47-16.84-10.57-31.66-19.86-52.3-22-3.39,8.9-6.62,17.64-9.66,26.12C74.58,293.3,61.61,334,49.49,376.42a83.78,83.78,0,0,0,15.85,18.32c14.55,12.46,32.59,18.74,53.78,18.74a119,119,0,0,0,15.7-1.08C141.29,411.55,147.85,406.66,154.32,397.87Z"/><path class="cls-6" d="M803.27,377.14c-15.22-49.48-28.36-92.21-29.87-107.77-1-10.6-1.14-24.56-1.16-39.56-.76-.07-1.52-.12-2.27-.12h-.1c-25.43.11-42,10.48-61.09,22.49-10.49,6.58-21.34,13.39-35,19.47a3.78,3.78,0,0,0-2.19,2.82c-5.21,30.6,11.9,95.19,32.7,123.4,6.48,8.79,13,13.68,19.51,14.53a119,119,0,0,0,15.7,1.08c21.18,0,39.23-6.28,53.78-18.74a81.53,81.53,0,0,0,11.64-12.33Q804.07,379.77,803.27,377.14Z"/><path class="cls-7" d="M183.3,254.94c-39.17-17.41-56.81-41.48-94.6-41.64-21.63-.08-53.68,36-52.51,85.9.87,37.43,24.46,99,98.14,89.28C161,385,189.61,292,183.3,254.94Z"/><path class="cls-8" d="M145.68,284.51c-27.35-12.15-34.33-29-60.72-29.07-15.1-.06-27.26,9.57-26.45,44.42C59.12,326,75.59,369,127,362.21,145.67,359.75,150.09,310.35,145.68,284.51Z"/><path class="cls-9" d="M58.59,302c1.28-27.82,12.6-35.83,26.37-35.78,26.39.12,33.37,16.92,60.72,29.07A117.69,117.69,0,0,1,147.16,311a136.61,136.61,0,0,0-1.48-26.46c-27.35-12.15-34.33-29-60.72-29.07-15.1-.06-27.26,9.57-26.45,44.42C58.52,300.57,58.55,301.29,58.59,302Z"/><path class="cls-10" d="M183.3,254.94c-39.17-17.41-56.81-41.48-94.6-41.64-21.63-.08-53.68,36-52.51,85.9.87,37.43,24.46,99,98.14,89.28C161,385,189.61,292,183.3,254.94Z"/><path class="cls-7" d="M675.29,254.94c39.17-17.41,56.81-41.48,94.6-41.64,21.62-.08,53.67,36,52.51,85.9-.87,37.43-24.46,99-98.14,89.28C697.57,385,669,292,675.29,254.94Z"/><path class="cls-8" d="M712.91,284.51c27.35-12.15,34.33-29,60.72-29.07,15.1-.06,27.26,9.57,26.45,44.42C799.47,326,783,369,731.55,362.21,712.91,359.75,708.5,310.35,712.91,284.51Z"/><path class="cls-9" d="M800,302c-1.28-27.82-12.6-35.83-26.36-35.78-26.39.12-33.37,16.92-60.72,29.07A119.28,119.28,0,0,0,711.42,311a136.55,136.55,0,0,1,1.49-26.46c27.35-12.15,34.33-29,60.72-29.07,15.1-.06,27.26,9.57,26.45,44.42Q800.05,300.92,800,302Z"/><path class="cls-10" d="M675.29,254.94c39.17-17.41,56.81-41.48,94.6-41.64,21.62-.08,53.67,36,52.51,85.9-.87,37.43-24.46,99-98.14,89.28C697.57,385,669,292,675.29,254.94Z"/><path class="cls-2" d="M428.36,243S329,188.9,282.74,206.56s-95.24,84-98.35,120.92,19.41,86.59,27.09,130.37S95.06,682.39,95.06,682.39,51.18,618.33,51.18,536.23s62.7-160,74.51-247.22c6.39-47.15,53.52-124.48,157.05-149.21,43.35-10.36,123.33,42,123.33,42Z"/><path class="cls-11" d="M424.18,240.77l-17-56.24s-76.17-49.89-117.46-40c-98.59,23.56-143.48,118.34-149.57,163.25C128.91,390.77,69.2,465,69.2,543.19c0,59.48,17.5,115.68,25.88,139.17,1.68-2.45,124-181,116.4-224.51-7.68-43.78-30.2-93.45-27.09-130.37s52.07-103.27,98.35-120.92C323.37,191.05,404.87,230.82,424.18,240.77Z"/><path class="cls-12" d="M424.18,240.77l-17-52.46s-76.17-49.89-117.46-40c-98.59,23.56-143.48,114.56-149.57,159.47C128.91,390.77,69.2,465,69.2,543.19c0,59.48,17.5,115.68,25.88,139.17,1.68-2.45,124-181,116.4-224.51-7.68-43.78-30.2-93.45-27.09-130.37s52.07-103.27,98.35-120.92C323.37,191.05,404.87,230.82,424.18,240.77Z"/><path class="cls-13" d="M95.06,682.39S51.18,618.33,51.18,536.23s62.7-160,74.51-247.22c2.32-17.1,10-46.17,23.77-77.47"/><path class="cls-2" d="M430.23,243s99.34-54.07,145.61-36.41,95.25,84,98.36,120.92-19.41,86.59-27.09,130.37S763.53,682.39,763.53,682.39s43.87-64.06,43.87-146.16-62.7-160-74.5-247.22c-6.39-47.15-53.53-185.44-157.06-210.17-43.34-10.36-123.32,42-123.32,42Z"/><path class="cls-14" d="M789.39,543.19c0-78.2-59.71-152.42-71-235.44-6.08-44.91-51-176.6-149.57-200.16-41.28-9.86-117.45,40-117.45,40l-17,93.15c19.3-10,100.81-49.72,141.43-34.21,46.28,17.65,95.25,84,98.36,120.92s-19.41,86.59-27.09,130.37c-7.31,41.68,104.75,207.42,115.58,223.31C771.41,657.8,789.39,602.43,789.39,543.19Z"/><path class="cls-15" d="M789.39,543.19c0-78.2-59.71-152.42-71-235.44-6.08-44.91-51-176.6-149.57-200.16-41.28-9.86-117.45,40-117.45,40l-17,93.15c19.3-10,100.81-49.72,141.43-34.21,46.28,17.65,95.25,84,98.36,120.92s-19.41,86.59-27.09,130.37c-7.31,41.68,104.75,207.42,115.58,223.31C771.41,657.8,789.39,602.43,789.39,543.19Z"/><path class="cls-9" d="M744.74,447.81c-6.3-32.76-19.89-59.19-40.4-78.56-24-22.62-39.18-51.8-55.32-82.7-18.12-34.71-36.86-70.6-69.33-98-36.68-30.94-86.22-46.37-151.46-47.14a3.49,3.49,0,0,0-.65.05C363.43,142.64,314.63,158.19,278.4,189c-32.16,27.34-50.81,63-68.84,97.57-16.13,30.89-31.37,60.07-55.32,82.69-20.5,19.37-34.09,45.8-40.39,78.56-5,26-5.43,55.94-1.32,89.11a487.76,487.76,0,0,0,25.15,103.49,3.89,3.89,0,0,0,6.16,1.56c.18-.15,18.79-15.68,47.37-22.57s56.6-3.15,83.49,11.15c4.95,31.66,12.05,65.9,18.18,95.48l1.69,8.15c6.83,33,14.56,54.71,33.86,67.85,18.53,12.6,46.87,17.51,101.09,17.51S512,814.63,530.39,802C549.58,788.88,557,768,564,734.18l1.69-8.15c6.13-29.58,13.23-63.82,18.18-95.48,26.89-14.3,54.86-18.06,83.49-11.15s47.19,22.42,47.37,22.57a3.9,3.9,0,0,0,6.16-1.56,489.19,489.19,0,0,0,25.15-103.49C750.17,503.75,749.73,473.77,744.74,447.81Z"/><path class="cls-13" d="M763.53,682.39s43.87-64.06,43.87-146.16-62.7-160-74.5-247.22c-2.32-17.1-10-46.17-23.77-77.47"/><path class="cls-7" d="M693.28,363.9C616.12,291,629,146.5,428.21,144.11v0c-198.51,3.4-186,147.15-262.9,219.75-84.55,79.86-15.13,258.69-15.13,258.69s73.36-62.25,157.18,6H551.22c83.82-68.25,157.19-6,157.19-6S777.83,443.76,693.28,363.9Z"/><path class="cls-16" d="M675.92,365.38C603.84,297.3,615.85,162.27,428.28,160v0c-185.45,3.18-173.79,137.48-245.61,205.31-79,74.6-14.14,219-14.14,219s68.54-35.44,146.85,28.32H543.21c78.3-63.76,146.84-28.32,146.84-28.32S754.91,440,675.92,365.38Z"/><path class="cls-17" d="M675.92,365.38C603.84,297.3,615.85,162.27,428.28,160v0c-185.45,3.18-173.79,137.48-245.61,205.31-79,74.6-14.14,219-14.14,219s68.54-35.44,146.85,28.32H543.21c78.3-63.76,146.84-28.32,146.84-28.32S754.91,440,675.92,365.38Z"/><path class="cls-10" d="M693.28,363.9C616.12,291,629,146.5,428.21,144.11v0c-198.51,3.4-186,147.15-262.9,219.75-84.55,79.86-15.13,258.69-15.13,258.69s73.36-62.25,157.18,6H551.22c83.82-68.25,157.19-6,157.19-6S777.83,443.76,693.28,363.9Z"/><path class="cls-9" d="M571.17,261c-11.23-.88-15.77-.51-28,1.66-32.93,5.85-57.46,25.48-58.49,26.13-.67.42-1.45,1-1.47,1.81-.23,16.39,13,17.61,13.48,17.74a3.64,3.64,0,0,0,2.88-.4,136.69,136.69,0,0,1,55.87-23.83c2.7-.48,5.44-.9,8.14-1.26,15.09-2,29.25,6.19,42.09,15.89a69,69,0,0,1,15.09,15.55,3.66,3.66,0,0,0,3.7,1.62l.43-.1a3.65,3.65,0,0,0,2.58-3.55C627.47,311.67,620.75,264.88,571.17,261Z"/><path class="cls-18" d="M568.15,255.94c-11.23-.89-15.77-.51-28,1.66-32.93,5.84-57.47,25.47-58.5,26.13-.67.42-1.45,1-1.46,1.81-.24,16.39,13,17.61,13.47,17.74a3.71,3.71,0,0,0,2.89-.4,136.69,136.69,0,0,1,55.86-23.83c2.7-.48,5.45-.91,8.15-1.26,15.08-2,29.25,6.18,42.09,15.89a69.3,69.3,0,0,1,15.09,15.55,3.62,3.62,0,0,0,3.7,1.61,2.13,2.13,0,0,0,.42-.1,3.65,3.65,0,0,0,2.59-3.54C624.45,306.63,617.73,259.84,568.15,255.94Z"/><path class="cls-9" d="M287.42,261c11.22-.88,15.76-.51,28,1.66,32.93,5.85,57.47,25.48,58.5,26.13.67.42,1.45,1,1.46,1.81.24,16.39-13,17.61-13.47,17.74a3.64,3.64,0,0,1-2.88-.4,136.86,136.86,0,0,0-55.87-23.83c-2.7-.48-5.44-.9-8.15-1.26-15.08-2-29.24,6.19-42.09,15.89a69.58,69.58,0,0,0-15.09,15.55,3.65,3.65,0,0,1-3.7,1.62l-.42-.1a3.64,3.64,0,0,1-2.58-3.55C231.12,311.67,237.83,264.88,287.42,261Z"/><path class="cls-18" d="M290.44,255.94c11.23-.89,15.77-.51,28,1.66,32.93,5.84,57.47,25.47,58.49,26.13.68.42,1.46,1,1.47,1.81.24,16.39-13,17.61-13.47,17.74a3.7,3.7,0,0,1-2.89-.4,136.69,136.69,0,0,0-55.86-23.83c-2.71-.48-5.45-.91-8.15-1.26-15.09-2-29.25,6.18-42.09,15.89a69,69,0,0,0-15.09,15.55,3.62,3.62,0,0,1-3.7,1.61,2.13,2.13,0,0,1-.42-.1,3.64,3.64,0,0,1-2.59-3.54C234.14,306.63,240.86,259.84,290.44,255.94Z"/><path class="cls-19" d="M581,384.44c-2.6,29.09-19.1,51.4-36.86,49.82s-30.06-26.46-27.47-55.56,19.1-51.41,36.86-49.82,30.06,26.45,27.47,55.56"/><path class="cls-20" d="M581,385.17c-2.6,29.1-19.1,51.41-36.86,49.83s-30.06-26.46-27.47-55.56,19.1-51.41,36.86-49.82,30.06,26.45,27.47,55.55"/><path class="cls-21" d="M581,384.44c-2.6,29.09-19.1,51.4-36.86,49.82s-30.06-26.46-27.47-55.56,19.1-51.41,36.86-49.82,30.06,26.45,27.47,55.56"/><path class="cls-19" d="M277.61,384.44c2.6,29.09,19.1,51.4,36.86,49.82s30.06-26.46,27.46-55.56-19.09-51.41-36.86-49.82S275,355.33,277.61,384.44"/><path class="cls-22" d="M277.61,385.17c2.6,29.1,19.1,51.41,36.86,49.83s30.06-26.46,27.46-55.56S322.84,328,305.07,329.62,275,356.07,277.61,385.17"/><path class="cls-21" d="M277.61,384.44c2.6,29.09,19.1,51.4,36.86,49.82s30.06-26.46,27.46-55.56-19.09-51.41-36.86-49.82S275,355.33,277.61,384.44"/><path class="cls-23" d="M576.51,523.14c-14.62-26.38-70.31-59.76-70.31-59.76l23.61,49.24s-77.42,59.19-100.3,59.19-100.74-59.19-100.74-59.19l23.62-49.24s-55.69,33.38-70.31,59.76,7.36,128.18,20.34,190.94,28,79.72,127.09,79.72,113.68-16.95,126.66-79.72S591.12,549.52,576.51,523.14Z"/><path class="cls-24" d="M545.09,706.62c11.85-57.28,31.91-150.2,18.57-174.28-7.81-14.1-28.49-30.39-44.28-41.48l10.43,21.76s-77.42,59.19-100.3,59.19-100.74-59.19-100.74-59.19l10.44-21.76c-15.79,11.09-36.47,27.38-44.28,41.48-13.34,24.08,6.72,117,18.56,174.28s25.53,72.76,116,72.76S533.25,763.91,545.09,706.62Z"/><path class="cls-25" d="M545.09,706.62c11.85-57.28,31.91-150.2,18.57-174.28-7.81-14.1-28.49-30.39-44.28-41.48l10.43,21.76s-77.42,59.19-100.3,59.19-100.74-59.19-100.74-59.19l10.44-21.76c-15.79,11.09-36.47,27.38-44.28,41.48-13.34,24.08,6.72,117,18.56,174.28s25.53,72.76,116,72.76S533.25,763.91,545.09,706.62Z"/><path class="cls-10" d="M576.51,523.14c-14.62-26.38-70.31-59.76-70.31-59.76l23.61,49.24s-77.42,59.19-100.3,59.19-100.74-59.19-100.74-59.19l23.62-49.24s-55.69,33.38-70.31,59.76,7.36,128.18,20.34,190.94,28,79.72,127.09,79.72,113.68-16.95,126.66-79.72S591.12,549.52,576.51,523.14Z"/><path class="cls-26" d="M541.87,587.74a2.63,2.63,0,0,0-2.77,2.47v.09c-.09,1.56-.27,3.28-.49,4.93s-.47,3.33-.77,5c-.6,3.31-1.35,6.6-2.26,9.83a100.16,100.16,0,0,1-3.2,9.51,88.22,88.22,0,0,1-4.18,9,75.89,75.89,0,0,1-5.25,8.33,60.63,60.63,0,0,1-6.36,7.37c-1.11,1.18-2.37,2.19-3.57,3.26-.59.54-1.27,1-1.89,1.48s-1.26,1-1.94,1.42c-1.36.85-2.64,1.81-4.07,2.54L503,654.14c-.72.36-1.45.67-2.17,1s-1.43.71-2.19,1l-2.25.84-1.12.42c-.37.12-.74.21-1.11.32l-2.22.64c-.38.1-.7.23-1.14.31l-1.27.27-2.53.54-.64.14h-.12l.14,0-.14,0-.29,0-1.16.16c-.38.05-.77.12-1.15.16l-1.16.09a43.93,43.93,0,0,1-18.25-2.4,59,59,0,0,1-16.45-9.13,75.64,75.64,0,0,1-7.19-6.34,68.13,68.13,0,0,1-6.22-7.1,6.94,6.94,0,0,0-1.27-1.27,6.38,6.38,0,0,0-8.92,1.27,67.09,67.09,0,0,1-6.23,7.1,74.31,74.31,0,0,1-7.18,6.34,59.17,59.17,0,0,1-16.45,9.13,45.33,45.33,0,0,1-9,2.17c-1.53.19-3.06.33-4.61.37-.77,0-1.54,0-2.31,0s-1.52-.06-2.24-.12a55.66,55.66,0,0,1-9.41-1.69l-2.31-.67c-.38-.11-.77-.21-1.15-.33l-1.12-.42-2.25-.84c-.76-.25-1.46-.64-2.19-1s-1.46-.65-2.17-1L353.48,653c-1.44-.73-2.72-1.69-4.08-2.54-.67-.42-1.28-1-1.93-1.42s-1.3-.94-1.89-1.48c-1.21-1.07-2.46-2.08-3.57-3.26a60.63,60.63,0,0,1-6.36-7.37,75.89,75.89,0,0,1-5.25-8.33,90.48,90.48,0,0,1-4.19-9c-1.21-3.1-2.28-6.28-3.2-9.51s-1.65-6.52-2.25-9.83a87.82,87.82,0,0,1-1.26-9.93v-.08a2.63,2.63,0,0,0-5.25.21,91.56,91.56,0,0,0,.85,10.69q.71,5.26,1.9,10.48c.81,3.46,1.79,6.9,2.94,10.29a92.23,92.23,0,0,0,4.07,10,83.45,83.45,0,0,0,5.36,9.46,67.72,67.72,0,0,0,6.79,8.64c1.2,1.39,2.58,2.63,3.91,3.92.65.65,1.4,1.2,2.1,1.81s1.41,1.22,2.16,1.75c1.52,1.07,3,2.24,4.59,3.16l2.38,1.46c.81.46,1.65.87,2.47,1.3s1.64.89,2.51,1.24l2.56,1.09,1.29.55,1.31.46,2.64.89a65.94,65.94,0,0,0,10.87,2.48c1,.14,2,.26,2.92.3s1.91.16,2.87.14a55,55,0,0,0,5.74-.18,56.38,56.38,0,0,0,11.24-2.16,70.71,70.71,0,0,0,20.17-10,88.47,88.47,0,0,0,8.69-7c.93-.85,1.83-1.72,2.72-2.6.9.88,1.8,1.75,2.73,2.6a88.47,88.47,0,0,0,8.69,7,70.58,70.58,0,0,0,20.17,10,54.57,54.57,0,0,0,22.69,1.91l1.42-.18,1.4-.26,1.4-.27.35-.06.18,0,.25,0,.08,0,.63-.17,2.51-.65L493,668c.41-.09.9-.28,1.35-.42l2.73-.92c.45-.16.91-.3,1.35-.47l1.29-.55,2.56-1.09c.86-.35,1.67-.83,2.5-1.24s1.66-.84,2.47-1.3l2.39-1.46c1.61-.92,3.06-2.09,4.58-3.16.76-.53,1.44-1.17,2.17-1.75s1.44-1.16,2.1-1.81c1.33-1.29,2.7-2.53,3.91-3.92a68.62,68.62,0,0,0,6.79-8.64,85,85,0,0,0,5.36-9.46,94.31,94.31,0,0,0,4.07-10c1.15-3.39,2.13-6.83,2.94-10.29s1.43-7,1.9-10.48c.23-1.76.43-3.52.57-5.3s.26-3.51.28-5.41A2.64,2.64,0,0,0,541.87,587.74Z"/><path class="cls-18" d="M319.5,585c.07,1.54.24,3.28.44,4.93s.45,3.34.74,5c.58,3.33,1.32,6.63,2.2,9.87a90.11,90.11,0,0,0,7.33,18.64,64.8,64.8,0,0,0,11.63,15.76,53.21,53.21,0,0,0,15.85,10.84,57.79,57.79,0,0,0,9.11,3.18l2.36.56,2.33.46,1.28.21,1.09.14c.76.08,1.54.16,2.31.2a42.82,42.82,0,0,0,18.29-3,62.69,62.69,0,0,0,16.46-9.8,82,82,0,0,0,7.22-6.61,80,80,0,0,0,6.38-7.36l0,0a6,6,0,0,1,8.37-1.15,6.42,6.42,0,0,1,1.16,1.17c1.06,1.42,2,2.63,3.05,3.9s2.09,2.47,3.19,3.66a79.94,79.94,0,0,0,7,6.68A57.11,57.11,0,0,0,463.4,652a40.78,40.78,0,0,0,18.06,2.72,42.21,42.21,0,0,0,4.55-.62l1.28-.26.63-.13.56-.13c.75-.19,1.49-.34,2.27-.57a57.7,57.7,0,0,0,9-3.25A52.56,52.56,0,0,0,508,645a53.83,53.83,0,0,0,7.34-6.16,65.55,65.55,0,0,0,11.43-15.71,90.36,90.36,0,0,0,7.21-18.5c.88-3.23,1.6-6.5,2.18-9.8.28-1.65.53-3.3.73-5s.36-3.36.44-4.87v-.1a3.51,3.51,0,0,1,7,.23c0,2-.16,3.68-.32,5.49s-.37,3.57-.62,5.35q-.75,5.31-2,10.55a99,99,0,0,1-7.23,20.38,74.31,74.31,0,0,1-12.4,18.16,64,64,0,0,1-8.32,7.44,62.86,62.86,0,0,1-9.55,5.89,66.53,66.53,0,0,1-10.41,4.13c-.87.29-1.82.53-2.75.78l-.69.19-.64.15-1.26.29a50.57,50.57,0,0,1-28.5-1.73A68.41,68.41,0,0,1,440,651.16a89.8,89.8,0,0,1-8.26-7.43c-1.3-1.32-2.55-2.67-3.77-4.06s-2.43-2.86-3.48-4.18h9.55A94.61,94.61,0,0,1,418,651,73.45,73.45,0,0,1,398.24,662a53.49,53.49,0,0,1-22.86,3c-1-.08-1.92-.21-2.89-.34l-1.51-.25-1.29-.25-.41-.08-.34-.08-.69-.16-1.36-.32-2.72-.73a68,68,0,0,1-10.54-4,62.81,62.81,0,0,1-18.17-13.25,73.43,73.43,0,0,1-12.63-18.24,98.15,98.15,0,0,1-7.36-20.53q-1.28-5.28-2-10.64c-.26-1.79-.47-3.58-.63-5.39s-.29-3.57-.32-5.52a3.5,3.5,0,0,1,7-.24Z"/><line class="cls-27" x1="429.62" y1="633.82" x2="428.97" y2="573.85"/><path class="cls-28" d="M328.77,512.62s77.86,59.19,100.74,59.19,100.3-59.19,100.3-59.19l0-.08c-7.31-3.57-30.33-14.4-40.92-14.4-11.6,0-59.57,25.23-59.57,25.23s-48-25.23-59.57-25.23c-9.68,0-33.49,10.92-40.93,14.45Z"/><path class="cls-29" d="M429.29,536.34s-48-25.23-59.57-25.23c-6.65,0-20,5.17-30.1,9.54,22.22,16.17,72.3,51.16,89.89,51.16s67.59-35.1,89.63-51.24c-9.88-4.36-23-9.46-30.28-9.46C477.26,511.11,429.29,536.34,429.29,536.34Z"/><path class="cls-30" d="M429.29,536.34s-48-25.23-59.57-25.23c-6.65,0-20,5.17-30.1,9.54,22.22,16.17,72.3,51.16,89.89,51.16s67.59-35.1,89.63-51.24c-9.88-4.36-23-9.46-30.28-9.46C477.26,511.11,429.29,536.34,429.29,536.34Z"/><path class="cls-10" d="M328.77,512.62s77.86,59.19,100.74,59.19,100.3-59.19,100.3-59.19l0-.08c-7.31-3.57-30.33-14.4-40.92-14.4-11.6,0-59.57,25.23-59.57,25.23s-48-25.23-59.57-25.23c-9.68,0-33.49,10.92-40.93,14.45Z"/><path class="cls-9" d="M796.56,511.59c-42.14-73.31-38.94-169.79-37-227.44.45-13.53.81-24.22.48-32.06-1.39-33-45.71-88.51-64.7-110.85-34.9-41.08-73.44-76.46-93.72-86-24.33-11.5-82.45-1.09-114.92,6.15-38.89,8.66-85.13,22.86-92,30.18-7.55,8.07-23.15,36.6-30.84,62.12-20.45-8-87.36-56.76-122.1-51.35-22.43,3.5-66.93,45.91-90.48,82.34-24.6,38.05-37.55,79.78-34.63,111.61,2.65,28.88,11.24,53.14,19.54,76.61,11.75,33.19,23.9,67.5,21.06,117.57a3.85,3.85,0,0,0,2,3.62,3.91,3.91,0,0,0,1.79.44,3.81,3.81,0,0,0,2.34-.8A158.89,158.89,0,0,0,190.2,465.8c17.34-22.95,25.79-47.29,24.43-70.41-.24-4.18-.36-8.38-.39-12.59a3.78,3.78,0,0,0,0-1.46c0-22.49,3.11-45.07,9-64.81,8.9-29.71,23.4-51.67,43.11-65.26,32.79-22.6,78.72-20.9,136.53,5.07a3.84,3.84,0,0,0,3.8-.39,3.77,3.77,0,0,0,1-.41c45.3-27.83,91-38.82,131.42-32.11q6,1.24,11.82,3.07c39.33,12.34,71.42,44.75,92.81,93.74h0C668.12,376.06,661.07,480.9,661,482a3.85,3.85,0,0,0,6.52,3c12.1-11.84,21.72-28.14,29.36-46,12,19.94,26.8,38.5,44.83,53.13,27.87,22.62,50.21,25.1,51.14,25.19a2.55,2.55,0,0,0,.39,0,3.84,3.84,0,0,0,3.33-5.75Z"/><path class="cls-2" d="M406.46,242.3s-40.9-46.24-41.77-71c-.88-25.06,23.48-73.7,33.72-84.65S558.06,32.94,597.75,51.7s151.73,141,153.81,190.59c1.68,40-15.39,167,36.48,257.22,0,0-85.9-8.64-129.13-165.86C625.45,211.93,519,173.19,406.46,242.3Z"/><path class="cls-31" d="M658.91,333.65c29.72,108.08,79.6,145.94,107.88,159.06-45.15-86-29.68-202.46-31.24-239.77-2-47.53-109.39-164.73-147.44-182.71S420.81,90.05,411,100.54c-7.32,7.82-32.83,34.48-45,57.51a59.15,59.15,0,0,0-1.29,13.23c.87,24.78,41.77,71,41.77,71C519,173.19,625.45,211.93,658.91,333.65Z"/><path class="cls-32" d="M658.91,333.65c29.72,108.08,79.6,145.94,107.88,159.06-45.15-86-29.68-202.46-31.24-239.77-2-47.53-109.39-164.73-147.44-182.71S420.81,90.05,411,100.54c-7.32,7.82-32.83,34.48-45,57.51a59.15,59.15,0,0,0-1.29,13.23c.87,24.78,41.77,71,41.77,71C519,173.19,625.45,211.93,658.91,333.65Z"/><path class="cls-33" d="M406.46,242.3s-40.9-46.24-41.77-71c-.88-25.06,23.48-73.7,33.72-84.65S558.06,32.94,597.75,51.7s151.73,141,153.81,190.59c1.68,40-15.39,167,36.48,257.22,0,0-85.9-8.64-129.13-165.86C625.45,211.93,519,173.19,406.46,242.3Z"/><path class="cls-2" d="M691.51,180.21c17.38,24,27.76,47.25,28.45,63.75,1.68,40-7.56,175-58.35,224.76,0,0,7.38-104.54-17.28-161-41.07-94-125.35-134.52-237.87-65.41,0,0-40.9-46.24-41.77-71,0,0,14.9-35,49.48-54.46C414.17,116.82,571.62,14.3,691.51,180.21Z"/><path class="cls-34" d="M691.51,180.21c17.38,24,27.76,47.25,28.45,63.75,1.68,40-7.56,175-58.35,224.76,0,0,7.38-104.54-17.28-161-41.07-94-125.35-134.52-237.87-65.41,0,0-40.9-46.24-41.77-71,0,0,14.9-35,49.48-54.46C414.17,116.82,571.62,14.3,691.51,180.21Z"/><path class="cls-35" d="M691.51,180.21c17.38,24,27.76,47.25,28.45,63.75,1.68,40-7.56,175-58.35,224.76,0,0,7.38-104.54-17.28-161-41.07-94-125.35-134.52-237.87-65.41,0,0-40.9-46.24-41.77-71,0,0,14.9-35,49.48-54.46C414.17,116.82,571.62,14.3,691.51,180.21Z"/><path class="cls-36" d="M539.15,175.89c-79-5.87-118.28,42.53-132.69,66.41C510.08,178.65,589.75,208,633.77,286.44,618.73,240,589.58,179.63,539.15,175.89Z"/><path class="cls-33" d="M410.11,237.21s62.39-184.5,268-114"/><path class="cls-33" d="M696.24,176.38c13.66,26.35,23,51.08,23.72,67.58,1.68,40-7.56,175-58.35,224.76,0,0,7.38-104.54-17.28-161-41.07-94-125.35-134.52-237.87-65.41,0,0-40.9-46.24-41.77-71"/><path class="cls-2" d="M368.3,150.47S283.64,92.24,245.9,98.12c-43.53,6.78-126.42,119.75-120.24,187.15s44.84,106.19,40,191.74c0,0,52.09-40.13,49-93.57-4.65-79,29.22-213.1,190.67-140.58Z"/><path class="cls-37" d="M402.55,241.66l-2.16-11L369.67,153.9c-32.24-7.59-87.15-40.6-114.35-36.36-41.19,6.42-120.48,114.26-114.63,178,5.54,60.46,38.71,96.61,38.21,169.18,15.21-15.81,37.79-45.58,35.69-81.31C210,304.92,243.44,171.85,402.55,241.66Z"/><path class="cls-38" d="M402.55,241.66l-2.16-11L369.67,153.9c-32.24-7.59-87.15-40.6-114.35-36.36-41.19,6.42-120.48,114.26-114.63,178,5.54,60.46,38.71,96.61,38.21,169.18,15.21-15.81,37.79-45.58,35.69-81.31C210,304.92,243.44,171.85,402.55,241.66Z"/><path class="cls-36" d="M401.43,241.18c-34.05-26.7-101.6-68.4-157.72-33.69-55.47,34.32-42.33,117.84-29.51,164.71C213.34,293.22,250.63,175.68,401.43,241.18Z"/><path class="cls-33" d="M405.26,241.19s-84.45-66-143.9-42.44c-58.93,23.34-64.64,87.81-47.1,171.37"/><path class="cls-33" d="M368.3,150.47S283.64,92.24,245.9,98.12c-43.53,6.78-126.42,119.75-120.24,187.15s44.84,106.19,40,191.74c0,0,52.09-40.13,49-93.57-4.65-79,29.22-213.1,190.67-140.58Z"/><path class="cls-33" d="M406.46,242.3s29.32-67,125-67c80.51,0,112.92,132.36,112.92,132.36"/></g></g></g></g></svg>