<svg width="100" height="100" viewBox="0 0 100 100" fill="none" xmlns="http://www.w3.org/2000/svg">
<path d="M69.5396 78.0359C69.5396 78.0359 64.5089 89.8608 62.8058 91.6752C61.2476 93.3306 34.2957 93.3306 32.7386 91.6752C31.0312 89.8608 25.9995 78.0359 25.9995 78.0359L47.7716 76.3179L69.5396 78.0359Z" fill="#FDBE57"/>
<path d="M66.0158 77.8585C66.0158 77.8585 62.1524 88.0415 60.7351 89.6516C59.4333 91.1297 47.7676 90.8079 47.7676 90.8079C47.7676 90.8079 36.1051 91.1336 34.8002 89.6516C33.387 88.0415 29.5205 77.8585 29.5205 77.8585L47.7676 76.4209L66.0158 77.8585Z" fill="#E08434"/>
<path style="mix-blend-mode:multiply" d="M66.0158 77.8585C66.0158 77.8585 62.1524 88.0415 60.7351 89.6516C59.4333 91.1297 36.103 91.1297 34.8002 89.6516C33.387 88.0415 29.5205 77.8585 29.5205 77.8585L47.7676 76.4209L66.0158 77.8585Z" fill="url(#paint0_linear)"/>
<path d="M43.3916 78.9761H51.8432L47.6174 88.2041L43.3916 78.9761Z" fill="#EF83A1"/>
<path style="mix-blend-mode:screen" d="M46.3166 83.0991H48.918C48.9759 83.0991 49.0328 83.1121 49.0838 83.1372C49.1347 83.1622 49.1781 83.1985 49.2101 83.2427C49.242 83.2869 49.2615 83.3376 49.2669 83.3904C49.2722 83.4432 49.2632 83.4964 49.2406 83.5453L47.9399 86.3849C47.9132 86.4431 47.8683 86.4929 47.8109 86.5278C47.7536 86.5628 47.6862 86.5814 47.6173 86.5814C47.5484 86.5814 47.481 86.5628 47.4237 86.5278C47.3663 86.4929 47.3214 86.4431 47.2947 86.3849L45.9951 83.5443C45.973 83.4956 45.9644 83.4426 45.9699 83.3901C45.9754 83.3377 45.9949 83.2872 46.0266 83.2432C46.0584 83.1993 46.1014 83.1631 46.152 83.138C46.2025 83.1129 46.2591 83.0995 46.3166 83.0991V83.0991Z" fill="url(#paint1_linear)"/>
<path d="M66.0158 77.8585C66.0158 77.8585 62.1524 88.0415 60.7351 89.6516C59.4333 91.1297 36.103 91.1297 34.8002 89.6516C33.387 88.0415 29.5205 77.8585 29.5205 77.8585L47.7676 76.4209L66.0158 77.8585Z" stroke="#BF7329" stroke-width="2.57433" stroke-linecap="round" stroke-linejoin="round"/>
<path d="M69.8558 78.1495L69.1834 79.8531L68.4879 81.548C68.0203 82.6773 67.5359 83.8008 67.0442 84.9205C66.5525 86.0402 66.0356 87.155 65.4987 88.265C65.2308 88.82 64.9523 89.3712 64.6581 89.9214C64.3639 90.4716 64.0603 91.016 63.6863 91.5662C63.5877 91.7117 63.4807 91.8522 63.3658 91.9873L63.3185 92.0422L63.3059 92.0557C63.2942 92.0695 63.2815 92.0827 63.2681 92.0952L63.246 92.1154L63.2355 92.1251L63.2177 92.1424L63.1578 92.1906C63.1389 92.205 63.1157 92.2233 63.0989 92.2349L63.0559 92.2628C62.9564 92.326 62.8509 92.3809 62.7406 92.4267C62.5625 92.5009 62.3789 92.5637 62.1911 92.6145C62.0157 92.6637 61.8444 92.7042 61.6742 92.7417C60.9934 92.8863 60.3283 92.9749 59.6632 93.0549C58.3352 93.2091 57.0134 93.3064 55.6917 93.3844C54.3699 93.4625 53.0503 93.5039 51.7296 93.5376C50.4089 93.5714 49.0892 93.5868 47.7696 93.5897C46.4499 93.5926 45.1292 93.5704 43.8085 93.5376C42.4878 93.5049 41.1671 93.4606 39.8464 93.3844C38.5257 93.3083 37.2029 93.2091 35.8748 93.0549C35.2098 92.9749 34.5447 92.8863 33.8649 92.7417C33.6936 92.7042 33.5224 92.6637 33.3469 92.6145C33.159 92.5641 32.9754 92.5013 32.7974 92.4267C32.687 92.3811 32.5815 92.3263 32.4822 92.2628C32.4508 92.2439 32.4207 92.2233 32.3918 92.2012C32.3583 92.1759 32.3264 92.1488 32.2962 92.1202L32.2458 92.0721L32.2227 92.047L32.2132 92.0354L32.1744 91.9911C32.126 91.9352 32.0451 91.837 31.9999 91.7743C31.9548 91.7117 31.8949 91.6356 31.8507 91.5662C31.4969 91.0332 31.1726 90.4842 30.8789 89.9214C30.5847 89.3722 30.3063 88.82 30.0383 88.265C29.5014 87.155 28.9877 86.0402 28.4928 84.9205C27.9979 83.8008 27.5167 82.6754 27.0492 81.548L26.3536 79.8521L25.6812 78.1486C25.661 78.1014 25.6537 78.0505 25.6598 78.0002C25.666 77.9499 25.6854 77.9017 25.7165 77.8598C25.7475 77.8179 25.7893 77.7837 25.838 77.7599C25.8868 77.7362 25.9412 77.7237 25.9964 77.7236H69.5396C69.5841 77.7236 69.6283 77.7317 69.6694 77.7473C69.7106 77.763 69.748 77.7859 69.7796 77.8148C69.8111 77.8437 69.8361 77.878 69.8531 77.9158C69.8702 77.9535 69.8789 77.994 69.8789 78.0349C69.8795 78.0707 69.8727 78.1063 69.859 78.1399L69.8558 78.1495ZM69.0237 78.3422H25.9953L26.3105 77.9183L27.0922 79.5756L27.8771 81.232C28.4024 82.3352 28.9278 83.4376 29.472 84.5331C30.0163 85.6287 30.5532 86.7224 31.1216 87.8006C31.4074 88.3382 31.6931 88.875 31.9926 89.402C32.292 89.9291 32.6009 90.4504 32.9382 90.9167C32.9802 90.9736 33.0223 91.0304 33.0643 91.0825C33.1063 91.1345 33.1315 91.1663 33.1851 91.228L33.225 91.2704L33.2355 91.2819V91.2771L33.2292 91.2694C33.2219 91.2636 33.224 91.2646 33.2292 91.2646L33.2376 91.2694C33.2746 91.2901 33.3132 91.3081 33.3532 91.3234C33.4764 91.37 33.6028 91.4092 33.7315 91.4409C33.8712 91.4766 34.0183 91.5084 34.1685 91.5373C34.7716 91.6539 35.4104 91.73 36.0493 91.8023C37.3311 91.9343 38.6329 92.0133 39.9368 92.073C41.2406 92.1328 42.5466 92.1771 43.8547 92.2021C45.1628 92.2272 46.4709 92.2397 47.7801 92.2368C49.0892 92.2339 50.3973 92.2291 51.7043 92.2021C53.0114 92.1752 54.3195 92.1318 55.6223 92.073C56.9252 92.0142 58.2269 91.9343 59.5098 91.8023C60.1486 91.7348 60.7874 91.6539 61.3905 91.5363C61.5408 91.5074 61.6879 91.4756 61.8276 91.44C61.956 91.4084 62.082 91.3692 62.2048 91.3224C62.2452 91.3073 62.2842 91.2893 62.3214 91.2685H62.3288L62.3172 91.2771C62.3128 91.2808 62.3089 91.285 62.3057 91.2896C62.3057 91.2945 62.3057 91.2896 62.3057 91.2896L62.3162 91.28L62.3382 91.2598C62.2889 91.3099 62.3288 91.2694 62.3193 91.2781L62.3267 91.2694L62.3572 91.2367C62.4391 91.1461 62.5242 91.0372 62.6083 90.9225C62.9424 90.4562 63.2523 89.931 63.5539 89.4068C63.8554 88.8827 64.1391 88.3469 64.4249 87.8054C64.9933 86.7281 65.5375 85.6345 66.0744 84.538C66.6113 83.4414 67.1419 82.3401 67.6694 81.2377L68.4542 79.5814L69.0237 78.3422Z" fill="#BF7329"/>
<path d="M83.7036 34.3043C83.7036 34.3043 82.9251 46.2236 94.0622 48.7134C94.0622 48.7134 89.9646 46.4731 88.9496 42.5977C88.9496 42.5977 90.4952 44.8842 96.9999 45.868C96.9999 45.868 87.9893 41.4616 86.5247 32.7539L83.7036 34.3043Z" fill="#231F20"/>
<path d="M87.8289 33.966C84.9595 36.3238 80.1348 34.1587 77.5102 30.2081C73.6101 24.3371 69.9579 21.5919 62.3426 18.8747C51.5795 15.031 58.0359 -5.43028 76.6539 4.41252C85.9167 9.30936 81.8369 17.0468 85.4155 19.9259C91.9749 25.2033 91.2993 31.1138 87.8289 33.966Z" fill="#3C77AF"/>
<path style="mix-blend-mode:overlay" opacity="0.5" d="M86.1758 32.73C83.6931 34.7698 79.0239 32.0497 76.7534 28.631C73.3786 23.551 70.2181 21.1759 63.6294 18.8296C54.3162 15.5014 59.9026 -2.20309 76.0126 6.31385C84.0272 10.5535 80.9603 19.1293 84.0566 21.622C89.7324 26.1874 89.1776 30.2623 86.1758 32.73Z" fill="url(#paint2_linear)"/>
<path d="M88.2047 34.3852L87.9673 34.5606C87.9326 34.5886 87.8706 34.6261 87.8097 34.6656L87.5996 34.7938C87.525 34.8372 87.4451 34.8757 87.3589 34.921C87.3159 34.9422 87.2728 34.9663 87.2255 34.9884L87.0784 35.0511C86.5812 35.2619 86.048 35.3923 85.5024 35.4365C85.4218 35.4449 85.3408 35.4494 85.2597 35.45C85.1777 35.45 85.0947 35.4567 85.0096 35.4567C84.8415 35.45 84.6661 35.4509 84.4843 35.4297C84.1095 35.3968 83.7388 35.3323 83.3769 35.237C81.8566 34.8429 80.2343 33.9035 78.8043 32.488C78.4365 32.1224 78.0936 31.7362 77.7778 31.3317C77.6959 31.2286 77.6139 31.1236 77.5351 31.0157C77.4563 30.9077 77.3744 30.8017 77.2998 30.689L76.8511 30.0299C76.6998 29.8093 76.5475 29.5848 76.392 29.3554C76.2365 29.1261 76.0694 28.9161 75.9045 28.6915L75.6565 28.3553C75.5682 28.2444 75.48 28.1336 75.3917 28.0209L75.1228 27.6846C75.0324 27.5719 74.9441 27.4572 74.8464 27.3483C74.0701 26.4218 73.2165 25.552 72.2933 24.7467C71.3056 23.8873 70.232 23.115 69.0866 22.4399C67.8673 21.7297 66.5934 21.1018 65.2748 20.561L64.7683 20.3471L64.2504 20.1467C63.9036 20.0146 63.5601 19.873 63.1997 19.7506L62.1332 19.3652L61.8475 19.2573C61.7571 19.2226 61.6709 19.1927 61.5764 19.1532L61.3053 19.0222C61.2097 18.9788 61.1088 18.9374 61.0206 18.8882C60.2766 18.5134 59.5978 18.0389 59.0064 17.4805C58.4119 16.9081 57.912 16.2588 57.5229 15.5533C57.1361 14.843 56.8515 14.0896 56.676 13.3121C56.5036 12.5301 56.4299 11.7325 56.4564 10.935C56.4869 10.1332 56.612 9.33687 56.8294 8.5598C57.0521 7.77643 57.3693 7.01825 57.775 6.29928C58.1834 5.57147 58.6869 4.89197 59.2744 4.2758C59.4172 4.11777 59.578 3.9742 59.7314 3.82485C59.8848 3.6755 60.0561 3.53578 60.221 3.39992C60.5593 3.12715 60.9166 2.8748 61.2906 2.64448C62.0394 2.18143 62.8521 1.81172 63.7072 1.54506C64.5582 1.28401 65.4399 1.11615 66.3338 1.04497C67.2136 0.976294 68.0986 0.986298 68.9763 1.07484C69.8379 1.16452 70.6903 1.31757 71.5252 1.53253C71.7354 1.58745 71.9455 1.62889 72.142 1.69634L72.7503 1.87845C72.951 1.94205 73.1485 2.01239 73.3482 2.07984L73.6455 2.18197L73.9376 2.29375C74.7214 2.58282 75.4684 2.92295 76.206 3.26887L76.7492 3.54253L77.0192 3.67935L77.0875 3.71308L77.1726 3.76029L77.2998 3.83256L77.8093 4.12163L77.9365 4.19293L78.0689 4.2758L78.3336 4.44442L78.5973 4.61208C78.6856 4.66893 78.7749 4.72386 78.8548 4.78456L79.3475 5.14108C79.5146 5.25574 79.6627 5.3916 79.8224 5.51687C79.9821 5.64213 80.1376 5.76739 80.2805 5.90904C81.4633 6.96765 82.3985 8.23612 83.0291 9.63707C83.3306 10.3048 83.573 10.9938 83.7541 11.6972C83.9348 12.3842 84.0567 13.0654 84.1607 13.7284C84.2647 14.3913 84.3435 15.0378 84.4349 15.6555C84.5127 16.2494 84.6288 16.8385 84.7827 17.4198C84.9122 17.9319 85.1345 18.4205 85.4404 18.8651C85.4751 18.9158 85.5137 18.9641 85.556 19.0097L85.6747 19.1503C85.7167 19.1947 85.7651 19.2332 85.8081 19.2756L85.8754 19.3382L85.908 19.3691L85.9248 19.3845C85.9248 19.3845 85.9573 19.4134 85.9552 19.4115L86.303 19.7092C86.4186 19.8056 86.5321 19.9019 86.6497 20.0137C86.8819 20.2286 87.1183 20.4386 87.3285 20.6564L87.6437 20.9782L87.9473 21.3087C88.1575 21.5236 88.3329 21.7558 88.521 21.9755C88.6135 22.0873 88.6975 22.2039 88.7847 22.3166C88.8719 22.4293 88.9612 22.5402 89.039 22.6587C89.6692 23.5306 90.1712 24.475 90.532 25.4675C90.6977 25.9233 90.8269 26.3896 90.9186 26.8627C90.9565 27.092 90.9995 27.3175 91.0237 27.542C91.0342 27.6538 91.0521 27.7636 91.0552 27.8735C91.0584 27.9833 91.0657 28.0932 91.071 28.2011C91.0948 28.9962 90.9954 29.7904 90.7758 30.5599C90.5986 31.1813 90.3377 31.7801 89.9993 32.3425C89.749 32.758 89.4571 33.1512 89.1272 33.5171L88.9339 33.7252C88.874 33.7898 88.812 33.8447 88.7574 33.8996C88.6523 34.0066 88.5536 34.0923 88.4727 34.1617L88.231 34.3689L88.2047 34.3852ZM87.4335 33.5624L87.6353 33.3822C87.7046 33.3244 87.7813 33.2463 87.8738 33.1528C87.92 33.1066 87.9725 33.0565 88.0219 33.0016C88.0713 32.9466 88.127 32.8859 88.1827 32.8214C88.8313 32.0731 89.2929 31.2035 89.5349 30.2737C89.7093 29.6118 89.78 28.9304 89.745 28.2502C89.7387 28.1539 89.7324 28.0633 89.7261 27.9679C89.7198 27.8725 89.703 27.7752 89.6925 27.6788C89.6725 27.4861 89.6295 27.2934 89.5927 27.0911C89.5035 26.6789 89.382 26.2731 89.2292 25.877C88.8856 24.9987 88.4168 24.166 87.8349 23.4006C87.7635 23.2956 87.6773 23.1983 87.5985 23.0961C87.5197 22.994 87.4377 22.8909 87.3505 22.7916C87.174 22.5941 87.0059 22.3869 86.8126 22.1933L86.5279 21.8965L86.2263 21.6074C86.0267 21.408 85.8134 21.2287 85.6033 21.0408C85.4982 20.9445 85.3795 20.8481 85.2628 20.7518L84.9077 20.4627L84.7123 20.2912C84.644 20.2286 84.5715 20.1688 84.5022 20.0985L84.3172 19.8932C84.2536 19.8264 84.1947 19.7559 84.1407 19.6822C83.7214 19.108 83.4122 18.4722 83.2266 17.8023C83.0447 17.1662 82.9044 16.5208 82.8064 15.8694C82.7013 15.2277 82.6109 14.5888 82.5006 13.9538C82.2905 12.6848 81.9753 11.4283 81.431 10.248C80.8772 9.04553 80.0666 7.95686 79.047 7.04604C78.9241 6.92367 78.7812 6.81768 78.6467 6.70398C78.5122 6.59028 78.3799 6.47465 78.2265 6.37444L77.7904 6.05839C77.719 6.00347 77.6433 5.96203 77.5687 5.91L77.3449 5.76739L77.1317 5.62864L77.0192 5.55637L76.8921 5.48507L76.3825 5.196L76.2543 5.1247L76.2218 5.10639C76.2218 5.10639 76.1797 5.0823 76.2113 5.10061L76.1472 5.06785L75.8929 4.93777L75.3833 4.67664C74.6941 4.34806 73.9954 4.02238 73.2715 3.75258L73.0014 3.64755L72.7283 3.5512C72.5455 3.48857 72.3637 3.42208 72.1798 3.35849L71.624 3.1889C71.4391 3.12819 71.25 3.09254 71.0629 3.03569C70.3137 2.84008 69.5494 2.69642 68.7767 2.60594C68.01 2.51851 67.2358 2.50011 66.4652 2.55102C65.7005 2.60218 64.9451 2.73608 64.2146 2.94993C63.4888 3.16754 62.7961 3.46899 62.1532 3.84701C61.8313 4.03744 61.5229 4.2463 61.2297 4.47236C61.0878 4.58992 60.9418 4.70458 60.8094 4.82696C60.677 4.94933 60.5341 5.0717 60.4091 5.2066C59.8886 5.72916 59.4401 6.30844 59.0737 6.93138C58.7029 7.5571 58.4101 8.21905 58.2006 8.90476C57.9935 9.58664 57.8674 10.287 57.8244 10.9938C57.788 11.6927 57.8377 12.3931 57.9726 13.0818C58.1095 13.76 58.3408 14.4194 58.6608 15.0436C58.9807 15.6535 59.3955 16.2176 59.8921 16.7183C60.3867 17.2077 60.9579 17.6269 61.5869 17.9623C61.6646 18.0085 61.7413 18.0403 61.8191 18.0789L62.0502 18.1897C62.1322 18.2263 62.2268 18.261 62.314 18.2976L62.563 18.3939L63.6462 18.8034C64.0045 18.9355 64.3544 19.0925 64.7053 19.2293L65.2306 19.4433C65.404 19.5184 65.5753 19.5945 65.7476 19.6707C67.0998 20.2503 68.404 20.9199 69.6498 21.6739C70.8298 22.396 71.9361 23.2145 72.9552 24.1194C73.9035 24.9654 74.7782 25.8782 75.5714 26.8492C75.7668 27.0785 75.9412 27.3165 76.1241 27.5459C76.2155 27.6615 76.3048 27.7762 76.3951 27.8899C76.4855 28.0036 76.5664 28.1221 76.6504 28.2377L77.1516 28.9238L77.6129 29.5983C77.7652 29.817 77.9144 30.0338 78.0626 30.2467C78.133 30.3508 78.2107 30.45 78.2853 30.5503C78.3599 30.6505 78.4366 30.743 78.5165 30.8393C78.8194 31.2109 79.1471 31.5648 79.4978 31.8992C80.8532 33.1914 82.3745 33.9854 83.6711 34.2812C83.9737 34.3536 84.2828 34.4007 84.5946 34.4219C84.7407 34.4373 84.8794 34.4315 85.0149 34.4353C85.0821 34.4353 85.1473 34.4286 85.2124 34.4257C85.2757 34.4244 85.3389 34.4195 85.4015 34.4113C85.8137 34.3698 86.2149 34.2635 86.5877 34.0971L86.6928 34.048C86.7275 34.0306 86.759 34.0123 86.7916 33.995C86.8536 33.9593 86.9156 33.9285 86.966 33.8986L87.0984 33.8119C87.1389 33.7881 87.1775 33.7617 87.214 33.7329L87.4483 33.5527L87.4335 33.5624Z" fill="#143358"/>
<path d="M80.0223 30.2092C79.228 28.3264 76.6812 24.9867 73.3505 22.2492L73.2738 22.1866C71.7527 20.9521 70.1053 19.855 68.3546 18.9105C66.7586 18.051 65.2624 17.4266 64.1392 17.1529C63.8671 17.0866 63.578 17.1132 63.3256 17.2277C63.0732 17.3421 62.8747 17.5368 62.7671 17.7754L59.6781 24.6225C59.5682 24.8684 59.5625 25.143 59.662 25.3926C59.7615 25.6421 59.9591 25.8486 60.216 25.9715C61.2215 26.4533 63.4384 28.0489 65.8613 30.0406C68.2842 32.0323 70.2584 33.8785 70.8888 34.7438C71.0493 34.9663 71.2954 35.1251 71.578 35.1885C71.8606 35.2519 72.1589 35.2152 72.4133 35.0858L79.498 31.5206C79.7439 31.3975 79.9326 31.1966 80.0291 30.9553C80.1255 30.7141 80.1231 30.449 80.0223 30.2092V30.2092Z" fill="#322F5E"/>
<path d="M80.0223 30.2092C79.228 28.3264 76.6812 24.9867 73.3505 22.2492L73.2738 22.1866C71.7527 20.9521 70.1053 19.855 68.3546 18.9105C66.7586 18.051 65.2624 17.4266 64.1392 17.1529C63.8671 17.0866 63.578 17.1132 63.3256 17.2277C63.0732 17.3421 62.8747 17.5368 62.7671 17.7754L59.6781 24.6225C59.5682 24.8684 59.5625 25.143 59.662 25.3926C59.7615 25.6421 59.9591 25.8486 60.216 25.9715C61.2215 26.4533 63.4384 28.0489 65.8613 30.0406C68.2842 32.0323 70.2584 33.8785 70.8888 34.7438C71.0493 34.9663 71.2954 35.1251 71.578 35.1885C71.8606 35.2519 72.1589 35.2152 72.4133 35.0858L79.498 31.5206C79.7439 31.3975 79.9326 31.1966 80.0291 30.9553C80.1255 30.7141 80.1231 30.449 80.0223 30.2092V30.2092Z" stroke="#18172F" stroke-width="2.16759" stroke-linecap="round" stroke-linejoin="round"/>
<path d="M85.3554 24.6253L85.3323 24.6127C85.3113 24.6002 85.2777 24.58 85.2367 24.553C85.1957 24.526 85.1652 24.4981 85.118 24.4624C85.0707 24.4268 85.0308 24.3834 84.9782 24.3352C84.9257 24.287 84.8795 24.2312 84.8217 24.1714C84.7628 24.1069 84.7081 24.0394 84.6578 23.9691C84.5968 23.8934 84.5407 23.8146 84.4897 23.733C84.4361 23.6472 84.3751 23.5586 84.3215 23.4632C84.2165 23.2705 84.1041 23.0633 84.0116 22.8369C83.9191 22.6104 83.8256 22.3705 83.7363 22.12C83.6869 21.9947 83.6565 21.8666 83.6176 21.7346C83.5787 21.6026 83.543 21.4715 83.5052 21.3385C83.4442 21.0716 83.3833 20.7989 83.3224 20.5272C83.2772 20.2536 83.2309 19.9799 83.1868 19.7111C83.1427 19.4422 83.1217 19.1763 83.0902 18.919C83.0765 18.7909 83.0586 18.6637 83.0492 18.5404C83.0397 18.417 83.0313 18.2956 83.024 18.1771C83.0071 17.942 82.9914 17.7184 82.9777 17.5122C82.9641 17.306 82.9651 17.1181 82.9588 16.9514C82.9525 16.7847 82.9504 16.6383 82.9473 16.5178C82.9399 16.2779 82.9367 16.1401 82.9367 16.1401C82.9319 15.9576 83.0062 15.7809 83.1435 15.6487C83.2807 15.5165 83.4696 15.4397 83.6685 15.4353C83.8675 15.4308 84.0603 15.499 84.2044 15.6248C84.3485 15.7507 84.4322 15.9239 84.4371 16.1064C84.4371 16.1276 84.4371 16.1497 84.4371 16.1709V16.195C84.4371 16.195 84.4266 16.3261 84.4087 16.5564C84.4003 16.672 84.3888 16.8117 84.3772 16.9726C84.3657 17.1335 84.3468 17.3147 84.3384 17.5122C84.3299 17.7098 84.3236 17.9237 84.3152 18.1501C84.3152 18.2638 84.3068 18.3804 84.3026 18.4989C84.2984 18.6174 84.3026 18.7388 84.3026 18.8622C84.3026 19.1079 84.3026 19.3642 84.3142 19.6215C84.3257 19.8787 84.3457 20.1408 84.3615 20.4029C84.3772 20.665 84.4224 20.9213 84.4529 21.1738C84.4749 21.3 84.497 21.4253 84.5191 21.5486C84.5411 21.6719 84.5579 21.7962 84.5905 21.9128C84.6483 22.1479 84.6956 22.3792 84.7723 22.5873C84.849 22.7954 84.9173 22.992 84.9887 23.1655C85.0276 23.2541 85.0717 23.3331 85.1096 23.4112C85.1451 23.4843 85.1855 23.5554 85.2304 23.6241C85.2654 23.6858 85.3047 23.7453 85.3481 23.8024C85.38 23.8508 85.4151 23.8975 85.4531 23.9421C85.4878 23.9806 85.5183 24.0192 85.5466 24.0452L85.6149 24.1107C85.6286 24.1213 85.637 24.13 85.6454 24.1367L85.6675 24.1512H85.6748C85.7356 24.1925 85.777 24.2534 85.7907 24.3217C85.8043 24.3899 85.7892 24.4604 85.7483 24.5188C85.7075 24.5772 85.6439 24.6192 85.5706 24.6363C85.4973 24.6534 85.4196 24.6443 85.3533 24.6108L85.3554 24.6253Z" fill="#143358"/>
<path d="M26.8348 79.4494C32.437 78.1071 39.6111 77.369 47.4334 77.369C55.2031 77.369 62.333 78.0975 67.9216 79.4224C74.9474 73.0629 79.8699 63.724 79.8699 53.3098C79.8699 34.1522 65.3484 22.0903 47.4365 22.0903C29.5246 22.0903 15 34.1551 15 53.3127C15 63.7385 19.8331 73.0908 26.8348 79.4494Z" fill="#F6F4EB"/>
<path style="mix-blend-mode:screen" d="M28.245 77.6069C33.4637 76.3543 40.147 75.6692 47.4335 75.6692C54.6716 75.6692 61.314 76.3437 66.5159 77.5819C73.0605 71.6627 77.6468 62.9607 77.6468 53.2634C77.6468 35.4163 64.1193 24.1812 47.4335 24.1812C30.7477 24.1812 17.2202 35.4163 17.2202 53.2634C17.2202 62.9762 21.7245 71.6868 28.245 77.6069Z" fill="url(#paint3_linear)"/>
<path d="M26.8348 79.4494C32.437 78.1071 39.6111 77.369 47.4334 77.369C55.2031 77.369 62.333 78.0975 67.9216 79.4224C74.9474 73.0629 79.8699 63.724 79.8699 53.3098C79.8699 34.1522 65.3484 22.0903 47.4365 22.0903C29.5246 22.0903 15 34.1551 15 53.3127C15 63.7385 19.8331 73.0908 26.8348 79.4494Z" stroke="#C5C1B2" stroke-width="3.0892" stroke-linecap="round" stroke-linejoin="round"/>
<path d="M39.7783 30.1109C35.5829 27.0072 34.6804 20.983 36.3793 20.7643C37.14 20.668 40.5064 22.9902 40.5064 22.9902C40.5064 22.9902 37.8366 16.9794 40.021 14.3084C41.4772 12.5268 51.1277 21.7105 51.1277 21.7105C51.1277 21.7105 49.475 17.7946 50.7022 17.6472C52.3507 17.4487 58.5907 22.5421 59.9271 26.5524" fill="white"/>
<path d="M39.6487 30.2531L39.4386 30.1133L39.2284 29.963C39.0883 29.8628 38.9517 29.7581 38.8187 29.6489C38.5517 29.4324 38.2978 29.2027 38.058 28.9609C37.576 28.476 37.144 27.9512 36.7677 27.3932C36.3885 26.8338 36.062 26.2459 35.7917 25.6357C35.5173 25.0204 35.3062 24.383 35.1612 23.7317C35.0863 23.3991 35.0354 23.0624 35.0089 22.7238C34.9805 22.368 34.9931 22.0104 35.0467 21.6571C35.0785 21.4593 35.1342 21.2654 35.2127 21.079C35.3069 20.8457 35.4616 20.637 35.6635 20.471C35.7891 20.3703 35.9356 20.2939 36.0943 20.2464C36.134 20.2337 36.1747 20.2237 36.2161 20.2166L36.2781 20.204H36.2939L36.3611 20.1983H36.4588C36.5124 20.1983 36.5639 20.204 36.6206 20.2108C36.7485 20.2298 36.874 20.2598 36.9957 20.3004L37.1439 20.3524L37.2805 20.4074C37.6159 20.5521 37.9403 20.7176 38.2513 20.9026C38.5549 21.079 38.846 21.264 39.1297 21.4567C39.4133 21.6494 39.6907 21.8489 39.9597 22.056C40.2287 22.2632 40.4924 22.4742 40.7466 22.7026L40.1488 23.1246C39.9114 22.6939 39.7149 22.268 39.5289 21.8277C39.3429 21.3873 39.1801 20.9431 39.0403 20.4883C38.9006 20.0335 38.7714 19.5729 38.6768 19.1027C38.5776 18.6287 38.5109 18.1496 38.4772 17.6679C38.441 17.1717 38.454 16.6734 38.5161 16.1792C38.58 15.6572 38.728 15.1467 38.9552 14.6645C39.0775 14.4126 39.2275 14.1727 39.4028 13.9486L39.4354 13.9052C39.4564 13.8821 39.3955 13.9486 39.4827 13.8522L39.4911 13.8445L39.5068 13.8281L39.5384 13.7963L39.5562 13.779L39.6056 13.7376C39.6392 13.7096 39.6739 13.6836 39.7107 13.6576L39.7653 13.6219C39.7812 13.6107 39.7981 13.6007 39.8157 13.5921C39.8767 13.5612 39.9387 13.5333 40.0007 13.5073C40.2164 13.4323 40.4469 13.3995 40.6773 13.4109C41.0069 13.435 41.3301 13.5075 41.6345 13.6258C41.8944 13.7234 42.147 13.8364 42.391 13.964C42.6284 14.0864 42.8533 14.2145 43.0728 14.3494C43.2924 14.4843 43.5057 14.6192 43.7138 14.7599C44.134 15.0413 44.5333 15.3323 44.9262 15.6271C45.3192 15.922 45.7058 16.2274 46.082 16.5406C46.4581 16.8537 46.828 17.1679 47.1936 17.4878C47.5592 17.8077 47.9165 18.1343 48.2726 18.461C48.6288 18.7876 48.9798 19.1191 49.3233 19.4563C49.6669 19.7936 50.0126 20.1308 50.3467 20.4748C50.6808 20.8188 51.0149 21.1647 51.3396 21.5212L50.8584 21.8026C50.6745 21.4769 50.5137 21.1493 50.3666 20.8111C50.2941 20.6425 50.2217 20.4729 50.1565 20.3004C50.0914 20.1279 50.0304 19.9526 49.9737 19.7753C49.917 19.598 49.8686 19.4178 49.8213 19.2318C49.7761 19.041 49.7427 18.848 49.7215 18.6537C49.695 18.434 49.7007 18.212 49.7383 17.9936C49.7637 17.8485 49.8167 17.7086 49.8949 17.5803C49.9462 17.4971 50.0106 17.4215 50.0861 17.3558C50.1718 17.2838 50.2702 17.2258 50.3772 17.1842C50.4777 17.1463 50.584 17.1229 50.6924 17.1149H50.7281H50.7838C50.83 17.1149 50.8825 17.1149 50.9246 17.1149C51.0581 17.1235 51.1904 17.1442 51.3196 17.1765C51.5389 17.2327 51.7526 17.3059 51.9584 17.3953C52.3329 17.562 52.6926 17.7553 53.0343 17.9734C53.6909 18.3927 54.3167 18.851 54.9077 19.3455C55.4911 19.8376 56.047 20.3534 56.5751 20.893C56.8388 21.1628 57.092 21.4403 57.34 21.7226C57.588 22.0049 57.8296 22.2911 58.0597 22.5898C58.5237 23.1796 58.9422 23.7985 59.3121 24.4418C59.4972 24.7656 59.6635 25.0982 59.8101 25.4381C59.9588 25.779 60.0803 26.1294 60.1737 26.4865C60.1872 26.5432 60.1771 26.6024 60.1454 26.6526C60.1137 26.7029 60.0626 26.7404 60.0023 26.7578C59.9419 26.7752 59.8766 26.7712 59.8193 26.7467C59.762 26.7222 59.7167 26.6788 59.6925 26.6252C59.4117 25.9855 59.0637 25.3723 58.6533 24.7945C58.4495 24.5054 58.2331 24.2163 58.0103 23.9398C57.7876 23.6632 57.5543 23.3867 57.3137 23.1188C57.0731 22.851 56.8283 22.585 56.5783 22.3268C56.3282 22.0685 56.0645 21.8151 55.8007 21.5656C55.2754 21.0655 54.7238 20.5875 54.1533 20.1347C53.5939 19.6792 53.0025 19.2578 52.3829 18.8734C52.087 18.6891 51.7781 18.523 51.4583 18.3762C51.3165 18.3102 51.1689 18.2554 51.017 18.2124C50.9595 18.1969 50.9008 18.185 50.8416 18.1767H50.8258H50.7901C50.8005 18.1739 50.8107 18.1703 50.8205 18.1661C50.8385 18.159 50.8546 18.1485 50.8678 18.1353C50.8794 18.1276 50.8825 18.116 50.8804 18.1199C50.8599 18.1446 50.8468 18.1738 50.8426 18.2047C50.8132 18.3365 50.8012 18.471 50.8069 18.6055C50.8217 18.9339 50.861 19.261 50.9246 19.5845C50.9561 19.7521 50.9911 19.9208 51.0296 20.0903C51.0674 20.259 51.1063 20.4295 51.1494 20.6001C51.2335 20.9383 51.3228 21.2832 51.4131 21.6205C51.4421 21.6747 51.4496 21.7364 51.4346 21.7951C51.4195 21.8539 51.3827 21.906 51.3305 21.9427C51.2782 21.9794 51.2137 21.9983 51.148 21.9963C51.0822 21.9943 51.0192 21.9715 50.9697 21.9317L50.9319 21.9018L48.6877 20.0836L47.5592 19.1846C47.1831 18.8859 46.8006 18.5939 46.4224 18.2991C46.0442 18.0042 45.6607 17.7152 45.2751 17.4319C44.8895 17.1486 44.5018 16.8672 44.112 16.5936C43.7222 16.3199 43.3261 16.0559 42.9258 15.8073C42.5353 15.5607 42.1313 15.3327 41.7154 15.1241C41.5218 15.0289 41.3226 14.9436 41.1186 14.8688C40.9611 14.8084 40.7946 14.7698 40.6248 14.7541C40.5733 14.7541 40.547 14.7628 40.5638 14.7541C40.5702 14.7539 40.5762 14.7515 40.5806 14.7474C40.5806 14.7474 40.5806 14.7474 40.5922 14.7406L40.6101 14.73C40.6212 14.7221 40.6314 14.713 40.6405 14.7031C40.645 14.698 40.6488 14.6925 40.6521 14.6867L40.6384 14.7011L40.6069 14.7339L40.5911 14.7493L40.5838 14.758L40.6237 14.7137L40.6038 14.7426C40.4876 14.8916 40.3884 15.0511 40.3075 15.2186C40.1384 15.5816 40.0243 15.9642 39.9681 16.3556C39.9054 16.7731 39.8794 17.1946 39.8903 17.6159C39.8998 18.0466 39.9345 18.4831 39.9954 18.9196C40.0564 19.3561 40.1257 19.7965 40.215 20.2358C40.3043 20.6752 40.4062 21.1137 40.5239 21.5511C40.5806 21.7698 40.6374 21.9895 40.7004 22.2063C40.7635 22.4231 40.8275 22.6457 40.8916 22.8548L40.9148 22.929C40.9368 23.0017 40.9324 23.079 40.9022 23.1492C40.872 23.2194 40.8177 23.2786 40.7475 23.318C40.6773 23.3573 40.595 23.3746 40.5131 23.3671C40.4313 23.3597 40.3543 23.328 40.2938 23.2769V23.2769C39.9944 23.1256 39.6949 22.9647 39.4007 22.8047L38.5192 22.3229C38.2261 22.163 37.9361 22.004 37.645 21.8527C37.354 21.7014 37.0651 21.555 36.7908 21.4403L36.6858 21.3998L36.5912 21.3661L36.5072 21.3401L36.4767 21.3333C36.4693 21.3333 36.4452 21.3256 36.4662 21.3333C36.4772 21.3361 36.4888 21.3361 36.4998 21.3333H36.4263C36.4116 21.3333 36.5397 21.3237 36.4862 21.3276C36.4862 21.3276 36.4862 21.3276 36.4672 21.3343C36.4108 21.3822 36.3676 21.4416 36.3412 21.5077C36.2932 21.6174 36.258 21.7314 36.2361 21.8479C36.1855 22.1228 36.1669 22.4019 36.1804 22.6804C36.1926 22.9762 36.2227 23.2712 36.2708 23.564C36.3754 24.1629 36.5347 24.7528 36.7467 25.3273C36.8525 25.6177 36.9709 25.9038 37.1018 26.1859C37.2328 26.4679 37.3729 26.7457 37.5221 27.0193C37.6755 27.293 37.8408 27.5605 38.018 27.822C38.1956 28.0841 38.3816 28.3404 38.5833 28.588C38.785 28.8357 38.9952 29.0765 39.22 29.3088C39.3324 29.4234 39.448 29.5371 39.5646 29.6499L39.7422 29.8137L39.9303 29.9775C39.9721 30.0088 39.9986 30.054 40.004 30.1033C40.0094 30.1525 39.9933 30.2017 39.9592 30.24C39.925 30.2784 39.8757 30.3027 39.822 30.3077C39.7683 30.3126 39.7147 30.2979 39.6729 30.2665L39.6487 30.2531Z" fill="#C5C1B2"/>
<path d="M70.7384 71.042C58.2574 73.8691 56.0625 68.8018 47.7454 68.8018C39.5932 68.8018 37.2323 73.8691 24.7524 71.042C18.7509 69.6825 15.5253 71.941 16.224 75.5207C16.721 78.0587 19.9802 80.1892 24.1114 80.1892H71.3793C75.5095 80.1892 78.7698 78.0587 79.2657 75.5207C79.9665 71.941 76.7388 69.6825 70.7384 71.042Z" fill="#FDBE57"/>
<path d="M70.8549 71.4897L70.4683 71.5764C70.3422 71.6063 70.1815 71.6409 69.9881 71.6814C69.7948 71.7219 69.5679 71.7681 69.321 71.8173C68.8166 71.9136 68.1925 72.0283 67.4508 72.1314C66.709 72.2345 65.8516 72.3309 64.8818 72.3761C63.8067 72.4312 62.7286 72.4087 61.6573 72.3087C60.3951 72.187 59.1483 71.9557 57.9337 71.6178C56.6372 71.269 55.3133 70.7988 53.9296 70.3729C53.2382 70.1599 52.5301 69.9557 51.7967 69.7948C51.0491 69.6271 50.2903 69.5048 49.5252 69.4286C49.135 69.3913 48.7392 69.366 48.3379 69.3525C48.1404 69.3448 47.9302 69.3428 47.739 69.3409H47.4238C47.3187 69.3409 47.2221 69.3409 47.1212 69.3467C46.2895 69.3699 45.4609 69.4511 44.6427 69.5895C43.7898 69.7383 42.9477 69.9349 42.121 70.1783C41.2721 70.422 40.4137 70.7082 39.528 70.9886C38.6422 71.269 37.7282 71.5427 36.7804 71.7595C35.8192 71.9855 34.8412 72.1465 33.8543 72.2412C31.858 72.434 29.7997 72.3241 27.7688 72.0129C26.7507 71.8597 25.7378 71.6564 24.7271 71.4213C23.7504 71.1783 22.7477 71.0336 21.7368 70.9896C20.7313 70.9578 19.7069 71.0541 18.7886 71.3981C18.3321 71.5639 17.912 71.8042 17.5488 72.1073C17.1896 72.4116 16.9061 72.7833 16.7178 73.1971C16.5306 73.6207 16.4312 74.0727 16.4246 74.5297C16.4134 74.9952 16.4764 75.4598 16.6116 75.9086C16.8964 76.7989 17.5383 77.5881 18.3316 78.2028C18.7321 78.5131 19.1674 78.7834 19.6302 79.0093C20.0949 79.2394 20.5816 79.4297 21.0844 79.5778C21.5898 79.7265 22.1073 79.838 22.632 79.9112C23.1596 79.9807 23.6919 80.0155 24.2249 80.0153C28.5599 80.0519 32.895 80.0702 37.1629 80.0914L43.5048 80.1068C45.5956 80.1068 47.6623 80.1193 49.6943 80.1136C53.7583 80.1136 57.6868 80.0953 61.4125 80.0664L66.8403 80.0153L69.4239 79.9864L70.6847 79.9719L71.3036 79.9642H71.3803H71.4528L71.6062 79.9594H71.7596L71.9067 79.9507C72.6802 79.9073 73.4456 79.7818 74.1877 79.5769C74.8916 79.3825 75.5656 79.1067 76.1934 78.7559C76.7822 78.4283 77.3135 78.0209 77.7694 77.5476C78.1922 77.1103 78.5186 76.6022 78.7308 76.0512C78.779 75.9209 78.8197 75.7884 78.8527 75.6542C78.8664 75.5887 78.8811 75.5241 78.8947 75.4615C78.9084 75.3988 78.921 75.3112 78.9283 75.2485C78.9654 74.9837 78.978 74.7165 78.9662 74.4497C78.9481 73.9557 78.8145 73.471 78.5743 73.0285C78.3513 72.6303 78.0357 72.2819 77.6497 72.0081C77.2892 71.7562 76.8879 71.5579 76.4603 71.4203C75.7091 71.1867 74.9199 71.0724 74.1268 71.0821C73.5285 71.0828 72.9313 71.127 72.3406 71.2141C71.8552 71.2835 71.4864 71.3586 71.2384 71.4068L70.8623 71.4906L70.8549 71.4897ZM70.6175 70.5945C70.6175 70.5945 70.753 70.5646 71.0168 70.5126C71.2805 70.4606 71.6745 70.3874 72.1956 70.3199C72.8383 70.2361 73.4872 70.199 74.1362 70.2091C75.0349 70.2146 75.9259 70.3602 76.7713 70.6398C77.284 70.8152 77.7625 71.065 78.1887 71.3798C78.6636 71.7336 79.0481 72.1786 79.315 72.6835C79.5933 73.2266 79.7419 73.8179 79.751 74.4179C79.7573 74.7275 79.7345 75.037 79.6827 75.343C79.6712 75.4249 79.6565 75.4913 79.6428 75.5655C79.6291 75.6397 79.6039 75.7255 79.585 75.8064C79.5409 75.9643 79.488 76.1199 79.4264 76.2728C79.1664 76.8979 78.7767 77.4709 78.279 77.96C77.7639 78.4681 77.1672 78.9013 76.5097 79.2444C75.8277 79.6032 75.0986 79.8807 74.34 80.0702C73.9502 80.1691 73.5545 80.2473 73.1549 80.3043C72.7464 80.3624 72.3345 80.3975 71.9214 80.4094L71.7638 80.4142H71.2994L70.6858 80.4007L69.425 80.3863L66.8414 80.3573L61.4136 80.3063C57.6879 80.2783 53.7594 80.26 49.6954 80.2591C47.6634 80.2533 45.5977 80.2591 43.5058 80.2658L37.1639 80.2812C32.8961 80.3024 28.561 80.3207 24.2259 80.3573C23.6745 80.365 23.1232 80.336 22.5763 80.2706C22.0284 80.2029 21.4873 80.0946 20.9583 79.9469C20.4252 79.8023 19.9079 79.613 19.4127 79.3813C18.9162 79.1494 18.4478 78.87 18.0153 78.5478C17.5777 78.225 17.1871 77.852 16.8533 77.4377C16.6867 77.2282 16.5367 77.008 16.4047 76.7787C16.2751 76.5461 16.1658 76.3044 16.0779 76.056C15.9173 75.5584 15.8373 75.0419 15.8404 74.523C15.8364 73.9961 15.9401 73.4731 16.1462 72.9813C16.3583 72.4869 16.6841 72.0403 17.1013 71.6718C17.5158 71.3113 17.9977 71.0221 18.5239 70.8181C19.563 70.4076 20.6799 70.2881 21.7579 70.3016C22.8255 70.3269 23.887 70.4587 24.9235 70.6947C25.9185 70.9067 26.9125 71.0869 27.9043 71.217C28.8838 71.3478 29.8706 71.4282 30.8599 71.4579C31.8247 71.4841 32.7904 71.4461 33.7492 71.3442C34.6855 71.2414 35.6123 71.0755 36.522 70.8479C37.4245 70.6244 38.3081 70.3488 39.1739 70.0617C40.0396 69.7745 40.9107 69.4768 41.7859 69.2147C42.6528 68.9491 43.5367 68.7325 44.4325 68.5662C45.3072 68.4084 46.1937 68.3117 47.0844 68.2771L47.4133 68.2675L47.7285 68.2627C47.9565 68.2627 48.1624 68.2627 48.3789 68.2714C48.8075 68.2842 49.231 68.3096 49.6491 68.3475C50.4672 68.4269 51.2787 68.5557 52.0783 68.7329C52.8579 68.9035 53.6028 69.1116 54.3152 69.3313C55.7389 69.7774 57.0354 70.2467 58.2741 70.5839C59.4194 70.9102 60.5942 71.1418 61.7845 71.2758C62.7956 71.3831 63.8144 71.4176 64.8314 71.3789C66.2704 71.3203 67.7022 71.1592 69.114 70.8971C69.3598 70.8528 69.5763 70.8113 69.7612 70.7737C69.9461 70.7362 70.1037 70.7063 70.2319 70.6774L70.6196 70.5945H70.6175Z" fill="#BF7329"/>
<path d="M70.3824 76.7315C70.9077 74.8044 73.2108 73.8408 73.2108 73.8408H21.6562C21.6562 73.8408 23.9582 74.8044 24.4836 76.7315C24.4836 76.7315 22.3959 77.196 21.1309 78.8581C21.1309 78.8581 21.6562 81.4356 24.9438 82.4002C24.9438 82.4002 35.8614 80.5193 47.4335 80.5193C59.0057 80.5193 69.918 82.4002 69.918 82.4002C73.2077 81.4356 73.733 78.8591 73.733 78.8591C72.551 77.1246 70.3824 76.7315 70.3824 76.7315Z" fill="#FDBE57"/>
<path opacity="0.65" d="M70.0399 72.5001C57.9508 74.5448 55.8242 70.8794 47.7655 70.8794C39.8697 70.8794 37.5834 74.5409 25.4912 72.5001C19.6788 71.5163 16.552 73.1505 17.2308 75.7396C17.608 77.1782 19.6284 78.4376 22.4106 78.9126C22.8803 79.5081 23.8311 80.305 25.6824 80.7126C25.6824 80.7126 36.2564 78.5821 47.4661 78.5821C58.6758 78.5821 69.2498 80.7126 69.2498 80.7126C71.0002 80.3271 71.9406 79.5939 72.4344 79.009C75.5664 78.6332 77.8979 77.29 78.3003 75.7329C78.978 73.1467 75.8522 71.5125 70.0399 72.5001Z" fill="url(#paint4_linear)"/>
<path d="M18.4746 75.5295C18.4746 75.5295 18.4746 75.5295 18.4851 75.5044C18.4956 75.4794 18.5051 75.461 18.5209 75.4264C18.5513 75.3647 18.5934 75.2741 18.6585 75.1681C18.733 75.0392 18.815 74.914 18.9044 74.7933C19.1582 74.4498 19.4598 74.1382 19.8016 73.8663C20.0088 73.6989 20.2302 73.5469 20.4636 73.4115C20.7161 73.2629 20.9818 73.1339 21.2579 73.0261C21.4092 72.9818 21.5479 72.924 21.6971 72.8854C21.8462 72.8469 21.9954 72.8035 22.1467 72.7717C22.298 72.7399 22.4525 72.7187 22.6048 72.6918C22.7572 72.6648 22.9106 72.6619 23.0619 72.6484C23.2132 72.6349 23.3634 72.6388 23.5116 72.6407C23.6597 72.6426 23.8047 72.6503 23.9466 72.6619C24.0884 72.6735 24.226 72.6918 24.3616 72.7091C24.4971 72.7264 24.6242 72.7544 24.7503 72.7794C24.8764 72.8045 24.9951 72.8363 25.1107 72.8662C25.222 72.8931 25.3318 72.9253 25.4396 72.9625L25.7359 73.0589C25.8283 73.0926 25.9145 73.1292 25.9943 73.1629C26.1342 73.2205 26.2706 73.2848 26.403 73.3557C26.5144 73.4106 26.5985 73.4588 26.6573 73.4896L26.7456 73.5387C26.8482 73.595 26.9262 73.6824 26.966 73.7858C27.0058 73.8893 27.0049 74.0022 26.9635 74.1051C26.9221 74.208 26.8428 74.2944 26.7393 74.3493C26.6358 74.4043 26.5146 74.4243 26.3967 74.4059L26.361 74.4002L26.2675 74.3867C26.2076 74.3761 26.1194 74.3635 26.009 74.3423C25.8987 74.3211 25.7653 74.3019 25.6129 74.2778C25.5362 74.2672 25.4574 74.2498 25.3723 74.2402L25.1065 74.2074L24.9668 74.1891L24.8207 74.1766C24.7219 74.1708 24.6211 74.1535 24.5171 74.1506C24.4131 74.1477 24.3069 74.14 24.2019 74.1342C24.0968 74.1284 23.9854 74.1342 23.8741 74.1342L23.5399 74.1448L23.2016 74.1699C23.0892 74.1853 22.9757 74.1988 22.8633 74.2152C22.7509 74.2315 22.6385 74.2489 22.5281 74.2778C22.4735 74.2913 22.4231 74.3028 22.3632 74.3144C22.3033 74.326 22.2581 74.3443 22.1993 74.3587C22.0942 74.3857 21.9891 74.4223 21.8841 74.4551C21.8294 74.4705 21.779 74.4927 21.7275 74.5119C21.676 74.5312 21.6225 74.5466 21.5741 74.5688C21.4691 74.6112 21.3734 74.6517 21.2768 74.6969C21.0835 74.7846 20.9017 74.8829 20.7304 74.9812C20.5592 75.0795 20.4037 75.1835 20.2587 75.2809C20.1137 75.3782 19.9865 75.4736 19.8752 75.5699C19.7638 75.6663 19.665 75.7366 19.5904 75.8041L19.4129 75.9467L19.3877 75.9698L19.3719 75.9814C19.3667 75.9856 19.3618 75.9901 19.3572 75.9949C19.3251 76.0499 19.2812 76.0984 19.2283 76.1375C19.1753 76.1767 19.1143 76.2056 19.0489 76.2227C18.9835 76.2398 18.915 76.2447 18.8475 76.237C18.78 76.2294 18.7148 76.2093 18.656 76.1781C18.5971 76.1469 18.5456 76.1052 18.5046 76.0554C18.4637 76.0056 18.4341 75.9487 18.4175 75.8882C18.401 75.8277 18.3979 75.7648 18.4085 75.7031C18.419 75.6415 18.4429 75.5824 18.4788 75.5295H18.4746Z" fill="#BF7329"/>
<path d="M28.4678 76.4988L28.8691 76.335C29.0015 76.284 29.1623 76.2165 29.3556 76.1423C29.5489 76.0681 29.7759 75.993 30.0259 75.9072C30.276 75.8214 30.5607 75.7376 30.8665 75.6403C31.1722 75.543 31.5095 75.4543 31.8688 75.3512C32.5885 75.1585 33.4102 74.9706 34.3116 74.7866C34.7624 74.7027 35.2331 74.6083 35.7227 74.5293L36.4687 74.4069C36.7219 74.3655 36.9804 74.3337 37.2409 74.2952C38.2853 74.1429 39.3917 74.0234 40.539 73.9174C41.6863 73.8114 42.8736 73.7392 44.0819 73.6862C45.2902 73.6332 46.5184 73.6062 47.7466 73.6149C48.3613 73.6149 48.9749 73.6216 49.5864 73.6351L50.5015 73.6631C50.8062 73.6727 51.1088 73.6804 51.4114 73.6977C52.6186 73.7527 53.8059 73.8375 54.9522 73.9406C55.238 73.9627 55.5217 73.9974 55.8032 74.0254C56.0848 74.0533 56.3622 74.0822 56.6375 74.1159C57.187 74.1815 57.7249 74.2479 58.2461 74.3241L59.0173 74.4358L59.7643 74.5572C60.2539 74.6334 60.7236 74.7268 61.1754 74.8097C61.4012 74.8502 61.6208 74.8955 61.8362 74.9417L62.4666 75.0756C62.8753 75.1614 63.2599 75.2606 63.6224 75.3445C64.3452 75.5256 64.9704 75.6962 65.48 75.8542C65.7353 75.9323 65.9643 75.9949 66.1598 76.0633L66.6557 76.2329L67.0675 76.3765L66.6315 76.3157L66.1062 76.2396L65.4012 76.1433C65.1375 76.1076 64.8464 76.0662 64.527 76.0325C64.2076 75.9987 63.8661 75.9457 63.4973 75.9101C62.7619 75.8263 61.9339 75.7386 61.0283 75.6567C60.5754 75.6152 60.1047 75.5719 59.6161 75.5343L58.8733 75.4736L58.1053 75.4206C57.0683 75.3445 55.9724 75.2818 54.8398 75.2279C54.2735 75.2019 53.6977 75.171 53.1135 75.1527L52.2341 75.1161L51.3536 75.092C50.1632 75.0535 48.9539 75.0313 47.7435 75.0207C46.5331 75.0101 45.3269 75.014 44.1334 75.0332C43.5376 75.0429 42.9472 75.0516 42.364 75.0718C41.7809 75.092 41.2083 75.1084 40.6378 75.1296C40.0672 75.1508 39.5135 75.1778 38.9693 75.2096C38.425 75.2414 37.8902 75.2693 37.3733 75.3059C36.8564 75.3425 36.351 75.383 35.8624 75.4225C35.6187 75.4408 35.3802 75.4649 35.1448 75.489L34.4535 75.5536L33.7926 75.6287C33.5762 75.6538 33.3639 75.6711 33.1622 75.7L32.5633 75.7781L32.2754 75.8137L31.998 75.8552C31.2678 75.9602 30.6322 76.0614 30.1068 76.1587C29.8484 76.2107 29.6151 76.255 29.4113 76.2917C29.2075 76.3283 29.0372 76.3736 28.8975 76.4034L28.4678 76.4988Z" fill="#F7941D"/>
<g style="mix-blend-mode:multiply" opacity="0.25">
<path d="M67.3237 36.5482C67.3237 36.5482 67.2996 36.5193 67.2449 36.4518C67.1903 36.3844 67.1094 36.288 67.0043 36.1628C66.8993 36.0375 66.7648 35.8949 66.6082 35.7321C66.4517 35.5692 66.2657 35.3929 66.0629 35.2098C65.6052 34.796 65.1017 34.4272 64.5605 34.1094C64.2641 33.937 63.9548 33.784 63.6348 33.6517C63.3091 33.5176 62.9726 33.4068 62.6283 33.3203L62.3687 33.2615C62.2826 33.2422 62.1943 33.2297 62.1071 33.2133L62.042 33.2017L61.9821 33.1921L61.8318 33.169C61.7268 33.1507 61.6459 33.143 61.5576 33.1314C61.2035 33.0871 60.8369 33.0582 60.4901 33.0428C60.1434 33.0273 59.804 33.0293 59.4825 33.0428C59.161 33.0562 58.8584 33.0784 58.5789 33.1092C58.1277 33.1568 57.6797 33.2279 57.2372 33.3222C56.922 33.3916 56.7424 33.4436 56.7602 33.434C56.6341 33.4986 56.4852 33.5147 56.3462 33.4786C56.2072 33.4426 56.0895 33.3574 56.019 33.2417C55.9485 33.1261 55.931 32.9895 55.9703 32.862C56.0096 32.7345 56.1025 32.6266 56.2286 32.5619C56.4024 32.4459 56.585 32.3413 56.7749 32.2488C57.2506 32.0172 57.7532 31.8355 58.2732 31.7073C58.6183 31.6199 58.9693 31.5536 59.3239 31.5088C59.7211 31.4581 60.1217 31.4329 60.5227 31.4336C60.9533 31.4331 61.3834 31.4608 61.8098 31.5165C61.9212 31.5319 62.0409 31.5473 62.1344 31.5647L62.2847 31.5887L62.3225 31.5955H62.3414H62.3645H62.375L62.458 31.6138C62.5705 31.6388 62.6829 31.661 62.7932 31.688L63.1252 31.7776C63.5616 31.9066 63.9838 32.0731 64.386 32.2748C64.7692 32.4688 65.1334 32.6929 65.4745 32.9445C65.7876 33.1771 66.0809 33.4313 66.3519 33.7047C66.5915 33.9462 66.8136 34.2018 67.0169 34.4698C67.1871 34.6939 67.3435 34.9265 67.4855 35.1665C67.6137 35.3804 67.7083 35.5731 67.786 35.733C67.8638 35.893 67.9121 36.0221 67.9468 36.1127C67.9815 36.2032 67.9983 36.2591 67.9972 36.2562C68.0175 36.2969 68.0289 36.3407 68.0307 36.3854C68.0324 36.43 68.0246 36.4746 68.0076 36.5164C67.9907 36.5583 67.9649 36.5967 67.9317 36.6294C67.8986 36.6622 67.8587 36.6886 67.8144 36.7072C67.7701 36.7258 67.7223 36.7362 67.6736 36.7379C67.6249 36.7395 67.5763 36.7323 67.5307 36.7168C67.485 36.7012 67.4431 36.6775 67.4075 36.6471C67.3718 36.6167 67.343 36.5801 67.3227 36.5395L67.3237 36.5482Z" fill="#262262"/>
</g>
<g style="mix-blend-mode:multiply" opacity="0.25">
<path d="M26.8728 36.2699C26.8728 36.2699 26.8906 36.214 26.9232 36.1263C26.9558 36.0387 27.0083 35.9057 27.085 35.7467C27.1617 35.5877 27.2563 35.394 27.3845 35.1811C27.5262 34.9407 27.6827 34.7077 27.8531 34.4835C28.0564 34.2154 28.2785 33.9599 28.5181 33.7184C28.7891 33.4449 29.0824 33.1908 29.3955 32.9581C29.7368 32.7063 30.1013 32.4823 30.485 32.2885C30.887 32.0861 31.3092 31.9196 31.7458 31.7913L32.0778 31.7017C32.1882 31.6747 32.3016 31.6525 32.413 31.6275L32.4971 31.6092H32.5076H32.5307H32.5485L32.5864 31.6024L32.7366 31.5783C32.8301 31.561 32.9467 31.5456 33.0613 31.5301C33.4876 31.4745 33.9177 31.4468 34.3484 31.4473C34.7497 31.4467 35.1507 31.4718 35.5482 31.5224C35.9028 31.5673 36.2538 31.6336 36.5989 31.7209C37.1189 31.8492 37.6215 32.0308 38.0972 32.2625C38.2871 32.3549 38.4697 32.4596 38.6435 32.5756C38.706 32.6076 38.7609 32.6506 38.8052 32.7021C38.8495 32.7536 38.8824 32.8126 38.9018 32.8757C38.9213 32.9388 38.927 33.0048 38.9187 33.07C38.9103 33.1351 38.888 33.1981 38.8531 33.2554C38.8182 33.3127 38.7714 33.3631 38.7152 33.4037C38.6591 33.4443 38.5947 33.4745 38.5259 33.4923C38.4571 33.5102 38.3851 33.5154 38.3141 33.5077C38.243 33.5001 38.1743 33.4796 38.1119 33.4476C38.1297 33.4573 37.9553 33.4052 37.6349 33.3359C37.1918 33.2402 36.7431 33.1678 36.2911 33.1191C36.0116 33.0882 35.7079 33.0651 35.3875 33.0526C35.067 33.04 34.7287 33.041 34.3799 33.0526C34.031 33.0641 33.6665 33.0969 33.3124 33.1412C33.2241 33.1528 33.1432 33.1605 33.0382 33.1788L32.8879 33.2019L32.828 33.2116L32.7629 33.2231C32.6757 33.2395 32.5874 33.252 32.5013 33.2703L32.2417 33.3301C31.8974 33.4166 31.5609 33.5274 31.2352 33.6615C30.9152 33.7939 30.6059 33.9468 30.3096 34.1192C29.7684 34.434 29.2646 34.7995 28.806 35.21C28.5959 35.395 28.4194 35.5723 28.2628 35.7351C28.1063 35.898 27.9718 36.0425 27.8667 36.1658C27.7617 36.2892 27.6787 36.3855 27.6261 36.4549C27.5736 36.5243 27.5494 36.5513 27.5484 36.5513C27.5035 36.6271 27.4289 36.6844 27.3398 36.7119C27.2506 36.7393 27.1534 36.7347 27.0678 36.699C26.9821 36.6634 26.9144 36.5993 26.8782 36.5196C26.842 36.44 26.8401 36.3508 26.8728 36.2699V36.2699Z" fill="#262262"/>
</g>
<path d="M67.3236 35.9706C67.3236 35.9706 67.2995 35.9417 67.2448 35.8742C67.1902 35.8068 67.1093 35.7104 67.0042 35.5851C66.8991 35.4599 66.7647 35.3173 66.6081 35.1544C66.4516 34.9916 66.2656 34.8153 66.0628 34.6322C65.6051 34.2184 65.1016 33.8496 64.5603 33.5318C64.264 33.3594 63.9546 33.2064 63.6347 33.0741C63.309 32.9399 62.9725 32.8291 62.6281 32.7426L62.3686 32.6839C62.2825 32.6646 62.1942 32.6521 62.107 32.6357L62.0419 32.6241L61.982 32.6145L61.8317 32.5913C61.7267 32.573 61.6458 32.5653 61.5575 32.5538C61.2034 32.5094 60.8367 32.4805 60.49 32.4651C60.1433 32.4497 59.8039 32.4516 59.4824 32.4651C59.1609 32.4786 58.8583 32.5008 58.5788 32.5316C58.1276 32.5792 57.6796 32.6503 57.2371 32.7446C56.9219 32.8139 56.7423 32.866 56.7601 32.8563C56.6342 32.9174 56.4872 32.9308 56.3506 32.8938C56.214 32.8567 56.0986 32.7721 56.0292 32.6581C55.9597 32.544 55.9417 32.4096 55.9789 32.2835C56.0162 32.1574 56.1057 32.0497 56.2285 31.9833C56.4028 31.8683 56.5853 31.764 56.7748 31.6711C57.2504 31.4395 57.753 31.2579 58.2731 31.1296C58.6182 31.0423 58.9691 30.976 59.3238 30.9311C59.721 30.8804 60.1216 30.8553 60.5226 30.856C60.9532 30.8555 61.3833 30.8832 61.8097 30.9388C61.921 30.9543 62.0408 30.9697 62.1343 30.987L62.2846 31.0111L62.3224 31.0178H62.3403H62.3644H62.3749L62.4579 31.0362C62.5704 31.0612 62.6828 31.0834 62.7931 31.1104L63.1251 31.2C63.5615 31.329 63.9836 31.4954 64.3859 31.6972C64.7691 31.8912 65.1333 32.1153 65.4744 32.3668C65.7875 32.5995 66.0808 32.8536 66.3517 33.1271C66.7923 33.5708 67.1729 34.0616 67.4854 34.5888C67.6136 34.8027 67.7082 34.9954 67.7859 35.1554C67.8637 35.3153 67.912 35.4445 67.9467 35.535C67.9813 35.6256 67.9982 35.6815 67.9971 35.6786C68.0381 35.7606 68.0418 35.8542 68.0075 35.9388C67.9732 36.0234 67.9037 36.092 67.8143 36.1296C67.7248 36.1671 67.6228 36.1706 67.5306 36.1391C67.4384 36.1077 67.3635 36.0439 67.3226 35.9619L67.3236 35.9706Z" fill="#231F20"/>
<path d="M26.8726 35.6918C26.8726 35.6918 26.8904 35.6359 26.923 35.5482C26.9556 35.4605 27.0081 35.3276 27.0837 35.1686C27.1594 35.0096 27.2561 34.8159 27.3842 34.602C27.5263 34.362 27.6827 34.1294 27.8528 33.9053C28.0561 33.6373 28.2783 33.3818 28.5179 33.1403C28.7889 32.8668 29.0822 32.6126 29.3952 32.38C29.7363 32.1284 30.1005 31.9044 30.4837 31.7103C30.8858 31.5082 31.308 31.3417 31.7445 31.2131L32.0766 31.1235C32.1869 31.0966 32.2993 31.0744 32.4117 31.0493L32.4958 31.031H32.5052H32.5294H32.5473L32.5851 31.0243L32.7353 31.0002C32.8288 30.9829 32.9455 30.9674 33.06 30.952C33.4863 30.8964 33.9164 30.8687 34.3471 30.8692C34.7481 30.8685 35.1487 30.8936 35.5459 30.9443C35.9005 30.9891 36.2515 31.0555 36.5966 31.1428C37.1166 31.2711 37.6192 31.4527 38.0948 31.6843C38.2843 31.7771 38.4668 31.8814 38.6412 31.9965C38.7639 32.0628 38.8535 32.1706 38.8907 32.2966C38.928 32.4227 38.9099 32.5572 38.8405 32.6712C38.771 32.7853 38.6557 32.8699 38.5191 32.907C38.3825 32.944 38.2355 32.9306 38.1095 32.8695C38.1274 32.8791 37.953 32.8271 37.6325 32.7577C37.1895 32.6621 36.7408 32.5897 36.2887 32.5409C36.0092 32.5101 35.7056 32.487 35.3851 32.4744C35.0647 32.4619 34.7264 32.4629 34.3775 32.4744C34.0287 32.486 33.6641 32.5188 33.3101 32.5631C33.2218 32.5747 33.1409 32.5824 33.0358 32.6007L32.8856 32.6238L32.8257 32.6334L32.7606 32.645C32.6733 32.6614 32.5851 32.6739 32.4989 32.6922L32.2394 32.752C31.8951 32.8385 31.5586 32.9493 31.2329 33.0834C30.9129 33.2157 30.6036 33.3687 30.3072 33.5411C29.7668 33.856 29.2637 34.2215 28.8058 34.6319C28.5957 34.8169 28.4192 34.9942 28.2626 35.157C28.1061 35.3199 27.9716 35.4644 27.8665 35.5877C27.7614 35.7111 27.6784 35.8074 27.6259 35.8768C27.5734 35.9462 27.5492 35.9732 27.5471 35.9732C27.5284 36.0158 27.5005 36.0545 27.4651 36.087C27.4296 36.1195 27.3874 36.145 27.3408 36.1621C27.2943 36.1792 27.2445 36.1875 27.1944 36.1864C27.1443 36.1854 27.095 36.175 27.0494 36.156C27.0038 36.137 26.9628 36.1097 26.929 36.0757C26.8952 36.0418 26.8693 36.0019 26.8528 35.9586C26.8363 35.9152 26.8295 35.8692 26.8329 35.8233C26.8363 35.7775 26.8498 35.7327 26.8726 35.6918V35.6918Z" fill="#231F20"/>
<g style="mix-blend-mode:darken" opacity="0.25">
<path d="M68.0401 82.6173L67.228 82.4766C66.296 82.3215 65.362 82.1818 64.4269 82.0449L63.0221 81.8522L61.6153 81.6749C60.6759 81.5641 59.7356 81.4601 58.7931 81.3705C57.8507 81.2808 56.9082 81.197 55.9637 81.1209L54.5452 81.0245L53.836 80.9773L53.1258 80.9397L51.7053 80.8713L50.2753 80.828L49.5619 80.8068L48.8548 80.7981L47.4332 80.7798L46.0085 80.7981L45.2961 80.8068L44.5838 80.828L43.1612 80.8713L41.7406 80.9397L41.0304 80.9773L40.3201 81.0245L38.9028 81.1209C37.9572 81.197 37.0115 81.2712 36.0733 81.3705C35.135 81.4697 34.1905 81.5632 33.2512 81.6749L31.8443 81.8522L30.4448 82.0392C29.5097 82.176 28.5757 82.3157 27.6437 82.4708L27.4546 82.5036C27.608 82.8659 27.7628 83.2272 27.919 83.5876L29.2281 83.445L30.6266 83.3034L32.0208 83.1704L33.4203 83.0461C34.3544 82.9719 35.2874 82.8852 36.2214 82.8235C37.1555 82.7618 38.0906 82.7011 39.0246 82.6375L40.4262 82.5643L41.1271 82.5287L41.8278 82.5026L43.2305 82.4477L44.6321 82.4121L45.3329 82.3947L46.0327 82.3899L47.4343 82.3803L48.838 82.3899L49.544 82.3947L50.2427 82.4121L51.638 82.4477L53.0396 82.5026L53.7415 82.5287L54.4423 82.5643L55.8439 82.6375C56.7779 82.7011 57.713 82.7512 58.646 82.8235C59.579 82.8958 60.5131 82.9719 61.4471 83.0461L62.8477 83.1704L64.2461 83.3072L65.6425 83.4489L67.0399 83.6011L67.5894 83.6657C67.7414 83.3162 67.8916 82.9668 68.0401 82.6173Z" fill="#262262"/>
</g>
<path d="M21.8766 73.4012C21.9817 73.4475 22.0637 73.488 22.153 73.5323C22.2423 73.5766 22.3253 73.6219 22.4083 73.6691C22.5764 73.7655 22.7382 73.8618 22.8969 73.9707C23.2169 74.1834 23.5151 74.4224 23.7878 74.6847C23.9266 74.8169 24.0571 74.9562 24.1787 75.1019C24.2417 75.1742 24.2985 75.2513 24.3573 75.3274C24.4161 75.4035 24.4697 75.4835 24.5201 75.5654C24.5706 75.6473 24.6252 75.7292 24.6672 75.813C24.7093 75.8969 24.7576 75.9836 24.7965 76.0713C24.8353 76.159 24.8732 76.2476 24.9015 76.3392C24.9299 76.4307 24.9614 76.5222 24.9898 76.6138C25.0091 76.6723 25.0156 76.7339 25.0088 76.7947C25.002 76.8556 24.9821 76.9147 24.9502 76.9684C24.9183 77.0222 24.8752 77.0697 24.8232 77.108C24.7712 77.1464 24.7114 77.1749 24.6473 77.1919V77.1919L24.6084 77.2015L24.5107 77.2276L24.4056 77.2594C24.331 77.2815 24.2564 77.3056 24.1829 77.3316C24.0337 77.3837 23.8866 77.4415 23.7426 77.5041C23.4538 77.6287 23.1759 77.7736 22.9116 77.9377C22.6496 78.1 22.4035 78.2828 22.1761 78.484C22.0637 78.5804 21.9554 78.6883 21.8546 78.7972C21.8031 78.8512 21.7495 78.907 21.7064 78.9639C21.6634 79.0207 21.614 79.0786 21.5677 79.1354L21.6528 78.7712L21.6665 78.8223L21.6854 78.8878C21.698 78.9321 21.7138 78.9774 21.7295 79.0227C21.7632 79.1123 21.7999 79.2029 21.8399 79.2934C21.8798 79.384 21.925 79.4717 21.9723 79.5584C22.0195 79.6451 22.07 79.7328 22.1246 79.8167C22.1792 79.9005 22.2297 79.9853 22.2948 80.0653C22.36 80.1452 22.4167 80.2262 22.4818 80.3042C22.547 80.3823 22.6163 80.4565 22.6857 80.5307C22.755 80.6048 22.8286 80.6761 22.9053 80.7436C22.982 80.811 23.0608 80.8785 23.1396 80.945C23.2184 81.0115 23.3003 81.076 23.3823 81.13C23.4642 81.1839 23.5556 81.2456 23.6428 81.3025C23.73 81.3593 23.8225 81.4104 23.916 81.4595C24.0095 81.5087 24.103 81.5559 24.1997 81.6012C24.2964 81.6465 24.3941 81.6889 24.4928 81.7293C24.5916 81.7698 24.6946 81.8045 24.7954 81.843C24.8963 81.8816 25.0056 81.9086 25.1043 81.9394L24.8469 81.9249C25.3166 81.8286 25.7778 81.7409 26.2433 81.6561C26.7087 81.5713 27.1731 81.4923 27.6386 81.4123C28.5705 81.2572 29.5046 81.1175 30.4397 80.9806L31.8444 80.7879L33.2513 80.6106C34.1906 80.4998 35.1309 80.3958 36.0734 80.3061C37.0158 80.2165 37.9583 80.1327 38.9029 80.0566L40.3202 79.9602L41.0305 79.913L41.7407 79.8754L43.1613 79.807L44.5839 79.7637L45.2962 79.7425L46.0086 79.7338L47.4333 79.7155L48.8549 79.7338L49.562 79.7425L50.2754 79.7637L51.7054 79.807L53.1259 79.8754L53.8361 79.913L54.5453 79.9602L55.9638 80.0566C56.9094 80.1327 57.855 80.2069 58.7932 80.3061C59.7315 80.4054 60.676 80.4989 61.6154 80.6106L63.0222 80.7879L64.427 80.9806C65.3621 81.1175 66.2961 81.2572 67.2281 81.4123C67.6935 81.4923 68.159 81.5703 68.6234 81.6561C69.0878 81.7419 69.5501 81.8305 70.0197 81.9249L69.7623 81.9394C69.8674 81.9057 69.9724 81.8748 70.0712 81.843C70.17 81.8112 70.275 81.7727 70.3727 81.7293C70.4705 81.686 70.5713 81.6484 70.6659 81.6012C70.7604 81.554 70.8571 81.5048 70.9506 81.4595C71.0441 81.4142 71.1334 81.3555 71.2238 81.3025C71.3142 81.2495 71.4003 81.1907 71.4844 81.13C71.5684 81.0693 71.6514 81.0067 71.7334 80.944C71.8153 80.8814 71.8931 80.8139 71.9666 80.7426C72.0402 80.6713 72.1148 80.602 72.1873 80.5297C72.2598 80.4574 72.326 80.3803 72.3911 80.3032C72.4562 80.2262 72.5193 80.1462 72.5781 80.0643C72.637 79.9824 72.6947 79.9005 72.7483 79.8157C72.8019 79.7309 72.8534 79.6451 72.8996 79.5575C72.9459 79.4698 72.991 79.3811 73.0331 79.2925C73.0751 79.2038 73.1098 79.1113 73.1381 79.0217C73.1549 78.9764 73.1696 78.9311 73.1833 78.8868L73.2022 78.8213L73.2159 78.7702L73.2873 79.1152C73.2432 79.0564 73.2043 78.9957 73.1581 78.9388C73.1119 78.882 73.0677 78.8242 73.0184 78.7693C72.9219 78.6578 72.8188 78.5513 72.7095 78.4503C72.4885 78.2463 72.246 78.063 71.9855 77.903C71.7216 77.7405 71.4429 77.5993 71.1523 77.481C71.0063 77.4222 70.8582 77.3682 70.7079 77.321C70.633 77.2973 70.5584 77.2751 70.4841 77.2545L70.3727 77.2266L70.2761 77.2054L70.2351 77.1958C70.1706 77.1815 70.1099 77.1558 70.0563 77.1199C70.0027 77.0841 69.9573 77.039 69.9228 76.9871C69.8882 76.9352 69.8652 76.8775 69.8549 76.8174C69.8447 76.7573 69.8475 76.696 69.8632 76.6369C69.8627 76.6298 69.8627 76.6228 69.8632 76.6157C69.8926 76.5193 69.9157 76.4307 69.9514 76.3411C69.9871 76.2515 70.0208 76.1609 70.0565 76.0732C70.0922 75.9855 70.1405 75.8998 70.1847 75.815C70.2288 75.7302 70.2792 75.6473 70.3328 75.5673C70.3864 75.4874 70.4379 75.4083 70.4957 75.3293C70.5535 75.2503 70.6112 75.1761 70.6732 75.1039C70.7951 74.9574 70.9259 74.8175 71.0651 74.6847C71.3378 74.4224 71.6361 74.1834 71.9561 73.9707C72.1137 73.8641 72.2762 73.7635 72.4436 73.6691C72.5277 73.6219 72.6128 73.5728 72.7 73.5323L72.8324 73.4668C72.8786 73.4446 72.9175 73.4263 72.9784 73.4003C73.0409 73.3735 73.1086 73.3582 73.1775 73.3553C73.2465 73.3525 73.3153 73.3621 73.3802 73.3837C73.4451 73.4052 73.5047 73.4383 73.5557 73.481C73.6066 73.5237 73.6479 73.5752 73.6771 73.6325C73.7064 73.6898 73.723 73.7519 73.7261 73.8151C73.7292 73.8783 73.7187 73.9415 73.6952 74.001C73.6717 74.0605 73.6357 74.1152 73.5891 74.1619C73.5425 74.2086 73.4864 74.2464 73.4239 74.2733H73.4145L73.3167 74.3176L73.2117 74.3716C73.1392 74.4082 73.0667 74.4467 73.0015 74.4872C72.8614 74.5675 72.7214 74.6532 72.5813 74.7444C72.312 74.9235 72.061 75.1244 71.8311 75.3448C71.7193 75.4531 71.6141 75.5669 71.5159 75.6859C71.4655 75.7437 71.4213 75.8053 71.374 75.8651C71.3268 75.9248 71.2858 75.9874 71.2469 76.051C71.208 76.1146 71.1692 76.1782 71.1324 76.2438C71.0956 76.3093 71.0641 76.3738 71.0347 76.4365C71.0053 76.4991 70.9769 76.5694 70.9538 76.6379C70.9307 76.7063 70.9096 76.7747 70.8876 76.8431L70.4852 76.2582C70.5514 76.2707 70.5902 76.2804 70.6417 76.2919L70.7825 76.3276C70.875 76.3526 70.9664 76.3796 71.0557 76.4076C71.2357 76.4641 71.4108 76.5283 71.581 76.6003C71.9269 76.7418 72.2591 76.9101 72.5739 77.1033C72.8917 77.2994 73.188 77.5233 73.4586 77.772C73.5941 77.8979 73.7221 78.0304 73.8421 78.169C73.903 78.2374 73.9608 78.3096 74.0165 78.3819C74.0722 78.4542 74.1216 78.5293 74.1793 78.6026C74.2514 78.701 74.2778 78.8216 74.2529 78.9379V78.9475C74.2424 78.9957 74.235 79.0217 74.2266 79.0545L74.1993 79.1508C74.1814 79.2106 74.1615 79.2693 74.1405 79.3272C74.0995 79.4418 74.0533 79.5546 74.0028 79.6654C73.9524 79.7762 73.8978 79.8841 73.841 79.9911C73.7843 80.098 73.7223 80.2021 73.6561 80.3052C73.5899 80.4083 73.5227 80.5085 73.446 80.6068C73.3693 80.7051 73.2968 80.7995 73.218 80.8958C73.1392 80.9922 73.0604 81.076 72.9753 81.1724C72.8902 81.2687 72.8009 81.3478 72.7084 81.4306C72.6159 81.5135 72.5203 81.5944 72.4247 81.6744C72.3291 81.7544 72.2282 81.8286 72.1242 81.8989C72.0202 81.9693 71.9141 82.0386 71.809 82.107C71.704 82.1755 71.5926 82.2362 71.4812 82.2998C71.3698 82.3634 71.2585 82.4173 71.1429 82.4693C71.0273 82.5214 70.9128 82.5724 70.7962 82.6206C70.6795 82.6688 70.5598 82.7093 70.4421 82.7536C70.3244 82.7979 70.2015 82.8307 70.0817 82.8692C70.015 82.8934 69.9425 82.901 69.8716 82.8914L69.819 82.8846C69.3609 82.8239 68.8944 82.7661 68.43 82.7141L67.0347 82.5512L65.6426 82.3894L64.2441 82.2477L62.8457 82.1109L61.4451 81.9866C60.5111 81.9124 59.5791 81.8257 58.644 81.764C57.7089 81.7023 56.7759 81.6416 55.8419 81.578L54.4403 81.5048L53.7395 81.4692L53.0376 81.4431L51.636 81.3882L50.2407 81.3526L49.542 81.3352L48.836 81.3304L47.4323 81.3208L46.0307 81.3304L45.3309 81.3352L44.6301 81.3526L43.2285 81.3882L41.8258 81.4431L41.125 81.4692L40.4242 81.5048L39.0226 81.578C38.0886 81.6416 37.1535 81.6917 36.2194 81.764C35.2854 81.8363 34.3524 81.9124 33.4183 81.9866L32.0209 82.1109L30.6225 82.2477L29.224 82.3894L27.8266 82.5416L26.4313 82.7045C25.9669 82.7565 25.4994 82.8143 25.0423 82.875L24.9919 82.8817C24.9209 82.8906 24.8487 82.883 24.7818 82.8596V82.8596C24.662 82.821 24.5412 82.7854 24.4214 82.744C24.3016 82.7025 24.1829 82.6611 24.0673 82.611C23.9517 82.5609 23.8341 82.5146 23.7206 82.4597C23.6071 82.4048 23.4936 82.3489 23.3823 82.2901C23.2709 82.2313 23.1627 82.1668 23.0545 82.0974C22.9462 82.028 22.8443 81.9635 22.7392 81.8893C22.6342 81.8151 22.5375 81.7409 22.4388 81.6648C22.34 81.5886 22.2454 81.5067 22.1551 81.421C22.0647 81.3352 21.9754 81.2504 21.8882 81.1628C21.801 81.0751 21.7201 80.9816 21.6413 80.8872C21.5625 80.7927 21.4847 80.6945 21.4133 80.5981C21.3418 80.5017 21.2715 80.3986 21.2032 80.2965C21.1349 80.1944 21.076 80.0884 21.0182 79.9824C20.9605 79.8764 20.9069 79.7665 20.8554 79.6567C20.8039 79.5469 20.7598 79.4332 20.7188 79.3185C20.6978 79.2607 20.6778 79.2019 20.66 79.1422L20.6326 79.0458C20.6242 79.013 20.6169 78.987 20.6064 78.9388V78.9321C20.5928 78.8702 20.5935 78.8064 20.6085 78.7449C20.6235 78.6833 20.6525 78.6253 20.6936 78.5746C20.7503 78.5043 20.7986 78.432 20.8627 78.3636C20.9268 78.2952 20.9815 78.2268 21.0435 78.1612C21.1664 78.0283 21.2977 77.902 21.4333 77.7816C21.7047 77.5421 21.9978 77.3242 22.3095 77.1302C22.6193 76.9389 22.9446 76.7694 23.2824 76.6234C23.4506 76.5502 23.6222 76.483 23.7973 76.422C23.8845 76.3912 23.9738 76.3623 24.0642 76.3343L24.2007 76.2948C24.2501 76.2813 24.29 76.2707 24.3541 76.2553L23.9675 76.8412C23.9454 76.7728 23.9286 76.7024 23.9013 76.6359C23.874 76.5694 23.8498 76.501 23.8193 76.4345C23.7889 76.3681 23.7563 76.3025 23.7216 76.2418C23.687 76.1811 23.6491 76.1127 23.6082 76.0491C23.5672 75.9855 23.5231 75.9248 23.481 75.8622C23.439 75.7996 23.3896 75.7408 23.3381 75.683C23.2403 75.5638 23.135 75.4499 23.0229 75.3419C22.7927 75.1215 22.5413 74.9206 22.2717 74.7416C22.1372 74.6452 21.9975 74.5643 21.8514 74.4843C21.78 74.4438 21.7085 74.4053 21.6413 74.3687C21.574 74.332 21.4921 74.2945 21.4312 74.2723H21.4249C21.3562 74.2493 21.2935 74.2135 21.2408 74.1671C21.1881 74.1206 21.1466 74.0646 21.1188 74.0026C21.0911 73.9406 21.0777 73.874 21.0796 73.807C21.0816 73.74 21.0987 73.6741 21.13 73.6136C21.1612 73.553 21.2059 73.4991 21.2612 73.4552C21.3165 73.4114 21.3811 73.3786 21.451 73.359C21.5209 73.3394 21.5945 73.3333 21.667 73.3413C21.7396 73.3492 21.8096 73.371 21.8724 73.4051L21.8766 73.4012Z" fill="#BF7329"/>
<path d="M75.5187 75.995C75.5141 75.9902 75.5092 75.9857 75.504 75.9815L75.4882 75.97L75.463 75.9468L75.2886 75.7927C75.2129 75.7252 75.1142 75.6472 75.0038 75.5585C74.8935 75.4699 74.7622 75.3745 74.6203 75.2695C74.4785 75.1644 74.3198 75.0681 74.1486 74.9698C73.9715 74.8665 73.7888 74.7717 73.6012 74.6855C73.5056 74.6402 73.4058 74.5998 73.3049 74.5574C73.2555 74.5352 73.1998 74.5208 73.1515 74.5005C73.1032 74.4803 73.0464 74.4591 72.9949 74.4437C72.8899 74.4109 72.7848 74.3743 72.6797 74.3473C72.6251 74.3329 72.5747 74.3155 72.5158 74.303C72.457 74.2905 72.4055 74.2799 72.3498 74.2664C72.2448 74.2375 72.126 74.2259 72.0157 74.2038C71.9054 74.1816 71.7898 74.1739 71.6774 74.1585L71.3391 74.1334L71.005 74.1228C70.8936 74.1228 70.7843 74.1228 70.6771 74.1228C70.57 74.1228 70.467 74.1363 70.3619 74.1392C70.2569 74.1421 70.1571 74.1594 70.0583 74.1652L69.9123 74.1777L69.7725 74.196L69.5067 74.2288C69.4216 74.2384 69.3417 74.2558 69.2661 74.2664C69.1137 74.2905 68.9782 74.3069 68.8689 74.3309C68.7597 74.355 68.6704 74.3647 68.6105 74.3753L68.518 74.3888L68.4823 74.3936C68.3644 74.4119 68.2432 74.3919 68.1397 74.3369C68.0362 74.282 67.9569 74.1956 67.9155 74.0927C67.8741 73.9898 67.8732 73.8769 67.913 73.7735C67.9528 73.67 68.0308 73.5826 68.1335 73.5264L68.2217 73.4772C68.2805 73.4464 68.3646 73.3982 68.4749 73.3433C68.6075 73.2726 68.7439 73.2083 68.8836 73.1506C68.9645 73.1169 69.0496 73.0802 69.1432 73.0465L69.4394 72.9502C69.5472 72.9129 69.657 72.8807 69.7683 72.8538C69.8839 72.8239 70.0026 72.7902 70.1287 72.7671C70.2548 72.744 70.384 72.7199 70.5174 72.6967C70.6509 72.6736 70.7917 72.664 70.9377 72.6495C71.0838 72.6351 71.2256 72.6341 71.3727 72.6283C71.5198 72.6225 71.6711 72.6283 71.8224 72.636C71.9737 72.6437 72.1271 72.6601 72.2794 72.6794C72.4318 72.6987 72.5862 72.7228 72.7375 72.7594C72.8888 72.796 73.0391 72.8278 73.1872 72.8731C73.3354 72.9184 73.4793 72.9694 73.6211 73.0195C73.8977 73.1272 74.1637 73.2561 74.4165 73.405C74.6514 73.5401 74.8741 73.6922 75.0826 73.8598C75.4244 74.1316 75.7261 74.4432 75.9799 74.7867C76.0692 74.9075 76.1513 75.0326 76.2258 75.1615C76.2909 75.2675 76.3308 75.3542 76.3634 75.4198C76.3792 75.4545 76.3907 75.4805 76.3991 75.4978C76.4075 75.5152 76.4086 75.5219 76.4096 75.5229C76.4455 75.5758 76.4695 75.6349 76.48 75.6965C76.4905 75.7582 76.4874 75.8211 76.4709 75.8816C76.4544 75.9421 76.4248 75.999 76.3838 76.0488C76.3429 76.0986 76.2914 76.1403 76.2325 76.1716C76.1736 76.2028 76.1085 76.2228 76.041 76.2304C75.9735 76.2381 75.905 76.2332 75.8396 76.2161C75.7741 76.1991 75.7131 76.1701 75.6602 76.1309C75.6072 76.0918 75.5634 76.0433 75.5313 75.9883L75.5187 75.995Z" fill="#BF7329"/>
<path d="M62.5516 63.6923C62.1786 67.5312 60.7581 60.5328 58.2028 60.3199C55.6476 60.1069 52.9253 66.7758 53.2993 62.9321C53.6733 59.0884 56.0458 56.1505 58.601 56.3596C61.1563 56.5687 62.9245 59.8497 62.5516 63.6885" fill="#353535"/>
<path d="M62.5516 63.6923C62.1786 67.5312 60.7581 60.5328 58.2028 60.3199C55.6476 60.1069 52.9253 66.7758 53.2993 62.9321C53.6733 59.0884 56.0458 56.1505 58.601 56.3596C61.1563 56.5687 62.9245 59.8497 62.5516 63.6885" fill="url(#paint5_linear)"/>
<path d="M62.5516 63.6923C62.1786 67.5312 60.7581 60.5328 58.2028 60.3199C55.6476 60.1069 52.9253 66.7758 53.2993 62.9321C53.6733 59.0884 56.0458 56.1505 58.601 56.3596C61.1563 56.5687 62.9245 59.8497 62.5516 63.6885" stroke="#231F20" stroke-width="1.84065" stroke-miterlimit="10"/>
<path d="M33.2103 63.6923C33.5833 67.5312 35.0038 60.5328 37.5591 60.3199C40.1143 60.1069 42.8366 66.7758 42.4636 62.9321C42.0906 59.0884 39.7161 56.1505 37.1609 56.3596C34.6056 56.5687 32.8373 59.8497 33.2103 63.6885" fill="#353535"/>
<path d="M33.2103 63.6923C33.5833 67.5312 35.0038 60.5328 37.5591 60.3199C40.1143 60.1069 42.8366 66.7758 42.4636 62.9321C42.0906 59.0884 39.7161 56.1505 37.1609 56.3596C34.6056 56.5687 32.8373 59.8497 33.2103 63.6885" fill="url(#paint6_linear)"/>
<path d="M33.2103 63.6923C33.5833 67.5312 35.0038 60.5328 37.5591 60.3199C40.1143 60.1069 42.8366 66.7758 42.4636 62.9321C42.0906 59.0884 39.7161 56.1505 37.1609 56.3596C34.6056 56.5687 32.8373 59.8497 33.2103 63.6885" stroke="#231F20" stroke-width="1.84065" stroke-miterlimit="10"/>
<defs>
<linearGradient id="paint0_linear" x1="47.7676" y1="91.8851" x2="47.7676" y2="77.5039" gradientUnits="userSpaceOnUse">
<stop stop-color="#8E5928" stop-opacity="0"/>
<stop offset="1" stop-color="#8E5928"/>
</linearGradient>
<linearGradient id="paint1_linear" x1="48.9884" y1="85.7007" x2="46.839" y2="82.6475" gradientUnits="userSpaceOnUse">
<stop stop-color="#D36A78" stop-opacity="0"/>
<stop offset="1" stop-color="#F4ABB5" stop-opacity="0.5"/>
</linearGradient>
<linearGradient id="paint2_linear" x1="73.7589" y1="21.5439" x2="73.7589" y2="6.57016" gradientUnits="userSpaceOnUse">
<stop stop-color="#E6E7E8" stop-opacity="0"/>
<stop offset="1" stop-color="white"/>
</linearGradient>
<linearGradient id="paint3_linear" x1="47.4335" y1="52.0349" x2="47.4335" y2="36.1477" gradientUnits="userSpaceOnUse">
<stop stop-color="#F6F4EB" stop-opacity="0"/>
<stop offset="1" stop-color="#F6F4EB"/>
</linearGradient>
<linearGradient id="paint4_linear" x1="47.7676" y1="80.7126" x2="47.7676" y2="70.8755" gradientUnits="userSpaceOnUse">
<stop stop-color="#F7941D"/>
<stop offset="1" stop-color="#F7CC3C" stop-opacity="0"/>
</linearGradient>
<linearGradient id="paint5_linear" x1="57.9328" y1="64.8409" x2="57.9328" y2="56.3529" gradientUnits="userSpaceOnUse">
<stop stop-color="#231F20" stop-opacity="0"/>
<stop offset="1" stop-color="#231F20"/>
</linearGradient>
<linearGradient id="paint6_linear" x1="-648.831" y1="5682.18" x2="-648.831" y2="4934.16" gradientUnits="userSpaceOnUse">
<stop stop-color="#231F20" stop-opacity="0"/>
<stop offset="1" stop-color="#231F20"/>
</linearGradient>
</defs>
</svg>
