<svg width="100" height="100" viewBox="0 0 100 100" fill="none" xmlns="http://www.w3.org/2000/svg">
<path d="M28.116 16.8226C28.116 16.8226 27.3253 17.6157 24.2265 14.3333C22.3373 12.3341 21.8645 8.93928 20.2267 9.6669C18.2263 10.5563 16.2534 19.5426 22.7827 25.3338C22.7827 25.3338 29.7538 23.1968 28.116 16.8226Z" fill="#A7A8A9"/>
<path d="M28.116 16.8226C28.116 16.8226 27.3253 17.6157 24.2265 14.3333C22.3373 12.3341 21.8645 8.93928 20.2267 9.6669C18.2263 10.5563 16.2534 19.5426 22.7827 25.3338C22.7827 25.3338 29.7538 23.1968 28.116 16.8226Z" stroke="#76777A" stroke-width="0.562089" stroke-linecap="round" stroke-linejoin="round"/>
<path d="M70.5539 16.8226C70.5539 16.8226 71.3435 17.6157 74.4423 14.3333C76.3314 12.3341 76.8054 8.93928 78.4421 9.6669C80.4425 10.5563 82.4154 19.5426 75.8873 25.3338C75.8873 25.3338 68.9161 23.1968 70.5539 16.8226Z" fill="#A7A8A9"/>
<path d="M70.5539 16.8226C70.5539 16.8226 71.3435 17.6157 74.4423 14.3333C76.3314 12.3341 76.8054 8.93928 78.4421 9.6669C80.4425 10.5563 82.4154 19.5426 75.8873 25.3338C75.8873 25.3338 68.9161 23.1968 70.5539 16.8226Z" stroke="#76777A" stroke-width="0.562089" stroke-linecap="round" stroke-linejoin="round"/>
<path d="M89.67 52.6674C89.67 74.9425 71.6108 93 49.335 93C27.0592 93 9 74.9425 9 52.6674C9 30.3922 27.058 8 49.335 8C71.612 8 89.67 30.3911 89.67 52.6674Z" fill="#C3D649"/>
<path d="M89.67 52.6674C89.67 74.9425 71.6108 93 49.335 93C27.0592 93 9 74.9425 9 52.6674C9 30.3922 27.058 8 49.335 8C71.612 8 89.67 30.3911 89.67 52.6674Z" stroke="#244A23" stroke-width="0.730716" stroke-linecap="round" stroke-linejoin="round"/>
<path d="M67.2605 20.1283C62.0362 16.8677 55.127 15.8979 49.2025 15.8979H49.1681C43.2425 15.8979 36.3333 16.8677 31.1089 20.1283C26.6053 22.9389 11.319 35.1421 12.8443 57.8247C13.4974 67.5363 24.1676 89.1664 50.2102 89.1664C74.0366 89.1664 85.1429 67.3159 85.796 57.8247C87.56 32.2833 71.5587 22.8115 67.2605 20.1283Z" fill="url(#paint0_linear)"/>
<g style="mix-blend-mode:darken" opacity="0.25">
<g style="mix-blend-mode:darken" opacity="0.25">
<path d="M51.3833 85.2355C46.4654 85.2355 42.0766 83.9455 38.3408 81.4023C34.9126 79.0679 32.1283 75.7557 30.0658 71.5564C29.9944 71.4129 29.9595 71.254 29.9643 71.0939C29.9691 70.9337 30.0134 70.7772 30.0934 70.6382C30.1693 70.509 30.2767 70.4011 30.4055 70.3244C30.5343 70.2478 30.6804 70.2049 30.8302 70.1998C30.945 70.1998 42.375 69.6685 53.6099 67.8586C64.8448 66.0487 75.8639 62.9626 75.9741 62.9316C76.137 62.8862 76.3095 62.8874 76.4718 62.9351C76.6341 62.9828 76.7797 63.075 76.8922 63.2013C76.9836 63.3075 77.0513 63.4319 77.0909 63.5663C77.1305 63.7006 77.141 63.8419 77.1218 63.9806C76.4125 69.5399 74.3868 74.1306 71.1009 77.6253C67.5534 81.4 62.5861 83.8227 56.3368 84.8304C54.699 85.0964 53.0426 85.2319 51.3833 85.2355V85.2355Z" fill="#262262"/>
</g>
</g>
<path style="mix-blend-mode:screen" d="M77.3727 38.1983C77.3727 53.6815 64.8202 66.237 49.3353 66.237C33.8505 66.237 21.2969 53.6815 21.2969 38.1983C21.2969 22.715 33.8482 10.1606 49.3353 10.1606C64.8225 10.1606 77.3727 22.7127 77.3727 38.1983Z" fill="url(#paint1_linear)"/>
<path d="M72.3468 37.6025C72.3468 51.3745 63.3419 62.5391 49.1057 62.5391C34.9315 62.5391 26.3237 51.3745 26.3237 37.6025C26.3237 23.8304 37.1397 12.667 49.1057 12.667C61.0717 12.667 72.3468 23.8315 72.3468 37.6025Z" fill="#ADCB44"/>
<g style="mix-blend-mode:multiply" opacity="0.4">
<path d="M64.6557 54.9878C73.1174 46.5263 73.1174 32.8076 64.6557 24.3462C56.194 15.8847 42.4749 15.8847 34.0132 24.3462C25.5515 32.8076 25.5515 46.5264 34.0132 54.9878C42.4749 63.4492 56.194 63.4492 64.6557 54.9878Z" fill="#ADCB44"/>
</g>
<path d="M35.8159 17.5347L36.0684 17.3236C36.2371 17.1847 36.4804 16.9793 36.804 16.7371C37.6964 16.0554 38.6386 15.4416 39.6228 14.9008C40.2809 14.5346 40.9583 14.2039 41.6519 13.9104C42.4282 13.5787 43.2244 13.2954 44.0357 13.0623C44.9023 12.8104 45.784 12.6138 46.6755 12.4735C47.5989 12.3312 48.5304 12.2472 49.4644 12.2222H49.8167H50.005H50.176C50.4055 12.2302 50.6247 12.2222 50.8726 12.2486C51.1205 12.275 51.3547 12.2773 51.5865 12.3059C51.8183 12.3346 52.0536 12.3553 52.2831 12.3932C53.1854 12.5247 54.0764 12.725 54.9481 12.9923C55.7564 13.2404 56.5484 13.539 57.3193 13.8863C58.0084 14.1927 58.6814 14.534 59.3358 14.9089C60.3146 15.4653 61.2527 16.0904 62.1431 16.7796C62.4656 17.0275 62.7101 17.2386 62.8765 17.3787L63.0659 17.5462L63.1336 17.607C63.204 17.6717 63.2469 17.761 63.2534 17.8564C63.26 17.9518 63.2296 18.046 63.1686 18.1197C63.1076 18.1933 63.0207 18.2408 62.9257 18.2521C62.8308 18.2635 62.7351 18.238 62.6584 18.1809L62.6481 18.1717L62.5873 18.1258L62.3956 17.9846C62.2269 17.8618 61.9732 17.6862 61.6473 17.4682C60.7443 16.8688 59.8082 16.3209 58.8434 15.827C58.2455 15.5206 57.581 15.2141 56.8774 14.9226C56.1358 14.6197 55.3788 14.3558 54.6095 14.1319C53.7919 13.8967 52.9589 13.718 52.1167 13.5971C51.9033 13.5615 51.6863 13.5397 51.4706 13.5179C51.2548 13.4961 51.0402 13.4812 50.8279 13.4662C50.6155 13.4513 50.3825 13.4502 50.1576 13.4433H49.9866H49.8328L49.5 13.449C48.6166 13.4616 47.7349 13.5306 46.8602 13.6556C45.2153 13.8864 43.601 14.2987 42.0468 14.8848C41.3306 15.1579 40.6626 15.4448 40.0578 15.7375C39.0816 16.2121 38.1346 16.7444 37.2218 17.3316C36.8913 17.5462 36.6307 17.7172 36.4563 17.8366L36.1866 18.0225C36.1537 18.0454 36.1166 18.0615 36.0775 18.07C36.0383 18.0784 35.9979 18.0791 35.9585 18.0718C35.9192 18.0646 35.8816 18.0496 35.848 18.0277C35.8145 18.0058 35.7856 17.9775 35.7631 17.9445C35.7192 17.8819 35.7003 17.8052 35.71 17.7294C35.7198 17.6536 35.7575 17.5841 35.8159 17.5347V17.5347Z" fill="#77A541"/>
<path d="M30.8529 69.6199C32.291 69.5556 43.0794 68.9806 53.6854 67.2729C64.2914 65.5652 74.716 62.7247 76.1013 62.3379C76.1785 62.3156 76.2602 62.3139 76.3382 62.3331C76.4163 62.3522 76.488 62.3915 76.5461 62.4471C76.6041 62.5026 76.6466 62.5724 76.6693 62.6495C76.6919 62.7266 76.6939 62.8084 76.6751 62.8865C74.2248 73.4187 68.7238 81.3365 56.2723 83.3414C43.7313 85.3602 36.114 79.5541 30.4811 70.3245C30.4378 70.2563 30.4133 70.1777 30.41 70.097C30.4068 70.0162 30.425 69.9359 30.4627 69.8644C30.5005 69.7929 30.5564 69.7326 30.6249 69.6897C30.6935 69.6467 30.7721 69.6227 30.8529 69.6199V69.6199Z" fill="#244A23"/>
<path style="mix-blend-mode:multiply" d="M30.8529 69.6199C32.291 69.5556 43.0794 68.9806 53.6854 67.2729C64.2914 65.5652 74.716 62.7247 76.1013 62.3379C76.1785 62.3156 76.2602 62.3139 76.3382 62.3331C76.4163 62.3522 76.488 62.3915 76.5461 62.4471C76.6041 62.5026 76.6466 62.5724 76.6693 62.6495C76.6919 62.7266 76.6939 62.8084 76.6751 62.8865C74.2248 73.4187 68.7238 81.3365 56.2723 83.3414C43.7313 85.3602 36.114 79.5541 30.4811 70.3245C30.4378 70.2563 30.4133 70.1777 30.41 70.097C30.4068 70.0162 30.425 69.9359 30.4627 69.8644C30.5005 69.7929 30.5564 69.7326 30.6249 69.6897C30.6935 69.6467 30.7721 69.6227 30.8529 69.6199V69.6199Z" fill="url(#paint2_linear)"/>
<path d="M71.7674 63.4756C70.218 63.8658 68.3392 64.3226 66.2446 64.7989C66.8541 66.6719 67.7871 68.3738 69.1311 68.2074C70.7907 68.002 71.4242 65.3015 71.7674 63.4756Z" fill="white"/>
<path d="M34.0146 69.5351C34.9328 71.0465 36.4398 73.1181 37.9708 72.8231C39.2034 72.5856 39.4766 70.8468 39.4066 69.0117C37.3407 69.1965 35.5331 69.3319 34.1042 69.4283L34.0146 69.5351Z" fill="white"/>
<path d="M30.8517 69.6199C32.2898 69.5556 43.0782 68.9806 53.6842 67.2729C64.2901 65.5651 74.7147 62.7246 76.1 62.3379C76.4374 62.2426 76.7175 62.5387 76.6739 62.8865C75.3345 73.3773 69.0818 81.2791 56.2711 83.338C43.5063 85.3935 34.949 79.4221 30.4798 70.3211C30.3249 70.0066 30.5016 69.6359 30.8517 69.6199Z" stroke="#244A23" stroke-width="0.449671" stroke-linecap="round" stroke-linejoin="round"/>
<path d="M60.1363 43.0377C60.1363 39.0047 55.3159 33.2285 49.3352 33.2285C43.3144 33.2285 38.5342 38.9439 38.5342 43.0377C38.5342 46.1777 43.8584 40.0319 49.3352 40.1054C55.0657 40.1811 60.1363 46.3372 60.1363 43.0377Z" fill="#478F56"/>
<path d="M60.1363 43.0377C60.1363 39.0047 55.3159 33.2285 49.3352 33.2285C43.3144 33.2285 38.5342 38.9439 38.5342 43.0377C38.5342 46.1777 43.8584 40.0319 49.3352 40.1054C55.0657 40.1811 60.1363 46.3372 60.1363 43.0377Z" fill="url(#paint3_linear)"/>
<path d="M60.1363 43.0377C60.1363 39.0047 55.3159 33.2285 49.3352 33.2285C43.3144 33.2285 38.5342 38.9439 38.5342 43.0377C38.5342 46.1777 43.8584 40.0319 49.3352 40.1054C55.0657 40.1811 60.1363 46.3372 60.1363 43.0377Z" stroke="#192C19" stroke-width="0.449671" stroke-linecap="round" stroke-linejoin="round"/>
<defs>
<linearGradient id="paint0_linear" x1="49.3345" y1="18.3999" x2="49.3345" y2="85.4893" gradientUnits="userSpaceOnUse">
<stop stop-color="#E9E611" stop-opacity="0"/>
<stop offset="1" stop-color="#9CCB3B"/>
</linearGradient>
<linearGradient id="paint1_linear" x1="49.3353" y1="41.4347" x2="49.3353" y2="2.73291" gradientUnits="userSpaceOnUse">
<stop stop-color="#53AFA8" stop-opacity="0"/>
<stop offset="1" stop-color="white" stop-opacity="0.5"/>
</linearGradient>
<linearGradient id="paint2_linear" x1="53.55" y1="84.7978" x2="53.55" y2="68.3999" gradientUnits="userSpaceOnUse">
<stop stop-color="#006838" stop-opacity="0"/>
<stop offset="1" stop-color="#006838"/>
</linearGradient>
<linearGradient id="paint3_linear" x1="49.3352" y1="46.2925" x2="49.3352" y2="35.3827" gradientUnits="userSpaceOnUse">
<stop stop-color="#009444" stop-opacity="0"/>
<stop offset="1" stop-color="#02351E"/>
</linearGradient>
</defs>
</svg>
