<svg xmlns="http://www.w3.org/2000/svg" xmlns:xlink="http://www.w3.org/1999/xlink" viewBox="0 0 1003.84 394.27"><defs><style>.cls-1{isolation:isolate;}.cls-2{fill:url(#radial-gradient);}.cls-3{fill:#c3dab5;}.cls-10,.cls-17,.cls-18,.cls-19,.cls-20,.cls-4,.cls-9{opacity:0.73;}.cls-11,.cls-17,.cls-18,.cls-19,.cls-20,.cls-30,.cls-4,.cls-9{mix-blend-mode:screen;}.cls-4{fill:url(#linear-gradient);}.cls-12,.cls-15,.cls-23,.cls-24,.cls-29,.cls-5,.cls-6,.cls-7{fill:none;}.cls-5{stroke:#4b7b55;stroke-width:9.75px;}.cls-12,.cls-22,.cls-23,.cls-24,.cls-29,.cls-5,.cls-6,.cls-7{stroke-linecap:round;stroke-linejoin:round;}.cls-6{stroke:#498855;opacity:0.24;}.cls-6,.cls-7{stroke-width:10.42px;}.cls-10,.cls-21,.cls-25,.cls-6,.cls-7{mix-blend-mode:multiply;}.cls-22,.cls-7{stroke:#262262;}.cls-21,.cls-7{opacity:0.25;}.cls-8{fill:url(#radial-gradient-2);}.cls-9{fill:url(#linear-gradient-2);}.cls-10{fill:url(#linear-gradient-3);}.cls-11,.cls-30{opacity:0.6;}.cls-11{fill:url(#linear-gradient-4);}.cls-12{stroke:#5a8863;}.cls-12,.cls-22,.cls-23,.cls-24,.cls-29{stroke-width:7px;}.cls-13{fill:#353535;}.cls-14{fill:url(#linear-gradient-5);}.cls-15{stroke:#000;stroke-miterlimit:10;stroke-width:6.6px;}.cls-16{fill:url(#linear-gradient-6);}.cls-17{fill:url(#linear-gradient-7);}.cls-18{fill:url(#linear-gradient-8);}.cls-19{fill:url(#linear-gradient-9);}.cls-20{fill:url(#linear-gradient-10);}.cls-22,.cls-26{fill:#262262;}.cls-23{stroke:#689e73;}.cls-24{stroke:#41784b;}.cls-25{opacity:0.3;}.cls-27{fill:url(#linear-gradient-11);}.cls-28{fill:url(#linear-gradient-12);}.cls-29{stroke:#578561;}.cls-30{fill:url(#linear-gradient-13);}</style><radialGradient id="radial-gradient" cx="706.26" cy="351.7" r="151.14" gradientTransform="translate(0 -182.59) scale(1 1.04)" gradientUnits="userSpaceOnUse"><stop offset="0" stop-color="#f89b4c"/><stop offset="0.26" stop-color="#e9ad6a"/><stop offset="0.76" stop-color="#cecda0"/><stop offset="1" stop-color="#c3dab5"/></radialGradient><linearGradient id="linear-gradient" x1="825.54" y1="130.81" x2="808.84" y2="88.89" gradientTransform="translate(48.08 -157.41) rotate(11.32)" gradientUnits="userSpaceOnUse"><stop offset="0" stop-color="#8dca81" stop-opacity="0"/><stop offset="0.86" stop-color="#97ca8d"/></linearGradient><radialGradient id="radial-gradient-2" cx="6174.75" cy="351.7" r="151.14" gradientTransform="matrix(-1, 0, 0, 1.04, 6472.33, -182.59)" xlink:href="#radial-gradient"/><linearGradient id="linear-gradient-2" x1="6187.74" y1="-942.17" x2="6171.04" y2="-984.09" gradientTransform="matrix(-0.98, 0.2, 0.2, 0.98, 6424.24, -157.41)" xlink:href="#linear-gradient"/><linearGradient id="linear-gradient-3" x1="501.92" y1="376.17" x2="501.92" y2="18.09" gradientUnits="userSpaceOnUse"><stop offset="0" stop-color="#abd69c"/><stop offset="1" stop-color="#8dca81" stop-opacity="0"/></linearGradient><linearGradient id="linear-gradient-4" x1="501.92" y1="376.17" x2="501.92" y2="18.09" gradientUnits="userSpaceOnUse"><stop offset="0" stop-color="#8dca81" stop-opacity="0"/><stop offset="1" stop-color="#fff"/></linearGradient><linearGradient id="linear-gradient-5" x1="7871.71" y1="290.95" x2="7871.71" y2="215.89" gradientTransform="matrix(-1, 0, 0, 1, 8498.57, 0)" gradientUnits="userSpaceOnUse"><stop offset="0" stop-color="#231f20" stop-opacity="0"/><stop offset="0.05" stop-color="#231f20" stop-opacity="0.11"/><stop offset="0.33" stop-color="#231f20" stop-opacity="0.61"/><stop offset="0.64" stop-color="#231f20" stop-opacity="0.9"/><stop offset="1" stop-color="#231f20"/></linearGradient><linearGradient id="linear-gradient-6" x1="8121.6" y1="290.95" x2="8121.6" y2="215.89" xlink:href="#linear-gradient-5"/><linearGradient id="linear-gradient-7" x1="472.42" y1="103.25" x2="472.42" y2="59.72" gradientUnits="userSpaceOnUse"><stop offset="0" stop-color="#8dca81" stop-opacity="0"/><stop offset="1" stop-color="#97ca8d"/></linearGradient><linearGradient id="linear-gradient-8" x1="522.72" y1="103.25" x2="522.72" y2="59.72" gradientTransform="matrix(-1, 0, 0, 1, 1054.13, 0)" xlink:href="#linear-gradient-7"/><linearGradient id="linear-gradient-9" x1="469.35" y1="43.99" x2="469.35" y2="23.47" xlink:href="#linear-gradient-7"/><linearGradient id="linear-gradient-10" x1="523.43" y1="43.99" x2="523.43" y2="23.47" gradientTransform="matrix(-1, 0, 0, 1, 1057.92, 0)" xlink:href="#linear-gradient-7"/><linearGradient id="linear-gradient-11" x1="668.82" y1="381.56" x2="668.82" y2="284.17" gradientTransform="matrix(-1.09, -0.08, -0.07, 1, 1391.57, -100.09)" gradientUnits="userSpaceOnUse"><stop offset="0.17" stop-color="#a9d0a1"/><stop offset="1" stop-color="#ddecc7"/></linearGradient><linearGradient id="linear-gradient-12" x1="-4096.7" y1="-0.66" x2="-4096.7" y2="-98.05" gradientTransform="matrix(1.09, -0.08, 0.07, 1, 4812.27, -100.09)" xlink:href="#linear-gradient-11"/><linearGradient id="linear-gradient-13" x1="502.15" y1="259.12" x2="502.15" y2="292.15" gradientUnits="userSpaceOnUse"><stop offset="0" stop-color="#fff"/><stop offset="1" stop-color="#8dca81" stop-opacity="0"/></linearGradient></defs><g class="cls-1"><g id="Layer_2" data-name="Layer 2"><g id="Child_Face_Features_v1" data-name="Child Face Features v1"><path class="cls-2" d="M634.71,87.57S750.44,79,856.78,84.16c71.42,3.48,122,16,138.57,25.3a7.29,7.29,0,0,1-.67,12.94c-16.44,7-37.2,13.29-50.66,24.55C889,193,889,246.62,807.84,291.47c-67,37-151.16,23.56-173.13,18.91Z"/><path class="cls-3" d="M691.13,152.17s48.68-17.93,76.41-27.95c40.86-14.76,161.85-9.9,217.88.57,8.28,1.55,13.25-9.29,6.87-15C977.48,96.55,943,89.46,862.14,84.45c-145.82-9-207.09,1.7-207.09,1.7Z"/><path class="cls-4" d="M691.13,152.17s48.68-17.93,76.41-27.95c40.54-14.65,154.37-6.26,209.6,4.81,6.15,1.23,9.15-7.53,3.65-10.67C964.85,109.27,932.3,99,865.87,95.61c-129.77-6.53-193.67,4-193.67,4Z"/><path class="cls-5" d="M634.71,87.57s110.51-12.63,222.07-3.41c71.26,5.89,122,16,138.57,25.3a7.29,7.29,0,0,1-.67,12.94c-16.44,7-37.2,13.29-50.66,24.55C889,193,889,246.62,807.84,291.47c-67,37-151.16,23.56-173.13,18.91Z"/><path class="cls-6" d="M782.67,122.83s42.45,76.73-9.2,124.88c-39.72,37-80.1,24.85-80.1,24.85"/><path class="cls-7" d="M679.39,169.78s53.69-28.38,87.68-38.3c77-22.49,220.43-7.26,220.43-7.26"/><path class="cls-5" d="M672.2,162.75s45.47-29.22,104.08-40.35c69.1-13.12,214.22,1.82,214.22,1.82"/><path class="cls-8" d="M369.13,87.57S253.4,79,147.06,84.16c-71.43,3.48-122,16-138.58,25.3a7.3,7.3,0,0,0,.67,12.94c16.45,7,37.21,13.29,50.67,24.55,55.06,46.09,55,99.67,136.18,144.52,67,37,151.15,23.56,173.13,18.91Z"/><path class="cls-3" d="M312.7,152.17S264,134.24,236.29,124.22c-40.86-14.76-161.84-9.9-217.87.57-8.28,1.55-13.26-9.29-6.87-15,14.8-13.24,49.3-20.33,130.15-25.34,145.82-9,207.08,1.7,207.08,1.7Z"/><path class="cls-9" d="M312.7,152.17S264,134.24,236.29,124.22C195.76,109.57,81.93,118,26.7,129c-6.16,1.23-9.16-7.53-3.66-10.67C39,109.27,71.53,99,138,95.61c129.77-6.53,193.67,4,193.67,4Z"/><path class="cls-5" d="M369.13,87.57S258.62,74.94,147.06,84.16c-71.27,5.89-122,16-138.58,25.3a7.3,7.3,0,0,0,.67,12.94c16.45,7,37.21,13.29,50.67,24.55,55.06,46.09,55,99.67,136.18,144.52,67,37,151.15,23.56,173.13,18.91Z"/><path class="cls-6" d="M221.16,122.83s-42.45,76.73,9.2,124.88c39.72,37,80.1,24.85,80.1,24.85"/><path class="cls-7" d="M324.44,169.78s-53.68-28.38-87.67-38.3c-77-22.49-220.43-7.26-220.43-7.26"/><path class="cls-5" d="M331.63,162.75s-45.47-29.22-104.07-40.35c-69.11-13.12-214.22,1.82-214.22,1.82"/><path class="cls-3" d="M693.38,66.42c-45.84-42.95-95-61.55-191.46-61.55S356.3,23.47,310.46,66.42c-43.21,40.49-61,97.54-61,150.85,0,105.9,113,172.12,252.45,172.12s252.45-66.22,252.45-172.12C754.37,164,736.59,106.91,693.38,66.42Z"/><path class="cls-10" d="M682.06,75.41c-43.13-40-89.36-57.32-180.14-57.32s-137,17.32-180.14,57.32c-40.66,37.71-57.39,90.83-57.39,140.48,0,98.62,106.34,160.28,237.53,160.28s237.52-61.66,237.52-160.28C739.44,166.24,722.71,113.12,682.06,75.41Z"/><path class="cls-11" d="M682.06,75.41c-43.13-40-89.36-57.32-180.14-57.32s-137,17.32-180.14,57.32c-40.66,37.71-57.39,90.83-57.39,140.48,0,98.62,106.34,160.28,237.53,160.28s237.52-61.66,237.52-160.28C739.44,166.24,722.71,113.12,682.06,75.41Z"/><line class="cls-12" x1="501.92" y1="7.29" x2="501.92" y2="103.25"/><path class="cls-12" d="M437.22,11S424.89,32.46,448.8,79"/><path class="cls-12" d="M566.62,11S578.94,32.46,555,79"/><path class="cls-12" d="M391.62,66.42S426.47,51,492.41,51s101,15.41,101,15.41"/><path class="cls-5" d="M693.38,66.42c-45.84-42.95-95-61.55-191.46-61.55S356.3,23.47,310.46,66.42c-43.21,40.49-61,97.54-61,150.85,0,105.9,113,172.12,252.45,172.12s252.45-66.22,252.45-172.12C754.37,164,736.59,106.91,693.38,66.42Z"/><path class="cls-13" d="M573.33,253.3a53.53,53.53,0,1,0,53.54-53.53A53.54,53.54,0,0,0,573.33,253.3Z"/><path class="cls-14" d="M573.33,253.3a53.53,53.53,0,1,0,53.54-53.53A53.54,53.54,0,0,0,573.33,253.3Z"/><path class="cls-15" d="M573.33,253.3a53.53,53.53,0,1,0,53.54-53.53A53.54,53.54,0,0,0,573.33,253.3Z"/><path class="cls-13" d="M323.44,253.3A53.53,53.53,0,1,0,377,199.77,53.54,53.54,0,0,0,323.44,253.3Z"/><path class="cls-16" d="M323.44,253.3A53.53,53.53,0,1,0,377,199.77,53.54,53.54,0,0,0,323.44,253.3Z"/><path class="cls-15" d="M323.44,253.3A53.53,53.53,0,1,0,377,199.77,53.54,53.54,0,0,0,323.44,253.3Z"/><path class="cls-17" d="M462.48,90.23s-6.74-11-10-21.86a3.53,3.53,0,0,1,2.78-4.51c7-1.21,22.25-3.66,33.56-4.14a3.53,3.53,0,0,1,3.68,3.54v40Z"/><path class="cls-18" d="M541.35,90.23s6.74-11,10-21.86a3.53,3.53,0,0,0-2.78-4.51c-7-1.21-22.25-3.66-33.56-4.14a3.54,3.54,0,0,0-3.69,3.54v40Z"/><path class="cls-19" d="M447.38,44s-1.47-1.49-1.16-10.16A7.75,7.75,0,0,1,453,26.58a311.68,311.68,0,0,1,31.45-3.11,7.88,7.88,0,0,1,8.1,7.88V38S460.37,40.16,447.38,44Z"/><path class="cls-20" d="M556.46,44s1.46-3,1.16-10.16a7.78,7.78,0,0,0-6.74-7.25,312,312,0,0,0-31.45-3.11,7.88,7.88,0,0,0-8.11,7.88V38S543.47,40.16,556.46,44Z"/><g class="cls-21"><path class="cls-22" d="M501.92,344.69c-18.37,0-34.13-7.05-40.91-17.11,6.78,12.79,22.54,21.75,40.91,21.75s34.12-9,40.9-21.75C536,337.64,520.28,344.69,501.92,344.69Z"/></g><path class="cls-23" d="M543,324.72s9.88,14.56,35.76,16"/><path class="cls-23" d="M462,324.72s-9.88,14.56-35.77,16"/><path class="cls-24" d="M501.92,341.53c-18.37,0-34.13-7-40.91-17.1,6.78,12.78,22.54,21.74,40.91,21.74s34.12-9,40.9-21.74C536,334.49,520.28,341.53,501.92,341.53Z"/><g class="cls-25"><path class="cls-26" d="M701.17,225.37c-8.76-18.32-19.71-35.31-36.39-44.3-36.8-19.84-68.46-11.5-92.71,5.2-7.38,5.07-21.74-7.33-17.37-14.8,6.59-11.28,15.17-17,35-28.37,34.46-19.77,110.65-12,129.16,52.81C726.83,223.71,717.69,259.94,701.17,225.37Z"/></g><path class="cls-27" d="M703.76,218.72c-8.76-18.32-19.71-35.31-36.39-44.3-36.8-19.83-71.81-11.5-96.07,5.2-7.37,5.08-19.49-10.68-15.13-18.14,6.59-11.28,15.72-18.39,37.27-26.14,45.43-16.33,106.76-1.81,128,53.93C731.79,216.27,720.28,253.3,703.76,218.72Z"/><g class="cls-25"><path class="cls-26" d="M302.67,225.37c8.75-18.32,19.7-35.31,36.39-44.3,36.79-19.84,68.45-11.5,92.71,5.2,7.37,5.07,21.73-7.33,17.37-14.8-6.59-11.28-15.17-17-35-28.37-34.46-19.77-110.65-12-129.15,52.81C277,223.71,286.14,259.94,302.67,225.37Z"/></g><path class="cls-28" d="M300.08,218.72c8.75-18.32,19.7-35.31,36.39-44.3,36.79-19.83,71.81-11.5,96.06,5.2,7.37,5.08,18.38-10.68,14-18.14C440,150.2,432,143.09,410.4,135.34c-45.43-16.33-106.76-1.81-128,53.93C272,216.27,283.55,253.3,300.08,218.72Z"/><polyline class="cls-29" points="524.16 282.67 502.52 294.61 480.89 282.67"/><path class="cls-30" d="M480.89,271.49s15.51-16.05,21.63-16.05,20.89,16.06,20.89,16.06l-21.49,11.17Z"/></g></g></g></svg>