<svg width="100" height="100" viewBox="0 0 100 100" fill="none" xmlns="http://www.w3.org/2000/svg">
<path d="M67.1838 31.6792C73.1577 38.2153 84.1279 39.9498 91.9663 36.3126C100.301 32.4418 99.2719 18.2579 93.297 10.5602C87.3221 2.86254 74.685 -0.94474 67.4067 4.70067C60.1285 10.3461 60.6057 24.4772 67.1838 31.6792Z" fill="#231F20"/>
<path d="M33.8147 32.3035C27.8398 38.8386 16.8716 40.5761 9.03313 36.936C0.697988 33.0691 1.72656 18.8861 7.70244 11.1836C13.6783 3.48101 26.3145 -0.317468 33.5917 5.32892C40.869 10.9753 40.3928 25.1045 33.8147 32.3035Z" fill="#231F20"/>
<path d="M18.2162 60.3816C18.2162 78.3591 32.7844 92.94 50.7678 92.94C68.7512 92.94 83.3203 78.364 83.3203 60.3816C83.3203 42.3992 68.7443 27.8301 50.7678 27.8301C32.7913 27.8301 18.2162 42.4031 18.2162 60.3816Z" fill="#231F20"/>
<path d="M7.6985 11.1847C13.6783 3.48215 26.3145 -0.316332 33.5917 5.33006C40.869 10.9764 40.3928 25.1056 33.8146 32.3046C33.58 32.5608 33.3365 32.8062 33.0872 33.0477C38.4827 29.559 44.7898 27.7447 51.2143 27.8333C57.6389 27.9219 63.8936 29.9093 69.1908 33.5454C68.4749 32.9763 67.8041 32.3526 67.1845 31.6799C60.6064 24.4818 60.1302 10.3507 67.4075 4.70529C74.6847 -0.940124 87.3209 2.85347 93.2977 10.5609C99.2746 18.2684 100.302 32.4425 91.9671 36.3094C85.4456 39.3355 76.7594 38.6403 70.5831 34.5583C78.3267 40.5078 83.32 49.8656 83.32 60.3821C83.32 78.3596 68.744 92.9405 50.7675 92.9405C32.791 92.9405 18.2159 78.3645 18.2159 60.3821C18.211 55.7194 19.2101 51.1103 21.1454 46.8682C23.0807 42.6261 25.9068 38.8505 29.4315 35.7981C23.3422 39.3306 15.2143 39.8068 9.0331 36.9371C0.69796 33.0702 1.72653 18.8873 7.6985 11.1847Z" stroke="#231F20" stroke-width="1.25638" stroke-linecap="round" stroke-linejoin="round"/>
<path opacity="0.5" d="M20.6865 60.0657C20.6865 76.6783 34.1537 90.1475 50.7673 90.1475C67.3809 90.1475 80.8481 76.6783 80.8481 60.0657C80.8481 43.4531 67.3799 29.9849 50.7673 29.9849C34.1547 29.9849 20.6865 43.4521 20.6865 60.0657Z" fill="url(#paint0_linear)"/>
<path d="M67.5732 31.2344C72.9625 37.132 82.859 38.6964 89.9251 35.4151C97.4438 31.9266 96.516 19.132 91.1248 12.1823C85.7336 5.23261 74.3401 1.80763 67.7746 6.90062C61.2092 11.9936 61.6384 24.7373 67.5732 31.2344Z" fill="url(#paint1_radial)"/>
<path d="M33.6658 31.34C28.2775 37.2367 18.3819 38.8021 11.31 35.5208C3.7922 32.0313 4.72006 19.2367 10.1103 12.288C15.5005 5.33928 26.8999 1.91234 33.4663 7.00631C40.0327 12.1003 39.6006 24.846 33.6658 31.34Z" fill="url(#paint2_radial)"/>
<path d="M21.5029 65.2152C23.3137 62.9166 29.5643 66.9106 29.5868 66.9575C28.2903 64.2893 27.1953 59.3312 27.0349 55.0712C26.5969 43.5008 31.6156 36.0055 39.3875 35.4981H39.4139C39.5635 35.4883 39.7161 35.4854 39.8676 35.4815C39.9654 35.4815 40.0632 35.4707 40.1609 35.4707H40.2499C40.3017 35.4707 40.3526 35.4707 40.4044 35.4775C43.3962 35.5479 47.9329 38.1497 50.4203 42.1642C50.4203 42.1642 50.4203 42.1818 50.4203 42.1779C52.9702 38.0548 57.0062 35.4707 60.6747 35.4707C68.9355 35.4707 74.3414 43.0823 73.8887 55.0742C73.7274 59.3342 72.4573 64.8906 71.3358 66.9604C71.3603 66.9135 77.6715 62.8716 79.4207 65.2181C80.7181 66.9614 79.8968 70.2329 78.1232 74.4675C75.455 80.8305 67.0524 88.9603 56.0793 91.0781C54.2473 91.4537 52.3813 91.6385 50.5112 91.6295H50.4134C45.9246 91.6295 42.1575 90.7691 39.0121 89.3514C30.897 86.0819 25.364 80.0131 22.8013 74.4616C19.6052 67.5422 21.5029 65.2152 21.5029 65.2152Z" fill="#FFDECD"/>
<path opacity="0.7" d="M25.1259 69.7294C26.6512 67.5598 31.8821 70.1615 31.9026 70.2036C30.7293 67.7866 29.294 62.4101 29.1483 58.551C28.7572 48.0687 33.2978 41.2833 40.3384 40.8189H40.3619C40.4978 40.8101 40.6357 40.8071 40.7726 40.8032C40.8615 40.8032 40.9466 40.7935 41.0365 40.7935H41.1167C41.1636 40.7935 41.2145 40.7935 41.2565 40.7993C43.9668 40.8639 48.0772 43.2202 50.3299 46.8612C50.3299 46.8612 50.3299 46.8769 50.3299 46.874C52.6393 43.139 56.294 40.7974 59.6183 40.7974C67.1009 40.7974 71.9983 47.6923 71.5877 58.5559C71.442 62.415 69.8483 68.3332 68.8324 70.2085C68.8549 70.1674 74.0848 67.5686 75.61 69.7342C76.5956 71.1353 76.0696 74.1722 75.4243 76.1247C73.1657 82.1201 65.3947 89.2576 55.4541 91.1759C53.7945 91.5161 52.1041 91.6835 50.41 91.6755H50.3269C46.2596 91.6755 42.8473 90.8933 39.9982 89.6125C32.6515 86.649 27.1538 81.0085 25.3137 76.1198C24.6654 74.1673 24.1404 71.1304 25.1259 69.7294Z" fill="url(#paint3_linear)"/>
<g style="mix-blend-mode:screen" opacity="0.7">
<path d="M60.5845 37.2257C56.9161 37.2257 52.879 39.8108 50.3301 43.9339V43.9202C47.8428 39.9047 43.3051 37.3039 40.3133 37.2325C40.2624 37.2325 40.2155 37.2257 40.1598 37.2257H40.1158H40.0708C39.973 37.2257 39.8752 37.2345 39.7775 37.2374C39.6259 37.2374 39.4734 37.2443 39.3238 37.254H39.2974C32.0436 37.7351 27.1951 44.2839 26.9301 54.5579C26.673 43.3003 31.6525 36.0397 39.2964 35.5362H39.3228C39.4724 35.5264 39.6249 35.5235 39.7765 35.5195C39.8743 35.5195 39.9671 35.5088 40.0698 35.5088H40.1588C40.2096 35.5088 40.2566 35.5088 40.3123 35.5156C43.3041 35.586 47.8408 38.1878 50.3291 42.2023C50.3291 42.2023 50.3291 42.2199 50.3291 42.216C52.8781 38.0929 56.9151 35.5088 60.5835 35.5088C68.7104 35.5088 74.0703 42.8789 73.8103 54.5374C73.5297 43.8762 68.3037 37.2257 60.5845 37.2257Z" fill="#FCE2C3"/>
</g>
<g style="mix-blend-mode:multiply" opacity="0.25">
<g style="mix-blend-mode:multiply" opacity="0.25">
<path d="M29.3559 73.308C29.378 73.2128 29.4316 73.1278 29.5082 73.0669C29.5847 73.006 29.6795 72.9728 29.7773 72.9727C29.8439 72.9728 29.9096 72.988 29.9694 73.0173C30.0292 73.0467 30.0816 73.0892 30.1224 73.1418L30.4519 73.574C30.6563 73.8409 30.9565 74.1987 31.4072 74.7267C31.9163 75.3057 32.4551 75.8579 33.0214 76.381C33.7595 77.0529 34.5397 77.6769 35.3572 78.2495C36.323 78.9222 37.34 79.5181 38.3989 80.0319C39.5802 80.6029 40.8053 81.0783 42.0625 81.4535C44.717 82.2216 47.4661 82.6139 50.2295 82.6189H50.6323C53.4398 82.6255 56.2341 82.2331 58.9313 81.4535C60.1888 81.0783 61.4142 80.6029 62.5958 80.0319C63.6538 79.5183 64.6699 78.9223 65.6346 78.2495C66.4523 77.6772 67.2325 77.0531 67.9704 76.381C68.538 75.858 69.0781 75.3058 69.5885 74.7267C70.0392 74.1987 70.3404 73.8409 70.5437 73.574L70.8732 73.1418C70.9143 73.0894 70.9666 73.0469 71.0264 73.0176C71.0862 72.9884 71.1518 72.973 71.2184 72.9727C71.2957 72.9725 71.3716 72.9931 71.4383 73.0322C71.505 73.0713 71.56 73.1275 71.5976 73.1951C71.6352 73.2626 71.6541 73.339 71.6522 73.4163C71.6503 73.4936 71.6278 73.5689 71.587 73.6346L71.3005 74.097C71.1363 74.3542 70.8302 74.8343 70.4098 75.3925C68.5204 77.9073 66.1019 79.9767 63.3252 81.4545C62.0863 82.1195 60.7905 82.6728 59.4534 83.1078C58.0261 83.5716 56.5626 83.9154 55.078 84.1354C53.5509 84.36 52.0096 84.4743 50.4661 84.4776H50.2295C48.7875 84.4619 47.3483 84.3489 45.9216 84.1393C44.4367 83.9178 42.9728 83.5728 41.5453 83.1078C40.2072 82.6726 38.9105 82.1194 37.6705 81.4545C34.8938 79.9767 32.4753 77.9073 30.5859 75.3925C30.1655 74.8343 29.8604 74.3542 29.6962 74.097L29.4097 73.6346C29.3796 73.5864 29.3594 73.5327 29.3501 73.4767C29.3409 73.4206 29.3429 73.3633 29.3559 73.308V73.308Z" fill="#262262"/>
</g>
</g>
<path d="M38.4149 60.6492C38.7581 64.5015 40.9433 67.4552 43.2947 67.246C45.6462 67.0367 47.2751 63.7418 46.9319 59.8895C46.5887 56.0373 44.4035 53.0826 42.0511 53.2928C39.6986 53.503 38.0707 56.795 38.4149 60.6492" fill="#353535"/>
<path d="M38.4149 60.6492C38.7581 64.5015 40.9433 67.4552 43.2947 67.246C45.6462 67.0367 47.2751 63.7418 46.9319 59.8895C46.5887 56.0373 44.4035 53.0826 42.0511 53.2928C39.6986 53.503 38.0707 56.795 38.4149 60.6492" fill="url(#paint4_linear)"/>
<path d="M62.549 60.6492C62.2059 64.5015 60.0206 67.4552 57.6692 67.246C55.3177 67.0367 53.6888 63.7418 54.032 59.8895C54.3752 56.0373 56.5604 53.0826 58.9129 53.2928C61.2653 53.503 62.8922 56.795 62.549 60.6492Z" fill="#353535"/>
<path d="M62.549 60.6492C62.2059 64.5015 60.0206 67.4552 57.6692 67.246C55.3177 67.0367 53.6888 63.7418 54.032 59.8895C54.3752 56.0373 56.5604 53.0826 58.9129 53.2928C61.2653 53.503 62.8922 56.795 62.549 60.6492Z" fill="url(#paint5_linear)"/>
<path d="M38.45 60.6492C38.7932 64.5015 40.9784 67.4552 43.3308 67.246C45.6832 67.0367 47.3102 63.7418 46.967 59.8895C46.6238 56.0373 44.4386 53.0826 42.0862 53.2928C39.7338 53.503 38.1068 56.795 38.45 60.6492Z" stroke="#231F20" stroke-width="0.586638" stroke-miterlimit="10"/>
<path d="M62.5852 60.6492C62.241 64.5015 60.0568 67.4552 57.7043 67.246C55.3519 67.0367 53.724 63.7418 54.0682 59.8895C54.4123 56.0373 56.5966 53.0826 58.949 53.2928C61.3014 53.503 62.9283 56.795 62.5852 60.6492Z" stroke="#231F20" stroke-width="0.586638" stroke-miterlimit="10"/>
<g style="mix-blend-mode:multiply" opacity="0.25">
<path d="M43.7549 71.6475C43.7549 73.9334 46.7751 75.8175 50.5012 75.8175C54.2274 75.8175 57.2476 73.7828 57.2476 71.6475C57.2476 70.0538 54.2283 68.7622 50.5012 68.7622C46.7741 68.7622 43.7549 70.0538 43.7549 71.6475Z" fill="#262262"/>
</g>
<path d="M43.7549 71.0611C43.7549 73.347 46.7751 75.2311 50.5012 75.2311C54.2274 75.2311 57.2476 73.1964 57.2476 71.0611C57.2476 69.4674 54.2283 68.1758 50.5012 68.1758C46.7741 68.1758 43.7549 69.4674 43.7549 71.0611Z" fill="#231F20"/>
<path d="M45.4391 70.8064C45.4391 72.273 47.7074 73.4766 50.5057 73.4766C53.3039 73.4766 55.5713 72.1733 55.5713 70.8064C55.5713 69.7857 53.303 68.9585 50.5057 68.9585C47.7084 68.9585 45.4391 69.7857 45.4391 70.8064Z" fill="url(#paint6_linear)"/>
<path d="M29.3564 72.5385C29.3789 72.4435 29.4326 72.3588 29.5091 72.2982C29.5855 72.2375 29.6802 72.2043 29.7778 72.2041C29.8444 72.2042 29.9101 72.2195 29.9699 72.2488C30.0298 72.2781 30.0821 72.3207 30.123 72.3733L30.4525 72.8054C30.6568 73.0723 30.957 73.4302 31.4077 73.9572C31.9168 74.5365 32.4556 75.089 33.0219 75.6125C33.76 76.2843 34.5402 76.9084 35.3577 77.4809C36.3235 78.1536 37.3405 78.7496 38.3994 79.2633C39.5807 79.8343 40.8058 80.3097 42.063 80.6849C44.7176 81.4525 47.4666 81.8448 50.23 81.8504H50.6328C53.4404 81.8569 56.2346 81.4645 58.9318 80.6849C60.1893 80.3097 61.4147 79.8343 62.5963 79.2633C63.6544 78.7497 64.6704 78.1537 65.6351 77.4809C66.4528 76.9086 67.233 76.2845 67.9709 75.6125C68.5386 75.0891 69.0787 74.5366 69.589 73.9572C70.0398 73.4302 70.3409 73.0772 70.5443 72.8054L70.8738 72.3733C70.9148 72.3208 70.9672 72.2784 71.0269 72.2491C71.0867 72.2198 71.1523 72.2044 71.2189 72.2041C71.3168 72.2039 71.412 72.2368 71.4888 72.2975C71.5657 72.3583 71.6198 72.4432 71.6423 72.5385C71.6553 72.5938 71.6573 72.6511 71.6481 72.7072C71.6389 72.7632 71.6186 72.8169 71.5885 72.865L71.302 73.3275C71.1377 73.5856 70.8317 74.0657 70.4113 74.623C68.5227 77.1385 66.104 79.208 63.3267 80.6849C62.087 81.3509 60.7903 81.9045 59.4519 82.3392C58.0246 82.8031 56.5611 83.1468 55.0766 83.3668C53.5495 83.5914 52.0082 83.7058 50.4646 83.709H50.23C48.788 83.6933 47.3488 83.5803 45.9221 83.3708C44.4376 83.1505 42.9741 82.8068 41.5468 82.3432C40.2085 81.9081 38.9118 81.3545 37.672 80.6888C34.8947 79.212 32.476 77.1425 30.5874 74.6269C30.167 74.0696 29.8619 73.5895 29.6977 73.3314C29.5099 73.0303 29.4112 72.869 29.4112 72.869C29.3804 72.8204 29.3596 72.7661 29.3502 72.7093C29.3408 72.6525 29.3429 72.5944 29.3564 72.5385V72.5385Z" fill="#231F20"/>
<defs>
<linearGradient id="paint0_linear" x1="50.7673" y1="63.4936" x2="50.7673" y2="27.4173" gradientUnits="userSpaceOnUse">
<stop stop-color="#231F20" stop-opacity="0"/>
<stop offset="1" stop-color="white" stop-opacity="0.5"/>
</linearGradient>
<radialGradient id="paint1_radial" cx="0" cy="0" r="1" gradientUnits="userSpaceOnUse" gradientTransform="translate(66.7822 33.3326) rotate(180) scale(36.6805)">
<stop stop-color="#231F20" stop-opacity="0"/>
<stop offset="1" stop-color="white" stop-opacity="0.25"/>
</radialGradient>
<radialGradient id="paint2_radial" cx="0" cy="0" r="1" gradientUnits="userSpaceOnUse" gradientTransform="translate(-19537.4 11943.7) rotate(180) scale(14759.3 14875.4)">
<stop stop-color="#231F20" stop-opacity="0"/>
<stop offset="1" stop-color="white" stop-opacity="0.25"/>
</radialGradient>
<linearGradient id="paint3_linear" x1="50.3699" y1="47.2504" x2="50.3699" y2="88.845" gradientUnits="userSpaceOnUse">
<stop stop-color="#FFDECD" stop-opacity="0"/>
<stop offset="1" stop-color="#F4B99A"/>
</linearGradient>
<linearGradient id="paint4_linear" x1="42.6729" y1="67.946" x2="42.6729" y2="56.0422" gradientUnits="userSpaceOnUse">
<stop stop-color="#231F20" stop-opacity="0"/>
<stop offset="1" stop-color="#231F20"/>
</linearGradient>
<linearGradient id="paint5_linear" x1="-3488.78" y1="9568.73" x2="-3488.78" y2="7867.37" gradientUnits="userSpaceOnUse">
<stop stop-color="#231F20" stop-opacity="0"/>
<stop offset="1" stop-color="#231F20"/>
</linearGradient>
<linearGradient id="paint6_linear" x1="-4931.5" y1="3374.03" x2="-4931.5" y2="3212.24" gradientUnits="userSpaceOnUse">
<stop stop-color="#231F20" stop-opacity="0"/>
<stop offset="1" stop-color="white" stop-opacity="0.5"/>
</linearGradient>
</defs>
</svg>
