<svg width="100" height="100" viewBox="0 0 100 100" fill="none" xmlns="http://www.w3.org/2000/svg">
<path d="M64.7036 29.3484C64.0752 24.0074 52.2044 30.3381 51.7876 38.6053L54.5859 39.0357C56.7391 33.0086 65.135 33.0086 64.7036 29.3484Z" fill="url(#paint0_linear)"/>
<path d="M63.8579 29.4576L63.8464 29.3875L63.8401 29.3487C63.8401 29.3351 63.8401 29.3319 63.8401 29.3225C63.8338 29.2932 63.8275 29.2628 63.817 29.2251C63.8017 29.1567 63.7825 29.0892 63.7594 29.023C63.7223 28.9063 63.668 28.7958 63.5982 28.6952C63.4593 28.5027 63.2591 28.3632 63.0305 28.2993C62.7297 28.213 62.4154 28.1836 62.1037 28.2124C61.7443 28.2418 61.3888 28.3078 61.0428 28.4093C60.3046 28.6288 59.5952 28.9353 58.9294 29.3225C56.8627 30.5144 55.1245 32.2011 53.8711 34.2311C53.4642 34.9023 53.1306 35.6154 52.8762 36.3581C52.6259 37.0947 52.4724 37.8607 52.4196 38.6369V38.6369L51.8876 37.9845L54.6545 38.6233L54.1979 38.8956C54.2981 38.59 54.4156 38.2904 54.5497 37.9981C54.6853 37.7055 54.8381 37.4211 55.0074 37.1467C55.3481 36.5985 55.7474 36.089 56.1981 35.6271C57.0957 34.7044 58.1492 33.9745 59.2153 33.3346C59.7494 33.0141 60.2888 32.7146 60.8187 32.4193C61.3486 32.124 61.866 31.8307 62.3519 31.5186C62.5858 31.3695 62.8113 31.2076 63.0274 31.0338C63.2211 30.8795 63.3968 30.7038 63.551 30.5101C63.6797 30.3567 63.7756 30.1784 63.8327 29.9865C63.8789 29.814 63.8875 29.6337 63.8579 29.4576V29.4576ZM65.5503 29.2482C65.5924 29.673 65.5413 30.1019 65.4005 30.5049C65.2598 30.8902 65.0445 31.2439 64.7669 31.5459C64.5241 31.8122 64.253 32.0514 63.9584 32.2591C63.6889 32.4509 63.4092 32.6282 63.1206 32.79C62.5603 33.1042 62.0032 33.3765 61.4544 33.6425C60.9056 33.9085 60.3642 34.1661 59.8374 34.4447C58.7901 34.9935 57.7869 35.6093 56.9365 36.3853C56.5112 36.7687 56.1291 37.1975 55.797 37.664C55.6312 37.8972 55.4798 38.1403 55.3436 38.3919C55.208 38.6448 55.0863 38.9049 54.9791 39.171L54.8451 39.503L54.5236 39.4433L51.6959 39.2213L51.1723 39.1805L51.166 38.5689C51.2047 37.6799 51.3593 36.7997 51.6258 35.9507C51.8909 35.109 52.2458 34.2982 52.6846 33.5325C54.0135 31.2548 55.8901 29.3448 58.144 27.9757C58.9096 27.5065 59.7284 27.1304 60.5831 26.8552C61.0338 26.7119 61.4981 26.6154 61.9686 26.5672C62.488 26.5105 63.0133 26.5517 63.5175 26.6886C63.7989 26.7691 64.0665 26.8916 64.3113 27.052C64.5675 27.2213 64.7922 27.4339 64.9753 27.6804C65.1512 27.9166 65.29 28.1783 65.3869 28.4564C65.433 28.5867 65.47 28.7201 65.4979 28.8554C65.5115 28.9193 65.5241 28.9916 65.5346 29.0649L65.5419 29.1162V29.155L65.5513 29.2325L65.5503 29.2482Z" fill="#693F73"/>
<path d="M60.5632 14.26C55.2713 12.7101 47.8001 28.3699 49.4286 39.9611H51.4278C51.8593 29.2852 56.2652 25.6187 60.4825 20.8275C62.5299 18.5015 62.753 14.902 60.5632 14.26Z" fill="url(#paint1_linear)"/>
<path d="M60.3539 15.0571L60.2387 15.0257L60.1728 15.011C60.1256 15.0016 60.068 14.9911 60.0146 14.9859C59.9041 14.9736 59.7926 14.9708 59.6816 14.9775C59.4424 14.9932 59.2067 15.0437 58.982 15.1272C58.4748 15.3244 58.0038 15.6043 57.5881 15.9556C57.1338 16.3288 56.7132 16.7412 56.3314 17.1883C55.9374 17.6469 55.5696 18.1273 55.2297 18.6272C54.5409 19.6457 53.9277 20.7133 53.3948 21.8214C52.8545 22.9374 52.3752 24.0821 51.959 25.2501C51.12 27.5927 50.5183 30.0135 50.163 32.4763C49.8163 34.9342 49.7263 37.4341 50.0488 39.8753L49.4288 39.3328H51.4281L50.7997 39.936L50.8426 39.0018L50.9086 38.0687C50.9348 37.7545 50.9694 37.4466 50.9987 37.1356C51.028 36.8246 51.0772 36.5135 51.117 36.2035C51.1568 35.8935 51.2134 35.5836 51.2647 35.2736C51.316 34.9636 51.3768 34.6557 51.4459 34.3478C51.515 34.0399 51.5778 33.733 51.6606 33.4283L51.7779 32.9696L51.9098 32.5151C51.9936 32.2103 52.0994 31.9118 52.1957 31.6102C52.2449 31.4605 52.3004 31.3128 52.3559 31.1641C52.4115 31.0154 52.4607 30.8656 52.5235 30.719C52.7529 30.1283 53.0168 29.5502 53.2964 28.9805C53.576 28.4108 53.8923 27.8599 54.2243 27.3206C54.5563 26.7813 54.9134 26.2597 55.2831 25.7497C56.0277 24.7328 56.833 23.7756 57.6509 22.8477L58.8773 21.4706L59.4858 20.7856C59.6826 20.5584 59.8973 20.3227 60.0597 20.1196C60.3961 19.6935 60.674 19.2244 60.886 18.7246C61.096 18.2344 61.2312 17.7155 61.2871 17.1851C61.3373 16.673 61.2871 16.163 61.1195 15.7765C61.0469 15.5994 60.9369 15.4401 60.7969 15.3095C60.6628 15.1899 60.5035 15.1018 60.3309 15.0518L60.3539 15.0571ZM60.7833 13.4642H60.798C61.2171 13.5841 61.6018 13.8016 61.9207 14.0988C62.2273 14.3921 62.4679 14.7473 62.6265 15.1409C62.7717 15.4997 62.8635 15.878 62.8988 16.2635C62.9326 16.6246 62.9291 16.9882 62.8883 17.3485C62.809 18.0396 62.6254 18.7148 62.3438 19.3509C62.068 19.9782 61.7095 20.5657 61.2776 21.0977C61.0514 21.37 60.8493 21.5826 60.6419 21.8162L60.0136 22.499L58.7747 23.852C57.9588 24.7527 57.1723 25.6638 56.4539 26.6168C56.0971 27.0944 55.7582 27.5831 55.437 28.083C55.1228 28.5836 54.8254 29.0978 54.5489 29.6215C54.2725 30.1451 54.0253 30.6834 53.8064 31.2332C53.7467 31.3693 53.7017 31.5086 53.6441 31.6521C53.5865 31.7956 53.5394 31.9286 53.488 32.071C53.3938 32.3527 53.2901 32.6313 53.2074 32.9162L53.0775 33.3434L52.9602 33.7739C52.8785 34.0608 52.8157 34.352 52.7455 34.6421C52.6754 34.9322 52.624 35.2275 52.5612 35.5197L52.4104 36.4004C52.3696 36.6979 52.3235 36.9942 52.2858 37.2917C52.2481 37.5891 52.2156 37.8886 52.1863 38.1881L52.1098 39.0877L52.0564 39.9905L52.0198 40.5979H51.4281H48.879L48.8068 40.0575C48.623 38.7704 48.5376 37.4712 48.5512 36.1711C48.5639 34.8773 48.6545 33.5854 48.8225 32.3025C49.1584 29.7414 49.7506 27.2205 50.5903 24.7778C51.0084 23.5532 51.4929 22.3523 52.0418 21.1805C52.5924 19.995 53.2291 18.8515 53.9468 17.759C54.3126 17.2067 54.7091 16.6752 55.1344 16.1672C55.57 15.6446 56.0505 15.161 56.5702 14.7219C57.12 14.2492 57.7451 13.8718 58.4196 13.6056C58.7892 13.4644 59.1772 13.3772 59.5716 13.3469C59.7768 13.3319 59.9828 13.3347 60.1874 13.3553C60.2922 13.3657 60.3906 13.3804 60.5016 13.4003L60.6681 13.4369L60.7729 13.4652L60.7833 13.4642Z" fill="#693F73"/>
<path d="M6.93604 75.2267C6.93604 94.685 91.0454 95.6265 91.0454 75.5409C91.0454 71.5979 87.9036 38.5073 48.9912 38.5073C8.19171 38.5073 6.93604 71.0093 6.93604 75.2267Z" fill="#9A82B9"/>
<path d="M6.93604 75.2267C6.93604 94.685 91.0454 95.6265 91.0454 75.5409C91.0454 71.5979 87.9036 38.5073 48.9912 38.5073C8.19171 38.5073 6.93604 71.0093 6.93604 75.2267Z" stroke="#693F73" stroke-width="1.67563" stroke-miterlimit="10"/>
<path d="M49.567 4.07853C41.7313 3.5151 42.4309 30.453 46.5529 41.3613L49.723 40.3402C45.8073 23.9201 48.571 20.2211 51.8416 12.3499C53.4314 8.52524 52.6093 4.29741 49.567 4.07853Z" fill="url(#paint2_linear)"/>
<path style="mix-blend-mode:overlay" opacity="0.5" d="M9.65576 74.811C9.65576 91.8679 88.3256 92.6932 88.3256 75.0865C88.3256 71.6305 85.3933 42.6211 48.9912 42.6211C10.8298 42.6232 9.65576 71.1142 9.65576 74.811Z" fill="url(#paint3_linear)"/>
<path style="mix-blend-mode:screen" opacity="0.69" d="M75.2711 53.1727C75.2711 60.468 63.4527 66.384 48.8726 66.384C34.2925 66.384 22.4751 60.468 22.4751 53.1727C22.4751 45.8775 34.2946 39.9614 48.8726 39.9614C63.4506 39.9614 75.2711 45.8764 75.2711 53.1727Z" fill="url(#paint4_linear)"/>
<path d="M49.4689 40.3959C49.4689 40.3959 49.384 40.0995 49.2238 39.5434C49.1463 39.2649 49.0468 38.9234 48.94 38.515C48.8332 38.1066 48.7023 37.6405 48.5787 37.1127C48.3169 36.0654 48.0205 34.7763 47.7472 33.2839C47.611 32.5372 47.477 31.7402 47.3628 30.893C47.3356 30.6835 47.308 30.4688 47.2801 30.2489C47.2581 30.03 47.235 29.8091 47.213 29.5849C47.1617 29.1388 47.1366 28.677 47.0989 28.2067C47.0465 27.2642 47.0224 26.2766 47.0591 25.2492C47.0992 24.1849 47.2108 23.1244 47.3932 22.075C47.5915 20.9659 47.863 19.8713 48.2059 18.7981C48.5525 17.7047 48.9756 16.6229 49.4123 15.5411C49.849 14.4592 50.314 13.3847 50.756 12.2945L50.8397 12.0851L50.8816 11.9803L50.8921 11.9542C50.8973 11.9426 50.8858 11.9688 50.8921 11.9458L50.912 11.8934C50.9623 11.7573 51.0251 11.6044 51.0597 11.4913L51.1215 11.3101L51.1801 11.1174C51.222 10.9875 51.2555 10.8566 51.2911 10.7268C51.4286 10.2058 51.5177 9.67329 51.5571 9.13595C51.5686 9.0019 51.5697 8.8689 51.576 8.7359C51.5823 8.60289 51.576 8.46884 51.5707 8.33793C51.5619 8.07754 51.5363 7.81799 51.4943 7.56086C51.4248 7.07982 51.2713 6.61474 51.0408 6.18684C50.9371 6.00173 50.81 5.83067 50.6627 5.67787C50.5273 5.54176 50.3706 5.42857 50.1988 5.34274C50.0257 5.25852 49.8406 5.20165 49.65 5.17413C49.5987 5.17413 49.5453 5.16366 49.4971 5.15633C49.4793 5.15633 49.5935 5.15633 49.5307 5.15633H49.4448H49.3285H49.2133C49.2046 5.1558 49.1959 5.1558 49.1871 5.15633H49.1725H49.1453C49.1085 5.16264 49.0715 5.16684 49.0342 5.1689C48.9944 5.1689 48.941 5.18879 48.8939 5.19717C48.8452 5.20419 48.7975 5.21648 48.7515 5.23383C48.7044 5.25058 48.6572 5.26524 48.6101 5.27991C48.563 5.29457 48.519 5.32284 48.4719 5.34274L48.4027 5.37416C48.3797 5.38463 48.3577 5.40139 48.3347 5.41396L48.1996 5.4946C48.1545 5.52392 48.1116 5.56057 48.0666 5.59199C48.0201 5.62316 47.9763 5.6582 47.9357 5.69672C47.5629 6.02885 47.2449 6.41762 46.9931 6.84872C46.7128 7.32314 46.4729 7.82024 46.2757 8.33479C46.0663 8.85843 45.8935 9.40615 45.7385 9.9612C45.5835 10.5163 45.4568 11.0828 45.3384 11.6504C45.2201 12.2181 45.1216 12.7899 45.0379 13.3627C44.9928 13.6486 44.9583 13.9356 44.9185 14.2204C44.8787 14.5053 44.8462 14.7923 44.8137 15.0782C44.7502 15.6479 44.6972 16.2158 44.6546 16.7821C44.4818 19.0452 44.4451 21.2518 44.4744 23.3453C44.5038 25.4388 44.6095 27.4202 44.7624 29.2446C44.8378 30.1567 44.9352 31.0249 45.0263 31.8627C45.1175 32.7006 45.2211 33.4776 45.3321 34.2128C45.5563 35.679 45.7856 36.9598 46.0171 37.9997C46.2485 39.0397 46.4559 39.8524 46.6171 40.399C46.6957 40.6734 46.7596 40.8818 46.8036 41.0222C46.8475 41.1625 46.8695 41.2316 46.8695 41.2316V41.24C46.8941 41.3243 46.8858 41.4148 46.8461 41.4931C46.8064 41.5714 46.7384 41.6317 46.6559 41.6617C46.5733 41.6917 46.4825 41.6891 46.4018 41.6546C46.3211 41.62 46.2565 41.556 46.2213 41.4756L46.1312 41.2662C46.0726 41.1269 45.9835 40.9206 45.8799 40.6462C45.6704 40.0995 45.3698 39.2931 45.0588 38.2459C44.7478 37.1986 44.4032 35.9209 44.0901 34.4348C43.777 32.9488 43.4691 31.2658 43.2261 29.4142C42.9831 27.5627 42.7747 25.5498 42.6658 23.4092C42.6082 22.3399 42.5789 21.2382 42.5715 20.1113C42.5642 18.9845 42.5893 17.8304 42.6532 16.6553C42.7171 15.4803 42.8145 14.2854 42.9789 13.0758C43.0575 12.4705 43.158 11.862 43.269 11.2504C43.38 10.6388 43.5225 10.0251 43.6879 9.40929C43.8537 8.785 44.0508 8.16947 44.2786 7.56505C44.5144 6.9332 44.8049 6.32312 45.1468 5.74175C45.5159 5.1089 45.984 4.53929 46.5334 4.0546C47.1545 3.51192 47.9173 3.15737 48.7326 3.03247C48.8489 3.01885 48.9651 3.00838 49.0814 3H49.1693H49.2133H49.2531H49.3694H49.4846H49.5673C49.5244 3 49.6563 3 49.6584 3.00524L49.9642 3.04084C50.3833 3.10392 50.7898 3.23293 51.1686 3.4231C51.5471 3.61558 51.8919 3.8681 52.1897 4.17085C52.4696 4.46045 52.7104 4.78542 52.906 5.13748C53.2599 5.78865 53.494 6.49809 53.5972 7.23202C53.6492 7.57885 53.6789 7.92866 53.6862 8.27929C53.6935 8.45209 53.6862 8.62279 53.6862 8.79454C53.6862 8.96629 53.6726 9.13491 53.6558 9.30247C53.6002 9.96642 53.4831 10.6238 53.3061 11.2661C53.2621 11.4253 53.2181 11.5803 53.1657 11.7405L53.0882 11.9751L53.0003 12.217C52.9406 12.3877 52.8861 12.5092 52.8296 12.6516L52.7793 12.7721L52.7342 12.8768L52.6452 13.0863C52.1687 14.188 51.687 15.2625 51.2251 16.3087C50.7633 17.3549 50.336 18.3823 49.9747 19.3971C49.6207 20.3824 49.3307 21.3895 49.1065 22.4122C48.8955 23.3821 48.7482 24.3648 48.6656 25.354C48.5787 26.3164 48.5504 27.2548 48.5525 28.1596C48.564 28.612 48.564 29.0561 48.5902 29.4907C48.6007 29.7078 48.6108 29.9225 48.6206 30.1348C48.6303 30.347 48.6447 30.5565 48.6635 30.7631C48.718 31.5915 48.7955 32.3791 48.8782 33.1184C48.9149 33.4881 48.9683 33.8452 49.0102 34.1908C49.052 34.5364 49.1002 34.8684 49.1463 35.1889C49.1924 35.5093 49.2311 35.8172 49.2772 36.1084L49.4092 36.9462C49.5851 38.0039 49.7233 38.8313 49.8281 39.4062C49.9328 39.9812 49.9862 40.2755 49.9862 40.2755C49.9967 40.3418 49.9817 40.4096 49.9441 40.4652C49.9065 40.5208 49.8493 40.5601 49.7838 40.5752C49.7184 40.5902 49.6497 40.5798 49.5916 40.5462C49.5336 40.5125 49.4904 40.458 49.471 40.3938L49.4689 40.3959Z" fill="#693F73"/>
<g style="mix-blend-mode:multiply" opacity="0.25">
<path d="M38.7062 59.2088C38.8015 58.9993 38.8748 58.7899 38.9544 58.5888C39.034 58.3877 39.1105 58.1856 39.1712 57.9866L39.3608 57.4054C39.4131 57.2138 39.4655 57.0263 39.5147 56.8451C39.5388 56.754 39.5639 56.6639 39.588 56.5749C39.6121 56.4859 39.6278 56.3979 39.6467 56.311C39.6854 56.1361 39.7221 55.9675 39.7577 55.8031C39.8237 55.4742 39.8687 55.1622 39.919 54.8742C39.9692 54.5862 39.9849 54.3149 40.0143 54.0688C40.0436 53.8227 40.0488 53.5881 40.0645 53.3849C40.0708 53.2802 40.0771 53.1849 40.0823 53.0948C40.0876 53.0048 40.0823 52.9283 40.0886 52.854C40.0886 52.7063 40.0886 52.5827 40.0886 52.4832C40.0886 52.2832 40.0886 52.1806 40.0886 52.1806V52.1617C40.0886 52.1617 40.0886 52.057 40.0771 51.8475C40.0771 51.7428 40.0687 51.6151 40.0624 51.4611C40.0562 51.3072 40.0446 51.1312 40.0268 50.9301C39.9369 49.7709 39.7263 48.6242 39.3985 47.5087C39.3454 47.3286 39.2903 47.1443 39.233 46.9558C39.1758 46.7672 39.1087 46.5763 39.0319 46.3829C38.968 46.186 38.8843 45.9912 38.8036 45.7912C38.723 45.5912 38.6423 45.3838 38.5429 45.1806C38.1438 44.2934 37.6675 43.4429 37.1196 42.6389C36.5013 41.7245 35.7979 40.8707 35.0188 40.0888C34.8366 39.9066 34.6481 39.7254 34.4543 39.5474C33.9307 39.6737 33.4119 39.8106 32.8981 39.9579C31.5141 40.3413 30.1509 40.7957 28.8137 41.3193C27.5164 41.8255 26.247 42.4005 25.0111 43.0421C23.8225 43.6666 22.6688 44.3554 21.5551 45.1052C19.4652 46.5212 17.5415 48.1682 15.8202 50.0148C15.0249 50.8758 14.2738 51.7766 13.5697 52.7136C13.4021 52.944 13.2283 53.1671 13.0691 53.3986L12.5915 54.0856L12.1401 54.7747C11.9904 55.0019 11.8542 55.2355 11.7129 55.4627C11.1568 56.3801 10.6583 57.2913 10.2132 58.1856C9.76807 59.08 9.38268 59.9639 9.03813 60.8279C8.79865 61.4304 8.57907 62.02 8.37939 62.5967C10.1807 65.0988 12.6065 67.0848 15.415 68.3567L15.6935 68.4834L15.9763 68.5976C16.1648 68.6719 16.3523 68.7494 16.5418 68.8206C16.9241 68.9495 17.3021 69.0919 17.6938 69.1956C18.4555 69.4196 19.2316 69.5914 20.0167 69.7098C20.4073 69.76 20.7885 69.8197 21.1917 69.8438L21.4891 69.8679C21.5855 69.8742 21.6923 69.8868 21.7803 69.8868L22.3269 69.9035H22.4631H22.5301H22.6244L22.9113 69.8962L23.481 69.8815C23.6706 69.8711 23.8591 69.8553 24.0465 69.8417C24.234 69.8281 24.4215 69.8166 24.6068 69.7894C26.0548 69.6286 27.4764 69.2848 28.8378 68.7662C31.2757 67.8308 33.4734 66.3619 35.2701 64.4671C36.0403 63.6512 36.7318 62.7644 37.3354 61.8186C37.8668 60.9899 38.3255 60.1167 38.7062 59.2088Z" fill="#262262"/>
</g>
<path d="M38.1363 54.7742C39.8406 45.9237 34.0476 37.3674 25.1971 35.6631C16.3466 33.9587 7.79029 39.7518 6.08596 48.6023C4.38163 57.4527 10.1747 66.0091 19.0252 67.7134C27.8756 69.4177 36.432 63.6247 38.1363 54.7742Z" fill="#F0E8F2"/>
<path d="M20.8426 55.2387C20.9305 58.7994 22.7633 61.6428 24.9374 61.5893C27.1115 61.5359 28.8018 58.6025 28.7138 55.0418C28.6259 51.4811 26.7931 48.6378 24.6201 48.6912C22.447 48.7446 20.7556 51.6738 20.8426 55.2356" fill="#009444"/>
<path d="M20.8426 55.2387C20.9305 58.7994 22.7633 61.6428 24.9374 61.5893C27.1115 61.5359 28.8018 58.6025 28.7138 55.0418C28.6259 51.4811 26.7931 48.6378 24.6201 48.6912C22.447 48.7446 20.7556 51.6738 20.8426 55.2356" fill="url(#paint5_linear)"/>
<path d="M20.8426 55.2387C20.9305 58.7994 22.7633 61.6428 24.9374 61.5893C27.1115 61.5359 28.8018 58.6025 28.7138 55.0418C28.6259 51.4811 26.7931 48.6378 24.6201 48.6912C22.447 48.7446 20.7556 51.6738 20.8426 55.2356" stroke="#006838" stroke-width="0.837816" stroke-miterlimit="10"/>
<path d="M26.396 35.9811C22.4459 34.8674 18.2212 35.2827 14.5636 37.1444C10.9061 39.0061 8.08415 42.1774 6.66016 46.0265L37.9735 54.8582C38.7708 50.8324 38.0221 46.6539 35.8764 43.1555C33.7308 39.657 30.3458 37.0955 26.396 35.9811V35.9811Z" fill="#9A82B9"/>
<path style="mix-blend-mode:screen" opacity="0.69" d="M8.05029 46.4188L36.5873 54.4671C37.1251 50.87 36.3326 47.2004 34.3585 44.1458C32.3843 41.0912 29.364 38.8613 25.8636 37.8741C22.3631 36.8869 18.6228 37.21 15.3436 38.783C12.0643 40.356 9.47125 43.0709 8.05029 46.4188V46.4188Z" fill="url(#paint6_linear)"/>
<path d="M6.66016 46.0273L37.9756 54.859" stroke="#693F73" stroke-width="1.25672" stroke-miterlimit="10"/>
<path d="M38.1363 54.7742C39.8406 45.9237 34.0476 37.3674 25.1971 35.6631C16.3466 33.9587 7.79029 39.7518 6.08596 48.6023C4.38163 57.4527 10.1747 66.0091 19.0252 67.7134C27.8756 69.4177 36.432 63.6247 38.1363 54.7742Z" stroke="#693F73" stroke-width="1.25672" stroke-miterlimit="10"/>
<g style="mix-blend-mode:multiply" opacity="0.25">
<path d="M58.6046 59.2088C58.5093 58.9993 58.4349 58.7899 58.3564 58.5888C58.2778 58.3877 58.1993 58.1856 58.1385 57.9866C58.0778 57.7877 58.0108 57.5939 57.95 57.4054C57.8893 57.2169 57.8453 57.0263 57.7961 56.8451C57.7709 56.754 57.7468 56.6639 57.7228 56.5749C57.6987 56.4859 57.683 56.3979 57.6631 56.311C57.6254 56.1361 57.5877 55.9675 57.5521 55.8031C57.4861 55.4742 57.4421 55.1622 57.3918 54.8742C57.3416 54.5862 57.3258 54.3149 57.2965 54.0688C57.2672 53.8227 57.2609 53.5881 57.2463 53.3849C57.24 53.2802 57.2337 53.1849 57.2274 53.0948C57.2211 53.0048 57.2274 52.9283 57.2222 52.854C57.2222 52.7063 57.2222 52.5827 57.2222 52.4832C57.2222 52.2832 57.2222 52.1806 57.2222 52.1806V52.1617C57.2222 52.1617 57.2222 52.057 57.2337 51.8475C57.2337 51.7428 57.2421 51.6151 57.2473 51.4611C57.2525 51.3072 57.2651 51.1312 57.284 50.9301C57.3734 49.7708 57.584 48.6241 57.9123 47.5087C57.9657 47.3286 58.017 47.1443 58.0767 46.9558C58.1364 46.7672 58.2097 46.5787 58.2778 46.3829C58.3459 46.1871 58.4255 45.9912 58.5072 45.7912C58.5889 45.5912 58.6674 45.3838 58.7669 45.1806C59.1664 44.2936 59.6426 43.4431 60.1901 42.6389C60.8088 41.7245 61.5125 40.8707 62.292 40.0888C62.4742 39.9066 62.6627 39.7254 62.8554 39.5474C63.3798 39.6737 63.8985 39.8106 64.4117 39.9579C65.7955 40.3415 67.1588 40.7959 68.496 41.3193C69.7915 41.8249 71.0591 42.3993 72.2934 43.04C73.4821 43.6643 74.6358 44.3531 75.7494 45.1031C77.8416 46.5194 79.7675 48.1671 81.4905 50.0148C82.2858 50.8755 83.0367 51.7763 83.7401 52.7136C83.9087 52.944 84.0825 53.1671 84.2417 53.3986L84.7193 54.0856L85.1696 54.7747C85.3194 55.0019 85.4555 55.2355 85.5979 55.4627C86.154 56.3801 86.6525 57.2913 87.0966 58.1856C87.5406 59.08 87.9271 59.966 88.2737 60.8279C88.5146 61.4301 88.7324 62.0197 88.9324 62.5967C87.1312 65.0988 84.7053 67.0848 81.8969 68.3567L81.6194 68.4834L81.3366 68.5976C81.147 68.6719 80.9606 68.7494 80.7711 68.8206C80.3878 68.9495 80.0108 69.0919 79.6191 69.1956C78.8574 69.4195 78.0813 69.5913 77.2962 69.7098C76.9056 69.76 76.5244 69.8197 76.1212 69.8438L75.8238 69.8679C75.7264 69.8742 75.6143 69.8868 75.5316 69.8868L74.986 69.9035H74.8498H74.7817H74.6885L74.4016 69.8962L73.8319 69.8815C73.6423 69.8711 73.4538 69.8553 73.2663 69.8417C73.0789 69.8281 72.8904 69.8166 72.705 69.7894C71.2574 69.6288 69.836 69.2849 68.4751 68.7662C66.0365 67.831 63.838 66.3621 62.0407 64.4671C61.2702 63.6515 60.5787 62.7647 59.9754 61.8186C59.4432 60.9904 58.9845 60.1171 58.6046 59.2088V59.2088Z" fill="#262262"/>
</g>
<path d="M80.6005 67.0883C89.1054 64.1048 93.5816 54.7917 90.5982 46.2867C87.6148 37.7817 78.3016 33.3056 69.7966 36.289C61.2916 39.2724 56.8155 48.5856 59.7989 57.0906C62.7823 65.5955 72.0955 70.0717 80.6005 67.0883Z" fill="#F0E8F2"/>
<path d="M66.9603 55.2387C67.0472 58.7994 68.88 61.6428 71.0541 61.5893C73.2282 61.5359 74.9185 58.6025 74.8305 55.0418C74.7426 51.4811 72.9109 48.6378 70.7368 48.6912C68.5626 48.7446 66.8723 51.6738 66.9603 55.2356" fill="#009444"/>
<path d="M66.9603 55.2387C67.0472 58.7994 68.88 61.6428 71.0541 61.5893C73.2282 61.5359 74.9185 58.6025 74.8305 55.0418C74.7426 51.4811 72.9109 48.6378 70.7368 48.6912C68.5626 48.7446 66.8723 51.6738 66.9603 55.2356" fill="url(#paint7_linear)"/>
<path d="M66.9603 55.2387C67.0472 58.7994 68.88 61.6428 71.0541 61.5893C73.2282 61.5359 74.9185 58.6025 74.8305 55.0418C74.7426 51.4811 72.9109 48.6378 70.7368 48.6912C68.5626 48.7446 66.8723 51.6738 66.9603 55.2356" stroke="#006838" stroke-width="0.837816" stroke-miterlimit="10"/>
<path d="M70.9135 35.9813C74.8629 34.8676 79.0869 35.2825 82.7441 37.1433C86.4014 39.0041 89.2235 42.1744 90.6482 46.0225L59.3349 54.8541C58.539 50.8288 59.2886 46.6514 61.4343 43.1539C63.5801 39.6565 66.9645 37.0956 70.9135 35.9813V35.9813Z" fill="#9A82B9"/>
<path style="mix-blend-mode:screen" opacity="0.69" d="M89.2588 46.4184L60.7228 54.4667C60.1861 50.8702 60.9791 47.2014 62.9532 44.1476C64.9274 41.0939 67.9472 38.8646 71.447 37.8775C74.9468 36.8905 78.6864 37.2133 81.9652 38.7855C85.2441 40.3577 87.8372 43.0715 89.2588 46.4184V46.4184Z" fill="url(#paint8_linear)"/>
<path d="M90.648 46.0273L59.3325 54.859" stroke="#693F73" stroke-width="1.25672" stroke-miterlimit="10"/>
<path d="M80.6005 67.0883C89.1054 64.1048 93.5816 54.7917 90.5982 46.2867C87.6148 37.7817 78.3016 33.3056 69.7966 36.289C61.2916 39.2724 56.8155 48.5856 59.7989 57.0906C62.7823 65.5955 72.0955 70.0717 80.6005 67.0883Z" stroke="#693F73" stroke-width="1.25672" stroke-miterlimit="10"/>
<g style="mix-blend-mode:multiply" opacity="0.25">
<g style="mix-blend-mode:multiply" opacity="0.25">
<path d="M79.6887 78.9105H17.6254C17.3476 78.9105 17.0813 78.8001 16.8849 78.6037C16.6885 78.4073 16.5781 78.1409 16.5781 77.8632C16.5781 77.5854 16.6885 77.3191 16.8849 77.1227C17.0813 76.9263 17.3476 76.8159 17.6254 76.8159H79.6887C79.9664 76.8159 80.2328 76.9263 80.4292 77.1227C80.6256 77.3191 80.736 77.5854 80.736 77.8632C80.736 78.1409 80.6256 78.4073 80.4292 78.6037C80.2328 78.8001 79.9664 78.9105 79.6887 78.9105V78.9105Z" fill="#262262"/>
</g>
</g>
<path d="M17.6211 77.1299H79.6886" stroke="#43284A" stroke-width="2.09454" stroke-linecap="round" stroke-linejoin="round"/>
<defs>
<linearGradient id="paint0_linear" x1="52.9762" y1="36.649" x2="62.6813" y2="28.7599" gradientUnits="userSpaceOnUse">
<stop stop-color="#9A82B9"/>
<stop offset="0.18" stop-color="#A083B9"/>
<stop offset="0.43" stop-color="#B287BA"/>
<stop offset="0.72" stop-color="#CF8DBC"/>
<stop offset="1" stop-color="#F294BE"/>
</linearGradient>
<linearGradient id="paint1_linear" x1="3205.31" y1="10431.8" x2="5422.78" y2="3918" gradientUnits="userSpaceOnUse">
<stop stop-color="#9A82B9"/>
<stop offset="0.18" stop-color="#A083B9"/>
<stop offset="0.43" stop-color="#B287BA"/>
<stop offset="0.72" stop-color="#CF8DBC"/>
<stop offset="1" stop-color="#F294BE"/>
</linearGradient>
<linearGradient id="paint2_linear" x1="3773.81" y1="13665.1" x2="3773.81" y2="387.799" gradientUnits="userSpaceOnUse">
<stop stop-color="#9A82B9"/>
<stop offset="0.18" stop-color="#A083B9"/>
<stop offset="0.43" stop-color="#B287BA"/>
<stop offset="0.72" stop-color="#CF8DBC"/>
<stop offset="1" stop-color="#F294BE"/>
</linearGradient>
<linearGradient id="paint3_linear" x1="48.9912" y1="42.6232" x2="48.9912" y2="87.9511" gradientUnits="userSpaceOnUse">
<stop stop-color="#B34D9D" stop-opacity="0"/>
<stop offset="0.26" stop-color="#B24D9D" stop-opacity="0.02"/>
<stop offset="0.42" stop-color="#B04D9D" stop-opacity="0.07"/>
<stop offset="0.55" stop-color="#AD4D9D" stop-opacity="0.16"/>
<stop offset="0.67" stop-color="#A84E9E" stop-opacity="0.29"/>
<stop offset="0.77" stop-color="#A24E9E" stop-opacity="0.45"/>
<stop offset="0.87" stop-color="#9B4E9E" stop-opacity="0.65"/>
<stop offset="0.96" stop-color="#924F9F" stop-opacity="0.89"/>
<stop offset="1" stop-color="#8E4F9F"/>
</linearGradient>
<linearGradient id="paint4_linear" x1="48.8726" y1="57.3754" x2="48.8726" y2="40.3164" gradientUnits="userSpaceOnUse">
<stop stop-color="#53AFA8" stop-opacity="0"/>
<stop offset="0.32" stop-color="#98CFCB" stop-opacity="0.2"/>
<stop offset="0.62" stop-color="#D0E9E7" stop-opacity="0.36"/>
<stop offset="0.86" stop-color="#F2F9F9" stop-opacity="0.46"/>
<stop offset="1" stop-color="white" stop-opacity="0.5"/>
</linearGradient>
<linearGradient id="paint5_linear" x1="24.38" y1="61.2969" x2="24.8839" y2="53.4837" gradientUnits="userSpaceOnUse">
<stop stop-color="#009444" stop-opacity="0"/>
<stop offset="1" stop-color="#02351E"/>
</linearGradient>
<linearGradient id="paint6_linear" x1="4732.58" y1="7920.98" x2="4732.58" y2="5900.06" gradientUnits="userSpaceOnUse">
<stop stop-color="#53AFA8" stop-opacity="0"/>
<stop offset="0.32" stop-color="#98CFCB" stop-opacity="0.2"/>
<stop offset="0.62" stop-color="#D0E9E7" stop-opacity="0.36"/>
<stop offset="0.86" stop-color="#F2F9F9" stop-opacity="0.46"/>
<stop offset="1" stop-color="white" stop-opacity="0.5"/>
</linearGradient>
<linearGradient id="paint7_linear" x1="5114.01" y1="5705.45" x2="5114.01" y2="4741.07" gradientUnits="userSpaceOnUse">
<stop stop-color="#009444" stop-opacity="0"/>
<stop offset="1" stop-color="#02351E"/>
</linearGradient>
<linearGradient id="paint8_linear" x1="89932.2" y1="7919.24" x2="89932.2" y2="5898.76" gradientUnits="userSpaceOnUse">
<stop stop-color="#53AFA8" stop-opacity="0"/>
<stop offset="0.32" stop-color="#98CFCB" stop-opacity="0.2"/>
<stop offset="0.62" stop-color="#D0E9E7" stop-opacity="0.36"/>
<stop offset="0.86" stop-color="#F2F9F9" stop-opacity="0.46"/>
<stop offset="1" stop-color="white" stop-opacity="0.5"/>
</linearGradient>
</defs>
</svg>
