<svg width="100" height="100" viewBox="0 0 100 100" fill="none" xmlns="http://www.w3.org/2000/svg">
<path d="M65.7036 29.349C65.0752 24.0077 53.2044 30.3387 52.7876 38.6061L55.5859 39.0366C57.7391 33.0093 66.1351 33.0093 65.7036 29.349Z" fill="url(#paint0_linear)"/>
<path d="M64.8579 29.4582L64.8464 29.388L64.8401 29.3493C64.8401 29.3357 64.8401 29.3325 64.8401 29.3231C64.8338 29.2938 64.8275 29.2634 64.817 29.2257C64.8017 29.1573 64.7825 29.0898 64.7594 29.0236C64.7223 28.9069 64.668 28.7964 64.5982 28.6958C64.4593 28.5033 64.2591 28.3637 64.0305 28.2999C63.7297 28.2136 63.4154 28.1841 63.1037 28.213C62.7443 28.2424 62.3888 28.3083 62.0428 28.4099C61.3046 28.6293 60.5952 28.9359 59.9294 29.3231C57.8627 30.515 56.1245 32.2018 54.8711 34.2318C54.4642 34.9031 54.1306 35.6163 53.8762 36.3589C53.6259 37.0956 53.4724 37.8616 53.4196 38.6379V38.6379L52.8876 37.9854L55.6545 38.6242L55.1979 38.8965C55.2981 38.591 55.4156 38.2913 55.5497 37.999C55.6853 37.7064 55.8381 37.422 56.0074 37.1475C56.3481 36.5994 56.7474 36.0898 57.1981 35.6279C58.0957 34.7052 59.1492 33.9752 60.2153 33.3353C60.7494 33.0149 61.2888 32.7153 61.8187 32.42C62.3486 32.1247 62.866 31.8314 63.3519 31.5193C63.5858 31.3701 63.8113 31.2083 64.0274 31.0344C64.2211 30.8801 64.3968 30.7045 64.551 30.5108C64.6797 30.3573 64.7756 30.1791 64.8327 29.9871C64.8789 29.8146 64.8875 29.6343 64.8579 29.4582V29.4582ZM66.5503 29.2487C66.5924 29.6736 66.5413 30.1025 66.4005 30.5055C66.2598 30.8908 66.0445 31.2446 65.7669 31.5465C65.5241 31.8129 65.253 32.0521 64.9584 32.2598C64.6889 32.4517 64.4092 32.6289 64.1206 32.7907C63.5603 33.1049 63.0032 33.3772 62.4544 33.6433C61.9056 33.9093 61.3642 34.1669 60.8374 34.4455C59.7901 34.9943 58.7869 35.6101 57.9365 36.3862C57.5112 36.7696 57.1291 37.1984 56.797 37.6649C56.6312 37.8981 56.4798 38.1412 56.3436 38.3928C56.208 38.6457 56.0863 38.9058 55.9791 39.172L55.8461 39.504L55.5236 39.4443L52.6959 39.2223L52.1723 39.1814L52.166 38.5698C52.2047 37.6807 52.3593 36.8006 52.6258 35.9515C52.8909 35.1098 53.2458 34.299 53.6846 33.5333C55.0135 31.2554 56.8901 29.3454 59.144 27.9763C59.9096 27.5071 60.7284 27.1309 61.5831 26.8557C62.0338 26.7124 62.4981 26.6159 62.9686 26.5676C63.488 26.511 64.0133 26.5522 64.5175 26.6891C64.7989 26.7696 65.0665 26.8921 65.3113 27.0525C65.5675 27.2218 65.7922 27.4345 65.9753 27.6809C66.1512 27.9171 66.29 28.1788 66.3869 28.457C66.433 28.5873 66.47 28.7206 66.4979 28.856C66.5115 28.9199 66.5241 28.9922 66.5346 29.0655L66.5419 29.1168V29.1555L66.5513 29.233L66.5503 29.2487Z" fill="#693F73"/>
<path d="M61.5637 14.261C56.2718 12.711 48.8006 28.3714 50.4291 39.963H52.4283C52.8598 29.2867 57.2657 25.6201 61.483 20.8287C63.5304 18.5026 63.7535 14.903 61.5637 14.261Z" fill="url(#paint1_linear)"/>
<path d="M61.3539 15.0576L61.2387 15.0262L61.1728 15.0115C61.1256 15.0021 61.068 14.9916 61.0146 14.9864C60.9041 14.9741 60.7926 14.9713 60.6816 14.978C60.4424 14.9938 60.2067 15.0442 59.982 15.1278C59.4748 15.325 59.0038 15.6049 58.5881 15.9562C58.1338 16.3294 57.7132 16.7419 57.3314 17.1889C56.9374 17.6475 56.5696 18.1279 56.2297 18.6279C55.5409 19.6464 54.9277 20.7141 54.3948 21.8222C53.8545 22.9383 53.3752 24.0829 52.959 25.2511C52.12 27.5937 51.5183 30.0146 51.163 32.4775C50.8163 34.9355 50.7263 37.4354 51.0488 39.8767L50.4288 39.3342H52.4281L51.7997 39.9375L51.8426 39.0033L51.9086 38.0701C51.9348 37.7559 51.9694 37.448 51.9987 37.137C52.028 36.8259 52.0772 36.5149 52.117 36.2049C52.1568 35.8949 52.2134 35.5848 52.2647 35.2748C52.316 34.9648 52.3768 34.6569 52.4459 34.349C52.515 34.0411 52.5778 33.7343 52.6606 33.4295L52.7779 32.9708L52.9098 32.5162C52.9936 32.2115 53.0994 31.913 53.1957 31.6114C53.2449 31.4616 53.3004 31.3139 53.3559 31.1652C53.4115 31.0165 53.4607 30.8667 53.5235 30.7201C53.7529 30.1294 54.0168 29.5513 54.2964 28.9816C54.576 28.4118 54.8923 27.861 55.2243 27.3216C55.5563 26.7822 55.9134 26.2607 56.2831 25.7506C57.0277 24.7337 57.8341 23.7765 58.6509 22.8485L59.8773 21.4713L60.4858 20.7864C60.6826 20.5591 60.8973 20.3235 61.0597 20.1203C61.3964 19.6945 61.6744 19.2253 61.886 18.7253C62.096 18.2351 62.2312 17.7161 62.2871 17.1858C62.3373 16.6736 62.2871 16.1636 62.1195 15.7771C62.0469 15.6 61.9369 15.4407 61.7969 15.31C61.6628 15.1904 61.5035 15.1024 61.3309 15.0524L61.3539 15.0576ZM61.7833 13.4647H61.798C62.2171 13.5846 62.6018 13.8021 62.9207 14.0993C63.2273 14.3926 63.4679 14.7478 63.6265 15.1414C63.7717 15.5003 63.8635 15.8786 63.8988 16.2641C63.9326 16.6252 63.9291 16.9888 63.8883 17.3491C63.809 18.0403 63.6254 18.7154 63.3438 19.3516C63.068 19.9789 62.7095 20.5664 62.2776 21.0985C62.0514 21.3708 61.8493 21.5834 61.6419 21.8169L61.0136 22.4998L59.7747 23.8529C58.9588 24.7536 58.1723 25.6648 57.4539 26.6178C57.0971 27.0954 56.7582 27.5841 56.437 28.084C56.1228 28.5846 55.8254 29.0989 55.5489 29.6225C55.2725 30.1462 55.0253 30.6845 54.8064 31.2343C54.7467 31.3705 54.7017 31.5098 54.6441 31.6533C54.5865 31.7967 54.5394 31.9297 54.488 32.0722C54.3938 32.3539 54.2901 32.6325 54.2074 32.9174L54.0775 33.3447L53.9602 33.7751C53.8785 34.0621 53.8157 34.3532 53.7455 34.6433C53.6754 34.9334 53.624 35.2288 53.5612 35.521L53.4104 36.4018C53.3696 36.6992 53.3235 36.9956 53.2858 37.293C53.2481 37.5904 53.2156 37.89 53.1863 38.1895L53.1098 39.0891L53.0564 39.9919L53.0198 40.5994H52.4281H49.879L49.8068 40.0589C49.623 38.7718 49.5376 37.4725 49.5512 36.1724C49.5639 34.8785 49.6545 33.5866 49.8225 32.3036C50.1584 29.7425 50.7506 27.2215 51.5903 24.7787C52.0084 23.5541 52.4929 22.3531 53.0418 21.1812C53.5924 19.9958 54.2291 18.8522 54.9468 17.7597C55.3126 17.2073 55.7091 16.6758 56.1344 16.1678C56.57 15.6452 57.0505 15.1616 57.5702 14.7225C58.12 14.2497 58.7451 13.8723 59.4196 13.6061C59.7892 13.4649 60.1772 13.3777 60.5716 13.3474C60.7768 13.3324 60.9828 13.3352 61.1874 13.3557C61.2922 13.3662 61.3906 13.3809 61.5016 13.4008L61.6681 13.4374L61.7729 13.4657L61.7833 13.4647Z" fill="#693F73"/>
<path d="M7.93604 75.2295C7.93604 94.6885 92.0454 95.63 92.0454 75.5437C92.0454 71.6006 88.9036 38.5088 49.9912 38.5088C9.19171 38.5088 7.93604 71.012 7.93604 75.2295Z" fill="#9A82B9"/>
<path d="M7.93604 75.2295C7.93604 94.6885 92.0454 95.63 92.0454 75.5437C92.0454 71.6006 88.9036 38.5088 49.9912 38.5088C9.19171 38.5088 7.93604 71.012 7.93604 75.2295Z" stroke="#693F73" stroke-width="2.28626" stroke-miterlimit="10"/>
<path d="M50.5675 4.07853C42.7318 3.51508 43.4325 30.4539 47.5535 41.3627L50.7236 40.3415C46.8078 23.9208 49.5716 20.2217 52.8422 12.3502C54.4319 8.5254 53.6098 4.29742 50.5675 4.07853Z" fill="url(#paint2_linear)"/>
<path style="mix-blend-mode:overlay" opacity="0.5" d="M10.6558 74.8141C10.6558 91.8716 89.3256 92.6969 89.3256 75.0896C89.3256 71.6335 86.3933 42.623 49.9912 42.623C11.8298 42.6251 10.6558 71.1171 10.6558 74.8141Z" fill="url(#paint3_linear)"/>
<g style="mix-blend-mode:multiply" opacity="0.25">
<path d="M49.6549 87.1241C40.7531 87.1241 32.5697 85.9208 26.6045 83.7361C23.5496 82.6176 21.1534 81.2739 19.483 79.7438C17.6587 78.0681 16.7329 76.2122 16.7329 74.2171C16.7329 73.1646 17.3791 72.6943 18.019 72.6943C18.0704 72.6945 18.1218 72.6973 18.1729 72.7027C18.33 72.7195 33.972 74.3857 49.6538 74.3857C65.3356 74.3857 80.9777 72.7195 81.1337 72.7027C81.1861 72.6975 81.2384 72.6943 81.2887 72.6943C81.9286 72.6943 82.5737 73.1646 82.5737 74.2171C82.5737 78.1309 79.1523 81.4435 72.6791 83.7895C66.7516 85.9396 58.5745 87.1241 49.6549 87.1241Z" fill="#262262"/>
</g>
<path style="mix-blend-mode:screen" opacity="0.69" d="M76.2711 53.1747C76.2711 60.4702 64.4527 66.3865 49.8726 66.3865C35.2925 66.3865 23.4751 60.4702 23.4751 53.1747C23.4751 45.8791 35.2946 39.9629 49.8726 39.9629C64.4506 39.9629 76.2711 45.8781 76.2711 53.1747Z" fill="url(#paint4_linear)"/>
<path d="M50.4689 40.3973C50.4689 40.3973 50.384 40.1009 50.2238 39.5447C50.1463 39.2662 50.0468 38.9247 49.94 38.5163C49.8332 38.1078 49.7023 37.6418 49.5787 37.1139C49.3169 36.0666 49.0205 34.7774 48.7472 33.285C48.611 32.5383 48.477 31.7413 48.3628 30.894C48.3356 30.6845 48.308 30.4698 48.2801 30.2499C48.2581 30.031 48.235 29.81 48.213 29.5859C48.1617 29.1397 48.1366 28.6779 48.0989 28.2076C48.0465 27.2651 48.0224 26.2775 48.0591 25.25C48.0992 24.1856 48.2108 23.1251 48.3932 22.0757C48.5915 20.9666 48.863 19.8719 49.2059 18.7986C49.5525 17.7052 49.9756 16.6234 50.4123 15.5415C50.849 14.4596 51.314 13.3851 51.756 12.2949L51.8397 12.0854L51.8816 11.9807L51.8921 11.9545C51.8973 11.943 51.8858 11.9691 51.8921 11.9461L51.912 11.8937C51.9623 11.7576 52.0251 11.6047 52.0597 11.4916L52.1215 11.3104L52.1801 11.1177C52.222 10.9878 52.2555 10.8569 52.2911 10.727C52.4286 10.2061 52.5177 9.67353 52.5571 9.13617C52.5686 9.00212 52.5697 8.86911 52.576 8.7361C52.5823 8.6031 52.576 8.46904 52.5707 8.33813C52.5619 8.07773 52.5363 7.81816 52.4943 7.56102C52.4248 7.07997 52.2713 6.61487 52.0408 6.18696C51.9371 6.00183 51.81 5.83078 51.6627 5.67797C51.5273 5.54185 51.3706 5.42866 51.1988 5.34283C51.0257 5.25861 50.8406 5.20173 50.65 5.17421C50.5987 5.17421 50.5453 5.16374 50.4971 5.15641C50.4793 5.15641 50.5935 5.15641 50.5307 5.15641H50.4448H50.3285H50.2133C50.2046 5.15588 50.1959 5.15588 50.1871 5.15641H50.1725H50.1453C50.1085 5.16272 50.0715 5.16691 50.0342 5.16897C49.9944 5.16897 49.941 5.18887 49.8939 5.19725C49.8452 5.20427 49.7975 5.21656 49.7515 5.23391C49.7044 5.25066 49.6572 5.26533 49.6101 5.27999C49.563 5.29465 49.519 5.32293 49.4719 5.34283L49.4027 5.37425C49.3797 5.38472 49.3577 5.40148 49.3347 5.41404L49.1996 5.49469C49.1545 5.52401 49.1116 5.56067 49.0666 5.59209C49.0201 5.62326 48.9763 5.65829 48.9357 5.69682C48.5629 6.02896 48.2449 6.41774 47.9931 6.84886C47.7128 7.32329 47.4729 7.82041 47.2757 8.33498C47.0663 8.85864 46.8935 9.40638 46.7385 9.96145C46.5835 10.5165 46.4568 11.0831 46.3384 11.6508C46.2201 12.2184 46.1216 12.7902 46.0379 13.3631C45.9928 13.649 45.9583 13.936 45.9185 14.2209C45.8787 14.5057 45.8462 14.7927 45.8137 15.0786C45.7502 15.6483 45.6972 16.2163 45.6546 16.7826C45.4818 19.0458 45.4451 21.2525 45.4744 23.346C45.5038 25.4396 45.6095 27.4211 45.7624 29.2455C45.8378 30.1577 45.9352 31.026 46.0263 31.8638C46.1175 32.7016 46.2211 33.4787 46.3321 34.214C46.5563 35.6802 46.7856 36.961 47.0171 38.001C47.2485 39.041 47.4569 39.8537 47.6171 40.4004C47.6957 40.6748 47.7596 40.8832 47.8036 41.0235C47.8475 41.1639 47.8695 41.233 47.8695 41.233V41.2414C47.8941 41.3257 47.8858 41.4162 47.8461 41.4945C47.8064 41.5728 47.7384 41.6331 47.6559 41.6631C47.5733 41.6931 47.4825 41.6905 47.4018 41.656C47.3211 41.6214 47.2565 41.5574 47.2213 41.477L47.1312 41.2676C47.0726 41.1283 46.9835 40.922 46.8799 40.6476C46.6704 40.1009 46.3698 39.2944 46.0588 38.2471C45.7478 37.1998 45.4032 35.9221 45.0901 34.436C44.777 32.9499 44.4691 31.2668 44.2261 29.4152C43.9831 27.5635 43.7747 25.5506 43.6658 23.4099C43.6082 22.3406 43.5789 21.2389 43.5715 20.112C43.5642 18.9851 43.5893 17.8309 43.6532 16.6558C43.7171 15.4808 43.8145 14.2858 43.9789 13.0761C44.0575 12.4708 44.158 11.8623 44.269 11.2507C44.38 10.6391 44.5225 10.0253 44.6879 9.40952C44.8537 8.78521 45.0508 8.16966 45.2786 7.56521C45.5144 6.93334 45.8049 6.32325 46.1468 5.74185C46.5159 5.10898 46.984 4.53935 47.5334 4.05464C48.1545 3.51194 48.9173 3.15738 49.7326 3.03247C49.8489 3.01885 49.9651 3.00838 50.0814 3H50.1693H50.2133H50.2531H50.3694H50.4846H50.5673C50.5244 3 50.6563 3 50.6584 3.00524L50.9642 3.04084C51.3833 3.10392 51.7898 3.23294 52.1686 3.42311C52.5471 3.61561 52.8919 3.86813 53.1897 4.17089C53.4696 4.46051 53.7104 4.78548 53.906 5.13755C54.2599 5.78875 54.494 6.49822 54.5972 7.23217C54.6492 7.57902 54.6789 7.92883 54.6862 8.27948C54.6935 8.45228 54.6862 8.62299 54.6862 8.79475C54.6862 8.96651 54.6726 9.13513 54.6558 9.3027C54.6002 9.96667 54.4831 10.6241 54.3061 11.2664C54.2621 11.4256 54.2181 11.5806 54.1657 11.7408L54.0882 11.9754L54.0003 12.2174C53.9406 12.3881 53.8861 12.5096 53.8296 12.652L53.7793 12.7724L53.7342 12.8772L53.6452 13.0866C53.1687 14.1884 52.687 15.2629 52.2251 16.3092C51.7633 17.3554 51.336 18.3829 50.9747 19.3977C50.6207 20.383 50.3307 21.3902 50.1065 22.4129C49.8955 23.3828 49.7482 24.3656 49.6656 25.3548C49.5787 26.3173 49.5504 27.2556 49.5525 28.1605C49.564 28.613 49.564 29.057 49.5902 29.4916C49.6007 29.7088 49.6108 29.9235 49.6206 30.1357C49.6303 30.348 49.6447 30.5575 49.6635 30.7641C49.718 31.5925 49.7955 32.3801 49.8782 33.1195C49.9149 33.4892 49.9683 33.8463 50.0102 34.192C50.052 34.5376 50.1002 34.8696 50.1463 35.19C50.1924 35.5105 50.2311 35.8184 50.2772 36.1096L50.4092 36.9474C50.5851 38.0052 50.7233 38.8326 50.8281 39.4076C50.9328 39.9825 50.9862 40.2768 50.9862 40.2768C50.9967 40.3431 50.9817 40.4109 50.9441 40.4666C50.9065 40.5222 50.8493 40.5615 50.7838 40.5765C50.7184 40.5916 50.6497 40.5812 50.5916 40.5475C50.5336 40.5139 50.4904 40.4594 50.471 40.3952L50.4689 40.3973Z" fill="#693F73"/>
<g style="mix-blend-mode:multiply" opacity="0.25">
<path d="M39.7057 59.211C39.801 59.0015 39.8744 58.7921 39.9539 58.591C40.0335 58.3899 40.11 58.1878 40.1707 57.9888L40.3603 57.4075C40.4126 57.2159 40.465 57.0284 40.5142 56.8472C40.5383 56.7561 40.5635 56.666 40.5875 56.577C40.6116 56.488 40.6273 56.4 40.6462 56.3131C40.6849 56.1382 40.7216 55.9696 40.7572 55.8051C40.8232 55.4763 40.8682 55.1642 40.9185 54.8762C40.9687 54.5882 40.9845 54.3169 41.0138 54.0708C41.0431 53.8247 41.0483 53.5901 41.0641 53.3869C41.0703 53.2822 41.0766 53.1869 41.0819 53.0968C41.0871 53.0067 41.0819 52.9303 41.0881 52.8559C41.0881 52.7082 41.0881 52.5847 41.0881 52.4852C41.0881 52.2851 41.0881 52.1825 41.0881 52.1825V52.1636C41.0881 52.1636 41.0881 52.0589 41.0766 51.8495C41.0766 51.7447 41.0682 51.617 41.062 51.463C41.0557 51.309 41.0442 51.1331 41.0263 50.932C40.9364 49.7728 40.7258 48.626 40.398 47.5105C40.3449 47.3303 40.2898 47.146 40.2325 46.9575C40.1753 46.769 40.1082 46.578 40.0314 46.3846C39.9676 46.1877 39.8838 45.9929 39.8031 45.7929C39.7225 45.5928 39.6419 45.3855 39.5424 45.1823C39.1433 44.295 38.667 43.4445 38.1191 42.6405C37.5009 41.7261 36.7974 40.8722 36.0183 40.0903C35.8361 39.9081 35.6476 39.7269 35.4538 39.5488C34.9302 39.6752 34.4114 39.8121 33.8976 39.9594C32.5137 40.3428 31.1504 40.7972 29.8132 41.3209C28.5159 41.827 27.2466 42.4021 26.0106 43.0437C24.822 43.6683 23.6683 44.357 22.5546 45.1069C20.4647 46.523 18.541 48.1699 16.8198 50.0167C16.0244 50.8777 15.2733 51.7785 14.5692 52.7156C14.4016 52.946 14.2278 53.1691 14.0686 53.4005L13.591 54.0876L13.1397 54.7767C12.9899 55.0039 12.8537 55.2375 12.7124 55.4648C12.1563 56.3822 11.6578 57.2934 11.2127 58.1878C10.7676 59.0822 10.3822 59.9661 10.0376 60.8301C9.79816 61.4327 9.57859 62.0223 9.37891 62.599C11.1802 65.1012 13.606 67.0873 16.4145 68.3592L16.693 68.4859L16.9758 68.6001C17.1643 68.6745 17.3518 68.752 17.5413 68.8232C17.9236 68.952 18.3016 69.0944 18.6933 69.1981C19.455 69.4221 20.2311 69.5939 21.0162 69.7123C21.4068 69.7626 21.788 69.8223 22.1912 69.8464L22.4886 69.8705C22.585 69.8768 22.6918 69.8893 22.7798 69.8893L23.3264 69.9061H23.4626H23.5296H23.6239L23.9108 69.8988L24.4805 69.8841C24.6701 69.8736 24.8586 69.8579 25.0461 69.8443C25.2335 69.8307 25.421 69.8192 25.6064 69.7919C27.0543 69.6312 28.476 69.2874 29.8373 68.7687C32.2752 67.8332 34.4729 66.3643 36.2697 64.4695C37.0398 63.6535 37.7313 62.7667 38.3349 61.8209C38.8663 60.9921 39.325 60.1189 39.7057 59.211Z" fill="#262262"/>
</g>
<path d="M39.1363 54.7763C40.8406 45.9255 35.0476 37.3688 26.1971 35.6644C17.3466 33.9601 8.79029 39.7533 7.08596 48.6041C5.38163 57.4549 11.1747 66.0116 20.0252 67.716C28.8756 69.4203 37.432 63.6271 39.1363 54.7763Z" fill="#9A82B9"/>
<path style="mix-blend-mode:screen" opacity="0.69" d="M9.05029 46.4206L37.5873 54.4691C38.1251 50.872 37.3326 47.2022 35.3585 44.1475C33.3843 41.0928 30.364 38.8628 26.8636 37.8756C23.3631 36.8883 19.6228 37.2115 16.3436 38.7845C13.0643 40.3576 10.4712 43.0725 9.05029 46.4206V46.4206Z" fill="url(#paint5_linear)"/>
<path d="M39.1363 54.7763C40.8406 45.9255 35.0476 37.3688 26.1971 35.6644C17.3466 33.9601 8.79029 39.7533 7.08596 48.6041C5.38163 57.4549 11.1747 66.0116 20.0252 67.716C28.8756 69.4203 37.432 63.6271 39.1363 54.7763Z" stroke="#693F73" stroke-width="1.71469" stroke-miterlimit="10"/>
<g style="mix-blend-mode:multiply" opacity="0.25">
<path d="M59.6041 59.211C59.5088 59.0015 59.4344 58.7921 59.3559 58.591C59.2773 58.3899 59.1988 58.1878 59.138 57.9888C59.0773 57.7898 59.0103 57.596 58.9495 57.4075C58.8888 57.219 58.8448 57.0284 58.7956 56.8472C58.7705 56.7561 58.7464 56.666 58.7223 56.577C58.6982 56.488 58.6825 56.4 58.6626 56.3131C58.6249 56.1382 58.5872 55.9696 58.5516 55.8051C58.4856 55.4763 58.4416 55.1642 58.3913 54.8762C58.3411 54.5882 58.3254 54.3169 58.296 54.0708C58.2667 53.8247 58.2604 53.5901 58.2458 53.3869C58.2395 53.2822 58.2332 53.1869 58.2269 53.0968C58.2206 53.0067 58.2269 52.9303 58.2217 52.8559C58.2217 52.7082 58.2217 52.5847 58.2217 52.4852C58.2217 52.2851 58.2217 52.1825 58.2217 52.1825V52.1636C58.2217 52.1636 58.2217 52.0589 58.2332 51.8495C58.2332 51.7447 58.2416 51.617 58.2468 51.463C58.252 51.309 58.2646 51.1331 58.2835 50.932C58.3729 49.7727 58.5835 48.6259 58.9118 47.5105C58.9652 47.3303 59.0166 47.146 59.0763 46.9575C59.1359 46.769 59.2093 46.5805 59.2773 46.3846C59.3454 46.1888 59.425 45.9929 59.5067 45.7929C59.5884 45.5928 59.6669 45.3855 59.7664 45.1823C60.1659 44.2952 60.6421 43.4447 61.1896 42.6405C61.8083 41.726 62.5121 40.8722 63.2915 40.0903C63.4737 39.9081 63.6622 39.7269 63.8549 39.5488C64.3793 39.6752 64.898 39.8121 65.4112 39.9594C66.795 40.343 68.1583 40.7974 69.4955 41.3209C70.791 41.8265 72.0587 42.4009 73.2929 43.0416C74.4816 43.666 75.6353 44.3547 76.7489 45.1048C78.8411 46.5211 80.767 48.1688 82.4901 50.0167C83.2854 50.8774 84.0362 51.7782 84.7396 52.7156C84.9082 52.946 85.0821 53.1691 85.2412 53.4005L85.7188 54.0876L86.1691 54.7767C86.3189 55.0039 86.455 55.2375 86.5974 55.4648C87.1535 56.3822 87.652 57.2934 88.0961 58.1878C88.5401 59.0822 88.9266 59.9682 89.2732 60.8301C89.5141 61.4323 89.7319 62.022 89.932 62.599C88.1307 65.1012 85.7048 67.0873 82.8964 68.3592L82.6189 68.4859L82.3361 68.6001C82.1466 68.6745 81.9601 68.752 81.7706 68.8232C81.3873 68.952 81.0103 69.0944 80.6186 69.1981C79.8569 69.422 79.0808 69.5938 78.2957 69.7123C77.9051 69.7626 77.5239 69.8223 77.1207 69.8464L76.8233 69.8705C76.7259 69.8768 76.6138 69.8893 76.5311 69.8893L75.9855 69.9061H75.8493H75.7813H75.688L75.4011 69.8988L74.8314 69.8841C74.6418 69.8736 74.4533 69.8579 74.2658 69.8443C74.0784 69.8307 73.8899 69.8192 73.7045 69.7919C72.2569 69.6313 70.8356 69.2875 69.4746 68.7687C67.036 67.8335 64.8375 66.3646 63.0402 64.4695C62.2697 63.6538 61.5782 62.767 60.975 61.8209C60.4431 60.9924 59.9844 60.1191 59.6041 59.211V59.211Z" fill="#262262"/>
</g>
<path d="M81.6005 67.0906C90.1054 64.1071 94.5816 54.7936 91.5982 46.2883C88.6148 37.783 79.3016 33.3067 70.7966 36.2903C62.2916 39.2738 57.8155 48.5873 60.7989 57.0926C63.7823 65.5979 73.0955 70.0741 81.6005 67.0906Z" fill="#9A82B9"/>
<path style="mix-blend-mode:screen" opacity="0.69" d="M90.2583 46.4202L61.7223 54.4688C61.1856 50.8721 61.9786 47.2032 63.9527 44.1493C65.9269 41.0955 68.9467 38.8661 72.4465 37.879C75.9463 36.8919 79.6859 37.2147 82.9647 38.787C86.2436 40.3593 88.8367 43.0732 90.2583 46.4202V46.4202Z" fill="url(#paint6_linear)"/>
<path d="M81.6005 67.0906C90.1054 64.1071 94.5816 54.7936 91.5982 46.2883C88.6148 37.783 79.3016 33.3067 70.7966 36.2903C62.2916 39.2738 57.8155 48.5873 60.7989 57.0926C63.7823 65.5979 73.0955 70.0741 81.6005 67.0906Z" stroke="#693F73" stroke-width="1.71469" stroke-miterlimit="10"/>
<path d="M83.4378 53.326C82.9602 56.8868 81.1432 50.3935 77.8736 50.2008C74.6041 50.0081 71.1198 56.1851 71.5974 52.6243C72.0749 49.0634 75.113 46.3321 78.3826 46.5258C81.6522 46.7196 83.9153 49.7641 83.4378 53.326Z" fill="#43284A"/>
<g style="mix-blend-mode:multiply">
<path style="mix-blend-mode:multiply" d="M83.4378 53.326C82.9602 56.8868 81.1432 50.3935 77.8736 50.2008C74.6041 50.0081 71.1198 56.1851 71.5974 52.6243C72.0749 49.0634 75.113 46.3321 78.3826 46.5258C81.6522 46.7196 83.9153 49.7641 83.4378 53.326Z" fill="url(#paint7_linear)"/>
</g>
<path d="M83.4378 53.326C82.9602 56.8868 81.1432 50.3935 77.8736 50.2008C74.6041 50.0081 71.1198 56.1851 71.5974 52.6243C72.0749 49.0634 75.113 46.3321 78.3826 46.5258C81.6522 46.7196 83.9153 49.7641 83.4378 53.326Z" stroke="#43284A" stroke-width="1.92331" stroke-linecap="round" stroke-linejoin="round"/>
<path d="M15.8714 53.326C16.3489 56.8868 18.167 50.3935 21.4366 50.2008C24.7061 50.0081 28.1893 56.1851 27.7118 52.6243C27.2342 49.0634 24.1972 46.3321 20.9297 46.5258C17.6622 46.7196 15.3949 49.7641 15.8714 53.326Z" fill="#43284A"/>
<g style="mix-blend-mode:multiply">
<path style="mix-blend-mode:multiply" d="M15.8714 53.326C16.3489 56.8868 18.167 50.3935 21.4366 50.2008C24.7061 50.0081 28.1893 56.1851 27.7118 52.6243C27.2342 49.0634 24.1972 46.3321 20.9297 46.5258C17.6622 46.7196 15.3949 49.7641 15.8714 53.326Z" fill="url(#paint8_linear)"/>
</g>
<path d="M15.8714 53.326C16.3489 56.8868 18.167 50.3935 21.4366 50.2008C24.7061 50.0081 28.1893 56.1851 27.7118 52.6243C27.2342 49.0634 24.1972 46.3321 20.9297 46.5258C17.6622 46.7196 15.3949 49.7641 15.8714 53.326Z" stroke="#43284A" stroke-width="1.92331" stroke-linecap="round" stroke-linejoin="round"/>
<path d="M81.2101 72.565C79.2413 72.7745 64.4486 74.2522 49.6549 74.2522C34.8611 74.2522 20.0674 72.7766 18.1017 72.565C17.622 72.5127 17.4419 72.9284 17.4419 73.3788C17.4419 80.7288 31.7895 85.581 49.658 85.581C67.4616 85.581 81.8731 80.8681 81.8731 73.3788C81.8699 72.9284 81.6898 72.5127 81.2101 72.565Z" fill="#43284A"/>
<path style="mix-blend-mode:multiply" d="M81.2101 72.565C79.2413 72.7745 64.4486 74.2522 49.6549 74.2522C34.8611 74.2522 20.0674 72.7766 18.1017 72.565C17.622 72.5127 17.4419 72.9284 17.4419 73.3788C17.4419 80.7288 31.7895 85.581 49.658 85.581C67.4616 85.581 81.8731 80.8681 81.8731 73.3788C81.8699 72.9284 81.6898 72.5127 81.2101 72.565Z" fill="url(#paint9_linear)"/>
<path d="M38.8501 74.61C38.8501 77.488 40.3728 79.8203 42.2506 79.8203C44.1283 79.8203 45.65 77.488 45.65 74.61C45.6497 74.3301 45.635 74.0505 45.606 73.7721C43.3261 73.7292 41.0797 73.6517 38.9213 73.5532C38.8741 73.9035 38.8503 74.2565 38.8501 74.61V74.61Z" fill="#F0E8F2"/>
<path d="M31.5132 73.5876C31.5132 76.4645 33.0359 78.7969 34.9137 78.7969C36.7914 78.7969 38.3142 76.4645 38.3142 73.5876C38.3142 73.5656 38.3142 73.5436 38.3142 73.5216C35.9054 73.4074 33.6224 73.2681 31.5299 73.1226C31.5184 73.2755 31.5132 73.4305 31.5132 73.5876Z" fill="#F0E8F2"/>
<path d="M24.2505 74.7331C24.2505 77.6101 25.7722 79.9425 27.6499 79.9425C29.5277 79.9425 31.0504 77.6101 31.0504 74.7331C31.0527 74.1763 30.9951 73.6208 30.8787 73.0763C28.4438 72.9014 26.2958 72.7202 24.5657 72.561C24.3558 73.2659 24.2496 73.9977 24.2505 74.7331V74.7331Z" fill="#F0E8F2"/>
<path d="M46.2984 73.7812C46.2693 74.0564 46.2546 74.333 46.2544 74.6097C46.2544 77.4877 47.7771 79.82 49.6549 79.82C51.5326 79.82 53.0543 77.4877 53.0543 74.6097C53.0544 74.333 53.0401 74.0565 53.0114 73.7812C51.8971 73.7991 50.7755 73.8095 49.6601 73.8095C48.5448 73.8095 47.4127 73.7991 46.2984 73.7812Z" fill="#F0E8F2"/>
<path d="M53.6587 74.6097C53.6587 77.4877 55.1814 79.82 57.0592 79.82C58.9369 79.82 60.4586 77.4877 60.4586 74.6097C60.4589 74.2552 60.4354 73.9011 60.3885 73.5498C58.23 73.6483 55.9826 73.7257 53.7037 73.7687C53.6738 74.048 53.6588 74.3287 53.6587 74.6097V74.6097Z" fill="#F0E8F2"/>
<path d="M60.9971 73.5876C60.9971 76.4645 62.5187 78.7969 64.3965 78.7969C66.2743 78.7969 67.797 76.4645 67.797 73.5876C67.797 73.4305 67.797 73.2734 67.7823 73.1226C65.6878 73.2681 63.4026 73.4074 60.9981 73.5216C60.9971 73.5436 60.9971 73.5656 60.9971 73.5876Z" fill="#F0E8F2"/>
<path d="M75.0597 74.7333C75.0612 73.9971 74.9553 73.2647 74.7455 72.5591C73.0155 72.7183 70.8706 72.8995 68.4336 73.0744C68.3163 73.6195 68.258 74.1757 68.2598 74.7333C68.2598 77.6102 69.7815 79.9426 71.6592 79.9426C73.537 79.9426 75.0597 77.6123 75.0597 74.7333Z" fill="#F0E8F2"/>
<path d="M81.2101 72.565C79.2413 72.7745 64.4486 74.2522 49.6549 74.2522C34.8611 74.2522 20.0674 72.7766 18.1017 72.565C17.622 72.5127 17.4419 72.9284 17.4419 73.3788C17.4419 80.7288 31.7895 85.581 49.658 85.581C67.4616 85.581 81.8731 80.8681 81.8731 73.3788C81.8699 72.9284 81.6898 72.5127 81.2101 72.565Z" stroke="#43284A" stroke-width="1.92331" stroke-linecap="round" stroke-linejoin="round"/>
<defs>
<linearGradient id="paint0_linear" x1="53.9762" y1="36.6498" x2="63.6816" y2="28.7608" gradientUnits="userSpaceOnUse">
<stop stop-color="#9A82B9"/>
<stop offset="0.18" stop-color="#A083B9"/>
<stop offset="0.43" stop-color="#B287BA"/>
<stop offset="0.72" stop-color="#CF8DBC"/>
<stop offset="1" stop-color="#F294BE"/>
</linearGradient>
<linearGradient id="paint1_linear" x1="5836.54" y1="-49.8968" x2="8054.15" y2="-6563.85" gradientUnits="userSpaceOnUse">
<stop stop-color="#9A82B9"/>
<stop offset="0.18" stop-color="#A083B9"/>
<stop offset="0.43" stop-color="#B287BA"/>
<stop offset="0.72" stop-color="#CF8DBC"/>
<stop offset="1" stop-color="#F294BE"/>
</linearGradient>
<linearGradient id="paint2_linear" x1="3774.63" y1="13665.6" x2="3774.63" y2="387.813" gradientUnits="userSpaceOnUse">
<stop stop-color="#9A82B9"/>
<stop offset="0.18" stop-color="#A083B9"/>
<stop offset="0.43" stop-color="#B287BA"/>
<stop offset="0.72" stop-color="#CF8DBC"/>
<stop offset="1" stop-color="#F294BE"/>
</linearGradient>
<linearGradient id="paint3_linear" x1="49.9912" y1="42.6251" x2="49.9912" y2="87.9547" gradientUnits="userSpaceOnUse">
<stop stop-color="#B34D9D" stop-opacity="0"/>
<stop offset="0.26" stop-color="#B24D9D" stop-opacity="0.02"/>
<stop offset="0.42" stop-color="#B04D9D" stop-opacity="0.07"/>
<stop offset="0.55" stop-color="#AD4D9D" stop-opacity="0.16"/>
<stop offset="0.67" stop-color="#A84E9E" stop-opacity="0.29"/>
<stop offset="0.77" stop-color="#A24E9E" stop-opacity="0.45"/>
<stop offset="0.87" stop-color="#9B4E9E" stop-opacity="0.65"/>
<stop offset="0.96" stop-color="#924F9F" stop-opacity="0.89"/>
<stop offset="1" stop-color="#8E4F9F"/>
</linearGradient>
<linearGradient id="paint4_linear" x1="49.8726" y1="57.3775" x2="49.8726" y2="40.3179" gradientUnits="userSpaceOnUse">
<stop stop-color="#53AFA8" stop-opacity="0"/>
<stop offset="0.32" stop-color="#98CFCB" stop-opacity="0.2"/>
<stop offset="0.62" stop-color="#D0E9E7" stop-opacity="0.36"/>
<stop offset="0.86" stop-color="#F2F9F9" stop-opacity="0.46"/>
<stop offset="1" stop-color="white" stop-opacity="0.5"/>
</linearGradient>
<linearGradient id="paint5_linear" x1="4733.58" y1="7440.94" x2="4733.58" y2="5480.5" gradientUnits="userSpaceOnUse">
<stop stop-color="#53AFA8" stop-opacity="0"/>
<stop offset="0.32" stop-color="#98CFCB" stop-opacity="0.2"/>
<stop offset="0.62" stop-color="#D0E9E7" stop-opacity="0.36"/>
<stop offset="0.86" stop-color="#F2F9F9" stop-opacity="0.46"/>
<stop offset="1" stop-color="white" stop-opacity="0.5"/>
</linearGradient>
<linearGradient id="paint6_linear" x1="164280" y1="7439.3" x2="164280" y2="5479.29" gradientUnits="userSpaceOnUse">
<stop stop-color="#53AFA8" stop-opacity="0"/>
<stop offset="0.32" stop-color="#98CFCB" stop-opacity="0.2"/>
<stop offset="0.62" stop-color="#D0E9E7" stop-opacity="0.36"/>
<stop offset="0.86" stop-color="#F2F9F9" stop-opacity="0.46"/>
<stop offset="1" stop-color="white" stop-opacity="0.5"/>
</linearGradient>
<linearGradient id="paint7_linear" x1="77.528" y1="53.7083" x2="77.528" y2="46.8149" gradientUnits="userSpaceOnUse">
<stop stop-color="#B34D9D" stop-opacity="0"/>
<stop offset="1" stop-color="#262262"/>
</linearGradient>
<linearGradient id="paint8_linear" x1="1797.71" y1="3859.94" x2="1797.71" y2="3341.61" gradientUnits="userSpaceOnUse">
<stop stop-color="#B34D9D" stop-opacity="0"/>
<stop offset="1" stop-color="#262262"/>
</linearGradient>
<linearGradient id="paint9_linear" x1="26775.1" y1="10509.5" x2="26775.1" y2="8920.97" gradientUnits="userSpaceOnUse">
<stop stop-color="#B34D9D" stop-opacity="0"/>
<stop offset="1" stop-color="#262262"/>
</linearGradient>
</defs>
</svg>
