<svg width="100" height="100" viewBox="0 0 100 100" fill="none" xmlns="http://www.w3.org/2000/svg">
<path d="M56.6317 9.36171C56.6317 9.36171 59.6051 10.9471 64.163 8.27186C68.7209 5.59657 74.9659 6.91486 76.8475 9.03166C76.8475 9.03166 71.3972 8.86905 69.4149 11.1485C69.4149 11.1485 89.7294 9.56304 93 31.3631C93 31.3631 83.4864 26.3097 80.8111 31.8587C80.8111 31.8587 91.3158 36.8124 90.3247 45.2854C90.3247 45.2854 87.3513 42.1649 85.0728 43.2528C85.0728 43.2528 90.0275 53.4593 80.7172 64.657C80.7172 64.657 81.8071 53.3606 78.4378 49.6942C78.4378 49.6942 81.6087 61.6846 76.6539 68.5218C71.6992 75.3591 67.8827 75.3213 64.9606 76.749C60.8954 78.7303 56.6366 85.0729 56.6366 85.0729H44.3683C44.3683 85.0729 40.1095 78.7303 36.0442 76.749C33.1231 75.3233 29.3057 75.361 24.3509 68.5218C19.3962 61.6826 22.5671 49.6942 22.5671 49.6942C19.1978 53.3625 20.2886 64.6589 20.2886 64.6589C10.9734 53.4613 15.933 43.2547 15.933 43.2547C13.6536 42.1649 10.6811 45.2873 10.6811 45.2873C9.68997 36.8143 20.1937 31.8606 20.1937 31.8606C17.5136 26.3097 8 31.3631 8 31.3631C11.2706 9.56304 31.5851 11.1485 31.5851 11.1485C29.6028 8.86905 24.1506 9.03166 24.1506 9.03166C26.0341 6.91486 32.281 5.59851 36.8302 8.27476C41.3794 10.951 44.3683 9.26492 44.3683 9.26492L56.6317 9.36171Z" fill="#E7ECF7"/>
<path opacity="0.28" d="M56.2446 11.6741C56.2446 11.6741 59.0293 13.1598 63.2997 10.653C67.5701 8.14608 73.4173 9.37919 75.1828 11.3624C75.1828 11.3624 70.077 11.2105 68.2206 13.3457C68.2206 13.3457 87.2516 11.8599 90.3151 32.2836C90.3151 32.2836 81.4026 27.5486 78.8937 32.7473C78.8937 32.7473 88.7335 37.3883 87.8053 45.33C87.8053 45.33 85.1542 41.4845 83.019 42.5056C83.019 42.5056 87.5265 52.989 78.8008 63.4791C78.8008 63.4791 80.9002 52.9212 77.7439 49.4861C77.7439 49.4861 79.6361 60.6945 74.994 67.102C70.3519 73.5095 66.7765 73.4717 64.0402 74.8074C60.2334 76.6639 56.2417 82.6049 56.2417 82.6049H44.7555C44.7555 82.6049 40.7638 76.6639 36.958 74.8074C34.2169 73.4659 30.6453 73.5017 26.0032 67.0962C21.3611 60.6906 23.0598 49.5771 23.0598 49.5771C19.9034 53.0122 22.1974 63.4733 22.1974 63.4733C13.4707 52.9851 18.1941 42.6102 18.1941 42.6102C16.0589 41.5929 13.1919 45.3261 13.1919 45.3261C12.2637 37.3893 22.1045 32.7434 22.1045 32.7434C19.5976 27.5448 10.6831 32.2798 10.6831 32.2798C13.7475 11.857 32.7786 13.3418 32.7786 13.3418C30.926 11.2105 25.8174 11.3624 25.8174 11.3624C27.5819 9.37919 33.43 8.14705 37.7014 10.653C41.9728 13.1588 44.7565 11.5812 44.7565 11.5812L56.2446 11.6741Z" fill="url(#paint0_linear)"/>
<path opacity="0.67" d="M56.2446 11.6741C56.2446 11.6741 59.0293 13.1598 63.2997 10.653C67.5701 8.14608 73.4173 9.37919 75.1828 11.3624C75.1828 11.3624 70.077 11.2105 68.2206 13.3457C68.2206 13.3457 87.2516 11.8599 90.3151 32.2836C90.3151 32.2836 81.4026 27.5486 78.8937 32.7473C78.8937 32.7473 88.7335 37.3883 87.8053 45.33C87.8053 45.33 85.1542 41.4845 83.019 42.5056C83.019 42.5056 87.5265 52.989 78.8008 63.4791C78.8008 63.4791 80.9002 52.9212 77.7439 49.4861C77.7439 49.4861 79.6361 60.6945 74.994 67.102C70.3519 73.5095 66.7765 73.4717 64.0402 74.8074C60.2334 76.6639 56.2417 82.6049 56.2417 82.6049H44.7555C44.7555 82.6049 40.7638 76.6639 36.958 74.8074C34.2169 73.4659 30.6453 73.5017 26.0032 67.0962C21.3611 60.6906 23.0598 49.5771 23.0598 49.5771C19.9034 53.0122 22.1974 63.4733 22.1974 63.4733C13.4707 52.9851 18.1941 42.6102 18.1941 42.6102C16.0589 41.5929 13.1919 45.3261 13.1919 45.3261C12.2637 37.3893 22.1045 32.7434 22.1045 32.7434C19.5976 27.5448 10.6831 32.2798 10.6831 32.2798C13.7475 11.857 32.7786 13.3418 32.7786 13.3418C30.926 11.2105 25.8174 11.3624 25.8174 11.3624C27.5819 9.37919 33.43 8.14705 37.7014 10.653C41.9728 13.1588 44.7565 11.5812 44.7565 11.5812L56.2446 11.6741Z" fill="url(#paint1_linear)"/>
<path d="M55.5351 9.36171C55.5351 9.36171 59.6003 10.9471 64.163 8.27186C68.7258 5.59657 74.9659 6.91486 76.8475 9.03166C76.8475 9.03166 71.3972 8.86905 69.4149 11.1485C69.4149 11.1485 89.7294 9.56304 93 31.3631C93 31.3631 83.4864 26.3097 80.8111 31.8587C80.8111 31.8587 91.3158 36.8124 90.3247 45.2854C90.3247 45.2854 87.3513 42.1649 85.0728 43.2528C85.0728 43.2528 90.0275 53.4593 80.7172 64.657C80.7172 64.657 81.8071 53.3606 78.4378 49.6942C78.4378 49.6942 81.6087 61.6846 76.6539 68.5218C71.6992 75.3591 67.8827 75.3213 64.9606 76.749C60.8954 78.7303 56.6366 85.0729 56.6366 85.0729H44.3683C44.3683 85.0729 40.1095 78.7303 36.0442 76.749C33.1231 75.3233 29.3057 75.361 24.3509 68.5218C19.3962 61.6826 22.5671 49.6942 22.5671 49.6942C19.1978 53.3625 20.2886 64.6589 20.2886 64.6589C10.9734 53.4613 15.933 43.2547 15.933 43.2547C13.6536 42.1649 10.6811 45.2873 10.6811 45.2873C9.68997 36.8143 20.1937 31.8606 20.1937 31.8606C17.5136 26.3097 8 31.3631 8 31.3631C11.2706 9.56304 31.5851 11.1485 31.5851 11.1485C29.6028 8.86905 24.1506 9.03166 24.1506 9.03166C26.0341 6.91486 32.281 5.59851 36.8302 8.27476C41.3794 10.951 45.4262 9.26492 45.4262 9.26492L55.5351 9.36171Z" stroke="#8595AF" stroke-width="1.80428" stroke-linecap="round" stroke-linejoin="round"/>
<path d="M66.1765 42.5085C71.8639 37.4425 72.8115 32.5129 72.8115 32.5129C72.8115 32.5129 70.4605 26.5691 62.6485 16.9975C60.9062 14.8574 59.4031 12.5742 56.5584 10.0586C53.734 7.55655 52.9761 5.94112 52.5812 5.2965C52.5542 5.25149 52.5155 5.21463 52.4693 5.18986C52.423 5.16508 52.3709 5.1533 52.3185 5.15579C52.266 5.15827 52.2153 5.17491 52.1715 5.20395C52.1278 5.23299 52.0928 5.27334 52.0702 5.3207C51.9298 5.61881 51.5427 6.74835 51.201 7.66302C51.1879 7.69922 51.1626 7.72967 51.1293 7.74901C51.096 7.76835 51.057 7.77534 51.0191 7.76875C50.9812 7.76216 50.9468 7.74242 50.922 7.71299C50.8972 7.68356 50.8836 7.64633 50.8835 7.60785C50.8651 5.69431 50.0656 3.74205 49.7036 3.13614C49.6774 3.09175 49.6394 3.05556 49.5937 3.03163C49.5481 3.0077 49.4966 2.997 49.4452 3.00072C49.3938 3.00445 49.3445 3.02245 49.3027 3.0527C49.261 3.08295 49.2285 3.12425 49.209 3.17195C48.7783 4.20374 47.6604 6.87515 44.3888 10.0586C31.2765 22.8049 28.5635 31.5005 28.1744 32.4297C28.1513 32.4844 28.1462 32.5451 28.1599 32.603C28.3176 33.2873 29.5237 37.7967 34.6981 42.4397C34.7474 42.4842 34.7795 42.5444 34.7891 42.6101" fill="#4D4C68"/>
<path opacity="0.19" d="M65.7429 42.2578C71.3084 37.7784 72.2356 33.4209 72.2356 33.4209C72.2356 33.4209 69.933 28.1652 62.2952 19.7028C60.5868 17.8105 59.1195 15.7925 56.3358 13.5682C53.5675 11.3566 52.8251 9.92795 52.4399 9.36173C52.4108 9.3215 52.3722 9.28912 52.3276 9.26747C52.2829 9.24583 52.2336 9.23561 52.184 9.23772C52.1344 9.23983 52.0861 9.25421 52.0434 9.27956C52.0008 9.30492 51.9651 9.34047 51.9395 9.38302C51.803 9.63661 51.171 10.7923 50.6686 11.7215C50.5593 11.9257 50.2166 11.8492 50.2263 11.6247C50.2999 9.88246 49.964 7.96698 49.6223 7.45205C49.5942 7.41236 49.5564 7.38055 49.5124 7.35964C49.4685 7.33874 49.42 7.32945 49.3714 7.33265C49.3229 7.33585 49.276 7.35145 49.2352 7.37794C49.1944 7.40444 49.161 7.44095 49.1384 7.484C48.7164 8.39576 47.6265 10.7584 44.4227 13.5721C31.5921 24.8414 28.9361 32.5294 28.5567 33.3512C28.5336 33.3987 28.5285 33.453 28.5422 33.5041C28.6971 34.109 29.8769 38.0958 34.9401 42.2007C34.9879 42.2379 35.0197 42.2919 35.0291 42.3517" fill="url(#paint2_linear)"/>
<path d="M63.0317 70.0703H37.9318C37.9318 70.0703 35.9592 80.3252 43.9774 89.2135C43.9774 89.2135 44.6752 85.3419 46.07 84.8841C46.07 84.8841 45.9587 91.2587 50.3598 96.343V96.6199C50.4014 96.5744 50.4411 96.5231 50.4817 96.4824L50.6037 96.6199V96.343C55.0058 91.2587 54.8935 84.8841 54.8935 84.8841C56.2853 85.3419 56.9861 89.2135 56.9861 89.2135C65.0081 80.3252 63.0317 70.0703 63.0317 70.0703Z" fill="#E7ECF7"/>
<path opacity="0.28" d="M61.0638 70.0054H39.2432C39.2432 70.0054 37.5232 77.3837 43.3152 85.6167C43.3152 85.6167 44.5977 83.3982 46.5093 82.6239C46.5928 82.59 46.6832 82.5768 46.7729 82.5854C46.8626 82.594 46.9488 82.6241 47.0243 82.6733C47.0998 82.7224 47.1623 82.7891 47.2065 82.8677C47.2506 82.9462 47.2751 83.0343 47.2778 83.1243C47.333 84.914 47.7347 89.6954 50.3751 93.5322C50.3751 93.5322 50.4487 93.6977 50.4845 93.657C50.5213 93.6977 50.5939 93.5322 50.5939 93.5322C53.2818 88.925 53.7425 84.6004 53.818 83.0295C53.8227 82.9423 53.8476 82.8575 53.8909 82.7817C53.9342 82.706 53.9946 82.6414 54.0673 82.5932C54.14 82.5449 54.223 82.5143 54.3096 82.5039C54.3962 82.4934 54.4841 82.5034 54.5662 82.5329C56.3743 83.1708 57.2763 85.9971 57.2763 85.9971C63.9675 78.3903 61.0638 70.0054 61.0638 70.0054Z" fill="url(#paint3_linear)"/>
<path d="M63.0317 70.0703H37.9318C37.9318 70.0703 35.9592 80.3252 43.9774 89.2135C43.9774 89.2135 44.6752 85.3419 46.07 84.8841C46.07 84.8841 45.9587 91.2587 50.3598 96.343C50.3598 96.343 50.4411 96.5279 50.4817 96.4824C50.5224 96.5279 50.6037 96.343 50.6037 96.343C55.0058 91.2587 54.8935 84.8841 54.8935 84.8841C56.2853 85.3419 56.9861 89.2135 56.9861 89.2135C65.0081 80.3252 63.0317 70.0703 63.0317 70.0703Z" stroke="#8595AF" stroke-width="1.80428" stroke-linecap="round" stroke-linejoin="round"/>
<g style="mix-blend-mode:multiply" opacity="0.23">
<path d="M37.7168 68.5848C38.2433 71.6511 37.5358 68.9109 37.9104 72.8435C37.9177 72.8959 37.9395 72.9452 37.9733 72.9858C38.4437 73.5879 42.3289 78.2686 50.2658 79.3682L50.5978 79.4117C59.309 78.3296 63.0344 72.9268 63.0344 72.9268C63.712 69.1674 60.6611 68.1976 61.1528 65.3549C51.5918 64.5486 47.2556 67.7737 37.7168 68.5848Z" fill="#22293D"/>
<path d="M37.7168 68.5848C38.2433 71.6511 37.5358 68.9109 37.9104 72.8435C37.9177 72.8959 37.9395 72.9452 37.9733 72.9858C38.4437 73.5879 42.3289 78.2686 50.2658 79.3682L50.5978 79.4117C59.309 78.3296 63.0344 72.9268 63.0344 72.9268C63.712 69.1674 60.6611 68.1976 61.1528 65.3549C51.5918 64.5486 47.2556 67.7737 37.7168 68.5848Z" stroke="#22293D" stroke-width="1.7617" stroke-linecap="round" stroke-linejoin="round"/>
</g>
<path d="M33.6553 45.166C33.783 46.1271 34.7616 53.2296 37.9083 70.6218C37.9175 70.6736 37.939 70.7225 37.9712 70.7641C38.4416 71.3661 42.3268 76.0469 50.2637 77.1465L50.5957 77.19C59.3068 76.1079 63.0323 70.7051 63.0323 70.7051C66.4433 51.8552 67.3144 45.0557 67.3144 45.0557" fill="#CE8E8E"/>
<path d="M35.6328 46.2812C35.7461 47.1746 36.6094 53.7806 39.3864 69.9581C39.3941 70.0061 39.4134 70.0516 39.4425 70.0907C39.8568 70.6511 43.2871 75.0047 50.2831 76.0268H50.288C50.4757 76.0539 50.6664 76.0539 50.8542 76.0268C56.8688 75.1557 60.1219 71.8126 61.1702 70.532C61.4174 70.2268 61.5812 69.8626 61.6454 69.4751C64.5782 52.3616 65.3303 46.1719 65.3303 46.1719" fill="url(#paint4_linear)"/>
<path d="M49.0813 37.4869C47.9295 39.9066 29.9689 32.3947 29.7125 30.8906C28.7716 31.1278 28.0825 32.1111 27.3691 32.6871C27.4272 32.9435 29.4376 43.8702 37.7606 49.0543C39.5426 50.1635 41.8452 49.8634 43.4287 48.4735C45.833 46.3654 49.0426 42.7571 49.0813 38.4799V37.4869Z" fill="#5380C1"/>
<path d="M51.6953 37.4869C52.8471 39.9066 70.8077 32.3947 71.0642 30.8906C72.005 31.1278 72.6941 32.1111 73.4085 32.6871C73.3504 32.9435 71.3391 43.8702 63.017 49.0543C61.235 50.1635 58.9324 49.8634 57.3489 48.4735C54.9436 46.3654 51.735 42.7571 51.6953 38.4799V37.4869Z" fill="#5380C1"/>
<path d="M49.1917 37.061C48.1589 38.8032 29.9689 32.3947 29.7125 30.8906C28.7716 31.1278 28.0825 32.1111 27.3691 32.6871C27.4272 32.9435 29.4376 43.8702 37.7606 49.0543C39.5426 50.1635 41.8452 49.8634 43.4287 48.4735C45.833 46.3654 49.0426 42.7571 49.0813 38.4799L49.1917 37.061Z" fill="url(#paint5_linear)"/>
<path d="M51.6953 37.4869C52.8471 39.9066 70.8077 32.3947 71.0642 30.8906C72.005 31.1278 72.6941 32.1111 73.4085 32.6871C73.3504 32.9435 71.3391 43.8702 63.017 49.0543C61.235 50.1635 58.9324 49.8634 57.3489 48.4735C54.9436 46.3654 51.735 42.7571 51.6953 38.4799V37.4869Z" fill="url(#paint6_linear)"/>
<g style="mix-blend-mode:multiply">
<path style="mix-blend-mode:multiply" d="M47.8217 42.6826L47.7888 42.7106L47.7424 42.7503C47.7259 42.7639 47.7075 42.7803 47.6853 42.7977C47.5991 42.8694 47.4752 42.9671 47.3155 43.0881C47.1558 43.2091 46.9593 43.3446 46.729 43.4946C46.4986 43.6447 46.2373 43.8063 45.9421 43.967C45.6468 44.1276 45.3216 44.2932 44.9742 44.4509C44.797 44.5274 44.616 44.6077 44.4263 44.6774C44.2366 44.7471 44.0391 44.8197 43.8456 44.8874C43.7488 44.9233 43.6433 44.9494 43.5416 44.9842C43.44 45.0191 43.3364 45.0481 43.2309 45.0733C43.0199 45.1236 42.8089 45.1817 42.5902 45.2204C42.1516 45.3085 41.7076 45.3676 41.2612 45.3975C41.149 45.4043 41.0367 45.4053 40.9244 45.4101C40.8121 45.415 40.6999 45.4208 40.5876 45.415C40.364 45.4053 40.1414 45.4101 39.9217 45.384L39.5926 45.354C39.4842 45.3443 39.3767 45.322 39.2702 45.3075L38.9518 45.2572L38.6421 45.1885L38.3391 45.1197L38.0487 45.0336L37.7584 44.9494C37.6616 44.9184 37.5754 44.8826 37.4864 44.8526C37.1244 44.7297 36.8001 44.5719 36.4982 44.4374L36.079 44.2148L35.8855 44.1122L35.7093 44.0028L35.3909 43.8092C35.3425 43.7782 35.2941 43.7502 35.2505 43.7211L35.1276 43.634L34.6378 43.2865C34.5608 43.2352 34.5074 43.1554 34.4892 43.0646C34.471 42.9738 34.4897 42.8796 34.541 42.8026C34.5924 42.7256 34.6722 42.6721 34.763 42.654C34.8537 42.6358 34.948 42.6545 35.025 42.7058L35.0443 42.7174L35.5283 43.0155L35.6493 43.0901C35.6919 43.1152 35.7383 43.1384 35.7858 43.1646L36.0936 43.3291L36.263 43.4201L36.4488 43.5043L36.8466 43.6853C37.1321 43.7908 37.437 43.9176 37.7719 44.0086C37.8542 44.0328 37.9384 44.0599 38.0236 44.0831L38.2859 44.1431L38.554 44.2041L38.8299 44.2486L39.1096 44.2932L39.3999 44.3193C39.4967 44.327 39.5935 44.3415 39.6903 44.3425L39.9807 44.3512C40.1743 44.3628 40.3746 44.3454 40.5721 44.3425C40.6689 44.3425 40.7657 44.327 40.8692 44.3193C40.9728 44.3115 41.0628 44.3028 41.1654 44.2902C41.5572 44.2391 41.9451 44.1625 42.3269 44.0609C42.5205 44.0154 42.7015 43.9515 42.8844 43.8953C42.9764 43.8673 43.0654 43.8315 43.1545 43.7986C43.2435 43.7656 43.3335 43.7366 43.4187 43.7018C43.592 43.6301 43.7623 43.5624 43.9249 43.484C44.0875 43.4056 44.2453 43.3291 44.3982 43.2527C44.7022 43.092 44.9838 42.9303 45.2345 42.7687C45.4852 42.6071 45.7117 42.4503 45.9072 42.307C46.1027 42.1638 46.2653 42.0312 46.396 41.9199C46.5267 41.8085 46.6264 41.7205 46.6864 41.6614L46.728 41.6217L46.7522 41.5975L46.7774 41.5733L46.7822 41.5685C46.9284 41.4304 47.1229 41.355 47.324 41.3585C47.525 41.362 47.7168 41.4441 47.8581 41.5872C47.9994 41.7303 48.0791 41.923 48.0801 42.1241C48.0811 42.3252 48.0033 42.5187 47.8634 42.6632L47.8217 42.6826Z" fill="url(#paint7_linear)"/>
</g>
<g style="mix-blend-mode:multiply">
<path style="mix-blend-mode:multiply" d="M47.7182 46.3626L47.6824 46.3858L47.5691 46.4555C47.4723 46.5136 47.3397 46.592 47.1665 46.6868C46.9932 46.7817 46.7793 46.8901 46.5363 47.0053C46.2934 47.1205 46.0108 47.2453 45.7001 47.3673C45.3894 47.4892 45.0496 47.6083 44.6857 47.7235C44.3218 47.8387 43.9307 47.9403 43.5242 48.0196C43.3209 48.0661 43.1099 48.0971 42.898 48.1319C42.7925 48.1513 42.6841 48.16 42.5757 48.1745C42.4672 48.189 42.3598 48.2036 42.2504 48.2094C42.0307 48.2248 41.81 48.2471 41.5874 48.2471C41.4761 48.2471 41.3638 48.2539 41.2525 48.2529L40.9176 48.2432L40.7492 48.2374C40.694 48.2374 40.6379 48.2287 40.5827 48.2239L40.2488 48.1948C40.0271 48.1687 39.8074 48.1339 39.5906 48.098L39.2683 48.0293C39.1618 48.0061 39.0554 47.9858 38.9518 47.9538L38.643 47.8667C38.5917 47.8522 38.5404 47.8387 38.4901 47.8232L38.342 47.7699C38.1484 47.6973 37.949 47.6373 37.7661 47.5512L37.4941 47.4321L37.3606 47.3731L37.2328 47.3063C37.0644 47.2163 36.8969 47.1369 36.743 47.045L36.3026 46.774C36.1632 46.6849 36.0384 46.5872 35.9155 46.501C35.7925 46.4149 35.6686 46.3355 35.5719 46.2445L35.2815 46.0064L35.1537 45.8999C35.114 45.8651 35.0792 45.8293 35.0443 45.7973L34.6097 45.3841C34.5439 45.3219 34.5048 45.2365 34.5008 45.146C34.4968 45.0555 34.5283 44.967 34.5884 44.8992C34.6486 44.8315 34.7328 44.7899 34.8231 44.7832C34.9135 44.7765 35.0029 44.8052 35.0724 44.8633L35.0918 44.8788L35.5215 45.2398C35.5564 45.2679 35.5912 45.2989 35.6299 45.3289L35.7548 45.4199L36.0345 45.6241C36.1313 45.6996 36.2445 45.7673 36.3617 45.8409C36.4788 45.9145 36.5988 45.9948 36.7314 46.0674L37.1457 46.289C37.2899 46.3636 37.4457 46.4255 37.6016 46.4971L37.7196 46.5504L37.8435 46.5959L38.0942 46.6868C38.2607 46.7546 38.4407 46.7953 38.6188 46.8495L38.7534 46.8891L38.8918 46.9191L39.1705 46.9792C39.2673 47.0024 39.3593 47.014 39.4551 47.0285L39.7455 47.0711C39.9391 47.0905 40.1326 47.1089 40.333 47.1195L40.6292 47.1272H40.7773H40.9263L41.2235 47.1185C41.3203 47.1118 41.4171 47.1021 41.5187 47.0943C41.7123 47.0818 41.9117 47.0488 42.1052 47.0237C42.202 47.013 42.2988 46.9908 42.3956 46.9743C42.4924 46.9579 42.5892 46.9424 42.6802 46.9191C42.867 46.8756 43.0519 46.8369 43.2319 46.7836C43.5939 46.6868 43.9356 46.5707 44.2579 46.4536C44.5802 46.3365 44.8793 46.2068 45.1493 46.0771C45.4194 45.9474 45.6643 45.8244 45.8762 45.7064C46.0882 45.5883 46.2692 45.4808 46.4154 45.3899C46.5615 45.2989 46.6719 45.2243 46.7435 45.174L46.819 45.1208L46.847 45.1005L46.8529 45.0956C47.0178 44.9924 47.2157 44.9556 47.4067 44.9924C47.5978 45.0293 47.7678 45.1372 47.8825 45.2943C47.9972 45.4515 48.0481 45.6462 48.025 45.8394C48.0018 46.0326 47.9064 46.2099 47.7578 46.3355C47.7453 46.3452 47.7307 46.3549 47.7182 46.3626Z" fill="url(#paint8_linear)"/>
</g>
<g style="mix-blend-mode:multiply">
<path style="mix-blend-mode:multiply" d="M53.8489 41.5597L53.8731 41.5839L53.8983 41.6081L53.9389 41.6478C54.0028 41.7069 54.1015 41.7959 54.2293 41.9063C54.3571 42.0166 54.5255 42.1482 54.7191 42.2934C54.9126 42.4386 55.1372 42.5964 55.3908 42.7551C55.6444 42.9138 55.9241 43.0794 56.2271 43.2391C56.38 43.3155 56.5368 43.3978 56.7013 43.4704C56.8659 43.543 57.0343 43.6165 57.2066 43.6882C57.2927 43.7259 57.3818 43.7549 57.4708 43.7849C57.5599 43.815 57.6489 43.8527 57.7409 43.8817C57.9238 43.9379 58.1087 44.0018 58.2994 44.0472C58.6811 44.1488 59.0691 44.2254 59.4608 44.2766C59.5576 44.2892 59.6544 44.296 59.758 44.3057C59.8616 44.3154 59.9516 44.3289 60.0542 44.3289C60.2478 44.3289 60.4501 44.3492 60.6456 44.3376L60.9359 44.3289C61.0327 44.3289 61.1295 44.3134 61.2263 44.3057L61.5167 44.2795L61.7964 44.235L62.0723 44.1905L62.3394 44.1295L62.6017 44.0695C62.6879 44.0463 62.7711 44.0192 62.8543 43.995C63.1892 43.904 63.4932 43.7772 63.7787 43.6717L64.1775 43.4907L64.3624 43.4065L64.5327 43.3155L64.8405 43.151C64.8879 43.1248 64.9373 43.1016 64.977 43.0764L65.097 43.0019L65.5809 42.7038L65.6003 42.6922C65.6773 42.6408 65.7716 42.6222 65.8623 42.6404C65.9531 42.6585 66.0329 42.712 66.0843 42.789C66.1356 42.866 66.1542 42.9602 66.1361 43.051C66.1179 43.1418 66.0645 43.2216 65.9875 43.2729L65.4948 43.6252L65.3709 43.7124C65.3274 43.7414 65.2741 43.7695 65.2306 43.8004L64.9121 43.994L64.736 44.1092L64.5424 44.2118L64.1233 44.4344C63.8213 44.5689 63.498 44.7248 63.136 44.8496C63.046 44.8826 62.956 44.9184 62.8631 44.9464L62.5727 45.0306L62.2823 45.1168L61.9784 45.1855L61.6687 45.2542L61.3512 45.3046C61.2437 45.3191 61.1373 45.3413 61.0279 45.351L60.6998 45.381C60.4801 45.4072 60.2565 45.4023 60.0329 45.412C59.9206 45.4178 59.8093 45.412 59.697 45.4072C59.5847 45.4023 59.4715 45.4013 59.3592 45.3946C58.9128 45.3646 58.4689 45.3054 58.0303 45.2174C57.8125 45.1787 57.6005 45.1207 57.3895 45.0703C57.284 45.0452 57.1824 45.0113 57.0798 44.9813C56.9772 44.9513 56.8746 44.9242 56.7759 44.8845C56.5765 44.8167 56.38 44.7509 56.1951 44.6745C56.0102 44.598 55.8254 44.5244 55.6482 44.448C55.2969 44.2892 54.9707 44.1276 54.6803 43.964C54.39 43.8004 54.1228 43.6407 53.8925 43.4917C53.6621 43.3426 53.4666 43.2013 53.3069 43.0852C53.1472 42.969 53.0223 42.8683 52.9362 42.7948L52.8791 42.7474L52.8326 42.7077L52.8007 42.6796C52.6466 42.5456 52.5521 42.3559 52.538 42.1522C52.5238 41.9486 52.5912 41.7476 52.7252 41.5936C52.8592 41.4396 53.0489 41.3451 53.2525 41.331C53.4562 41.3168 53.6571 41.3841 53.8112 41.5181C53.8228 41.5278 53.8344 41.5375 53.845 41.5481L53.8489 41.5597Z" fill="url(#paint9_linear)"/>
</g>
<g style="mix-blend-mode:multiply">
<path style="mix-blend-mode:multiply" d="M53.7754 45.0988L53.8034 45.1191L53.8789 45.1723C53.9505 45.2227 54.0619 45.2972 54.207 45.3882C54.3522 45.4792 54.5332 45.5885 54.7462 45.7047C54.9591 45.8208 55.2021 45.9486 55.474 46.0754C55.746 46.2022 56.0441 46.328 56.3645 46.4519C56.6849 46.5758 57.0295 46.689 57.3905 46.782C57.5705 46.8352 57.7564 46.8739 57.9432 46.9175C58.04 46.9407 58.1368 46.9533 58.2268 46.9726C58.3168 46.992 58.4204 47.0114 58.5171 47.022C58.7107 47.0472 58.9043 47.0801 59.1027 47.0927C59.1995 47.1004 59.2963 47.1101 59.3989 47.1169L59.6961 47.1256H59.8442H59.9922L60.2894 47.1178C60.483 47.1072 60.6766 47.0888 60.8759 47.0694L61.1663 47.0268C61.2631 47.0123 61.3599 47.0007 61.4499 46.9775L61.7296 46.9175L61.8671 46.8875L62.0016 46.8478C62.1797 46.7936 62.3598 46.751 62.5272 46.6852L62.7779 46.5942L62.9008 46.5487L63.0189 46.4955C63.1747 46.4238 63.3315 46.3619 63.4748 46.2874L63.89 46.0657C64.0226 45.9931 64.1417 45.9109 64.2598 45.8392C64.3778 45.7676 64.4892 45.6979 64.5869 45.6224L64.8666 45.4182L64.9915 45.3272C65.0302 45.2972 65.0651 45.2662 65.0989 45.2382L65.5297 44.8771L65.5471 44.8626C65.616 44.801 65.7066 44.7693 65.7989 44.7745C65.8912 44.7796 65.9777 44.8213 66.0393 44.8902C66.1009 44.9591 66.1326 45.0497 66.1274 45.142C66.1222 45.2343 66.0806 45.3208 66.0117 45.3824L65.5771 45.7976C65.5422 45.8295 65.5064 45.8654 65.4667 45.9002L65.339 46.0067L65.0486 46.2448C64.9518 46.3329 64.8308 46.4142 64.7089 46.5022C64.5869 46.5903 64.4601 46.6861 64.3217 46.7752L63.8813 47.0462C63.7284 47.143 63.5609 47.2175 63.3925 47.3075L63.2647 47.3743L63.1312 47.4334L62.8582 47.5524C62.6763 47.6386 62.4798 47.6986 62.2833 47.7712L62.1342 47.8244C62.0839 47.8399 62.0374 47.8534 61.9823 47.8679L61.6725 47.9551C61.569 47.987 61.4625 48.0073 61.356 48.0306L61.0347 48.0993C60.8169 48.1341 60.5972 48.169 60.3765 48.1961L60.0426 48.2251C59.9864 48.2299 59.9313 48.2358 59.8751 48.2387L59.7077 48.2445L59.3718 48.2541C59.2605 48.2541 59.1492 48.2541 59.0379 48.2483C58.8143 48.2483 58.5946 48.2261 58.3749 48.2106C58.2645 48.2048 58.1571 48.1874 58.0487 48.1757C57.9403 48.1641 57.8328 48.1525 57.7264 48.1332C57.5154 48.0983 57.3044 48.0673 57.1011 48.0209C56.6907 47.9415 56.3026 47.8331 55.9396 47.7247C55.5766 47.6163 55.233 47.4934 54.9243 47.3685C54.6155 47.2437 54.3338 47.1227 54.089 47.0065C53.8441 46.8904 53.6321 46.781 53.4579 46.6881C53.2837 46.5952 53.1501 46.5148 53.0552 46.4567L52.942 46.3871L52.9062 46.3638C52.8183 46.3106 52.742 46.2404 52.6817 46.1572C52.6214 46.074 52.5783 45.9796 52.5551 45.8796C52.5319 45.7795 52.5289 45.6758 52.5464 45.5746C52.5639 45.4734 52.6014 45.3767 52.6569 45.2902C52.7123 45.2037 52.7846 45.1292 52.8693 45.0711C52.954 45.013 53.0494 44.9724 53.1501 44.9518C53.2507 44.9311 53.3544 44.9308 53.4552 44.9509C53.5559 44.971 53.6516 45.0111 53.7366 45.0688L53.7734 45.0939L53.7754 45.0988Z" fill="url(#paint10_linear)"/>
</g>
<path d="M51.4591 29.076C51.4591 29.076 49.7653 41.74 59.82 42.9547C70.4563 44.2401 72.456 30.6198 72.456 30.6198C54.178 10.7052 51.4591 29.076 51.4591 29.076Z" fill="#302868"/>
<path d="M28.3184 30.6198C28.3184 30.6198 30.3171 44.2401 40.9535 42.9547C51.0081 41.74 49.3162 29.076 49.3162 29.076C49.3162 29.076 46.5954 10.7052 28.3184 30.6198Z" fill="#302868"/>
<g style="mix-blend-mode:multiply" opacity="0.31">
<path d="M74.8023 32.1017C74.5994 31.3748 74.3338 30.6669 74.0087 29.9859C72.4716 26.695 66.278 16.7595 58.9373 17.8252C58.8818 17.8329 58.8259 17.8368 58.7699 17.8368C56.9192 17.8368 55.0424 18.9441 53.5432 20.1946C52.6958 20.9306 51.6112 21.3358 50.4889 21.3358C49.3666 21.3358 48.282 20.9306 47.4347 20.1946C45.9373 18.9441 44.0605 17.8339 42.2079 17.8368C42.1519 17.8368 42.096 17.8329 42.0405 17.8252C34.6999 16.7605 28.5072 26.694 26.9692 29.9859C26.655 30.6467 26.396 31.3324 26.1948 32.0359C26.5984 32.635 27.186 33.1219 27.4531 33.6552C27.8964 34.6725 28.2836 35.7178 28.6524 36.7728C28.8336 36.6972 28.9903 36.5729 29.1053 36.4137C30.0916 35.1177 31.5725 31.5248 34.0881 29.3674C44.348 20.5595 48.8827 29.953 48.8827 29.6016C48.8827 29.5242 49.2582 29.4855 50.4797 29.4855H50.4981C51.7196 29.4855 52.1019 29.4622 52.1019 29.5397C52.1019 29.891 56.6269 20.5624 66.8906 29.3674C69.4072 31.5248 70.8862 35.1177 71.8725 36.4137C71.9989 36.5877 72.1751 36.7193 72.3777 36.7912C72.6855 35.8523 72.9865 34.927 73.4289 34.0424C73.696 33.3774 74.3736 32.8034 74.8023 32.1017Z" fill="#22293D"/>
</g>
<path d="M73.3513 33.607C73.9727 33.6728 68.5921 18.8252 62.1565 16.7761C60.6078 14.819 59.1395 12.738 56.5726 10.4673C53.7424 7.96529 52.9845 6.34987 52.5906 5.70815C52.5638 5.66285 52.5251 5.6257 52.4788 5.60067C52.4325 5.57565 52.3802 5.56369 52.3276 5.56607C52.275 5.56846 52.2241 5.5851 52.1802 5.61422C52.1363 5.64334 52.1012 5.68383 52.0786 5.73138C51.9295 6.04207 51.5143 7.26357 51.1639 8.20049C51.1524 8.23171 51.1302 8.25782 51.1012 8.27417C51.0722 8.29053 51.0384 8.29606 51.0057 8.28978C50.9731 8.2835 50.9437 8.26582 50.9228 8.2399C50.902 8.21397 50.891 8.18148 50.8919 8.14823C50.9064 6.195 50.0827 4.16918 49.7111 3.55069C49.6849 3.5063 49.6468 3.47011 49.6012 3.44618C49.5555 3.42226 49.5041 3.41155 49.4527 3.41527C49.4013 3.419 49.3519 3.437 49.3102 3.46725C49.2685 3.4975 49.236 3.5388 49.2165 3.58651C48.7857 4.61732 47.6678 7.2897 44.3972 10.4722C42.0181 12.7854 39.9826 14.9652 38.2394 16.989C32.0419 19.4282 26.6922 31.6595 27.4414 33.6147C27.7705 35.1082 29.3269 41.3995 33.7628 46.2845C34.088 48.5833 35.1847 55.9258 37.918 71.0309C37.9272 71.083 37.9488 71.1321 37.981 71.1741C38.4514 71.7752 42.3366 76.457 50.2734 77.5555C50.4302 77.5778 50.6054 77.5991 50.6054 77.5991C59.3166 76.5179 63.0411 71.1141 63.0411 71.1141C65.8849 55.4041 66.9631 48.0664 67.2438 46.0571C71.5239 41.1963 73.03 35.0627 73.3513 33.607Z" stroke="url(#paint11_linear)" stroke-width="1.90851" stroke-linecap="round" stroke-linejoin="round"/>
<path d="M27.3682 32.3981C27.9596 32.7339 28.6487 32.8375 29.1104 32.2596C30.0967 31.0178 31.5776 27.576 34.0932 25.5085C44.3531 17.0733 48.0418 26.0699 48.0418 25.734C48.0418 25.6595 49.2633 25.6218 50.4848 25.6218H50.5032C51.7247 25.6218 52.9472 25.6595 52.9472 25.734C52.9472 26.0699 56.632 17.0733 66.8957 25.5085C69.4123 27.576 70.8913 31.0178 71.8776 32.2596C72.588 33.155 73.8511 32.4155 74.4484 31.7079C75.2837 30.7187 75.3872 28.9233 74.0118 26.1018C72.4748 22.9484 66.3063 13.6159 58.9405 14.4512C57.1527 14.6535 55.4231 15.3862 53.9732 16.116C52.8936 16.6583 51.7021 16.9407 50.494 16.9407C49.2859 16.9407 48.0944 16.6583 47.0148 16.116C45.563 15.3862 43.8353 14.6535 42.0475 14.4512C34.6827 13.6149 28.5142 22.9484 26.9762 26.1018C25.6008 28.9233 25.7044 30.7187 26.5406 31.7079C26.7761 31.9836 27.057 32.217 27.3711 32.3981" fill="#706F93"/>
<path opacity="0.44" d="M27.3989 30.2896C27.9894 30.6148 28.6776 30.7155 29.1354 30.1551C30.1207 28.95 31.5997 25.6117 34.1114 23.6062C41.1772 17.9672 45.1175 20.2041 46.8878 22.1399C47.3385 22.6359 47.8877 23.0323 48.5004 23.3038C49.1131 23.5753 49.7757 23.7159 50.4459 23.7166H50.5369C51.2072 23.7157 51.8699 23.5748 52.4826 23.303C53.0953 23.0311 53.6444 22.6343 54.0949 22.1379C55.8642 20.2021 59.8056 17.9653 66.8713 23.6043C69.3879 25.6098 70.862 28.9481 71.8474 30.1531C72.5568 31.0242 73.819 30.3041 74.4143 29.6179C75.2496 28.6577 75.3531 26.9165 73.9787 24.1792C72.4426 21.1226 66.2819 12.0717 58.9267 12.8799C57.1409 13.0735 55.4132 13.7869 53.9662 14.4954C52.8844 15.0251 51.6959 15.3005 50.4914 15.3005C49.2869 15.3005 48.0983 15.0251 47.0166 14.4954C45.5647 13.7869 43.8409 13.0764 42.056 12.8799C34.7009 12.0717 28.5391 21.1226 27.004 24.1812C25.6306 26.9184 25.7341 28.6596 26.5685 29.6198C26.8053 29.8885 27.0862 30.115 27.3989 30.2896" fill="url(#paint12_linear)"/>
<path d="M38.8251 36.3664C39.1397 39.8973 40.3379 33.4627 42.4935 33.2691C44.649 33.0755 46.9459 39.2023 46.6293 35.6724C46.3128 32.1424 44.3131 29.4342 42.1576 29.6269C40.0021 29.8195 38.5105 32.8306 38.8251 36.3664Z" fill="url(#paint13_linear)"/>
<path d="M38.8251 36.3664C39.1397 39.8973 40.3379 33.4627 42.4935 33.2691C44.649 33.0755 46.9459 39.2023 46.6293 35.6724C46.3128 32.1424 44.3131 29.4342 42.1576 29.6269C40.0021 29.8195 38.5105 32.8306 38.8251 36.3664Z" stroke="#ED7323" stroke-width="1.104" stroke-linecap="round" stroke-linejoin="round"/>
<path d="M62.1748 36.3664C61.8602 39.8973 60.6619 33.4627 58.5074 33.2691C56.3528 33.0755 54.055 39.2023 54.3705 35.6724C54.6861 32.1424 56.6877 29.4342 58.8432 29.6269C60.9988 29.8195 62.4894 32.8306 62.1748 36.3664Z" fill="url(#paint14_linear)"/>
<path d="M62.1748 36.3664C61.8602 39.8973 60.6619 33.4627 58.5074 33.2691C56.3528 33.0755 54.055 39.2023 54.3705 35.6724C54.6861 32.1424 56.6877 29.4342 58.8432 29.6269C60.9988 29.8195 62.4894 32.8306 62.1748 36.3664Z" stroke="#ED7323" stroke-width="1.104" stroke-linecap="round" stroke-linejoin="round"/>
<path d="M59.7879 49.1773C47.7239 35.4951 53.2516 25.1879 53.2516 25.1879L53.1548 25.1308C52.3421 24.6619 51.4203 24.415 50.4819 24.415C49.5436 24.415 48.6218 24.6619 47.809 25.1308L47.7123 25.1879C47.7123 25.1879 53.239 35.4951 41.175 49.1773C40.9735 49.3984 40.8306 49.6664 40.7592 49.9568C40.6879 50.2473 40.6904 50.551 40.7665 50.8402C41.1643 52.2853 42.863 55.0293 49.4526 58.5892C49.7691 58.7584 50.1225 58.8469 50.4814 58.8469C50.8404 58.8469 51.1938 58.7584 51.5103 58.5892C58.0999 55.0293 59.7995 52.2853 60.1964 50.8402C60.2725 50.551 60.275 50.2473 60.2037 49.9568C60.1323 49.6664 59.9894 49.3984 59.7879 49.1773V49.1773Z" fill="url(#paint15_linear)"/>
<path d="M50.522 60.8541L61.3181 52.0762L60.747 50.7695C60.046 50.7689 59.3545 50.9312 58.727 51.2438L54.3492 53.439C53.1266 53.9501 51.8147 54.2133 50.4896 54.2133C49.1645 54.2133 47.8526 53.9501 46.6301 53.439L42.2503 51.2438C41.6225 50.9312 40.9306 50.7689 40.2293 50.7695L39.6582 52.0762L50.4591 60.8541V60.9064L50.4862 60.9277V60.9354H50.4911H50.4959V60.9277L50.522 60.9064V60.8541Z" fill="#6B162D"/>
<g style="mix-blend-mode:multiply" opacity="0.32">
<g style="mix-blend-mode:multiply" opacity="0.32">
<path d="M79.4773 30.0187C80.0465 30.4543 83.6587 25.7996 82.5601 21.6086C82.4951 21.3645 82.3817 21.136 82.2268 20.9365C82.0718 20.737 81.8784 20.5706 81.658 20.4471C79.2673 19.0921 75.4102 19.3224 74.0986 20.5768C74.0948 20.5739 75.2417 26.7695 79.4773 30.0187Z" stroke="#4E5370" stroke-width="2.20213" stroke-linecap="round" stroke-linejoin="round"/>
</g>
<g style="mix-blend-mode:multiply" opacity="0.32">
<path d="M21.7667 29.8987C21.1985 30.3343 17.2707 25.7996 18.3683 21.6086C18.4337 21.3647 18.5472 21.1363 18.7021 20.9368C18.857 20.7373 19.0503 20.5709 19.2704 20.4471C21.6621 19.0921 25.4322 19.1008 26.7437 20.3552C26.7437 20.3523 26.0032 26.6495 21.7667 29.8987Z" stroke="#4E5370" stroke-width="2.20213" stroke-linecap="round" stroke-linejoin="round"/>
</g>
</g>
<path d="M78.8018 30.0091C78.8018 30.0091 83.5862 25.2451 82.4799 21.028C82.4143 20.7837 82.3004 20.5551 82.145 20.3556C81.9895 20.1561 81.7957 19.9898 81.5749 19.8665C79.1754 18.5114 75.0899 18.7573 73.7774 20.0117C73.7754 20.0088 73.8577 26.7444 78.8018 30.0091Z" fill="#DB9982"/>
<g opacity="0.61">
<path opacity="0.71" d="M74.4105 23.2435C76.2195 21.572 81.6698 21.3445 81.3795 21.0628C79.5288 19.2345 76.1799 19.2345 74.3737 20.6418C74.3737 20.6418 72.0517 25.4232 74.4105 23.2435Z" fill="url(#paint16_linear)"/>
</g>
<path style="mix-blend-mode:multiply" opacity="0.39" d="M75.2562 26.2032C75.2562 26.2032 77.0381 22.7933 79.031 22.5252C81.0239 22.2571 81.7518 25.4231 80.2361 28.5465C78.7203 31.6699 75.1516 26.4307 75.2562 26.2032Z" fill="url(#paint17_linear)"/>
<path d="M78.5133 30.0499C79.0815 30.4864 83.6588 25.1223 82.5602 20.9313C82.4951 20.6872 82.3818 20.4586 82.2268 20.2591C82.0719 20.0596 81.8785 19.8932 81.6581 19.7698C79.2673 18.4148 75.1992 18.6606 73.8867 19.915C73.8867 19.9121 74.2768 26.8016 78.5133 30.0499Z" stroke="#753B43" stroke-width="1.37853" stroke-linecap="round" stroke-linejoin="round"/>
<path d="M75.4604 25.1985C75.4604 25.1985 77.4931 22.5368 79.4773 22.7787" stroke="#753B43" stroke-width="1.37853" stroke-linecap="round" stroke-linejoin="round"/>
<path d="M22.1268 30.0091C22.1268 30.0091 17.3424 25.2451 18.4488 21.028C18.514 20.7836 18.6277 20.5548 18.7832 20.3552C18.9387 20.1557 19.1327 19.9895 19.3538 19.8665C21.7532 18.5114 25.8388 18.7573 27.1512 20.0117C27.1512 20.0088 27.0719 26.7444 22.1268 30.0091Z" fill="#DB9982"/>
<g opacity="0.61">
<path opacity="0.71" d="M26.5705 23.5307C24.7614 21.8591 19.3111 21.6307 19.6015 21.35C21.4551 19.5255 24.804 19.5255 26.6101 20.929C26.6063 20.929 28.9283 25.7104 26.5705 23.5307Z" fill="url(#paint18_linear)"/>
</g>
<path style="mix-blend-mode:multiply" opacity="0.39" d="M25.7244 26.4878C25.7244 26.4878 23.9425 23.0769 21.9495 22.8049C19.9566 22.5329 19.2287 25.7086 20.7435 28.8262C22.2583 31.9438 25.8279 26.7181 25.7244 26.4878Z" fill="url(#paint19_linear)"/>
<path d="M22.4159 30.0499C21.8467 30.4864 17.2704 25.1223 18.368 20.9313C18.4334 20.6874 18.5469 20.4589 18.7018 20.2595C18.8568 20.06 19.05 19.8935 19.2701 19.7698C21.6618 18.4148 25.73 18.6606 27.0415 19.915C27.0415 19.9121 26.6524 26.8016 22.4159 30.0499Z" stroke="#753B43" stroke-width="1.37853" stroke-linecap="round" stroke-linejoin="round"/>
<path d="M25.468 25.1985C25.468 25.1985 23.4354 22.5368 21.4512 22.7787" stroke="#753B43" stroke-width="1.37853" stroke-linecap="round" stroke-linejoin="round"/>
<path d="M20.1094 31.8511C20.1094 31.8511 27.51 27.9088 27.1403 17.9927" stroke="#8595AF" stroke-width="1.80428" stroke-linecap="round" stroke-linejoin="round"/>
<path d="M80.8402 31.8511C80.8402 31.8511 73.4396 27.9088 73.8093 17.9927" stroke="#8595AF" stroke-width="1.80428" stroke-linecap="round" stroke-linejoin="round"/>
<path d="M73.7752 33.0755C74.0259 32.9045 74.2514 32.6993 74.445 32.4657C75.2803 31.4436 75.3839 29.59 74.0085 26.6767C72.4714 23.4158 66.3029 13.7794 58.9371 14.6418C57.2433 14.8353 55.6017 15.5303 54.2012 16.2427C53.0519 16.8281 51.7805 17.1334 50.4907 17.1334C49.2009 17.1334 47.9294 16.8281 46.7802 16.2427C45.3796 15.5303 43.738 14.8402 42.0442 14.6418C34.6794 13.7794 28.5109 23.4158 26.9729 26.6728C25.6023 29.591 25.6991 31.4397 26.5373 32.4618C26.74 32.7193 26.9669 32.9569 27.2148 33.1713" stroke="url(#paint20_linear)" stroke-width="1.90851" stroke-linecap="round" stroke-linejoin="round"/>
<g style="mix-blend-mode:multiply" opacity="0.25">
<path d="M61.7256 61.7544C61.0249 61.8357 55.7623 63.455 50.4979 63.455C45.2334 63.455 39.9728 61.8357 39.2701 61.7544C39.0998 61.7351 39.2633 71.838 50.4979 71.838C61.7324 71.838 61.8989 61.7351 61.7256 61.7544Z" fill="#262262"/>
<path d="M61.7256 61.7544C61.0249 61.8357 55.7623 63.455 50.4979 63.455C45.2334 63.455 39.9728 61.8357 39.2701 61.7544C39.0998 61.7351 39.2633 71.838 50.4979 71.838C61.7324 71.838 61.8989 61.7351 61.7256 61.7544Z" stroke="#262262" stroke-width="1.47543" stroke-linecap="round" stroke-linejoin="round"/>
</g>
<path d="M61.7256 60.8946C61.0249 60.9749 55.7623 62.5942 50.4979 62.5942C45.2334 62.5942 39.9728 60.9749 39.2701 60.8946C39.0998 60.8752 39.2633 70.9782 50.4979 70.9782C61.7324 70.9782 61.8989 60.8752 61.7256 60.8946Z" fill="#6E2738"/>
<path style="mix-blend-mode:multiply" opacity="0.5" d="M61.7256 60.8946C61.0249 60.9749 55.7623 62.5942 50.4979 62.5942C45.2334 62.5942 39.9728 60.9749 39.2701 60.8946C39.0998 60.8752 39.2633 70.9782 50.4979 70.9782C61.7324 70.9782 61.8989 60.8752 61.7256 60.8946Z" fill="url(#paint21_linear)"/>
<path d="M46.937 70.4296C46.9312 69.2516 46.6621 68.1289 46.395 67.2994C46.3402 67.1307 46.2445 66.9783 46.1164 66.8557C45.9883 66.7331 45.8318 66.6442 45.6609 66.5969C45.49 66.5497 45.3101 66.5455 45.1372 66.5848C44.9643 66.6241 44.8038 66.7057 44.6702 66.8222C43.9859 67.4204 43.1515 68.3147 42.5795 69.4839C42.5406 69.5962 42.5184 69.7136 42.5137 69.8324C43.8784 70.0143 45.3671 70.2292 46.9273 70.478C46.9326 70.4623 46.9359 70.4461 46.937 70.4296V70.4296Z" fill="white"/>
<path d="M54.0591 70.4283C54.0823 69.3637 54.265 68.3085 54.6011 67.2981C54.6558 67.1293 54.7515 66.9767 54.8797 66.8539C55.0079 66.7312 55.1645 66.6422 55.3356 66.5949C55.5066 66.5476 55.6867 66.5435 55.8597 66.583C56.0327 66.6224 56.1933 66.7042 56.3269 66.8209C57.192 67.5621 57.9024 68.4666 58.4176 69.4826C58.4568 69.5949 58.4793 69.7123 58.4844 69.8311C57.1196 70.0131 55.63 70.2279 54.0707 70.4767C54.0648 70.4611 54.0609 70.4448 54.0591 70.4283Z" fill="white"/>
<path d="M61.7256 60.8946C61.0249 60.9749 55.7623 62.5942 50.4979 62.5942C45.2334 62.5942 39.9728 60.9749 39.2701 60.8946C39.0998 60.8752 39.2633 70.9782 50.4979 70.9782C61.7324 70.9782 61.8989 60.8752 61.7256 60.8946Z" stroke="#6D3F4B" stroke-width="1.21117" stroke-linecap="round" stroke-linejoin="round"/>
<defs>
<linearGradient id="paint0_linear" x1="50.5001" y1="9.24853" x2="50.5001" y2="82.5991" gradientUnits="userSpaceOnUse">
<stop stop-color="#677A91" stop-opacity="0"/>
<stop offset="1" stop-color="#677A91"/>
</linearGradient>
<linearGradient id="paint1_linear" x1="50.5001" y1="9.24853" x2="50.5001" y2="82.5991" gradientUnits="userSpaceOnUse">
<stop stop-color="white"/>
<stop offset="0.09" stop-color="white" stop-opacity="0.86"/>
<stop offset="0.29" stop-color="white" stop-opacity="0.61"/>
<stop offset="0.47" stop-color="white" stop-opacity="0.39"/>
<stop offset="0.63" stop-color="white" stop-opacity="0.22"/>
<stop offset="0.78" stop-color="white" stop-opacity="0.1"/>
<stop offset="0.91" stop-color="white" stop-opacity="0.03"/>
<stop offset="1" stop-color="white" stop-opacity="0"/>
</linearGradient>
<linearGradient id="paint2_linear" x1="50.385" y1="7.32816" x2="50.385" y2="42.3478" gradientUnits="userSpaceOnUse">
<stop stop-color="white"/>
<stop offset="0.02" stop-color="#FEFEFD" stop-opacity="0.96"/>
<stop offset="0.13" stop-color="#F5F5F5" stop-opacity="0.74"/>
<stop offset="0.25" stop-color="#EEEEED" stop-opacity="0.54"/>
<stop offset="0.37" stop-color="#E7E7E7" stop-opacity="0.38"/>
<stop offset="0.49" stop-color="#E2E2E1" stop-opacity="0.24"/>
<stop offset="0.62" stop-color="#DEDEDD" stop-opacity="0.13"/>
<stop offset="0.74" stop-color="#DBDBDA" stop-opacity="0.06"/>
<stop offset="0.87" stop-color="#DADAD9" stop-opacity="0.01"/>
<stop offset="1" stop-color="#D9D9D8" stop-opacity="0"/>
</linearGradient>
<linearGradient id="paint3_linear" x1="50.348" y1="70.0054" x2="50.348" y2="93.6628" gradientUnits="userSpaceOnUse">
<stop stop-color="white"/>
<stop offset="0.99" stop-color="#687291"/>
</linearGradient>
<linearGradient id="paint4_linear" x1="50.4825" y1="46.1748" x2="50.4825" y2="76.0491" gradientUnits="userSpaceOnUse">
<stop stop-color="#C38E80" stop-opacity="0"/>
<stop offset="1" stop-color="#B0655B"/>
</linearGradient>
<linearGradient id="paint5_linear" x1="38.2804" y1="49.7299" x2="38.2804" y2="30.8906" gradientUnits="userSpaceOnUse">
<stop offset="0.23" stop-color="#4257A6"/>
<stop offset="1" stop-color="#5380C1"/>
</linearGradient>
<linearGradient id="paint6_linear" x1="12422.5" y1="9169.29" x2="12422.5" y2="5502.4" gradientUnits="userSpaceOnUse">
<stop offset="0.23" stop-color="#4257A6"/>
<stop offset="1" stop-color="#5380C1"/>
</linearGradient>
<linearGradient id="paint7_linear" x1="34.0687" y1="43.3727" x2="48.0647" y2="43.3727" gradientUnits="userSpaceOnUse">
<stop stop-color="#3769A4" stop-opacity="0.03"/>
<stop offset="0.17" stop-color="#3769A4" stop-opacity="0.3"/>
<stop offset="0.35" stop-color="#3769A4" stop-opacity="0.55"/>
<stop offset="0.53" stop-color="#3769A4" stop-opacity="0.75"/>
<stop offset="0.7" stop-color="#3769A4" stop-opacity="0.89"/>
<stop offset="0.86" stop-color="#3769A4" stop-opacity="0.97"/>
<stop offset="1" stop-color="#3769A4"/>
</linearGradient>
<linearGradient id="paint8_linear" x1="3763.62" y1="1613.19" x2="5715.85" y2="1613.19" gradientUnits="userSpaceOnUse">
<stop stop-color="#3769A4" stop-opacity="0.03"/>
<stop offset="0.17" stop-color="#3769A4" stop-opacity="0.3"/>
<stop offset="0.35" stop-color="#3769A4" stop-opacity="0.55"/>
<stop offset="0.53" stop-color="#3769A4" stop-opacity="0.75"/>
<stop offset="0.7" stop-color="#3769A4" stop-opacity="0.89"/>
<stop offset="0.86" stop-color="#3769A4" stop-opacity="0.97"/>
<stop offset="1" stop-color="#3769A4"/>
</linearGradient>
<linearGradient id="paint9_linear" x1="52.5538" y1="43.3726" x2="66.5498" y2="43.3726" gradientUnits="userSpaceOnUse">
<stop stop-color="#3769A4"/>
<stop offset="0.96" stop-color="#3769A4" stop-opacity="0.03"/>
</linearGradient>
<linearGradient id="paint10_linear" x1="6395.07" y1="1617.45" x2="8356.38" y2="1617.45" gradientUnits="userSpaceOnUse">
<stop stop-color="#3769A4"/>
<stop offset="0.96" stop-color="#3769A4" stop-opacity="0.03"/>
</linearGradient>
<linearGradient id="paint11_linear" x1="50.3876" y1="78.2282" x2="50.3876" y2="2.78024" gradientUnits="userSpaceOnUse">
<stop stop-color="#6E4957"/>
<stop offset="0.03" stop-color="#6A4856"/>
<stop offset="0.21" stop-color="#554350"/>
<stop offset="0.41" stop-color="#463F4B"/>
<stop offset="0.64" stop-color="#3E3D49"/>
<stop offset="1" stop-color="#3B3C48"/>
</linearGradient>
<linearGradient id="paint12_linear" x1="50.4914" y1="30.5548" x2="50.4914" y2="12.8286" gradientUnits="userSpaceOnUse">
<stop stop-color="#787878" stop-opacity="0"/>
<stop offset="0.33" stop-color="#A9A9A9" stop-opacity="0.37"/>
<stop offset="0.66" stop-color="#D7D7D7" stop-opacity="0.71"/>
<stop offset="0.89" stop-color="#F4F4F4" stop-opacity="0.92"/>
<stop offset="1" stop-color="white"/>
</linearGradient>
<linearGradient id="paint13_linear" x1="42.7209" y1="37.4175" x2="42.7209" y2="29.6114" gradientUnits="userSpaceOnUse">
<stop stop-color="#FED402"/>
<stop offset="0.32" stop-color="#FDD104"/>
<stop offset="0.6" stop-color="#FCC60A"/>
<stop offset="0.86" stop-color="#F8B414"/>
<stop offset="1" stop-color="#F6A71C"/>
</linearGradient>
<linearGradient id="paint14_linear" x1="-4577.79" y1="2822.97" x2="-4577.79" y2="2193.44" gradientUnits="userSpaceOnUse">
<stop stop-color="#FED402"/>
<stop offset="0.32" stop-color="#FDD104"/>
<stop offset="0.6" stop-color="#FCC60A"/>
<stop offset="0.86" stop-color="#F8B414"/>
<stop offset="1" stop-color="#F6A71C"/>
</linearGradient>
<linearGradient id="paint15_linear" x1="50.4814" y1="58.8467" x2="50.4814" y2="24.4145" gradientUnits="userSpaceOnUse">
<stop offset="0.01" stop-color="#D62027"/>
<stop offset="0.13" stop-color="#CF2028"/>
<stop offset="0.31" stop-color="#BC1F2C"/>
<stop offset="0.42" stop-color="#AD1F2F"/>
<stop offset="0.52" stop-color="#AA2334"/>
<stop offset="0.64" stop-color="#A22E43"/>
<stop offset="0.76" stop-color="#94405B"/>
<stop offset="0.89" stop-color="#81597C"/>
<stop offset="1" stop-color="#6E719C"/>
</linearGradient>
<linearGradient id="paint16_linear" x1="77.3723" y1="23.8127" x2="77.3723" y2="19.6371" gradientUnits="userSpaceOnUse">
<stop stop-color="#BA8383" stop-opacity="0"/>
<stop offset="0.1" stop-color="#BB8686" stop-opacity="0.03"/>
<stop offset="0.23" stop-color="#BF8D8D" stop-opacity="0.1"/>
<stop offset="0.38" stop-color="#C49A99" stop-opacity="0.22"/>
<stop offset="0.55" stop-color="#CCABAB" stop-opacity="0.4"/>
<stop offset="0.73" stop-color="#D6C1C1" stop-opacity="0.62"/>
<stop offset="0.92" stop-color="#E3DCDB" stop-opacity="0.88"/>
<stop offset="1" stop-color="#E8E8E7"/>
</linearGradient>
<linearGradient id="paint17_linear" x1="77.6346" y1="22.4215" x2="78.6062" y2="29.292" gradientUnits="userSpaceOnUse">
<stop offset="0.28" stop-color="#94688A"/>
<stop offset="1" stop-color="#94688A" stop-opacity="0"/>
</linearGradient>
<linearGradient id="paint18_linear" x1="19477.9" y1="939.817" x2="19477.9" y2="759.614" gradientUnits="userSpaceOnUse">
<stop stop-color="#BA8383" stop-opacity="0"/>
<stop offset="0.1" stop-color="#BB8686" stop-opacity="0.03"/>
<stop offset="0.23" stop-color="#BF8D8D" stop-opacity="0.1"/>
<stop offset="0.38" stop-color="#C49A99" stop-opacity="0.22"/>
<stop offset="0.55" stop-color="#CCABAB" stop-opacity="0.4"/>
<stop offset="0.73" stop-color="#D6C1C1" stop-opacity="0.62"/>
<stop offset="0.92" stop-color="#E3DCDB" stop-opacity="0.88"/>
<stop offset="1" stop-color="#E8E8E7"/>
</linearGradient>
<linearGradient id="paint19_linear" x1="3605.27" y1="1760.03" x2="3532.53" y2="2258.66" gradientUnits="userSpaceOnUse">
<stop offset="0.28" stop-color="#94688A"/>
<stop offset="1" stop-color="#94688A" stop-opacity="0"/>
</linearGradient>
<linearGradient id="paint20_linear" x1="25.2916" y1="23.8794" x2="75.6897" y2="23.8794" gradientUnits="userSpaceOnUse">
<stop stop-color="#3B3C48"/>
<stop offset="1" stop-color="#3B3C48"/>
</linearGradient>
<linearGradient id="paint21_linear" x1="50.4998" y1="70.9782" x2="50.4998" y2="60.8946" gradientUnits="userSpaceOnUse">
<stop stop-color="#B34D9D" stop-opacity="0"/>
<stop offset="1" stop-color="#262262"/>
</linearGradient>
</defs>
</svg>
