<svg width="100" height="100" viewBox="0 0 100 100" fill="none" xmlns="http://www.w3.org/2000/svg">
<path d="M72.0611 34.6912C78.9245 31.6379 82.0142 27.4252 88.6352 27.3975C92.4242 27.3822 98.0396 33.7008 97.8363 42.4458C97.6837 49.0039 93.5502 59.7975 80.6411 58.0943C75.9656 57.4751 70.9562 41.1796 72.0611 34.6912Z" fill="#EEB310"/>
<path style="mix-blend-mode:multiply" opacity="0.5" d="M83.7727 34.3691C83.7727 34.3691 90.7086 31.6249 93.8364 36.1277C93.8364 36.1277 91.6599 36.4139 89.9606 37.3948C89.9606 37.3948 93.4967 37.8175 94.7887 40.5617C94.7887 40.5617 93.4967 40.0694 92.2038 40.6323C92.2038 40.6323 94.3803 57.734 79.9646 55.6234L73.981 40.8442C73.981 40.8442 78.8768 36.2689 83.7727 34.3691Z" fill="url(#paint0_radial)"/>
<path style="mix-blend-mode:darken" opacity="0.24" d="M73.4851 47.4083C72.2361 43.1422 71.5682 37.8418 71.9508 35.004C78.6797 31.7493 82.1319 27.6302 88.8149 27.4126C90.0554 27.4927 91.4675 28.2151 92.7986 29.4555C89.9628 30.2188 87.0736 32.9592 84.7644 38.4333C82.3475 44.1689 76.0557 46.7366 73.4851 47.4083Z" fill="url(#paint1_radial)"/>
<path d="M88.6391 27.4009C82.0181 27.4286 78.9285 31.6451 72.0651 34.6946C71.6519 37.1173 72.0937 40.9092 73.0507 44.7412C73.1214 44.8003 73.1872 44.8585 73.2597 44.9177C73.2597 44.9177 81.1651 43.7593 84.2995 37.0801C86.7709 31.814 89.7202 29.5421 92.4702 29.1041C91.1658 28.003 89.8128 27.3961 88.6391 27.4009Z" fill="#EEB310"/>
<path d="M71.7999 34.1184L72.0356 34.0134C72.1911 33.9438 72.4277 33.8426 72.714 33.7052C73.296 33.4352 74.1538 33.0106 75.2139 32.4161C75.7445 32.1175 76.3265 31.774 76.9572 31.3904L79.0087 30.1337C79.7463 29.6853 80.543 29.2139 81.4189 28.7635C81.8569 28.5393 82.314 28.3189 82.7949 28.1185C83.0325 28.0135 83.2805 27.9219 83.5296 27.8256C83.7786 27.7292 84.0353 27.6443 84.2929 27.5679C84.5506 27.4916 84.8215 27.4153 85.0916 27.3437C85.3616 27.2721 85.6383 27.2149 85.9198 27.1681C86.2013 27.1214 86.4847 27.0775 86.7709 27.0355C87.0572 26.9935 87.3492 26.9697 87.643 26.9573C87.79 26.9496 87.9369 26.9363 88.0858 26.9344L88.5314 26.9258H88.6669L88.7757 26.9315L88.9942 26.943C89.1564 26.963 89.3377 26.9859 89.4989 27.0193C90.1316 27.1603 90.7387 27.3985 91.2985 27.7254C91.857 28.0473 92.3816 28.4249 92.8643 28.8523C93.3544 29.2823 93.8093 29.7507 94.225 30.253C94.649 30.7604 95.0395 31.2949 95.3938 31.8532C95.7511 32.421 96.0764 33.0084 96.368 33.6127C97.5445 36.0515 98.181 38.831 98.2172 41.6583V42.1888V42.4541L98.2058 42.7212C98.1962 43.0647 98.1638 43.4273 98.1333 43.7851C98.0617 44.4941 97.9491 45.1992 97.8079 45.8986C97.6667 46.5981 97.4768 47.2908 97.2621 47.9749C97.2058 48.1448 97.1457 48.3137 97.0875 48.4835L96.9997 48.7383L96.9043 48.9883L96.7077 49.4902L96.4911 49.9835C96.4224 50.1495 96.3423 50.3098 96.2621 50.4711C96.182 50.6323 96.1066 50.7945 96.0217 50.9539C95.8471 51.2678 95.6829 51.5874 95.4883 51.8909C95.1158 52.5058 94.7014 53.0944 94.2479 53.6523C94.0122 53.9233 93.7889 54.2048 93.5322 54.4576C93.4072 54.5855 93.286 54.7181 93.1572 54.8393L92.7555 55.2057C92.6887 55.2658 92.6248 55.3288 92.5561 55.387L92.3481 55.5559L91.9302 55.8936L91.4931 56.2028L91.2746 56.3574C91.2031 56.4099 91.1239 56.4528 91.0485 56.5005C89.8523 57.253 88.5445 57.8111 87.1736 58.1541C85.8429 58.4817 84.4752 58.6344 83.105 58.6083C82.4371 58.5911 81.7691 58.5625 81.1136 58.4814C80.7796 58.4394 80.4829 58.4422 80.0888 58.3058C79.7563 58.1893 79.4421 58.0261 79.1556 57.8211C78.6212 57.4288 78.142 56.9664 77.7311 56.4461C77.3378 55.9558 76.9764 55.4407 76.649 54.9042C76.0322 53.8832 75.4827 52.8231 75.004 51.7306C74.5355 50.681 74.1453 49.639 73.7865 48.6352C73.1462 46.8034 72.6122 44.9362 72.1873 43.0428C71.8537 41.5787 71.6071 40.0962 71.4488 38.603C71.342 37.6253 71.3066 36.6412 71.3428 35.6584C71.36 35.313 71.3839 35.0458 71.4049 34.8655L71.4812 34.2644L71.7999 34.1184ZM72.6281 35.1212C72.6043 35.2739 72.5728 35.48 72.5451 35.7405C72.464 36.6623 72.4547 37.5891 72.5174 38.5124C72.6139 39.9714 72.8051 41.4225 73.0899 42.8567C73.4518 44.7278 73.9321 46.574 74.5279 48.3843C74.8542 49.3795 75.2359 50.4024 75.6786 51.4376C76.1273 52.5072 76.6502 53.544 77.2435 54.5406C77.5532 55.0524 77.8948 55.5441 78.2663 56.0129C78.6351 56.4836 79.0648 56.9033 79.544 57.261C79.778 57.4306 80.035 57.5659 80.3073 57.6627L80.4905 57.718L80.6098 57.74L80.669 57.7505L80.6985 57.7562C80.7119 57.7562 80.6871 57.7562 80.7119 57.7562L81.189 57.8058C81.8235 57.8841 82.4666 57.9098 83.1145 57.9251C84.428 57.9496 85.7391 57.802 87.0142 57.4862C88.3132 57.1588 89.5522 56.6278 90.685 55.9127C90.7565 55.8669 90.8309 55.8278 90.8987 55.7772L91.1048 55.6312L91.5189 55.3374L91.913 55.0168L92.1105 54.8565C92.1744 54.8011 92.2355 54.742 92.3013 54.6847L92.6658 54.3469C92.788 54.2286 92.9025 54.1027 93.0217 53.9805C93.2641 53.741 93.4759 53.4719 93.7002 53.2172C94.1313 52.6828 94.5247 52.1191 94.8776 51.5302C95.0627 51.2439 95.2173 50.9319 95.3843 50.6304C95.4644 50.4777 95.536 50.3203 95.6123 50.1657C95.6887 50.0111 95.764 49.8566 95.8299 49.6963L96.036 49.2192L96.2268 48.7364L96.3222 48.495L96.4053 48.2497C96.4606 48.0856 96.5178 47.9224 96.5703 47.7583C96.7736 47.098 96.952 46.4301 97.0865 45.7546C97.2211 45.079 97.3241 44.3987 97.39 43.7174C97.4157 43.3796 97.4453 43.0495 97.4539 42.6945L97.4634 42.4407V41.6774C97.4005 38.9589 96.7621 36.3015 95.619 33.9896C95.3341 33.4191 95.0184 32.8646 94.6734 32.3283C94.3334 31.8059 93.9602 31.3058 93.5561 30.8312C93.1631 30.3667 92.7336 29.9344 92.2718 29.5383C91.8318 29.1565 91.3545 28.8199 90.8472 28.5336C90.3712 28.2612 89.8563 28.0633 89.3205 27.9468C89.2547 27.9296 89.1993 27.9286 89.1382 27.9181C89.0772 27.9076 89.0228 27.899 88.9569 27.8924L88.7384 27.8828H88.6297H88.5476L88.1297 27.8952C87.9904 27.8952 87.853 27.9134 87.7156 27.921C87.4398 27.9353 87.1698 27.9735 86.9016 28.003C86.6335 28.0326 86.3692 28.0822 86.1106 28.1385C85.8521 28.1948 85.5963 28.254 85.3473 28.3141C85.0983 28.3742 84.8492 28.4515 84.6078 28.5345C84.3664 28.6175 84.1307 28.7025 83.895 28.7874C83.6594 28.8723 83.4323 28.9715 83.209 29.0736C82.7596 29.2702 82.3292 29.4858 81.9142 29.7082C81.084 30.1519 80.315 30.6242 79.5927 31.0784L77.5583 32.3627C76.9267 32.7615 76.338 33.1203 75.8008 33.438C74.7244 34.0726 73.8542 34.5277 73.2455 34.8273C72.9831 34.96 72.7789 35.0535 72.6281 35.1241V35.1212Z" fill="#A75425"/>
<path d="M28.1598 34.6912C21.2964 31.6378 18.2068 27.4251 11.5857 27.3975C7.79669 27.386 2.1804 33.7046 2.38173 42.4496C2.53726 49.0039 6.67553 59.8013 19.5789 58.0934C24.2553 57.475 29.2647 41.1796 28.1598 34.6912Z" fill="#EEB310"/>
<path style="mix-blend-mode:multiply" opacity="0.5" d="M16.4471 34.3691C16.4471 34.3691 9.51121 31.6249 6.38342 36.1277C6.38342 36.1277 8.5599 36.4139 10.2593 37.3948C10.2593 37.3948 6.72311 37.8175 5.43115 40.5617C5.43115 40.5617 6.72311 40.0694 8.01506 40.6323C8.01506 40.6323 5.83954 57.734 20.2552 55.6234L26.236 40.8442C26.236 40.8442 21.344 36.2689 16.4471 34.3691Z" fill="url(#paint2_radial)"/>
<path style="mix-blend-mode:darken" opacity="0.24" d="M26.7359 47.4083C27.9839 43.1422 28.6528 37.8418 28.2702 35.004C21.5413 31.7493 18.0891 27.6302 11.4061 27.4126C10.1656 27.4927 8.75344 28.2151 7.42236 29.4555C10.2582 30.2188 13.1474 32.9592 15.4556 38.4333C17.8725 44.1689 24.1653 46.7366 26.7359 47.4083Z" fill="url(#paint3_radial)"/>
<path d="M11.5859 27.4009C18.2069 27.4286 21.2966 31.6451 28.16 34.6946C28.5731 37.1173 28.1313 40.9092 27.1733 44.7412C27.1037 44.8003 27.0369 44.8585 26.9653 44.9177C26.9653 44.9177 19.06 43.7593 15.9255 37.0801C13.4504 31.814 10.5048 29.5383 7.75488 29.1041C9.05543 28.003 10.4084 27.3961 11.5859 27.4009Z" fill="#EEB310"/>
<path d="M27.5929 35.1241C27.4422 35.0535 27.238 34.96 26.9756 34.8274C26.3668 34.5278 25.4966 34.0726 24.4203 33.4381C23.8831 33.1203 23.2944 32.7616 22.6627 32.3627L20.6341 31.0727C19.9118 30.6185 19.1427 30.1462 18.3126 29.7025C17.8975 29.4802 17.4663 29.2645 17.0178 29.068C16.7945 28.9659 16.5636 28.8771 16.3317 28.7817C16.0999 28.6863 15.8623 28.6042 15.618 28.5288C15.3737 28.4535 15.1285 28.38 14.8785 28.3084C14.6285 28.2369 14.3728 28.1796 14.1152 28.1329C13.8576 28.0861 13.5913 28.0374 13.3242 27.9974C13.057 27.9573 12.786 27.9296 12.5103 27.9153C12.3729 27.9077 12.2355 27.8924 12.0961 27.8895L11.6773 27.8771H11.5962H11.4874L11.2689 27.8867C11.203 27.8934 11.1486 27.9048 11.0876 27.9124C11.0265 27.9201 10.9712 27.9239 10.9053 27.9411C10.3695 28.0576 9.85463 28.2555 9.37865 28.5279C8.86925 28.816 8.39007 29.1545 7.94834 29.5384C7.4909 29.933 7.06529 30.3631 6.67547 30.8246C6.27078 31.2987 5.89754 31.7988 5.55813 32.3217C5.21314 32.8579 4.89748 33.4125 4.61254 33.9829C3.46562 36.2949 2.82727 38.9523 2.76334 41.6707V42.4341L2.77384 42.6879C2.78243 43.0409 2.812 43.373 2.83777 43.7108C2.90361 44.392 3.00857 45.0724 3.1412 45.7479C3.27383 46.4235 3.45321 47.0904 3.65741 47.7517C3.70989 47.9158 3.76714 48.079 3.82152 48.2431L3.90454 48.4883L3.99995 48.7297L4.18602 49.2125L4.39212 49.6896C4.45701 49.8499 4.53334 50.0045 4.60967 50.1591C4.68601 50.3137 4.75757 50.4711 4.83772 50.6238C5.00375 50.9253 5.15928 51.2335 5.34439 51.5236C5.6973 52.1123 6.0904 52.6759 6.52089 53.2105C6.74608 53.4691 6.9579 53.7382 7.20026 53.9739C7.31954 54.096 7.43404 54.222 7.55617 54.3403L7.93116 54.6867C7.99414 54.7439 8.05425 54.8031 8.122 54.8584L8.31951 55.0187L8.71359 55.3393L9.12675 55.6332L9.32999 55.7782C9.39773 55.8288 9.47216 55.8679 9.54372 55.9137C10.676 56.6318 11.9149 57.1658 13.2144 57.4957C14.4896 57.8116 15.8007 57.9592 17.1142 57.9347C17.762 57.9194 18.4052 57.8936 19.0397 57.8154L19.5168 57.7658C19.5416 57.7658 19.5168 57.7658 19.5301 57.7658L19.5597 57.7601L19.6189 57.7496L19.7381 57.7276L19.9214 57.6723C20.1937 57.5755 20.4507 57.4402 20.6847 57.2706C21.1638 56.9131 21.5932 56.4934 21.9614 56.0225C22.3336 55.5542 22.6752 55.0624 22.9843 54.5502C23.5782 53.5538 24.1015 52.5169 24.5501 51.4472C24.9928 50.411 25.3745 49.3881 25.7008 48.3939C26.2966 46.5836 26.7769 44.7374 27.1387 42.8663C27.4236 41.4321 27.6148 39.9809 27.7113 38.5219C27.774 37.5987 27.7647 36.6719 27.6836 35.7501C27.6483 35.4829 27.6168 35.2768 27.5929 35.1241ZM28.7809 34.5888C28.7809 34.5888 28.7933 34.6842 28.8162 34.8636C28.8391 35.043 28.861 35.3111 28.8782 35.6565C28.9145 36.64 28.8791 37.6248 28.7723 38.603C28.6142 40.0982 28.3676 41.5826 28.0338 43.0486C27.6088 44.9419 27.0749 46.8092 26.4346 48.641C26.0777 49.6448 25.6846 50.6848 25.2161 51.7363C24.7381 52.829 24.1889 53.8892 23.572 54.9099C23.2444 55.4445 22.883 55.9576 22.49 56.4462C22.0802 56.965 21.6023 57.4262 21.0692 57.8173C20.7832 58.0225 20.4693 58.1857 20.137 58.302C19.7429 58.4385 19.4462 58.4356 19.1122 58.4776C18.4586 58.5587 17.7926 58.5873 17.1208 58.6045C15.7491 58.6314 14.3797 58.479 13.0475 58.1513C11.6765 57.8085 10.3686 57.2504 9.17255 56.4977C9.09717 56.45 9.01797 56.407 8.94641 56.3546L8.7279 56.2L8.28993 55.8908L7.87296 55.553L7.66495 55.3842C7.59625 55.3259 7.53232 55.263 7.46553 55.2029L7.06954 54.8393C6.94073 54.7143 6.81955 54.5817 6.69455 54.4577C6.43788 54.2048 6.21746 53.9233 5.97892 53.6523C5.5251 53.0947 5.11062 52.5061 4.73849 51.8909C4.54765 51.5875 4.37972 51.2678 4.2051 50.9539C4.12018 50.7946 4.0448 50.6314 3.96465 50.4711C3.8845 50.3108 3.80435 50.1495 3.73565 49.9835L3.51905 49.4902L3.32249 48.9883L3.22707 48.7383L3.13929 48.4835C3.08204 48.3137 3.02192 48.1448 2.96563 47.975C2.75094 47.2908 2.56678 46.5981 2.41984 45.8987C2.27289 45.1993 2.1603 44.4941 2.08874 43.7852C2.0582 43.4274 2.02576 43.0648 2.01622 42.7213L2 42.4541V42.1888V41.6564C2.03817 38.8292 2.67269 36.0497 3.84919 33.6108C4.1421 33.0065 4.46862 32.4191 4.82723 31.8513C5.18165 31.2937 5.57211 30.7598 5.99609 30.253C6.41145 29.7505 6.86646 29.2821 7.35675 28.8523C7.83942 28.4249 8.36402 28.0474 8.92255 27.7254C9.48099 27.3997 10.0864 27.1621 10.7174 27.0212C10.8777 26.9878 11.0599 26.9649 11.2221 26.9449L11.4406 26.9335L11.5494 26.9277H11.6849L12.1305 26.9363C12.2784 26.9363 12.4263 26.9516 12.5732 26.9592C12.8671 26.9716 13.1572 27.0088 13.4454 27.0375C13.7335 27.0661 14.0179 27.1138 14.2965 27.1701C14.5751 27.2264 14.8518 27.2846 15.1247 27.3457C15.3976 27.4067 15.6629 27.485 15.9224 27.5699C16.1819 27.6548 16.4386 27.7407 16.6915 27.8275C16.9443 27.9144 17.1886 28.0184 17.4262 28.1205C17.9033 28.3208 18.3641 28.5412 18.8021 28.7655C19.678 29.2159 20.4748 29.6872 21.2124 30.1357L23.2629 31.3923C23.8945 31.774 24.4766 32.1194 25.0071 32.4181C26.0672 33.0125 26.925 33.4371 27.5071 33.7072C27.7933 33.8446 28.0299 33.9457 28.1855 34.0154L28.7399 34.2615L28.7809 34.5888Z" fill="#A75425"/>
<path d="M54.6936 26.7819C69.6665 28.7647 80.9964 40.3856 81.1615 54.4273C81.4201 76.4459 70.4556 78.3237 49.7634 78.3237C30.0119 78.3237 19.1343 75.3658 19.1343 54.4273C19.1343 39.9992 31.2685 28.1283 46.8417 26.6398C46.8379 26.6398 52.4684 26.5062 54.6936 26.7819Z" fill="#EEB111"/>
<path d="M45.9416 25.572C52.3633 25.9031 43.9484 23.1169 45.1583 22.8316C52.1123 21.1952 54.9758 26.4766 54.9758 26.4766C57.0931 26.6417 57.1704 27.0338 57.1704 27.0338L52.0188 40.4162C52.0188 40.4162 51.5694 41.8741 50.2059 41.8837C48.8423 41.8932 48.3757 40.4429 48.3757 40.4429L45.7012 33.7722C45.7012 33.7722 44.6335 34.8037 44.5438 34.5527C44.5171 30.6263 47.9254 29.6044 47.9254 29.6044C47.9254 29.6044 44.8787 29.2609 40.6441 31.1043C40.6383 28.2514 43.8281 25.4623 45.9416 25.572Z" fill="#C88912"/>
<path d="M34.0889 30.7905C35.0576 30.1316 36.0875 29.5673 37.1642 29.1054C38.3307 28.6016 39.5351 28.1904 40.7662 27.8755L41.0372 35.2637C41.0372 35.2637 41.1192 36.0461 40.4771 36.3257C39.8349 36.6053 39.3178 36.0146 39.3178 36.0146L34.0889 30.7905Z" fill="#C88A12"/>
<path d="M66.2735 30.7905C65.3047 30.1316 64.2749 29.5673 63.1982 29.1054C62.0316 28.6016 60.8272 28.1904 59.5962 27.8755L59.3252 35.2637C59.3252 35.2637 59.2431 36.0461 59.8853 36.3257C60.5274 36.6053 61.0446 36.0146 61.0446 36.0146L66.2735 30.7905Z" fill="#C88912"/>
<path d="M54.6936 26.7819C69.6665 28.7647 80.9964 40.3856 81.1615 54.4273C81.4201 76.4459 70.4556 78.3237 49.7634 78.3237C30.0119 78.3237 19.1343 75.3658 19.1343 54.4273C19.1343 39.9992 31.2685 28.1283 46.8417 26.6398C46.8379 26.6398 52.4684 26.5062 54.6936 26.7819Z" stroke="#A75425" stroke-width="1.26142" stroke-miterlimit="10"/>
<path d="M55.459 27.385C55.459 27.385 52.8216 20.7153 44.2856 23.0435C44.2856 23.0435 47.3895 23.7544 48.6824 25.6303C48.6824 25.6303 41.6349 24.0779 40.5356 31.3201C40.5356 31.3201 44.7388 28.927 48.5269 29.6245C48.5269 29.6245 44.7388 29.8325 44.5441 34.5528C44.5441 34.5528 47.5832 31.9021 51.1881 32.5491" fill="#C88912"/>
<path style="mix-blend-mode:overlay" opacity="0.7" d="M54.3453 28.4728C68.1704 30.302 78.632 41.0336 78.7847 53.999C79.0232 74.3306 68.888 76.8124 49.793 76.0643C31.4069 75.3439 21.5083 73.3353 21.5083 53.999C21.5083 42.6986 29.5701 33.0967 40.7932 29.6045C40.984 29.4337 40.4478 31.2542 40.6434 31.1044C43.0107 26.5377 48.2539 26.7066 50.1145 26.9623C50.1145 26.9623 50.1145 25.1027 48.6766 24.0044C52.5715 24.2544 54.3453 28.4728 54.3453 28.4728Z" fill="url(#paint4_linear)"/>
<g style="mix-blend-mode:darken" opacity="0.2">
<path d="M46.3118 30.5994C46.37 30.5412 47.1706 29.9648 47.5522 29.8045H47.515C47.4253 29.7959 47.3356 29.7931 47.245 29.7874C47.1543 29.7816 47.0646 29.7769 46.975 29.7769H46.704L46.4339 29.7826C45.7157 29.8068 45.0008 29.8933 44.2975 30.0412C43.5969 30.1867 42.9065 30.3779 42.2308 30.6137C42.0609 30.6719 40.0209 31.4066 39.9932 31.5287L39.9226 31.8951C39.901 32.0073 39.9114 32.1232 39.9524 32.2298C39.9935 32.3364 40.0637 32.4292 40.155 32.4979C40.2463 32.5665 40.355 32.6081 40.4688 32.6179C40.5826 32.6278 40.6968 32.6054 40.7986 32.5535L40.8453 32.5297C40.9035 32.4944 40.9799 32.4495 41.0495 32.4104L41.2661 32.2911C41.4121 32.2119 41.5609 32.1356 41.7108 32.0602C41.8606 31.9848 42.0113 31.9133 42.163 31.8436C42.3148 31.7739 42.4693 31.7052 42.6239 31.6404C43.2407 31.3767 43.874 31.1536 44.5199 30.9724C45.1068 30.8025 45.7058 30.6777 46.3118 30.5994V30.5994Z" fill="#262262"/>
</g>
<g style="mix-blend-mode:darken" opacity="0.2">
<path d="M51.3673 32.3208C50.1398 32.3393 48.917 32.4761 47.7157 32.7292C45.8761 33.1242 44.0135 33.8742 43.9229 34.5269V34.9772C43.9229 35.1318 43.983 35.3808 44.1022 35.4982C44.1585 35.5538 44.2251 35.5978 44.2983 35.6276C44.3715 35.6574 44.4499 35.6725 44.529 35.6719C44.608 35.6714 44.6862 35.6553 44.759 35.6245C44.8319 35.5937 44.8979 35.5488 44.9534 35.4925C44.9667 35.4782 48.064 32.8074 51.207 32.9792C51.6355 33.0021 51.5343 32.3513 51.3673 32.3208Z" fill="#262262"/>
</g>
<path d="M55.1258 27.3371C55.0781 27.2322 55.0161 27.1129 54.9541 27.0013C54.8921 26.8896 54.8243 26.777 54.7547 26.6673C54.6149 26.4476 54.4639 26.2351 54.3024 26.0309C53.9818 25.6223 53.6216 25.2464 53.227 24.9088C52.8353 24.5734 52.4104 24.279 51.9589 24.03C51.509 23.7839 51.0356 23.5835 50.5458 23.4317C49.56 23.1388 48.5302 23.0222 47.5039 23.0872C47.2472 23.1025 46.9896 23.1225 46.7338 23.1569C46.4781 23.1912 46.2215 23.2294 45.9705 23.2762C45.8426 23.3 45.7157 23.3277 45.5888 23.3534L45.2072 23.4422L44.8255 23.5376L44.4515 23.6511L44.4266 22.4288C44.4963 22.4479 44.5469 22.4632 44.6041 22.4823L44.7692 22.5367C44.8789 22.5739 44.9858 22.613 45.0936 22.6531C45.308 22.7332 45.5189 22.8194 45.7262 22.9117C46.1444 23.0951 46.5505 23.3051 46.9419 23.5405C47.0373 23.6006 47.1375 23.6607 47.2329 23.7246C47.3283 23.7885 47.4237 23.8544 47.5191 23.9202C47.6146 23.9861 47.71 24.0576 47.7958 24.1311C47.8817 24.2046 47.9743 24.279 48.063 24.3544C48.1518 24.4298 48.2357 24.5109 48.3178 24.5958C48.3998 24.6807 48.48 24.7656 48.5592 24.8525C48.6384 24.9393 48.7119 25.0328 48.7815 25.1292C48.8512 25.2255 48.918 25.3248 48.9838 25.4231C49.0289 25.48 49.0555 25.5493 49.0602 25.6218C49.0648 25.6942 49.0473 25.7664 49.0098 25.8286C48.9724 25.8908 48.9169 25.9401 48.8507 25.97C48.7845 25.9998 48.7107 26.0087 48.6393 25.9956L48.6059 25.9898C48.5105 25.9727 48.3941 25.9564 48.2853 25.944C48.1766 25.9316 48.0621 25.9221 47.9495 25.9135C47.7252 25.8982 47.4991 25.8916 47.2739 25.8935C46.8261 25.896 46.3793 25.9356 45.9381 26.0118C45.5029 26.0868 45.0762 26.2048 44.6642 26.3639C44.26 26.5212 43.8757 26.7255 43.5192 26.9726C42.8187 27.4697 42.2546 28.1352 41.879 28.9077C41.7824 29.101 41.6958 29.2991 41.6195 29.5012C41.545 29.7044 41.4744 29.9105 41.4181 30.1224C41.3618 30.3342 41.3103 30.547 41.2664 30.7636C41.2445 30.8714 41.2273 30.9811 41.2082 31.0899L41.1605 31.4191L40.2063 30.7855C40.3017 30.735 40.3704 30.6968 40.4525 30.6558C40.5346 30.6147 40.6109 30.5766 40.6901 30.5384C40.8485 30.4621 41.0069 30.3895 41.1672 30.3199C41.4852 30.1806 41.8084 30.0534 42.1366 29.9382C42.2998 29.8791 42.4639 29.8218 42.6299 29.7693C42.796 29.7169 42.961 29.6653 43.128 29.6167C43.295 29.568 43.4629 29.5212 43.6318 29.4821C43.8007 29.443 43.9696 29.4001 44.1404 29.3657C44.3112 29.3314 44.482 29.2989 44.6537 29.2703C44.8255 29.2417 44.9972 29.214 45.1709 29.1959C45.3446 29.1777 45.5182 29.1577 45.6919 29.1434C45.8655 29.1291 46.0402 29.1195 46.2148 29.1176H46.4772H46.7396C46.8274 29.1176 46.9151 29.1253 47.002 29.13C47.0888 29.1348 47.1766 29.1377 47.2644 29.1482L47.5258 29.1749C47.6126 29.1835 47.6995 29.1987 47.7863 29.2111C47.96 29.2321 48.1317 29.2732 48.3035 29.3066C48.3826 29.3154 48.4558 29.3526 48.5097 29.4112C48.5635 29.4698 48.5944 29.5459 48.5966 29.6255C48.5988 29.705 48.5722 29.7827 48.5217 29.8442C48.4711 29.9057 48.4001 29.9469 48.3216 29.9602L48.2624 29.9707L48.1832 29.984L48.0926 30.0031C48.0325 30.0165 47.9705 30.0327 47.9094 30.0508C47.7882 30.0871 47.668 30.13 47.5497 30.1777C47.4313 30.2254 47.3168 30.2817 47.2062 30.3437C47.0949 30.4045 46.9869 30.471 46.8827 30.5432C46.7796 30.6157 46.6804 30.693 46.585 30.775C46.4904 30.8573 46.4002 30.9445 46.315 31.0365C46.2711 31.0794 46.2329 31.1319 46.1919 31.1767C46.1508 31.2216 46.1127 31.2722 46.0755 31.3237C45.9999 31.4228 45.9298 31.526 45.8655 31.6328L45.7701 31.796C45.7405 31.8513 45.7138 31.9086 45.6862 31.9639C45.6572 32.0198 45.6311 32.0771 45.6079 32.1357C45.5841 32.1939 45.5564 32.2502 45.5354 32.3103C45.4944 32.4305 45.4486 32.5479 45.4161 32.671C45.399 32.733 45.3789 32.7931 45.3646 32.8551L45.3217 33.046C45.2892 33.1691 45.2759 33.2998 45.2511 33.4276C45.2262 33.5555 45.2205 33.6853 45.2043 33.8093L45.1785 34.1996L45.1719 34.5927L44.1223 34.0918C44.1652 34.0564 44.1948 34.0355 44.2291 34.0087L44.3246 33.9372C44.3913 33.8895 44.4572 33.8418 44.523 33.7998C44.656 33.7101 44.7896 33.6248 44.9238 33.5441C45.1941 33.3812 45.4699 33.2301 45.751 33.0908C45.8916 33.0208 46.0338 32.9544 46.1776 32.8914C46.3213 32.8284 46.466 32.7683 46.6117 32.7111C46.7577 32.6529 46.9056 32.6013 47.0535 32.5498C47.2014 32.4983 47.3522 32.4544 47.5039 32.4114C47.6556 32.3685 47.8082 32.3313 47.9609 32.295C48.1136 32.2588 48.2682 32.2292 48.4237 32.2044C48.5792 32.1796 48.7348 32.1576 48.8903 32.1386C49.0458 32.1195 49.2033 32.1071 49.3607 32.1013C49.5181 32.0956 49.6746 32.0947 49.8321 32.0928L50.0677 32.1013C50.146 32.1013 50.2242 32.109 50.3025 32.1166L50.5372 32.1386L50.77 32.1719C50.9255 32.1901 51.0782 32.2282 51.2318 32.2559C51.3113 32.2693 51.3824 32.313 51.4302 32.3778C51.4781 32.4426 51.499 32.5234 51.4885 32.6032C51.478 32.6831 51.4369 32.7557 51.3739 32.8059C51.3109 32.8561 51.2309 32.8799 51.1507 32.8723H51.1212C50.9799 32.8609 50.8397 32.838 50.6985 32.8332L50.4866 32.8227H50.2748C50.2042 32.8227 50.1336 32.8227 50.063 32.8275L49.8521 32.838C49.7109 32.8523 49.5706 32.8618 49.4313 32.8847C49.292 32.9076 49.1527 32.9286 49.0143 32.9544C48.876 32.9801 48.7386 33.0116 48.6031 33.0498C48.4676 33.088 48.3311 33.1252 48.1966 33.1681C48.0621 33.211 47.9294 33.2568 47.7978 33.3084C47.6661 33.3599 47.5354 33.4143 47.4056 33.4687C47.2758 33.5231 47.148 33.5851 47.0239 33.649C46.8999 33.7129 46.772 33.7769 46.6489 33.8456C46.5258 33.9143 46.4027 33.9849 46.2825 34.0584C46.0414 34.2053 45.8073 34.3624 45.5802 34.5297C45.4664 34.6131 45.3557 34.6983 45.2482 34.7854C45.1948 34.8284 45.1413 34.8732 45.0898 34.9171L45.0144 34.9839C44.9915 35.0049 44.9629 35.0307 44.9495 35.044C44.8651 35.132 44.7562 35.1926 44.637 35.2181C44.5177 35.2436 44.3936 35.2327 44.2806 35.1869C44.1675 35.141 44.0709 35.0624 44.003 34.9611C43.9352 34.8597 43.8993 34.7404 43.8999 34.6185V34.5431L43.9476 34.0946L44.0173 33.6462C44.0488 33.4973 44.0765 33.3484 44.1127 33.2006C44.149 33.0527 44.1852 32.9048 44.2358 32.7588L44.3074 32.5393C44.3312 32.4668 44.3618 32.3952 44.3885 32.3237C44.441 32.1786 44.5087 32.0374 44.5736 31.8981C44.6051 31.8275 44.6452 31.7597 44.6805 31.691C44.7158 31.6223 44.753 31.5546 44.7959 31.4878C44.8389 31.421 44.8761 31.3552 44.919 31.2893L45.0535 31.0985C45.149 30.9745 45.2444 30.8495 45.3503 30.735C45.4028 30.6768 45.4553 30.6185 45.5115 30.5651C45.5678 30.5117 45.6213 30.4535 45.6823 30.4029C45.7983 30.2984 45.9197 30.2 46.0459 30.1081C46.1728 30.0126 46.3035 29.9325 46.4381 29.8552C46.5767 29.7737 46.7198 29.6998 46.8665 29.6338C47.0077 29.5719 47.152 29.5171 47.2987 29.4697C47.4466 29.4249 47.5945 29.3858 47.7462 29.3552C47.8226 29.34 47.8979 29.3266 47.9762 29.3161L48.0935 29.3027C48.1355 29.3027 48.1699 29.2961 48.2243 29.2932L48.1823 29.9535C48.0229 29.9373 47.8655 29.9115 47.7052 29.9039C47.625 29.8981 47.5459 29.8905 47.4657 29.8876L47.2281 29.881C47.1489 29.881 47.0678 29.881 46.9877 29.881C46.9075 29.881 46.8283 29.881 46.7472 29.8876L46.5077 29.901L46.2673 29.923C46.1079 29.9363 45.9486 29.9602 45.7902 29.9821C45.6318 30.0041 45.4724 30.0327 45.3131 30.0661C45.1537 30.0995 44.9972 30.1338 44.8408 30.1691C44.6843 30.2044 44.5278 30.2483 44.3732 30.2941C44.2186 30.3399 44.0631 30.3895 43.9095 30.4363C43.7559 30.4831 43.6032 30.5394 43.4515 30.5956C43.2998 30.6519 43.149 30.7092 42.9992 30.7712C42.8494 30.8332 42.7005 30.8953 42.5536 30.9621C42.2578 31.0937 41.9674 31.2346 41.6824 31.3848C41.5393 31.4601 41.3962 31.5374 41.2607 31.6166C41.191 31.6567 41.1223 31.6968 41.0555 31.7378C40.9887 31.7788 40.9162 31.8218 40.8647 31.8571C40.7659 31.9219 40.6505 31.9571 40.5323 31.9585C40.4141 31.9599 40.2979 31.9274 40.1976 31.8649C40.0972 31.8024 40.0169 31.7124 39.966 31.6057C39.9151 31.499 39.8959 31.3799 39.9105 31.2626L39.9153 31.2235L39.985 30.8571C40.0136 30.735 40.0384 30.6128 40.0689 30.4907C40.13 30.2483 40.1958 30.006 40.2769 29.7665C40.358 29.527 40.4468 29.2894 40.5451 29.0575C40.6467 28.8233 40.7601 28.5943 40.8847 28.3715C41.0093 28.1473 41.1469 27.9306 41.2969 27.7226C41.7494 27.0933 42.3173 26.5558 42.9706 26.1387C43.4021 25.8674 43.8643 25.6484 44.3474 25.486C44.8228 25.3273 45.3128 25.2164 45.8102 25.1549C46.3003 25.0938 46.7947 25.0731 47.2882 25.0929C47.5334 25.1034 47.7787 25.1215 48.0229 25.1511C48.1451 25.1654 48.2663 25.1816 48.3884 25.2017C48.5105 25.2217 48.6279 25.2427 48.7634 25.2732L48.3865 25.8353C48.3235 25.7599 48.2643 25.6826 48.1956 25.612C48.1269 25.5414 48.0573 25.4708 47.9876 25.4021C47.918 25.3334 47.8407 25.2685 47.7624 25.2112C47.6842 25.154 47.6041 25.0891 47.5239 25.029C47.4438 24.9689 47.3598 24.9135 47.2739 24.8601C47.188 24.8067 47.1012 24.7532 47.0144 24.7017C46.9275 24.6502 46.8379 24.6015 46.7463 24.5557C46.6547 24.5099 46.564 24.4603 46.4724 24.4183C46.1007 24.2439 45.7183 24.0935 45.3274 23.9679C45.1318 23.904 44.9333 23.8458 44.7348 23.7933C44.6394 23.7685 44.5364 23.7427 44.4371 23.7208L44.2892 23.6884C44.2425 23.6779 44.1871 23.6674 44.1518 23.6616C44.0139 23.64 43.8874 23.5724 43.7927 23.4698C43.698 23.3672 43.6408 23.2356 43.6303 23.0964C43.6198 22.9572 43.6566 22.8185 43.7349 22.7029C43.8131 22.5873 43.9281 22.5014 44.0612 22.4594L44.127 22.4384L44.5373 22.343L44.9514 22.258L45.3684 22.1836C45.5077 22.1636 45.647 22.1397 45.7873 22.1216C46.0678 22.0853 46.3493 22.0539 46.6317 22.0357C46.9142 22.0176 47.1928 22.0004 47.4762 22.0004C48.6215 21.9898 49.7597 22.181 50.8387 22.5653C51.1077 22.6634 51.3715 22.7755 51.6288 22.9012C51.8863 23.0255 52.1373 23.1631 52.3807 23.3134C52.8634 23.6145 53.3141 23.9639 53.7261 24.3563C54.1356 24.7461 54.5057 25.1753 54.831 25.6377C54.9936 25.8679 55.1446 26.1061 55.2833 26.3515C55.352 26.4742 55.4178 26.5992 55.4808 26.7265C55.5438 26.8553 55.601 26.9793 55.6573 27.1244C55.6812 27.1933 55.678 27.2687 55.6481 27.3353C55.6183 27.4019 55.5642 27.4545 55.4968 27.4826C55.4295 27.5106 55.354 27.5118 55.2857 27.486C55.2175 27.4602 55.1616 27.4094 55.1296 27.3438L55.1258 27.3371Z" fill="#A75425"/>
<g style="mix-blend-mode:darken" opacity="0.2">
<path d="M64.8575 67.506C63.3232 62.8553 58.6391 60.4976 50.9361 60.4976C50.709 60.4976 50.4743 60.4976 50.2367 60.5042C49.9991 60.5109 49.7596 60.4976 49.5363 60.4976C41.8332 60.4976 37.1492 62.8553 35.6158 67.506C35.2682 68.4541 35.084 69.4542 35.071 70.4639C35.071 70.6767 35.071 70.899 35.071 71.1614C35.0552 72.25 35.1531 73.3373 35.3629 74.4056C35.5879 75.7126 35.9999 76.9804 36.5862 78.1699C40.421 78.7758 44.8179 78.9523 49.7653 78.9523C54.5591 78.9523 59.5332 78.8616 63.8404 78.2643C64.4538 77.0484 64.8828 75.7479 65.1132 74.4056C65.3231 73.3373 65.4209 72.25 65.4052 71.1614C65.4052 70.9 65.4052 70.6777 65.4052 70.4639C65.3908 69.4541 65.2056 68.454 64.8575 67.506V67.506Z" fill="#262262"/>
</g>
<g style="mix-blend-mode:darken" opacity="0.2">
<path d="M39.2627 44.2688C37.5566 41.9654 35.3009 40.3395 32.4489 40.8929C29.3679 41.4911 27.0234 43.5541 26.4462 46.6761C26.4347 46.742 26.6952 46.6532 26.6857 46.7191C27.6179 43.9701 29.7944 42.4844 32.3811 41.9816C35.1101 41.4539 37.5146 42.2907 39.2627 44.2688Z" fill="#262262"/>
<path d="M39.2627 44.2688C37.5566 41.9654 35.3009 40.3395 32.4489 40.8929C29.3679 41.4911 27.0234 43.5541 26.4462 46.6761C26.4347 46.742 26.6952 46.6532 26.6857 46.7191C27.6179 43.9701 29.7944 42.4844 32.3811 41.9816C35.1101 41.4539 37.5146 42.2907 39.2627 44.2688Z" stroke="#262262" stroke-width="0.198469" stroke-linecap="round" stroke-linejoin="round"/>
</g>
<path d="M32.2607 41.362C29.6739 41.8639 27.4459 43.9669 26.5137 46.7159C27.0098 43.4717 29.2531 40.8381 32.0479 40.2962C35.0917 39.7055 37.917 41.695 39.4141 44.1883C37.668 42.1663 35.0211 40.8257 32.2607 41.362Z" fill="#462314" stroke="#462314" stroke-width="0.297703" stroke-linecap="round" stroke-linejoin="round"/>
<g style="mix-blend-mode:darken" opacity="0.2">
<path d="M60.9482 44.2997C62.6438 41.9887 64.889 40.3523 67.7458 40.8943C70.8297 41.4782 73.1846 43.5316 73.7752 46.6508C73.7876 46.7167 73.5253 46.6289 73.5357 46.6947C72.5911 43.9505 70.408 42.4734 67.8193 41.983C65.0903 41.4658 62.6858 42.3141 60.9482 44.2997Z" fill="#262262"/>
<path d="M60.9482 44.2997C62.6438 41.9887 64.889 40.3523 67.7458 40.8943C70.8297 41.4782 73.1846 43.5316 73.7752 46.6508C73.7876 46.7167 73.5253 46.6289 73.5357 46.6947C72.5911 43.9505 70.408 42.4734 67.8193 41.983C65.0903 41.4658 62.6858 42.3141 60.9482 44.2997Z" stroke="#262262" stroke-width="0.198469" stroke-linecap="round" stroke-linejoin="round"/>
</g>
<path d="M67.9337 41.3607C70.5233 41.8511 72.7599 43.9436 73.7045 46.6888C73.194 43.4446 70.9374 40.8235 68.1445 40.2958C65.0978 39.7185 62.2821 41.7213 60.7974 44.2203C62.5321 42.1898 65.1732 40.8368 67.9337 41.3607Z" fill="#462314" stroke="#462314" stroke-width="0.297703" stroke-linecap="round" stroke-linejoin="round"/>
<path d="M70.1329 54.9844C69.7512 59.2515 67.3324 62.5224 64.7275 62.2915C62.1226 62.0606 60.3192 58.4109 60.6989 54.1438C61.0787 49.8767 63.5004 46.6058 66.1053 46.8367C68.7102 47.0676 70.5098 50.7212 70.1329 54.9844Z" fill="#603913"/>
<path d="M70.1329 54.9844C69.7512 59.2515 67.3324 62.5224 64.7275 62.2915C62.1226 62.0606 60.3192 58.4109 60.6989 54.1438C61.0787 49.8767 63.5004 46.6058 66.1053 46.8367C68.7102 47.0676 70.5098 50.7212 70.1329 54.9844Z" fill="url(#paint5_linear)"/>
<path d="M70.1329 54.9844C69.7512 59.2515 67.3324 62.5224 64.7275 62.2915C62.1226 62.0606 60.3192 58.4109 60.6989 54.1438C61.0787 49.8767 63.5004 46.6058 66.1053 46.8367C68.7102 47.0676 70.5098 50.7212 70.1329 54.9844Z" stroke="#462314" stroke-width="0.643115" stroke-linecap="round" stroke-linejoin="round"/>
<path d="M30.0871 54.9844C30.4688 59.2515 32.8886 62.5224 35.4935 62.2915C38.0984 62.0606 39.9027 58.4109 39.522 54.1438C39.1413 49.8767 36.7206 46.6058 34.1156 46.8367C31.5107 47.0676 29.7074 50.7164 30.0871 54.9844Z" fill="#603913"/>
<path d="M30.0871 54.9844C30.4688 59.2515 32.8886 62.5224 35.4935 62.2915C38.0984 62.0606 39.9027 58.4109 39.522 54.1438C39.1413 49.8767 36.7206 46.6058 34.1156 46.8367C31.5107 47.0676 29.7074 50.7164 30.0871 54.9844Z" fill="url(#paint6_linear)"/>
<path d="M30.0871 54.9844C30.4688 59.2515 32.8886 62.5224 35.4935 62.2915C38.0984 62.0606 39.9027 58.4109 39.522 54.1438C39.1413 49.8767 36.7206 46.6058 34.1156 46.8367C31.5107 47.0676 29.7074 50.7164 30.0871 54.9844Z" stroke="#462314" stroke-width="0.643115" stroke-linecap="round" stroke-linejoin="round"/>
<path d="M64.117 70.5001C64.117 70.2864 64.117 70.0707 64.117 69.8513C64.1059 68.9607 63.9409 68.0788 63.6294 67.2444C62.1485 62.7942 57.3872 61.0137 50.8435 61.0137C50.6192 61.0137 50.395 61.0137 50.1755 61.0204C49.9561 61.027 49.729 61.0137 49.5076 61.0137C42.9648 61.0137 38.2035 62.7942 36.7216 67.2444C36.4097 68.0787 36.2447 68.9607 36.234 69.8513C36.2293 70.0707 36.2293 70.2864 36.234 70.5001C36.2181 71.4929 36.3083 72.4845 36.5031 73.458C37.7894 80.4989 43.5068 82.9998 50.1698 82.9998H50.186C56.85 82.9998 62.5665 80.4951 63.8537 73.458C64.0456 72.4841 64.1339 71.4926 64.117 70.5001V70.5001Z" fill="#FFD07B"/>
<path d="M64.117 70.5001C64.117 70.2864 64.117 70.0707 64.117 69.8513C64.1059 68.9607 63.9409 68.0788 63.6294 67.2444C62.1485 62.7942 57.3872 61.0137 50.8435 61.0137C50.6192 61.0137 50.395 61.0137 50.1755 61.0204C49.9561 61.027 49.729 61.0137 49.5076 61.0137C42.9648 61.0137 38.2035 62.7942 36.7216 67.2444C36.4097 68.0787 36.2447 68.9607 36.234 69.8513C36.2293 70.0707 36.2293 70.2864 36.234 70.5001C36.2181 71.4929 36.3083 72.4845 36.5031 73.458C37.7894 80.4989 43.5068 82.9998 50.1698 82.9998H50.186C56.85 82.9998 62.5665 80.4951 63.8537 73.458C64.0456 72.4841 64.1339 71.4926 64.117 70.5001V70.5001Z" stroke="#A75425" stroke-width="1.26142" stroke-miterlimit="10"/>
<g style="mix-blend-mode:darken" opacity="0.2">
<path d="M50.085 70.0023C46.2797 70.0023 43.8762 68.7332 42.5298 67.6684C40.9516 66.4203 39.9707 64.7524 39.9707 63.3154C39.9707 62.4633 41.0088 61.8164 43.1424 61.3384C45.0011 60.9214 47.4667 60.6924 50.085 60.6924C52.7032 60.6924 55.1679 60.9214 57.0266 61.3384C59.1611 61.8154 60.1983 62.4633 60.1983 63.3154C60.1983 64.7543 59.204 66.427 57.602 67.6808C56.249 68.7399 53.8463 70.0023 50.085 70.0023Z" fill="#262262"/>
</g>
<path d="M59.6849 62.9022C59.6849 65.2332 56.4855 69.0776 50.0868 69.0776C43.5927 69.0776 40.4878 65.2046 40.4878 62.9022C40.4878 61.7142 44.7816 60.7505 50.0868 60.7505C55.392 60.7505 59.6849 61.7142 59.6849 62.9022Z" fill="#F9AD86"/>
<path d="M57.758 66.0034C54.905 66.0034 52.8735 67.323 53.4938 68.0978C54.0338 68.7715 58.5433 66.0034 57.758 66.0034Z" fill="#CD683F"/>
<path d="M42.5523 66.1128C45.2412 66.1128 47.2335 67.4353 46.6496 68.1652C46.1429 68.8007 41.8138 66.1128 42.5523 66.1128Z" fill="#CD683F"/>
<path d="M59.6849 62.9022C59.6849 65.2332 56.4855 69.0776 50.0868 69.0776C43.5927 69.0776 40.4878 65.2046 40.4878 62.9022C40.4878 61.7142 44.7816 60.7505 50.0868 60.7505C55.392 60.7505 59.6849 61.7142 59.6849 62.9022Z" stroke="#A75425" stroke-width="0.974215" stroke-miterlimit="10"/>
<g style="mix-blend-mode:darken" opacity="0.2">
<g style="mix-blend-mode:darken" opacity="0.2">
<path d="M55.2239 77.2892C54.0569 77.2892 52.8823 76.9209 51.7764 76.2005C51.1733 75.8038 50.6204 75.3357 50.1295 74.8064C49.6382 75.3347 49.0849 75.8019 48.4817 76.1976C47.0342 77.1413 45.4684 77.481 43.956 77.1804C40.6584 76.5249 39.1594 74.0574 38.4838 72.1023C38.4625 72.0407 38.4535 71.9755 38.4574 71.9105C38.4613 71.8454 38.478 71.7818 38.5065 71.7232C38.535 71.6646 38.5747 71.6121 38.6234 71.5689C38.6722 71.5256 38.729 71.4924 38.7906 71.4711C38.8522 71.4498 38.9173 71.4408 38.9824 71.4447C39.0474 71.4486 39.1111 71.4653 39.1697 71.4938C39.2283 71.5223 39.2807 71.562 39.324 71.6108C39.3672 71.6595 39.4005 71.7163 39.4218 71.7779C40.2805 74.2645 41.8721 75.7549 44.1497 76.2072C45.4207 76.46 46.6964 76.1766 47.9407 75.3665C48.6211 74.9202 49.2279 74.3707 49.7393 73.7378C49.7854 73.6783 49.8446 73.6301 49.9123 73.5971C49.9799 73.564 50.0542 73.5468 50.1295 73.5469V73.5469C50.2048 73.547 50.279 73.5643 50.3467 73.5974C50.4143 73.6304 50.4735 73.6784 50.5198 73.7378C51.0312 74.3707 51.638 74.9202 52.3184 75.3665C53.5588 76.1766 54.8374 76.46 56.1094 76.2072C58.386 75.7549 59.9766 74.2645 60.8373 71.7779C60.8586 71.7163 60.8918 71.6595 60.9351 71.6108C60.9783 71.562 61.0308 71.5223 61.0894 71.4938C61.148 71.4653 61.2116 71.4486 61.2767 71.4447C61.3417 71.4408 61.4069 71.4498 61.4685 71.4711C61.5301 71.4924 61.5869 71.5256 61.6356 71.5689C61.6844 71.6121 61.7241 71.6646 61.7526 71.7232C61.7811 71.7818 61.7978 71.8454 61.8016 71.9105C61.8055 71.9755 61.7966 72.0407 61.7753 72.1023C61.0988 74.0574 59.6007 76.5249 56.3021 77.1804C55.9471 77.2518 55.586 77.2882 55.2239 77.2892V77.2892Z" fill="#262262"/>
</g>
</g>
<path d="M38.9521 71.2749C39.6201 73.1918 41.0313 75.4284 44.0522 76.0286C47.3842 76.6908 49.784 73.8187 50.1294 73.3789C50.4738 73.8187 52.8736 76.6908 56.2056 76.0286C59.2275 75.4284 60.6425 73.1918 61.3057 71.2749" stroke="#462314" stroke-width="0.992344" stroke-linecap="round" stroke-linejoin="round"/>
<defs>
<radialGradient id="paint0_radial" cx="0" cy="0" r="1" gradientUnits="userSpaceOnUse" gradientTransform="translate(75.0029 43.7592) rotate(180) scale(15.2811)">
<stop stop-color="#933F22"/>
<stop offset="1" stop-color="#933F22" stop-opacity="0"/>
</radialGradient>
<radialGradient id="paint1_radial" cx="0" cy="0" r="1" gradientUnits="userSpaceOnUse" gradientTransform="translate(79.5422 43.1661) scale(10.2402)">
<stop stop-color="#262262"/>
<stop offset="1" stop-color="#262262" stop-opacity="0.5"/>
</radialGradient>
<radialGradient id="paint2_radial" cx="0" cy="0" r="1" gradientUnits="userSpaceOnUse" gradientTransform="translate(85663.5 5110.36) scale(3331.9 3565.39)">
<stop stop-color="#933F22"/>
<stop offset="1" stop-color="#933F22" stop-opacity="0"/>
</radialGradient>
<radialGradient id="paint3_radial" cx="0" cy="0" r="1" gradientUnits="userSpaceOnUse" gradientTransform="translate(-31500.6 4462.87) rotate(180) scale(2248.92 2145.94)">
<stop stop-color="#262262"/>
<stop offset="1" stop-color="#262262" stop-opacity="0.5"/>
</radialGradient>
<linearGradient id="paint4_linear" x1="50.1479" y1="71.2266" x2="50.1479" y2="30.5491" gradientUnits="userSpaceOnUse">
<stop stop-color="#EEB310" stop-opacity="0"/>
<stop offset="1" stop-color="#EEB310"/>
</linearGradient>
<linearGradient id="paint5_linear" x1="65.4164" y1="63.1503" x2="65.4164" y2="49.7479" gradientUnits="userSpaceOnUse">
<stop stop-color="#603913" stop-opacity="0"/>
<stop offset="1" stop-color="#3C2415"/>
</linearGradient>
<linearGradient id="paint6_linear" x1="3308.55" y1="6721.79" x2="3308.55" y2="4547.78" gradientUnits="userSpaceOnUse">
<stop stop-color="#603913" stop-opacity="0"/>
<stop offset="1" stop-color="#3C2415"/>
</linearGradient>
</defs>
</svg>
