<svg width="100" height="100" viewBox="0 0 100 100" fill="none" xmlns="http://www.w3.org/2000/svg">
<path d="M72.0636 33.6912C78.9272 30.6379 82.0169 26.4252 88.6381 26.3975C92.4272 26.3822 98.0427 32.7008 97.8395 41.4458C97.6868 48.0039 93.5532 58.7975 80.6438 57.0943C75.9682 56.4751 70.9586 40.1796 72.0636 33.6912Z" fill="#EEB310"/>
<path style="mix-blend-mode:multiply" opacity="0.5" d="M83.7749 33.3696C83.7749 33.3696 90.7111 30.6254 93.8389 35.1281C93.8389 35.1281 91.6624 35.4144 89.963 36.3953C89.963 36.3953 93.4992 36.818 94.7912 39.5622C94.7912 39.5622 93.4992 39.0699 92.2063 39.6328C92.2063 39.6328 94.3828 56.7345 79.9667 54.6239L73.9829 39.8446C73.9829 39.8446 78.8789 35.2694 83.7749 33.3696Z" fill="url(#paint0_radial)"/>
<path style="mix-blend-mode:darken" opacity="0.24" d="M73.4871 46.4078C72.2381 42.1417 71.5701 36.8413 71.9528 34.0035C78.6818 30.7488 82.1341 26.6297 88.8174 26.4121C90.0578 26.4923 91.47 27.2146 92.8012 28.455C89.9653 29.2183 87.0759 31.9587 84.7668 37.4329C82.3498 43.1684 76.0577 45.7361 73.4871 46.4078Z" fill="url(#paint1_radial)"/>
<path d="M88.6416 26.4009C82.0203 26.4286 78.9306 30.6451 72.067 33.6946C71.6539 36.1173 72.0957 39.9092 73.0527 43.7412C73.1233 43.8003 73.1892 43.8585 73.2617 43.9177C73.2617 43.9177 81.1673 42.7593 84.3018 36.0801C86.7732 30.814 89.7227 28.5421 92.4727 28.1041C91.1683 27.003 89.8152 26.3961 88.6416 26.4009Z" fill="#EEB310"/>
<path d="M71.8019 33.1184L72.0375 33.0134C72.1931 32.9438 72.4297 32.8426 72.716 32.7052C73.298 32.4352 74.1559 32.0106 75.216 31.4161C75.7465 31.1175 76.3286 30.774 76.9593 30.3904L79.0109 29.1337C79.7485 28.6853 80.5452 28.2139 81.4212 27.7635C81.8592 27.5393 82.3162 27.3189 82.7971 27.1185C83.0347 27.0135 83.2828 26.9219 83.5319 26.8256C83.7809 26.7292 84.0376 26.6443 84.2952 26.5679C84.5529 26.4916 84.8239 26.4153 85.0939 26.3437C85.364 26.2721 85.6407 26.2149 85.9222 26.1681C86.2037 26.1214 86.4871 26.0775 86.7733 26.0355C87.0596 25.9935 87.3516 25.9697 87.6455 25.9573C87.7924 25.9496 87.9394 25.9363 88.0882 25.9344L88.5338 25.9258H88.6693L88.7781 25.9315L88.9966 25.943C89.1588 25.963 89.3401 25.9859 89.5014 26.0193C90.1341 26.1603 90.7412 26.3985 91.301 26.7254C91.8596 27.0473 92.3842 27.4249 92.8669 27.8523C93.3569 28.2823 93.8119 28.7507 94.2276 29.253C94.6516 29.7604 95.0421 30.2949 95.3965 30.8532C95.7538 31.421 96.079 32.0084 96.3707 32.6127C97.5472 35.0515 98.1837 37.831 98.2199 40.6583V41.1888V41.4541L98.2085 41.7212C98.1989 42.0647 98.1665 42.4273 98.136 42.7851C98.0644 43.4941 97.9518 44.1992 97.8106 44.8986C97.6694 45.5981 97.4795 46.2908 97.2648 46.9749C97.2085 47.1448 97.1484 47.3137 97.0902 47.4835L97.0024 47.7383L96.907 47.9883L96.7104 48.4902L96.4938 48.9835C96.4251 49.1495 96.3449 49.3098 96.2648 49.4711C96.1846 49.6323 96.1092 49.7945 96.0243 49.9539C95.8497 50.2678 95.6856 50.5874 95.4909 50.8909C95.1184 51.5058 94.704 52.0944 94.2505 52.6523C94.0148 52.9233 93.7915 53.2048 93.5348 53.4576C93.4098 53.5855 93.2886 53.7181 93.1598 53.8393L92.7581 54.2057C92.6913 54.2658 92.6274 54.3288 92.5586 54.387L92.3506 54.5559L91.9327 54.8936L91.4957 55.2028L91.2772 55.3574C91.2056 55.4099 91.1264 55.4528 91.051 55.5005C89.8548 56.253 88.5469 56.8111 87.176 57.1541C85.8453 57.4817 84.4775 57.6344 83.1073 57.6083C82.4393 57.5911 81.7714 57.5625 81.1158 57.4814C80.7819 57.4394 80.4851 57.4422 80.091 57.3058C79.7587 57.1895 79.4448 57.0263 79.1588 56.8211C78.6238 56.4291 78.1442 55.9666 77.7332 55.4461C77.34 54.9558 76.9785 54.4407 76.6511 53.9042C76.0343 52.8832 75.4848 51.8231 75.0061 50.7306C74.5376 49.681 74.1473 48.639 73.7885 47.6352C73.1482 45.8034 72.6142 43.9362 72.1893 42.0428C71.8556 40.5787 71.609 39.0962 71.4507 37.603C71.344 36.6253 71.3086 35.6412 71.3448 34.6584C71.362 34.313 71.3858 34.0458 71.4068 33.8655L71.4832 33.2644L71.8019 33.1184ZM72.6301 34.1212C72.6063 34.2739 72.5748 34.48 72.5471 34.7405C72.466 35.6623 72.4567 36.5891 72.5194 37.5124C72.6159 38.9714 72.8071 40.4225 73.0919 41.8567C73.4538 43.7278 73.9341 45.574 74.5299 47.3843C74.8563 48.3795 75.2379 49.4024 75.6807 50.4376C76.1294 51.5072 76.6523 52.544 77.2456 53.5406C77.5553 54.0524 77.8969 54.5441 78.2685 55.0129C78.6373 55.4836 79.0669 55.9033 79.5462 56.261C79.7802 56.4306 80.0372 56.5659 80.3095 56.6627L80.4927 56.718L80.612 56.74L80.6712 56.7505L80.7008 56.7562C80.7141 56.7562 80.6893 56.7562 80.7141 56.7562L81.1912 56.8058C81.8258 56.8841 82.4689 56.9098 83.1168 56.9251C84.4303 56.9496 85.7414 56.802 87.0166 56.4862C88.3157 56.1588 89.5546 55.6278 90.6875 54.9127C90.759 54.8669 90.8334 54.8278 90.9012 54.7772L91.1073 54.6312L91.5214 54.3374L91.9155 54.0168L92.113 53.8565C92.177 53.8011 92.238 53.742 92.3039 53.6847L92.6684 53.3469C92.7905 53.2286 92.905 53.1027 93.0243 52.9805C93.2667 52.741 93.4785 52.4719 93.7027 52.2172C94.1339 51.6828 94.5273 51.1191 94.8802 50.5302C95.0653 50.2439 95.2199 49.9319 95.3869 49.6304C95.4671 49.4777 95.5386 49.3203 95.615 49.1657C95.6913 49.0111 95.7667 48.8566 95.8325 48.6963L96.0386 48.2192L96.2295 47.7364L96.3249 47.495L96.4089 47.2497C96.4633 47.0856 96.5205 46.9224 96.573 46.7583C96.7762 46.098 96.9547 45.4301 97.0892 44.7546C97.2238 44.079 97.3268 43.3987 97.3926 42.7174C97.4184 42.3796 97.448 42.0495 97.4566 41.6945L97.4661 41.4407V40.6774C97.4031 37.9589 96.7648 35.3015 95.6216 32.9896C95.3367 32.4191 95.021 31.8646 94.676 31.3283C94.336 30.8059 93.9628 30.3058 93.5587 29.8312C93.1657 29.3667 92.7362 28.9344 92.2743 28.5383C91.8343 28.1565 91.357 27.8199 90.8497 27.5336C90.3737 27.2612 89.8588 27.0633 89.3229 26.9468C89.2571 26.9296 89.2018 26.9286 89.1407 26.9181C89.0796 26.9076 89.0252 26.899 88.9594 26.8924L88.7409 26.8828H88.6321H88.55L88.1321 26.8952C87.9928 26.8952 87.8554 26.9134 87.718 26.921C87.4422 26.9353 87.1722 26.9735 86.904 27.003C86.6359 27.0326 86.3716 27.0822 86.113 27.1385C85.8544 27.1948 85.5987 27.254 85.3496 27.3141C85.1006 27.3742 84.8515 27.4515 84.6101 27.5345C84.3687 27.6175 84.133 27.7025 83.8973 27.7874C83.6617 27.8723 83.4346 27.9715 83.2113 28.0736C82.7618 28.2702 82.3315 28.4858 81.9164 28.7082C81.0863 29.1519 80.3172 29.6242 79.5948 30.0784L77.5605 31.3627C76.9288 31.7615 76.34 32.1203 75.8028 32.438C74.7265 33.0726 73.8563 33.5277 73.2475 33.8273C72.9851 33.96 72.7809 34.0535 72.6301 34.1241V34.1212Z" fill="#A75425"/>
<path d="M28.1605 33.6912C21.2969 30.6378 18.2072 26.4251 11.586 26.3975C7.79684 26.386 2.18039 32.7046 2.38173 41.4496C2.53727 48.0039 6.67565 58.8013 19.5793 57.0934C24.2559 56.475 29.2655 40.1796 28.1605 33.6912Z" fill="#EEB310"/>
<path style="mix-blend-mode:multiply" opacity="0.5" d="M16.4479 33.3696C16.4479 33.3696 9.51182 30.6254 6.38394 35.1281C6.38394 35.1281 8.56047 35.4144 10.2599 36.3953C10.2599 36.3953 6.72363 36.818 5.43164 39.5622C5.43164 39.5622 6.72363 39.0699 8.01562 39.6328C8.01562 39.6328 5.84004 56.7345 20.2562 54.6239L26.2371 39.8446C26.2371 39.8446 21.3449 35.2694 16.4479 33.3696Z" fill="url(#paint2_radial)"/>
<path style="mix-blend-mode:darken" opacity="0.24" d="M26.7364 46.4078C27.9845 42.1417 28.6534 36.8413 28.2708 34.0035C21.5417 30.7488 18.0894 26.6297 11.4062 26.4121C10.1657 26.4923 8.75348 27.2146 7.42236 28.455C10.2583 29.2183 13.1476 31.9587 15.4558 37.4329C17.8728 43.1684 24.1658 45.7361 26.7364 46.4078Z" fill="url(#paint3_radial)"/>
<path d="M11.586 26.4009C18.2072 26.4286 21.2969 30.6451 28.1605 33.6946C28.5737 36.1173 28.1319 39.9092 27.1739 43.7412C27.1042 43.8003 27.0374 43.8585 26.9659 43.9177C26.9659 43.9177 19.0603 42.7593 15.9257 36.0801C13.4505 30.814 10.5049 28.5383 7.75488 28.1041C9.05546 27.003 10.4085 26.3961 11.586 26.4009Z" fill="#EEB310"/>
<path d="M27.5937 34.1241C27.4429 34.0535 27.2387 33.96 26.9763 33.8274C26.3675 33.5278 25.4973 33.0726 24.4209 32.4381C23.8837 32.1203 23.295 31.7616 22.6633 31.3627L20.6346 30.0727C19.9123 29.6185 19.1432 29.1462 18.3131 28.7025C17.898 28.4802 17.4667 28.2645 17.0182 28.068C16.7949 27.9659 16.564 27.8771 16.3321 27.7817C16.1003 27.6863 15.8627 27.6042 15.6184 27.5288C15.3741 27.4535 15.1289 27.38 14.8789 27.3084C14.6289 27.2369 14.3732 27.1796 14.1155 27.1329C13.8579 27.0861 13.5917 27.0374 13.3245 26.9974C13.0573 26.9573 12.7863 26.9296 12.5106 26.9153C12.3731 26.9077 12.2357 26.8924 12.0964 26.8895L11.6775 26.8771H11.5964H11.4876L11.2691 26.8867C11.2033 26.8934 11.1489 26.9048 11.0878 26.9124C11.0268 26.9201 10.9714 26.9239 10.9056 26.9411C10.3697 27.0576 9.85485 27.2555 9.37886 27.5279C8.86944 27.816 8.39025 28.1545 7.94851 28.5384C7.49105 28.933 7.06543 29.3631 6.6756 29.8246C6.2709 30.2987 5.89765 30.7988 5.55823 31.3217C5.21323 31.8579 4.89756 32.4125 4.61261 32.9829C3.46566 35.2949 2.82729 37.9523 2.76336 40.6707V41.4341L2.77386 41.6879C2.78245 42.0409 2.81203 42.373 2.83779 42.7108C2.90363 43.392 3.00859 44.0724 3.14123 44.7479C3.27386 45.4235 3.45325 46.0905 3.65745 46.7517C3.70993 46.9158 3.76719 47.079 3.82157 47.2431L3.90459 47.4883L4.00001 47.7297L4.18608 48.2125L4.39219 48.6896C4.45707 48.8499 4.53341 49.0045 4.60975 49.1591C4.68608 49.3137 4.75765 49.4711 4.8378 49.6238C5.00383 49.9253 5.15937 50.2335 5.34448 50.5236C5.69741 51.1123 6.09052 51.6759 6.52102 52.2105C6.74621 52.4691 6.95804 52.7382 7.20041 52.9739C7.31969 53.096 7.43419 53.222 7.55633 53.3403L7.93133 53.6867C7.99431 53.7439 8.05442 53.8031 8.12217 53.8584L8.31969 54.0187L8.71378 54.3393L9.12695 54.6332L9.33019 54.7782C9.39794 54.8288 9.47237 54.8679 9.54393 54.9137C10.6762 55.6318 11.9152 56.1658 13.2148 56.4957C14.49 56.8116 15.8011 56.9592 17.1146 56.9347C17.7625 56.9194 18.4056 56.8936 19.0402 56.8154L19.5173 56.7658C19.5421 56.7658 19.5173 56.7658 19.5306 56.7658L19.5602 56.7601L19.6194 56.7496L19.7386 56.7276L19.9219 56.6723C20.1942 56.5755 20.4512 56.4402 20.6852 56.2706C21.1644 55.9131 21.5937 55.4934 21.9619 55.0225C22.3341 54.5542 22.6758 54.0624 22.9848 53.5502C23.5788 52.5538 24.1021 51.5169 24.5507 50.4472C24.9934 49.411 25.3751 48.3881 25.7015 47.3939C26.2973 45.5836 26.7776 43.7374 27.1395 41.8663C27.4243 40.4321 27.6155 38.9809 27.712 37.5219C27.7747 36.5987 27.7654 35.6719 27.6843 34.7501C27.649 34.4829 27.6175 34.2768 27.5937 34.1241ZM28.7816 33.5888C28.7816 33.5888 28.794 33.6842 28.8169 33.8636C28.8398 34.043 28.8618 34.3111 28.879 34.6565C28.9153 35.64 28.8799 36.6248 28.773 37.603C28.615 39.0982 28.3683 40.5826 28.0345 42.0486C27.6095 43.9419 27.0756 45.8092 26.4352 47.641C26.0784 48.6448 25.6852 49.6848 25.2167 50.7363C24.7387 51.829 24.1895 52.8892 23.5726 53.9099C23.245 54.4445 22.8836 54.9576 22.4906 55.4462C22.0807 55.965 21.6028 56.4262 21.0698 56.8173C20.7837 57.0225 20.4698 57.1857 20.1375 57.302C19.7434 57.4385 19.4467 57.4356 19.1127 57.4776C18.4591 57.5587 17.793 57.5873 17.1213 57.6045C15.7495 57.6314 14.3801 57.479 13.0478 57.1513C11.6768 56.8085 10.3688 56.2504 9.17275 55.4977C9.09737 55.45 9.01817 55.407 8.9466 55.3546L8.72809 55.2L8.29011 54.8908L7.87312 54.553L7.66511 54.3842C7.5964 54.326 7.53247 54.263 7.46568 54.2029L7.06968 53.8393C6.94087 53.7143 6.81968 53.5817 6.69468 53.4577C6.438 53.2048 6.21758 52.9233 5.97903 52.6523C5.5252 52.0947 5.11071 51.5061 4.73856 50.8909C4.54772 50.5875 4.37978 50.2678 4.20516 49.9539C4.12024 49.7946 4.04486 49.6314 3.96471 49.4711C3.88455 49.3108 3.8044 49.1495 3.7357 48.9835L3.51909 48.4902L3.32253 47.9883L3.22711 47.7383L3.13932 47.4835C3.08207 47.3137 3.02195 47.1448 2.96565 46.975C2.75096 46.2908 2.5668 45.5981 2.41985 44.8987C2.2729 44.1993 2.16031 43.4941 2.08874 42.7852C2.05821 42.4274 2.02576 42.0648 2.01622 41.7213L2 41.4541V41.1888V40.6564C2.03817 37.8292 2.67271 35.0497 3.84925 32.6108C4.14216 32.0065 4.46869 31.4191 4.82731 30.8513C5.18174 30.2937 5.57221 29.7598 5.99621 29.253C6.41157 28.7505 6.8666 28.2821 7.3569 27.8523C7.83959 27.4249 8.3642 27.0474 8.92275 26.7254C9.4812 26.3997 10.0866 26.1621 10.7176 26.0212C10.8779 25.9878 11.0602 25.9649 11.2224 25.9449L11.4409 25.9335L11.5497 25.9277H11.6852L12.1308 25.9363C12.2787 25.9363 12.4266 25.9516 12.5735 25.9592C12.8674 25.9716 13.1575 26.0088 13.4457 26.0375C13.7338 26.0661 14.0182 26.1138 14.2968 26.1701C14.5755 26.2264 14.8522 26.2846 15.1251 26.3457C15.398 26.4067 15.6632 26.485 15.9228 26.5699C16.1823 26.6548 16.439 26.7407 16.6919 26.8275C16.9447 26.9144 17.189 27.0184 17.4266 27.1205C17.9037 27.3208 18.3646 27.5412 18.8026 27.7655C19.6785 28.2159 20.4753 28.6872 21.2129 29.1357L23.2635 30.3923C23.8952 30.774 24.4772 31.1194 25.0078 31.4181C26.0679 32.0125 26.9257 32.4371 27.5078 32.7072C27.794 32.8446 28.0307 32.9457 28.1862 33.0154L28.7406 33.2615L28.7816 33.5888Z" fill="#A75425"/>
<path d="M54.6951 25.7815C69.6684 27.7642 80.9987 39.3852 81.1637 53.4268C81.4223 75.4454 70.4576 77.3232 49.7647 77.3232C30.0127 77.3232 19.1348 74.3653 19.1348 53.4268C19.1348 38.9987 31.2694 27.1278 46.8429 25.6393C46.8391 25.6393 52.4699 25.5057 54.6951 25.7815Z" fill="#EEB111"/>
<path d="M45.9428 24.5715C52.3646 24.9026 43.9494 22.1164 45.1594 21.8311C52.1136 20.1947 54.9772 25.4761 54.9772 25.4761C57.0945 25.6412 57.1718 26.0333 57.1718 26.0333L52.0201 39.4157C52.0201 39.4157 51.5707 40.8737 50.2071 40.8832C48.8435 40.8927 48.3769 39.4424 48.3769 39.4424L45.7023 32.7717C45.7023 32.7717 44.6346 33.8032 44.5449 33.5523C44.5181 29.6258 47.9266 28.6039 47.9266 28.6039C47.9266 28.6039 44.8798 28.2604 40.645 30.1039C40.6393 27.2509 43.8292 24.4618 45.9428 24.5715Z" fill="#C88912"/>
<path d="M34.0903 29.7905C35.0591 29.1316 36.089 28.5673 37.1657 28.1054C38.3323 27.6016 39.5367 27.1904 40.7679 26.8755L41.0388 34.2637C41.0388 34.2637 41.1209 35.0461 40.4787 35.3257C39.8365 35.6053 39.3194 35.0146 39.3194 35.0146L34.0903 29.7905Z" fill="#C88A12"/>
<path d="M66.2751 29.7905C65.3063 29.1316 64.2765 28.5673 63.1998 28.1054C62.0332 27.6016 60.8287 27.1904 59.5976 26.8755L59.3266 34.2637C59.3266 34.2637 59.2446 35.0461 59.8868 35.3257C60.5289 35.6053 61.0461 35.0146 61.0461 35.0146L66.2751 29.7905Z" fill="#C88912"/>
<path d="M54.6951 25.7815C69.6684 27.7642 80.9987 39.3852 81.1637 53.4268C81.4223 75.4454 70.4576 77.3232 49.7647 77.3232C30.0127 77.3232 19.1348 74.3653 19.1348 53.4268C19.1348 38.9987 31.2694 27.1278 46.8429 25.6393C46.8391 25.6393 52.4699 25.5057 54.6951 25.7815Z" stroke="#A75425" stroke-width="1.0357" stroke-miterlimit="10"/>
<path d="M55.4599 26.385C55.4599 26.385 52.8225 19.7153 44.2862 22.0435C44.2862 22.0435 47.3902 22.7544 48.6831 24.6303C48.6831 24.6303 41.6354 23.0779 40.5361 30.3201C40.5361 30.3201 44.7394 27.927 48.5276 28.6245C48.5276 28.6245 44.7394 28.8325 44.5447 33.5528C44.5447 33.5528 47.5839 30.9021 51.1889 31.5491" fill="#C88912"/>
<path style="mix-blend-mode:overlay" opacity="0.7" d="M54.3468 27.4723C68.1722 29.3015 78.6341 40.0331 78.7868 52.9985C79.0253 73.3301 68.8898 75.8119 49.7943 75.0638C31.4077 74.3434 21.5088 72.3349 21.5088 52.9985C21.5088 41.6981 29.5709 32.0963 40.7942 28.604C40.985 28.4332 40.4488 30.2537 40.6444 30.1039C43.0118 25.5372 48.2551 25.7061 50.1158 25.9619C50.1158 25.9619 50.1158 24.1022 48.6778 23.0039C52.5729 23.2539 54.3468 27.4723 54.3468 27.4723Z" fill="url(#paint4_linear)"/>
<g style="mix-blend-mode:darken" opacity="0.2">
<path d="M46.3132 29.5994C46.3714 29.5412 47.172 28.9648 47.5537 28.8045H47.5164C47.4268 28.7959 47.3371 28.7931 47.2464 28.7874C47.1558 28.7816 47.0661 28.7769 46.9764 28.7769H46.7054L46.4353 28.7826C45.717 28.8068 45.0022 28.8933 44.2989 29.0412C43.5982 29.1867 42.9078 29.3779 42.2321 29.6137C42.0622 29.6719 40.0221 30.4066 39.9945 30.5287L39.9238 30.8951C39.9025 31.0073 39.913 31.1232 39.9543 31.2297C39.9955 31.3362 40.0658 31.429 40.1571 31.4976C40.2484 31.5662 40.3572 31.6078 40.4709 31.6176C40.5847 31.6275 40.699 31.6053 40.8008 31.5535L40.8466 31.5297C40.9048 31.4944 40.9811 31.4495 41.0508 31.4104L41.2674 31.2911C41.4134 31.2119 41.5622 31.1356 41.7111 31.0602C41.8599 30.9848 42.0126 30.9133 42.1643 30.8436C42.316 30.7739 42.4706 30.7052 42.6252 30.6404C43.242 30.3767 43.8753 30.1536 44.5212 29.9724C45.1081 29.8024 45.7072 29.6776 46.3132 29.5994V29.5994Z" fill="#262262"/>
</g>
<g style="mix-blend-mode:darken" opacity="0.2">
<path d="M51.3685 31.3208C50.141 31.3393 48.9181 31.4761 47.7168 31.7292C45.8771 32.1242 44.0145 32.8742 43.9238 33.5269V33.9772C43.9238 34.1318 43.9839 34.3808 44.1032 34.4982C44.1594 34.5538 44.2261 34.5978 44.2993 34.6276C44.3725 34.6574 44.4509 34.6725 44.53 34.6719C44.609 34.6714 44.6872 34.6553 44.76 34.6245C44.8329 34.5937 44.8989 34.5488 44.9544 34.4925C44.9677 34.4782 48.0651 31.8074 51.2082 31.9792C51.6367 32.0021 51.5355 31.3513 51.3685 31.3208Z" fill="#262262"/>
</g>
<path d="M55.1267 26.3371C55.079 26.2322 55.017 26.1129 54.955 26.0013C54.893 25.8896 54.8252 25.777 54.7556 25.6673C54.6158 25.4476 54.4648 25.2351 54.3033 25.0309C53.9827 24.6223 53.6225 24.2464 53.2279 23.9088C52.8362 23.5734 52.4113 23.279 51.9597 23.03C51.5098 22.7839 51.0364 22.5835 50.5466 22.4317C49.5607 22.1388 48.5309 22.0222 47.5046 22.0872C47.2479 22.1025 46.9903 22.1225 46.7336 22.1569C46.4769 22.1912 46.2221 22.2294 45.9702 22.2762C45.8423 22.3 45.7154 22.3277 45.5885 22.3534L45.2068 22.4422L44.8252 22.5376L44.4521 22.6511L44.4273 21.4288C44.4969 21.4479 44.5465 21.4632 44.6047 21.4823L44.7698 21.5367C44.8796 21.5739 44.9864 21.613 45.0943 21.6531C45.3086 21.7332 45.5195 21.8194 45.7269 21.9117C46.1451 22.0951 46.5512 22.3051 46.9425 22.5405C47.038 22.6006 47.1382 22.6607 47.2336 22.7246C47.329 22.7885 47.4244 22.8544 47.5198 22.9202C47.6153 22.9861 47.7107 23.0576 47.7966 23.1311C47.8824 23.2046 47.975 23.279 48.0637 23.3544C48.1525 23.4298 48.2364 23.5109 48.3176 23.5958C48.3987 23.6807 48.4807 23.7656 48.5599 23.8525C48.6391 23.9393 48.7126 24.0328 48.7822 24.1292C48.8519 24.2255 48.9187 24.3248 48.9845 24.4231C49.0296 24.48 49.0563 24.5493 49.0609 24.6218C49.0656 24.6942 49.048 24.7664 49.0106 24.8286C48.9731 24.8908 48.9176 24.9401 48.8514 24.97C48.7852 24.9998 48.7115 25.0087 48.6401 24.9956L48.6067 24.9898C48.5113 24.9727 48.3948 24.9564 48.2861 24.944C48.1773 24.9316 48.0628 24.9221 47.9502 24.9135C47.7259 24.8982 47.4998 24.8916 47.2746 24.8935C46.8268 24.896 46.38 24.9356 45.9387 25.0118C45.5035 25.0868 45.0768 25.2048 44.6649 25.3639C44.2606 25.5212 43.8763 25.7255 43.5198 25.9726C42.8192 26.4697 42.2551 27.1352 41.8795 27.9077C41.783 28.101 41.6963 28.2991 41.62 28.5012C41.5456 28.7044 41.475 28.9105 41.4187 29.1224C41.3624 29.3342 41.3108 29.547 41.2669 29.7636C41.245 29.8714 41.2278 29.9811 41.2087 30.0899L41.161 30.4191L40.2068 29.7855C40.3022 29.735 40.3709 29.6968 40.453 29.6558C40.5351 29.6147 40.6114 29.5766 40.6906 29.5384C40.849 29.4621 41.0074 29.3895 41.1677 29.3199C41.4858 29.1806 41.8089 29.0534 42.1372 28.9382C42.3003 28.8791 42.4645 28.8218 42.6305 28.7693C42.7965 28.7169 42.9616 28.6653 43.1286 28.6167C43.2956 28.568 43.4635 28.5212 43.6324 28.4821C43.8013 28.443 43.9702 28.4001 44.141 28.3657C44.3118 28.3314 44.4826 28.2989 44.6544 28.2703C44.8261 28.2417 44.9979 28.214 45.1715 28.1959C45.3452 28.1777 45.5189 28.1577 45.6925 28.1434C45.8662 28.1291 46.0408 28.1195 46.2154 28.1176H46.4778H46.7403C46.828 28.1176 46.9158 28.1253 47.0027 28.13C47.0895 28.1348 47.1773 28.1377 47.2651 28.1482L47.5265 28.1749C47.6133 28.1835 47.7002 28.1987 47.787 28.2111C47.9607 28.2321 48.1324 28.2732 48.3042 28.3066C48.3833 28.3154 48.4565 28.3526 48.5104 28.4112C48.5643 28.4698 48.5951 28.5459 48.5973 28.6255C48.5996 28.705 48.5729 28.7827 48.5224 28.8442C48.4719 28.9057 48.4008 28.9469 48.3223 28.9602L48.2632 28.9707L48.184 28.984L48.0933 29.0031C48.0322 29.0165 47.9712 29.0327 47.9101 29.0508C47.7889 29.0871 47.6687 29.13 47.5504 29.1777C47.4332 29.2273 47.3185 29.2827 47.2069 29.3437C47.0956 29.4045 46.9876 29.471 46.8834 29.5432C46.7803 29.6154 46.6809 29.6927 46.5857 29.775C46.491 29.8573 46.4009 29.9445 46.3156 30.0365C46.2717 30.0794 46.2336 30.1319 46.1925 30.1767C46.1515 30.2216 46.1133 30.2722 46.0761 30.3237C46.0005 30.4228 45.9304 30.526 45.8662 30.6328L45.7708 30.796C45.7412 30.8513 45.7145 30.9086 45.6868 30.9639C45.6578 31.0198 45.6317 31.0771 45.6086 31.1357C45.5847 31.1939 45.557 31.2502 45.536 31.3103C45.495 31.4305 45.4492 31.5479 45.4168 31.671C45.3996 31.733 45.3796 31.7931 45.3652 31.8551L45.3223 32.046C45.2899 32.1691 45.2765 32.2998 45.2517 32.4276C45.2269 32.5555 45.2212 32.6853 45.2049 32.8093L45.1792 33.1996L45.1725 33.5927L44.1229 33.0918C44.1658 33.0564 44.1954 33.0355 44.2297 33.0087L44.3252 32.9372C44.392 32.8895 44.4578 32.8418 44.5236 32.7998C44.6566 32.7101 44.7902 32.6248 44.9244 32.5441C45.1948 32.3812 45.4705 32.2301 45.7517 32.0908C45.8923 32.0208 46.0345 31.9544 46.1782 31.8914C46.322 31.8284 46.4667 31.7683 46.6124 31.7111C46.7584 31.6529 46.9063 31.6013 47.0542 31.5498C47.2021 31.4983 47.3529 31.4544 47.5046 31.4114C47.6563 31.3685 47.809 31.3313 47.9616 31.295C48.1143 31.2588 48.2689 31.2292 48.4235 31.2044C48.578 31.1796 48.7355 31.1576 48.891 31.1386C49.0466 31.1195 49.204 31.1071 49.3614 31.1013C49.5189 31.0956 49.6754 31.0947 49.8328 31.0928L50.0685 31.1013C50.1468 31.1013 50.225 31.109 50.3032 31.1166L50.538 31.1386L50.7708 31.1719C50.9263 31.1901 51.079 31.2282 51.2326 31.2559C51.3121 31.2693 51.3832 31.313 51.431 31.3778C51.4789 31.4426 51.4998 31.5234 51.4893 31.6032C51.4788 31.6831 51.4377 31.7557 51.3747 31.8059C51.3117 31.8561 51.2317 31.8799 51.1515 31.8723H51.122C50.9807 31.8609 50.8405 31.838 50.6992 31.8332L50.4874 31.8227H50.2756C50.205 31.8227 50.1344 31.8227 50.0637 31.8275L49.8529 31.838C49.7116 31.8523 49.5714 31.8618 49.4321 31.8847C49.2927 31.9076 49.1534 31.9286 49.0151 31.9544C48.8767 31.9801 48.7393 32.0116 48.6038 32.0498C48.4683 32.088 48.3319 32.1252 48.1973 32.1681C48.0628 32.211 47.9301 32.2568 47.7985 32.3084C47.6668 32.3599 47.5361 32.4143 47.4063 32.4687C47.2765 32.5231 47.1486 32.5851 47.0246 32.649C46.9006 32.7129 46.7727 32.7769 46.6496 32.8456C46.5265 32.9143 46.4034 32.9849 46.2832 33.0584C46.0421 33.2053 45.808 33.3624 45.5809 33.5297C45.467 33.6131 45.3563 33.6983 45.2488 33.7854C45.1954 33.8284 45.142 33.8732 45.0904 33.9171L45.015 33.9839C44.9921 34.0049 44.9635 34.0307 44.9502 34.044C44.8657 34.132 44.7568 34.1926 44.6376 34.2181C44.5183 34.2436 44.3942 34.2327 44.2812 34.1869C44.1682 34.141 44.0715 34.0624 44.0036 33.9611C43.9358 33.8597 43.8999 33.7404 43.9005 33.6185V33.5431L43.9483 33.0946L44.0179 32.6462C44.0494 32.4973 44.0771 32.3484 44.1133 32.2006C44.1496 32.0527 44.1858 31.9048 44.2364 31.7588L44.307 31.5393C44.3318 31.4668 44.3624 31.3952 44.3891 31.3237C44.4416 31.1786 44.5093 31.0374 44.5733 30.8981C44.6057 30.8275 44.6458 30.7597 44.6811 30.691C44.7164 30.6223 44.7536 30.5546 44.7965 30.4878C44.8395 30.421 44.8767 30.3552 44.9196 30.2893L45.0542 30.0985C45.1496 29.9745 45.245 29.8495 45.3509 29.735C45.4034 29.6768 45.4559 29.6185 45.5122 29.5651C45.5685 29.5117 45.6219 29.4535 45.683 29.4029C45.799 29.2984 45.9203 29.2 46.0465 29.1081C46.1735 29.0126 46.3042 28.9325 46.4387 28.8552C46.5774 28.7737 46.7204 28.6998 46.8672 28.6338C47.0084 28.5719 47.1526 28.5171 47.2994 28.4697C47.4473 28.4249 47.5952 28.3858 47.7469 28.3552C47.8233 28.34 47.8987 28.3266 47.9769 28.3161L48.0943 28.3027C48.1363 28.3027 48.1706 28.2961 48.225 28.2932L48.183 28.9535C48.0237 28.9373 47.8662 28.9115 47.7059 28.9039C47.6258 28.8981 47.5466 28.8905 47.4664 28.8876L47.2288 28.881C47.1496 28.881 47.0685 28.881 46.9883 28.881C46.9082 28.881 46.829 28.881 46.7479 28.8876L46.5084 28.901L46.2679 28.923C46.1086 28.9363 45.9492 28.9602 45.7908 28.9821C45.6324 29.0041 45.4731 29.0327 45.3137 29.0661C45.1544 29.0995 44.9979 29.1338 44.8414 29.1691C44.6849 29.2044 44.5284 29.2483 44.3738 29.2941C44.2192 29.3399 44.0637 29.3895 43.9101 29.4363C43.7565 29.4831 43.6038 29.5394 43.4521 29.5956C43.3003 29.6519 43.1496 29.7092 42.9998 29.7712C42.85 29.8332 42.7011 29.8953 42.5542 29.9621C42.2584 30.0937 41.968 30.2346 41.683 30.3848C41.5398 30.4601 41.3967 30.5374 41.2612 30.6166C41.1916 30.6567 41.1229 30.6968 41.0561 30.7378C40.9893 30.7788 40.9167 30.8218 40.8652 30.8571C40.7664 30.9219 40.651 30.9571 40.5328 30.9585C40.4146 30.9599 40.2984 30.9274 40.1981 30.8649C40.0977 30.8024 40.0174 30.7124 39.9665 30.6057C39.9156 30.499 39.8964 30.3799 39.911 30.2626L39.9158 30.2235L39.9854 29.8571C40.0141 29.735 40.0389 29.6128 40.0694 29.4907C40.1305 29.2483 40.1963 29.006 40.2774 28.7665C40.3585 28.527 40.4473 28.2894 40.5456 28.0575C40.6472 27.8233 40.7606 27.5943 40.8853 27.3715C41.0098 27.1473 41.1474 26.9306 41.2975 26.7226C41.7499 26.0933 42.3179 25.5558 42.9711 25.1387C43.4027 24.8674 43.8649 24.6484 44.3481 24.486C44.8234 24.3273 45.3135 24.2164 45.8109 24.1549C46.301 24.0938 46.7954 24.0731 47.2889 24.0929C47.5341 24.1034 47.7794 24.1215 48.0237 24.1511C48.1458 24.1654 48.267 24.1816 48.3891 24.2017C48.5113 24.2217 48.6286 24.2427 48.7641 24.2732L48.3872 24.8353C48.3233 24.7599 48.2641 24.6826 48.1964 24.612C48.1286 24.5414 48.058 24.4708 47.9883 24.4021C47.9187 24.3334 47.8414 24.2685 47.7632 24.2112C47.6849 24.154 47.6048 24.0891 47.5246 24.029C47.4445 23.9689 47.3605 23.9135 47.2746 23.8601C47.1887 23.8067 47.1019 23.7532 47.0151 23.7017C46.9282 23.6502 46.8385 23.6015 46.7469 23.5557C46.6553 23.5099 46.5647 23.4603 46.4731 23.4183C46.1014 23.2439 45.7189 23.0935 45.328 22.9679C45.1324 22.904 44.9339 22.8458 44.7355 22.7933C44.64 22.7685 44.537 22.7427 44.4378 22.7208L44.2899 22.6884C44.2431 22.6779 44.1878 22.6674 44.1525 22.6616C44.0145 22.64 43.888 22.5724 43.7933 22.4698C43.6986 22.3672 43.6414 22.2356 43.6309 22.0964C43.6204 21.9572 43.6572 21.8185 43.7355 21.7029C43.8137 21.5873 43.9287 21.5014 44.0618 21.4594L44.1276 21.4384L44.5379 21.343L44.9521 21.258L45.3691 21.1836C45.5084 21.1636 45.6477 21.1397 45.788 21.1216C46.0685 21.0853 46.35 21.0539 46.6324 21.0357C46.9149 21.0176 47.1935 21.0004 47.4769 21.0004C48.6222 20.9898 49.7605 21.181 50.8395 21.5653C51.1086 21.6634 51.3723 21.7755 51.6296 21.9012C51.8872 22.0255 52.1381 22.1631 52.3815 22.3134C52.8642 22.6145 53.315 22.9639 53.7269 23.3563C54.1365 23.7461 54.5066 24.1753 54.8319 24.6377C54.9945 24.8679 55.1455 25.1061 55.2842 25.3515C55.3529 25.4742 55.4187 25.5992 55.4817 25.7265C55.5447 25.8553 55.6019 25.9793 55.6582 26.1244C55.6822 26.1933 55.6789 26.2687 55.6491 26.3353C55.6192 26.4019 55.5651 26.4545 55.4977 26.4826C55.4304 26.5106 55.3549 26.5118 55.2866 26.486C55.2184 26.4602 55.1626 26.4094 55.1306 26.3438L55.1267 26.3371Z" fill="#A75425"/>
<g style="mix-blend-mode:darken" opacity="0.2">
<path d="M64.8593 66.506C63.325 61.8553 58.6408 59.4976 50.9375 59.4976C50.7104 59.4976 50.4757 59.4976 50.2381 59.5042C50.0005 59.5109 49.761 59.4976 49.5377 59.4976C41.8344 59.4976 37.1502 61.8553 35.6168 66.506C35.2692 67.4541 35.085 68.4542 35.0719 69.4639C35.0719 69.6767 35.0719 69.899 35.0719 70.1614C35.0562 71.2501 35.1541 72.3373 35.3639 73.4056C35.5889 74.7126 36.0009 75.9804 36.5872 77.1699C40.4222 77.7758 44.8191 77.9523 49.7667 77.9523C54.5606 77.9523 59.5349 77.8616 63.8421 77.2643C64.4556 76.0484 64.8846 74.7479 65.1151 73.4056C65.3249 72.3373 65.4228 71.2501 65.407 70.1614C65.407 69.9 65.407 69.6777 65.407 69.4639C65.3926 68.4541 65.2074 67.454 64.8593 66.506V66.506Z" fill="#262262"/>
</g>
<path d="M64.1188 69.5006C64.1188 69.2869 64.1188 69.0712 64.1188 68.8517C64.1077 67.9612 63.9427 67.0793 63.6312 66.2449C62.1503 61.7947 57.3888 60.0142 50.8449 60.0142C50.6206 60.0142 50.3964 60.0142 50.1769 60.0208C49.9575 60.0275 49.7304 60.0142 49.509 60.0142C42.966 60.0142 38.2045 61.7947 36.7226 66.2449C36.4115 67.0793 36.2468 67.9613 36.236 68.8517C36.2312 69.0712 36.2312 69.2869 36.236 69.5006C36.2201 70.4933 36.3103 71.485 36.5051 72.4585C37.7913 79.4994 43.5089 82.0003 50.1721 82.0003H50.1874C56.8516 82.0003 62.5682 79.4956 63.8554 72.4585C64.0474 71.4846 64.1357 70.4931 64.1188 69.5006V69.5006Z" fill="#FFD07B"/>
<path d="M64.1188 69.5006C64.1188 69.2869 64.1188 69.0712 64.1188 68.8517C64.1077 67.9612 63.9427 67.0793 63.6312 66.2449C62.1503 61.7947 57.3888 60.0142 50.8449 60.0142C50.6206 60.0142 50.3964 60.0142 50.1769 60.0208C49.9575 60.0275 49.7304 60.0142 49.509 60.0142C42.966 60.0142 38.2045 61.7947 36.7226 66.2449C36.4115 67.0793 36.2468 67.9613 36.236 68.8517C36.2312 69.0712 36.2312 69.2869 36.236 69.5006C36.2201 70.4933 36.3103 71.485 36.5051 72.4585C37.7913 79.4994 43.5089 82.0003 50.1721 82.0003H50.1874C56.8516 82.0003 62.5682 79.4956 63.8554 72.4585C64.0474 71.4846 64.1357 70.4931 64.1188 69.5006V69.5006Z" stroke="#A75425" stroke-width="1.0357" stroke-miterlimit="10"/>
<g style="mix-blend-mode:darken" opacity="0.2">
<path d="M50.0858 69.0023C46.2804 69.0023 43.8767 67.7332 42.5304 66.6684C40.9521 65.4203 39.9712 63.7524 39.9712 62.3154C39.9712 61.4633 41.0094 60.8164 43.143 60.3384C45.0018 59.9214 47.4674 59.6924 50.0858 59.6924C52.7041 59.6924 55.1688 59.9214 57.0276 60.3384C59.1621 60.8154 60.1994 61.4633 60.1994 62.3154C60.1994 63.7543 59.2051 65.427 57.603 66.6808C56.2499 67.7399 53.8472 69.0023 50.0858 69.0023Z" fill="#262262"/>
</g>
<path d="M59.6864 61.9022C59.6864 64.2332 56.487 68.0776 50.0881 68.0776C43.5937 68.0776 40.4888 64.2046 40.4888 61.9022C40.4888 60.7142 44.7827 59.7505 50.0881 59.7505C55.3934 59.7505 59.6864 60.7142 59.6864 61.9022Z" fill="#F9AD86"/>
<path d="M57.7596 65.0034C54.9065 65.0034 52.875 66.323 53.4952 67.0978C54.0353 67.7715 58.5449 65.0034 57.7596 65.0034Z" fill="#CD683F"/>
<path d="M42.5538 65.1128C45.2427 65.1128 47.2351 66.4353 46.6511 67.1652C46.1445 67.8007 41.8152 65.1128 42.5538 65.1128Z" fill="#CD683F"/>
<path d="M59.6864 61.9022C59.6864 64.2332 56.487 68.0776 50.0881 68.0776C43.5937 68.0776 40.4888 64.2046 40.4888 61.9022C40.4888 60.7142 44.7827 59.7505 50.0881 59.7505C55.3934 59.7505 59.6864 60.7142 59.6864 61.9022Z" stroke="#A75425" stroke-width="0.799887" stroke-miterlimit="10"/>
<g style="mix-blend-mode:darken" opacity="0.2">
<path d="M50.0829 79.2054C46.7213 79.2054 43.9131 78.3705 41.9608 76.7894C40.0419 75.2303 39.0228 73.0433 39.0228 70.4584C39.0163 70.3466 39.0342 70.2348 39.075 70.1305C39.1159 70.0263 39.1788 69.9321 39.2594 69.8544C39.324 69.7977 39.4 69.7555 39.4824 69.7309C39.5647 69.7062 39.6514 69.6995 39.7365 69.7113C39.788 69.717 44.9302 70.3506 50.0801 70.3506C55.2299 70.3506 60.3674 69.718 60.4227 69.7113C60.5078 69.6994 60.5945 69.7061 60.6769 69.7308C60.7592 69.7555 60.8353 69.7976 60.8998 69.8544C60.9804 69.9321 61.0433 70.0263 61.0842 70.1305C61.125 70.2348 61.1429 70.3466 61.1364 70.4584C61.1364 73.0815 60.1765 75.2675 58.3607 76.7817C56.4351 78.3876 53.6498 79.2054 50.0829 79.2054Z" fill="#262262"/>
</g>
<path d="M60.5085 69.4436C59.8606 69.5247 54.9856 70.0867 50.1077 70.0867C45.2298 70.0867 40.3586 69.5247 39.7068 69.4436C39.5494 69.4236 39.4902 69.5839 39.4902 69.7537C39.4902 74.6429 43.3404 78.055 50.1048 78.055C57.2775 78.055 60.7194 74.642 60.7194 69.7537C60.726 69.5839 60.6669 69.4236 60.5085 69.4436Z" fill="#D95936"/>
<g style="mix-blend-mode:multiply">
<path style="mix-blend-mode:multiply" d="M60.5085 69.4436C59.8606 69.5247 54.9856 70.0867 50.1077 70.0867C45.2298 70.0867 40.3586 69.5247 39.7068 69.4436C39.5494 69.4236 39.4902 69.5839 39.4902 69.7537C39.4902 74.6429 43.3404 78.055 50.1048 78.055C57.2775 78.055 60.7194 74.642 60.7194 69.7537C60.726 69.5839 60.6669 69.4236 60.5085 69.4436Z" fill="url(#paint5_linear)"/>
</g>
<path d="M41.3022 69.6157C41.6906 70.4745 42.4349 71.7531 43.4444 71.7531C44.0933 71.7531 44.3385 70.7436 44.4292 69.8762C43.2021 69.7922 42.1229 69.6959 41.3022 69.6157Z" fill="white"/>
<path d="M55.5308 69.8935C55.6262 70.7571 55.8695 71.7532 56.5145 71.7532C57.5136 71.7532 58.2522 70.5052 58.6443 69.6426C57.7999 69.7227 56.7302 69.8143 55.5308 69.8935Z" fill="white"/>
<path d="M60.5085 69.4436C59.8606 69.5247 54.9856 70.0867 50.1077 70.0867C45.2298 70.0867 40.3586 69.5247 39.7068 69.4436C39.5494 69.4236 39.4902 69.5839 39.4902 69.7537C39.4902 74.6429 43.3404 78.055 50.1048 78.055C57.2775 78.055 60.7194 74.642 60.7194 69.7537C60.726 69.5839 60.6669 69.4236 60.5085 69.4436Z" stroke="#462314" stroke-width="0.852377" stroke-linecap="round" stroke-linejoin="round"/>
<path d="M30.9222 56.4005C31.2695 60.2993 32.593 53.1907 34.9728 52.9788C37.3526 52.767 39.8888 59.5312 39.5415 55.6315C39.1942 51.7317 36.9823 48.7433 34.6026 48.9522C32.2228 49.1612 30.5749 52.497 30.9222 56.3948" fill="#603913"/>
<path d="M30.9222 56.4005C31.2695 60.2993 32.593 53.1907 34.9728 52.9788C37.3526 52.767 39.8888 59.5312 39.5415 55.6315C39.1942 51.7317 36.9823 48.7433 34.6026 48.9522C32.2228 49.1612 30.5749 52.497 30.9222 56.3948" fill="url(#paint6_linear)"/>
<path d="M30.9222 56.4005C31.2695 60.2993 32.593 53.1907 34.9728 52.9788C37.3526 52.767 39.8888 59.5312 39.5415 55.6315C39.1942 51.7317 36.9823 48.7433 34.6026 48.9522C32.2228 49.1612 30.5749 52.497 30.9222 56.3948" stroke="#462314" stroke-width="0.488863" stroke-linecap="round" stroke-linejoin="round"/>
<path d="M69.3023 56.4005C68.9549 60.2993 67.6315 53.1907 65.2517 52.9788C62.8719 52.767 60.3356 59.5312 60.683 55.6315C61.0303 51.7317 63.2421 48.7433 65.6219 48.9522C68.0017 49.1612 69.6496 52.497 69.3023 56.3948" fill="#603913"/>
<path d="M69.3023 56.4005C68.9549 60.2993 67.6315 53.1907 65.2517 52.9788C62.8719 52.767 60.3356 59.5312 60.683 55.6315C61.0303 51.7317 63.2421 48.7433 65.6219 48.9522C68.0017 49.1612 69.6496 52.497 69.3023 56.3948" fill="url(#paint7_linear)"/>
<path d="M69.3023 56.4005C68.9549 60.2993 67.6315 53.1907 65.2517 52.9788C62.8719 52.767 60.3356 59.5312 60.683 55.6315C61.0303 51.7317 63.2421 48.7433 65.6219 48.9522C68.0017 49.1612 69.6496 52.497 69.3023 56.3948" stroke="#462314" stroke-width="0.488863" stroke-linecap="round" stroke-linejoin="round"/>
<g style="mix-blend-mode:darken" opacity="0.2">
<path d="M38.8878 42.3488C37.6521 39.762 35.7504 37.7363 32.8429 37.7363C29.7036 37.7363 27.0099 39.3145 25.8467 42.2696C25.8228 42.3316 26.0967 42.2944 26.0738 42.3574C27.5137 39.8365 29.9335 38.7926 32.5681 38.7926C35.3467 38.7926 37.549 40.0731 38.8878 42.3488Z" fill="#262262"/>
<path d="M38.8878 42.3488C37.6521 39.762 35.7504 37.7363 32.8429 37.7363C29.7036 37.7363 27.0099 39.3145 25.8467 42.2696C25.8228 42.3316 26.0967 42.2944 26.0738 42.3574C27.5137 39.8365 29.9335 38.7926 32.5681 38.7926C35.3467 38.7926 37.549 40.0731 38.8878 42.3488Z" stroke="#262262" stroke-width="0.162954" stroke-linecap="round" stroke-linejoin="round"/>
</g>
<path d="M32.5675 38.1595C29.933 38.1595 27.3452 39.7998 25.9062 42.3198C27.0122 39.2254 29.7154 37.0718 32.5599 37.0718C35.6601 37.0718 38.0552 39.5641 39.0485 42.2959C37.7241 39.9811 35.3805 38.1595 32.5675 38.1595Z" fill="#462314" stroke="#462314" stroke-width="0.244432" stroke-linecap="round" stroke-linejoin="round"/>
<g style="mix-blend-mode:darken" opacity="0.2">
<path d="M61.3364 42.3488C62.5721 39.762 64.4738 37.7363 67.3813 37.7363C70.5197 37.7363 73.2144 39.3145 74.3766 42.2696C74.4004 42.3316 74.1275 42.2944 74.1504 42.3574C72.7105 39.8365 70.2907 38.7926 67.6552 38.7926C64.8822 38.7926 62.6742 40.0731 61.3364 42.3488Z" fill="#262262"/>
<path d="M61.3364 42.3488C62.5721 39.762 64.4738 37.7363 67.3813 37.7363C70.5197 37.7363 73.2144 39.3145 74.3766 42.2696C74.4004 42.3316 74.1275 42.2944 74.1504 42.3574C72.7105 39.8365 70.2907 38.7926 67.6552 38.7926C64.8822 38.7926 62.6742 40.0731 61.3364 42.3488Z" stroke="#262262" stroke-width="0.162954" stroke-linecap="round" stroke-linejoin="round"/>
</g>
<path d="M67.6553 38.1595C70.2908 38.1595 72.8776 39.7998 74.3175 42.3198C73.2116 39.2254 70.5084 37.0718 67.6639 37.0718C64.5637 37.0718 62.1686 39.5641 61.1753 42.2959C62.4969 39.9811 64.8432 38.1595 67.6553 38.1595Z" fill="#462314" stroke="#462314" stroke-width="0.244432" stroke-linecap="round" stroke-linejoin="round"/>
<defs>
<radialGradient id="paint0_radial" cx="0" cy="0" r="1" gradientUnits="userSpaceOnUse" gradientTransform="translate(75.0049 42.7597) rotate(180) scale(15.2816 15.2811)">
<stop stop-color="#933F22"/>
<stop offset="1" stop-color="#933F22" stop-opacity="0"/>
</radialGradient>
<radialGradient id="paint1_radial" cx="0" cy="0" r="1" gradientUnits="userSpaceOnUse" gradientTransform="translate(79.5444 42.1656) scale(10.2405 10.2402)">
<stop stop-color="#262262"/>
<stop offset="1" stop-color="#262262" stop-opacity="0.5"/>
</radialGradient>
<radialGradient id="paint2_radial" cx="0" cy="0" r="1" gradientUnits="userSpaceOnUse" gradientTransform="translate(85665.9 5109.36) scale(3331.99 3565.39)">
<stop stop-color="#933F22"/>
<stop offset="1" stop-color="#933F22" stop-opacity="0"/>
</radialGradient>
<radialGradient id="paint3_radial" cx="0" cy="0" r="1" gradientUnits="userSpaceOnUse" gradientTransform="translate(22735.6 4461.87) rotate(180) scale(2248.98 2145.94)">
<stop stop-color="#262262"/>
<stop offset="1" stop-color="#262262" stop-opacity="0.5"/>
</radialGradient>
<linearGradient id="paint4_linear" x1="50.1492" y1="70.2261" x2="50.1492" y2="29.5486" gradientUnits="userSpaceOnUse">
<stop stop-color="#EEB310" stop-opacity="0"/>
<stop offset="1" stop-color="#EEB310"/>
</linearGradient>
<linearGradient id="paint5_linear" x1="50.1115" y1="77.6953" x2="50.1115" y2="69.8224" gradientUnits="userSpaceOnUse">
<stop stop-color="#671E5D" stop-opacity="0"/>
<stop offset="1" stop-color="#671E5D"/>
</linearGradient>
<linearGradient id="paint6_linear" x1="35.2247" y1="58.8785" x2="35.2247" y2="49.2871" gradientUnits="userSpaceOnUse">
<stop stop-color="#603913" stop-opacity="0"/>
<stop offset="1" stop-color="#3C2415"/>
</linearGradient>
<linearGradient id="paint7_linear" x1="4210.93" y1="3472.74" x2="4210.93" y2="2605.77" gradientUnits="userSpaceOnUse">
<stop stop-color="#603913" stop-opacity="0"/>
<stop offset="1" stop-color="#3C2415"/>
</linearGradient>
</defs>
</svg>
